%TF.GenerationSoftware,KiCad,Pcbnew,9.0.2*%
%TF.CreationDate,2025-06-08T07:26:58-06:00*%
%TF.ProjectId,Pico_H-bridge_complete,5069636f-5f48-42d6-9272-696467655f63,rev?*%
%TF.SameCoordinates,Original*%
%TF.FileFunction,Legend,Bot*%
%TF.FilePolarity,Positive*%
%FSLAX46Y46*%
G04 Gerber Fmt 4.6, Leading zero omitted, Abs format (unit mm)*
G04 Created by KiCad (PCBNEW 9.0.2) date 2025-06-08 07:26:58*
%MOMM*%
%LPD*%
G01*
G04 APERTURE LIST*
G04 Aperture macros list*
%AMRoundRect*
0 Rectangle with rounded corners*
0 $1 Rounding radius*
0 $2 $3 $4 $5 $6 $7 $8 $9 X,Y pos of 4 corners*
0 Add a 4 corners polygon primitive as box body*
4,1,4,$2,$3,$4,$5,$6,$7,$8,$9,$2,$3,0*
0 Add four circle primitives for the rounded corners*
1,1,$1+$1,$2,$3*
1,1,$1+$1,$4,$5*
1,1,$1+$1,$6,$7*
1,1,$1+$1,$8,$9*
0 Add four rect primitives between the rounded corners*
20,1,$1+$1,$2,$3,$4,$5,0*
20,1,$1+$1,$4,$5,$6,$7,0*
20,1,$1+$1,$6,$7,$8,$9,0*
20,1,$1+$1,$8,$9,$2,$3,0*%
%AMFreePoly0*
4,1,37,0.603843,0.796157,0.639018,0.796157,0.711114,0.766294,0.766294,0.711114,0.796157,0.639018,0.796157,0.603843,0.800000,0.600000,0.800000,-0.600000,0.796157,-0.603843,0.796157,-0.639018,0.766294,-0.711114,0.711114,-0.766294,0.639018,-0.796157,0.603843,-0.796157,0.600000,-0.800000,0.000000,-0.800000,0.000000,-0.796148,-0.078414,-0.796148,-0.232228,-0.765552,-0.377117,-0.705537,
-0.507515,-0.618408,-0.618408,-0.507515,-0.705537,-0.377117,-0.765552,-0.232228,-0.796148,-0.078414,-0.796148,0.078414,-0.765552,0.232228,-0.705537,0.377117,-0.618408,0.507515,-0.507515,0.618408,-0.377117,0.705537,-0.232228,0.765552,-0.078414,0.796148,0.000000,0.796148,0.000000,0.800000,0.600000,0.800000,0.603843,0.796157,0.603843,0.796157,$1*%
%AMFreePoly1*
4,1,37,0.000000,0.796148,0.078414,0.796148,0.232228,0.765552,0.377117,0.705537,0.507515,0.618408,0.618408,0.507515,0.705537,0.377117,0.765552,0.232228,0.796148,0.078414,0.796148,-0.078414,0.765552,-0.232228,0.705537,-0.377117,0.618408,-0.507515,0.507515,-0.618408,0.377117,-0.705537,0.232228,-0.765552,0.078414,-0.796148,0.000000,-0.796148,0.000000,-0.800000,-0.600000,-0.800000,
-0.603843,-0.796157,-0.639018,-0.796157,-0.711114,-0.766294,-0.766294,-0.711114,-0.796157,-0.639018,-0.796157,-0.603843,-0.800000,-0.600000,-0.800000,0.600000,-0.796157,0.603843,-0.796157,0.639018,-0.766294,0.711114,-0.711114,0.766294,-0.639018,0.796157,-0.603843,0.796157,-0.600000,0.800000,0.000000,0.800000,0.000000,0.796148,0.000000,0.796148,$1*%
G04 Aperture macros list end*
%ADD10C,0.100000*%
%ADD11C,0.300000*%
%ADD12C,0.000000*%
%ADD13C,2.200000*%
%ADD14C,1.850000*%
%ADD15RoundRect,0.200000X-0.600000X-0.600000X0.600000X-0.600000X0.600000X0.600000X-0.600000X0.600000X0*%
%ADD16C,1.600000*%
%ADD17FreePoly0,0.000000*%
%ADD18FreePoly1,0.000000*%
%ADD19C,2.000000*%
%ADD20RoundRect,0.250000X-0.725000X0.600000X-0.725000X-0.600000X0.725000X-0.600000X0.725000X0.600000X0*%
%ADD21O,1.950000X1.700000*%
%ADD22RoundRect,0.250000X-1.050000X-1.050000X1.050000X-1.050000X1.050000X1.050000X-1.050000X1.050000X0*%
%ADD23C,2.600000*%
%ADD24RoundRect,0.250000X1.050000X-1.050000X1.050000X1.050000X-1.050000X1.050000X-1.050000X-1.050000X0*%
%ADD25R,1.700000X1.700000*%
%ADD26C,1.700000*%
G04 APERTURE END LIST*
D10*
X91423884Y-118197468D02*
X91423884Y-119197468D01*
X91423884Y-119197468D02*
X91804836Y-119197468D01*
X91804836Y-119197468D02*
X91900074Y-119149849D01*
X91900074Y-119149849D02*
X91947693Y-119102230D01*
X91947693Y-119102230D02*
X91995312Y-119006992D01*
X91995312Y-119006992D02*
X91995312Y-118864135D01*
X91995312Y-118864135D02*
X91947693Y-118768897D01*
X91947693Y-118768897D02*
X91900074Y-118721278D01*
X91900074Y-118721278D02*
X91804836Y-118673659D01*
X91804836Y-118673659D02*
X91423884Y-118673659D01*
X92900074Y-118197468D02*
X92423884Y-118197468D01*
X92423884Y-118197468D02*
X92423884Y-119197468D01*
X93804836Y-118292707D02*
X93757217Y-118245088D01*
X93757217Y-118245088D02*
X93614360Y-118197468D01*
X93614360Y-118197468D02*
X93519122Y-118197468D01*
X93519122Y-118197468D02*
X93376265Y-118245088D01*
X93376265Y-118245088D02*
X93281027Y-118340326D01*
X93281027Y-118340326D02*
X93233408Y-118435564D01*
X93233408Y-118435564D02*
X93185789Y-118626040D01*
X93185789Y-118626040D02*
X93185789Y-118768897D01*
X93185789Y-118768897D02*
X93233408Y-118959373D01*
X93233408Y-118959373D02*
X93281027Y-119054611D01*
X93281027Y-119054611D02*
X93376265Y-119149849D01*
X93376265Y-119149849D02*
X93519122Y-119197468D01*
X93519122Y-119197468D02*
X93614360Y-119197468D01*
X93614360Y-119197468D02*
X93757217Y-119149849D01*
X93757217Y-119149849D02*
X93804836Y-119102230D01*
X94995313Y-118197468D02*
X94995313Y-119197468D01*
X94995313Y-119197468D02*
X95328646Y-118483183D01*
X95328646Y-118483183D02*
X95661979Y-119197468D01*
X95661979Y-119197468D02*
X95661979Y-118197468D01*
X96281027Y-118197468D02*
X96185789Y-118245088D01*
X96185789Y-118245088D02*
X96138170Y-118292707D01*
X96138170Y-118292707D02*
X96090551Y-118387945D01*
X96090551Y-118387945D02*
X96090551Y-118673659D01*
X96090551Y-118673659D02*
X96138170Y-118768897D01*
X96138170Y-118768897D02*
X96185789Y-118816516D01*
X96185789Y-118816516D02*
X96281027Y-118864135D01*
X96281027Y-118864135D02*
X96423884Y-118864135D01*
X96423884Y-118864135D02*
X96519122Y-118816516D01*
X96519122Y-118816516D02*
X96566741Y-118768897D01*
X96566741Y-118768897D02*
X96614360Y-118673659D01*
X96614360Y-118673659D02*
X96614360Y-118387945D01*
X96614360Y-118387945D02*
X96566741Y-118292707D01*
X96566741Y-118292707D02*
X96519122Y-118245088D01*
X96519122Y-118245088D02*
X96423884Y-118197468D01*
X96423884Y-118197468D02*
X96281027Y-118197468D01*
X96900075Y-118864135D02*
X97281027Y-118864135D01*
X97042932Y-119197468D02*
X97042932Y-118340326D01*
X97042932Y-118340326D02*
X97090551Y-118245088D01*
X97090551Y-118245088D02*
X97185789Y-118197468D01*
X97185789Y-118197468D02*
X97281027Y-118197468D01*
X97757218Y-118197468D02*
X97661980Y-118245088D01*
X97661980Y-118245088D02*
X97614361Y-118292707D01*
X97614361Y-118292707D02*
X97566742Y-118387945D01*
X97566742Y-118387945D02*
X97566742Y-118673659D01*
X97566742Y-118673659D02*
X97614361Y-118768897D01*
X97614361Y-118768897D02*
X97661980Y-118816516D01*
X97661980Y-118816516D02*
X97757218Y-118864135D01*
X97757218Y-118864135D02*
X97900075Y-118864135D01*
X97900075Y-118864135D02*
X97995313Y-118816516D01*
X97995313Y-118816516D02*
X98042932Y-118768897D01*
X98042932Y-118768897D02*
X98090551Y-118673659D01*
X98090551Y-118673659D02*
X98090551Y-118387945D01*
X98090551Y-118387945D02*
X98042932Y-118292707D01*
X98042932Y-118292707D02*
X97995313Y-118245088D01*
X97995313Y-118245088D02*
X97900075Y-118197468D01*
X97900075Y-118197468D02*
X97757218Y-118197468D01*
X98519123Y-118197468D02*
X98519123Y-118864135D01*
X98519123Y-118673659D02*
X98566742Y-118768897D01*
X98566742Y-118768897D02*
X98614361Y-118816516D01*
X98614361Y-118816516D02*
X98709599Y-118864135D01*
X98709599Y-118864135D02*
X98804837Y-118864135D01*
X99900076Y-118197468D02*
X99900076Y-119197468D01*
X100376266Y-118864135D02*
X100376266Y-118197468D01*
X100376266Y-118768897D02*
X100423885Y-118816516D01*
X100423885Y-118816516D02*
X100519123Y-118864135D01*
X100519123Y-118864135D02*
X100661980Y-118864135D01*
X100661980Y-118864135D02*
X100757218Y-118816516D01*
X100757218Y-118816516D02*
X100804837Y-118721278D01*
X100804837Y-118721278D02*
X100804837Y-118197468D01*
X101138171Y-118864135D02*
X101519123Y-118864135D01*
X101281028Y-119197468D02*
X101281028Y-118340326D01*
X101281028Y-118340326D02*
X101328647Y-118245088D01*
X101328647Y-118245088D02*
X101423885Y-118197468D01*
X101423885Y-118197468D02*
X101519123Y-118197468D01*
X102233409Y-118245088D02*
X102138171Y-118197468D01*
X102138171Y-118197468D02*
X101947695Y-118197468D01*
X101947695Y-118197468D02*
X101852457Y-118245088D01*
X101852457Y-118245088D02*
X101804838Y-118340326D01*
X101804838Y-118340326D02*
X101804838Y-118721278D01*
X101804838Y-118721278D02*
X101852457Y-118816516D01*
X101852457Y-118816516D02*
X101947695Y-118864135D01*
X101947695Y-118864135D02*
X102138171Y-118864135D01*
X102138171Y-118864135D02*
X102233409Y-118816516D01*
X102233409Y-118816516D02*
X102281028Y-118721278D01*
X102281028Y-118721278D02*
X102281028Y-118626040D01*
X102281028Y-118626040D02*
X101804838Y-118530802D01*
X102709600Y-118197468D02*
X102709600Y-118864135D01*
X102709600Y-118673659D02*
X102757219Y-118768897D01*
X102757219Y-118768897D02*
X102804838Y-118816516D01*
X102804838Y-118816516D02*
X102900076Y-118864135D01*
X102900076Y-118864135D02*
X102995314Y-118864135D01*
X103185791Y-118864135D02*
X103566743Y-118864135D01*
X103328648Y-118197468D02*
X103328648Y-119054611D01*
X103328648Y-119054611D02*
X103376267Y-119149849D01*
X103376267Y-119149849D02*
X103471505Y-119197468D01*
X103471505Y-119197468D02*
X103566743Y-119197468D01*
X104328648Y-118197468D02*
X104328648Y-118721278D01*
X104328648Y-118721278D02*
X104281029Y-118816516D01*
X104281029Y-118816516D02*
X104185791Y-118864135D01*
X104185791Y-118864135D02*
X103995315Y-118864135D01*
X103995315Y-118864135D02*
X103900077Y-118816516D01*
X104328648Y-118245088D02*
X104233410Y-118197468D01*
X104233410Y-118197468D02*
X103995315Y-118197468D01*
X103995315Y-118197468D02*
X103900077Y-118245088D01*
X103900077Y-118245088D02*
X103852458Y-118340326D01*
X103852458Y-118340326D02*
X103852458Y-118435564D01*
X103852458Y-118435564D02*
X103900077Y-118530802D01*
X103900077Y-118530802D02*
X103995315Y-118578421D01*
X103995315Y-118578421D02*
X104233410Y-118578421D01*
X104233410Y-118578421D02*
X104328648Y-118626040D01*
X105233410Y-118245088D02*
X105138172Y-118197468D01*
X105138172Y-118197468D02*
X104947696Y-118197468D01*
X104947696Y-118197468D02*
X104852458Y-118245088D01*
X104852458Y-118245088D02*
X104804839Y-118292707D01*
X104804839Y-118292707D02*
X104757220Y-118387945D01*
X104757220Y-118387945D02*
X104757220Y-118673659D01*
X104757220Y-118673659D02*
X104804839Y-118768897D01*
X104804839Y-118768897D02*
X104852458Y-118816516D01*
X104852458Y-118816516D02*
X104947696Y-118864135D01*
X104947696Y-118864135D02*
X105138172Y-118864135D01*
X105138172Y-118864135D02*
X105233410Y-118816516D01*
X106042934Y-118245088D02*
X105947696Y-118197468D01*
X105947696Y-118197468D02*
X105757220Y-118197468D01*
X105757220Y-118197468D02*
X105661982Y-118245088D01*
X105661982Y-118245088D02*
X105614363Y-118340326D01*
X105614363Y-118340326D02*
X105614363Y-118721278D01*
X105614363Y-118721278D02*
X105661982Y-118816516D01*
X105661982Y-118816516D02*
X105757220Y-118864135D01*
X105757220Y-118864135D02*
X105947696Y-118864135D01*
X105947696Y-118864135D02*
X106042934Y-118816516D01*
X106042934Y-118816516D02*
X106090553Y-118721278D01*
X106090553Y-118721278D02*
X106090553Y-118626040D01*
X106090553Y-118626040D02*
X105614363Y-118530802D01*
X107614363Y-118721278D02*
X107757220Y-118673659D01*
X107757220Y-118673659D02*
X107804839Y-118626040D01*
X107804839Y-118626040D02*
X107852458Y-118530802D01*
X107852458Y-118530802D02*
X107852458Y-118387945D01*
X107852458Y-118387945D02*
X107804839Y-118292707D01*
X107804839Y-118292707D02*
X107757220Y-118245088D01*
X107757220Y-118245088D02*
X107661982Y-118197468D01*
X107661982Y-118197468D02*
X107281030Y-118197468D01*
X107281030Y-118197468D02*
X107281030Y-119197468D01*
X107281030Y-119197468D02*
X107614363Y-119197468D01*
X107614363Y-119197468D02*
X107709601Y-119149849D01*
X107709601Y-119149849D02*
X107757220Y-119102230D01*
X107757220Y-119102230D02*
X107804839Y-119006992D01*
X107804839Y-119006992D02*
X107804839Y-118911754D01*
X107804839Y-118911754D02*
X107757220Y-118816516D01*
X107757220Y-118816516D02*
X107709601Y-118768897D01*
X107709601Y-118768897D02*
X107614363Y-118721278D01*
X107614363Y-118721278D02*
X107281030Y-118721278D01*
X108423887Y-118197468D02*
X108328649Y-118245088D01*
X108328649Y-118245088D02*
X108281030Y-118292707D01*
X108281030Y-118292707D02*
X108233411Y-118387945D01*
X108233411Y-118387945D02*
X108233411Y-118673659D01*
X108233411Y-118673659D02*
X108281030Y-118768897D01*
X108281030Y-118768897D02*
X108328649Y-118816516D01*
X108328649Y-118816516D02*
X108423887Y-118864135D01*
X108423887Y-118864135D02*
X108566744Y-118864135D01*
X108566744Y-118864135D02*
X108661982Y-118816516D01*
X108661982Y-118816516D02*
X108709601Y-118768897D01*
X108709601Y-118768897D02*
X108757220Y-118673659D01*
X108757220Y-118673659D02*
X108757220Y-118387945D01*
X108757220Y-118387945D02*
X108709601Y-118292707D01*
X108709601Y-118292707D02*
X108661982Y-118245088D01*
X108661982Y-118245088D02*
X108566744Y-118197468D01*
X108566744Y-118197468D02*
X108423887Y-118197468D01*
X109614363Y-118197468D02*
X109614363Y-118721278D01*
X109614363Y-118721278D02*
X109566744Y-118816516D01*
X109566744Y-118816516D02*
X109471506Y-118864135D01*
X109471506Y-118864135D02*
X109281030Y-118864135D01*
X109281030Y-118864135D02*
X109185792Y-118816516D01*
X109614363Y-118245088D02*
X109519125Y-118197468D01*
X109519125Y-118197468D02*
X109281030Y-118197468D01*
X109281030Y-118197468D02*
X109185792Y-118245088D01*
X109185792Y-118245088D02*
X109138173Y-118340326D01*
X109138173Y-118340326D02*
X109138173Y-118435564D01*
X109138173Y-118435564D02*
X109185792Y-118530802D01*
X109185792Y-118530802D02*
X109281030Y-118578421D01*
X109281030Y-118578421D02*
X109519125Y-118578421D01*
X109519125Y-118578421D02*
X109614363Y-118626040D01*
X110090554Y-118197468D02*
X110090554Y-118864135D01*
X110090554Y-118673659D02*
X110138173Y-118768897D01*
X110138173Y-118768897D02*
X110185792Y-118816516D01*
X110185792Y-118816516D02*
X110281030Y-118864135D01*
X110281030Y-118864135D02*
X110376268Y-118864135D01*
X111138173Y-118197468D02*
X111138173Y-119197468D01*
X111138173Y-118245088D02*
X111042935Y-118197468D01*
X111042935Y-118197468D02*
X110852459Y-118197468D01*
X110852459Y-118197468D02*
X110757221Y-118245088D01*
X110757221Y-118245088D02*
X110709602Y-118292707D01*
X110709602Y-118292707D02*
X110661983Y-118387945D01*
X110661983Y-118387945D02*
X110661983Y-118673659D01*
X110661983Y-118673659D02*
X110709602Y-118768897D01*
X110709602Y-118768897D02*
X110757221Y-118816516D01*
X110757221Y-118816516D02*
X110852459Y-118864135D01*
X110852459Y-118864135D02*
X111042935Y-118864135D01*
X111042935Y-118864135D02*
X111138173Y-118816516D01*
X91376265Y-116873239D02*
X91852455Y-116873239D01*
X91281027Y-116587524D02*
X91614360Y-117587524D01*
X91614360Y-117587524D02*
X91947693Y-116587524D01*
X92281027Y-117254191D02*
X92281027Y-116587524D01*
X92281027Y-117158953D02*
X92328646Y-117206572D01*
X92328646Y-117206572D02*
X92423884Y-117254191D01*
X92423884Y-117254191D02*
X92566741Y-117254191D01*
X92566741Y-117254191D02*
X92661979Y-117206572D01*
X92661979Y-117206572D02*
X92709598Y-117111334D01*
X92709598Y-117111334D02*
X92709598Y-116587524D01*
X93614360Y-116587524D02*
X93614360Y-117587524D01*
X93614360Y-116635144D02*
X93519122Y-116587524D01*
X93519122Y-116587524D02*
X93328646Y-116587524D01*
X93328646Y-116587524D02*
X93233408Y-116635144D01*
X93233408Y-116635144D02*
X93185789Y-116682763D01*
X93185789Y-116682763D02*
X93138170Y-116778001D01*
X93138170Y-116778001D02*
X93138170Y-117063715D01*
X93138170Y-117063715D02*
X93185789Y-117158953D01*
X93185789Y-117158953D02*
X93233408Y-117206572D01*
X93233408Y-117206572D02*
X93328646Y-117254191D01*
X93328646Y-117254191D02*
X93519122Y-117254191D01*
X93519122Y-117254191D02*
X93614360Y-117206572D01*
X94471503Y-116635144D02*
X94376265Y-116587524D01*
X94376265Y-116587524D02*
X94185789Y-116587524D01*
X94185789Y-116587524D02*
X94090551Y-116635144D01*
X94090551Y-116635144D02*
X94042932Y-116730382D01*
X94042932Y-116730382D02*
X94042932Y-117111334D01*
X94042932Y-117111334D02*
X94090551Y-117206572D01*
X94090551Y-117206572D02*
X94185789Y-117254191D01*
X94185789Y-117254191D02*
X94376265Y-117254191D01*
X94376265Y-117254191D02*
X94471503Y-117206572D01*
X94471503Y-117206572D02*
X94519122Y-117111334D01*
X94519122Y-117111334D02*
X94519122Y-117016096D01*
X94519122Y-117016096D02*
X94042932Y-116920858D01*
X94947694Y-116587524D02*
X94947694Y-117254191D01*
X94947694Y-117063715D02*
X94995313Y-117158953D01*
X94995313Y-117158953D02*
X95042932Y-117206572D01*
X95042932Y-117206572D02*
X95138170Y-117254191D01*
X95138170Y-117254191D02*
X95233408Y-117254191D01*
X95519123Y-116635144D02*
X95614361Y-116587524D01*
X95614361Y-116587524D02*
X95804837Y-116587524D01*
X95804837Y-116587524D02*
X95900075Y-116635144D01*
X95900075Y-116635144D02*
X95947694Y-116730382D01*
X95947694Y-116730382D02*
X95947694Y-116778001D01*
X95947694Y-116778001D02*
X95900075Y-116873239D01*
X95900075Y-116873239D02*
X95804837Y-116920858D01*
X95804837Y-116920858D02*
X95661980Y-116920858D01*
X95661980Y-116920858D02*
X95566742Y-116968477D01*
X95566742Y-116968477D02*
X95519123Y-117063715D01*
X95519123Y-117063715D02*
X95519123Y-117111334D01*
X95519123Y-117111334D02*
X95566742Y-117206572D01*
X95566742Y-117206572D02*
X95661980Y-117254191D01*
X95661980Y-117254191D02*
X95804837Y-117254191D01*
X95804837Y-117254191D02*
X95900075Y-117206572D01*
X96519123Y-116587524D02*
X96423885Y-116635144D01*
X96423885Y-116635144D02*
X96376266Y-116682763D01*
X96376266Y-116682763D02*
X96328647Y-116778001D01*
X96328647Y-116778001D02*
X96328647Y-117063715D01*
X96328647Y-117063715D02*
X96376266Y-117158953D01*
X96376266Y-117158953D02*
X96423885Y-117206572D01*
X96423885Y-117206572D02*
X96519123Y-117254191D01*
X96519123Y-117254191D02*
X96661980Y-117254191D01*
X96661980Y-117254191D02*
X96757218Y-117206572D01*
X96757218Y-117206572D02*
X96804837Y-117158953D01*
X96804837Y-117158953D02*
X96852456Y-117063715D01*
X96852456Y-117063715D02*
X96852456Y-116778001D01*
X96852456Y-116778001D02*
X96804837Y-116682763D01*
X96804837Y-116682763D02*
X96757218Y-116635144D01*
X96757218Y-116635144D02*
X96661980Y-116587524D01*
X96661980Y-116587524D02*
X96519123Y-116587524D01*
X97281028Y-117254191D02*
X97281028Y-116587524D01*
X97281028Y-117158953D02*
X97328647Y-117206572D01*
X97328647Y-117206572D02*
X97423885Y-117254191D01*
X97423885Y-117254191D02*
X97566742Y-117254191D01*
X97566742Y-117254191D02*
X97661980Y-117206572D01*
X97661980Y-117206572D02*
X97709599Y-117111334D01*
X97709599Y-117111334D02*
X97709599Y-116587524D01*
X98947695Y-116968477D02*
X99709600Y-116968477D01*
X100947695Y-116587524D02*
X100947695Y-117254191D01*
X100947695Y-117063715D02*
X100995314Y-117158953D01*
X100995314Y-117158953D02*
X101042933Y-117206572D01*
X101042933Y-117206572D02*
X101138171Y-117254191D01*
X101138171Y-117254191D02*
X101233409Y-117254191D01*
X101947695Y-116635144D02*
X101852457Y-116587524D01*
X101852457Y-116587524D02*
X101661981Y-116587524D01*
X101661981Y-116587524D02*
X101566743Y-116635144D01*
X101566743Y-116635144D02*
X101519124Y-116730382D01*
X101519124Y-116730382D02*
X101519124Y-117111334D01*
X101519124Y-117111334D02*
X101566743Y-117206572D01*
X101566743Y-117206572D02*
X101661981Y-117254191D01*
X101661981Y-117254191D02*
X101852457Y-117254191D01*
X101852457Y-117254191D02*
X101947695Y-117206572D01*
X101947695Y-117206572D02*
X101995314Y-117111334D01*
X101995314Y-117111334D02*
X101995314Y-117016096D01*
X101995314Y-117016096D02*
X101519124Y-116920858D01*
X102328648Y-117254191D02*
X102566743Y-116587524D01*
X102566743Y-116587524D02*
X102804838Y-117254191D01*
X103376267Y-117587524D02*
X103471505Y-117587524D01*
X103471505Y-117587524D02*
X103566743Y-117539905D01*
X103566743Y-117539905D02*
X103614362Y-117492286D01*
X103614362Y-117492286D02*
X103661981Y-117397048D01*
X103661981Y-117397048D02*
X103709600Y-117206572D01*
X103709600Y-117206572D02*
X103709600Y-116968477D01*
X103709600Y-116968477D02*
X103661981Y-116778001D01*
X103661981Y-116778001D02*
X103614362Y-116682763D01*
X103614362Y-116682763D02*
X103566743Y-116635144D01*
X103566743Y-116635144D02*
X103471505Y-116587524D01*
X103471505Y-116587524D02*
X103376267Y-116587524D01*
X103376267Y-116587524D02*
X103281029Y-116635144D01*
X103281029Y-116635144D02*
X103233410Y-116682763D01*
X103233410Y-116682763D02*
X103185791Y-116778001D01*
X103185791Y-116778001D02*
X103138172Y-116968477D01*
X103138172Y-116968477D02*
X103138172Y-117206572D01*
X103138172Y-117206572D02*
X103185791Y-117397048D01*
X103185791Y-117397048D02*
X103233410Y-117492286D01*
X103233410Y-117492286D02*
X103281029Y-117539905D01*
X103281029Y-117539905D02*
X103376267Y-117587524D01*
X91709598Y-115977580D02*
X91709598Y-115263295D01*
X91709598Y-115263295D02*
X91661979Y-115120438D01*
X91661979Y-115120438D02*
X91566741Y-115025200D01*
X91566741Y-115025200D02*
X91423884Y-114977580D01*
X91423884Y-114977580D02*
X91328646Y-114977580D01*
X92614360Y-115644247D02*
X92614360Y-114977580D01*
X92185789Y-115644247D02*
X92185789Y-115120438D01*
X92185789Y-115120438D02*
X92233408Y-115025200D01*
X92233408Y-115025200D02*
X92328646Y-114977580D01*
X92328646Y-114977580D02*
X92471503Y-114977580D01*
X92471503Y-114977580D02*
X92566741Y-115025200D01*
X92566741Y-115025200D02*
X92614360Y-115072819D01*
X93090551Y-115644247D02*
X93090551Y-114977580D01*
X93090551Y-115549009D02*
X93138170Y-115596628D01*
X93138170Y-115596628D02*
X93233408Y-115644247D01*
X93233408Y-115644247D02*
X93376265Y-115644247D01*
X93376265Y-115644247D02*
X93471503Y-115596628D01*
X93471503Y-115596628D02*
X93519122Y-115501390D01*
X93519122Y-115501390D02*
X93519122Y-114977580D01*
X94376265Y-115025200D02*
X94281027Y-114977580D01*
X94281027Y-114977580D02*
X94090551Y-114977580D01*
X94090551Y-114977580D02*
X93995313Y-115025200D01*
X93995313Y-115025200D02*
X93947694Y-115120438D01*
X93947694Y-115120438D02*
X93947694Y-115501390D01*
X93947694Y-115501390D02*
X93995313Y-115596628D01*
X93995313Y-115596628D02*
X94090551Y-115644247D01*
X94090551Y-115644247D02*
X94281027Y-115644247D01*
X94281027Y-115644247D02*
X94376265Y-115596628D01*
X94376265Y-115596628D02*
X94423884Y-115501390D01*
X94423884Y-115501390D02*
X94423884Y-115406152D01*
X94423884Y-115406152D02*
X93947694Y-115310914D01*
X95566742Y-115882342D02*
X95614361Y-115929961D01*
X95614361Y-115929961D02*
X95709599Y-115977580D01*
X95709599Y-115977580D02*
X95947694Y-115977580D01*
X95947694Y-115977580D02*
X96042932Y-115929961D01*
X96042932Y-115929961D02*
X96090551Y-115882342D01*
X96090551Y-115882342D02*
X96138170Y-115787104D01*
X96138170Y-115787104D02*
X96138170Y-115691866D01*
X96138170Y-115691866D02*
X96090551Y-115549009D01*
X96090551Y-115549009D02*
X95519123Y-114977580D01*
X95519123Y-114977580D02*
X96138170Y-114977580D01*
X96757218Y-115977580D02*
X96852456Y-115977580D01*
X96852456Y-115977580D02*
X96947694Y-115929961D01*
X96947694Y-115929961D02*
X96995313Y-115882342D01*
X96995313Y-115882342D02*
X97042932Y-115787104D01*
X97042932Y-115787104D02*
X97090551Y-115596628D01*
X97090551Y-115596628D02*
X97090551Y-115358533D01*
X97090551Y-115358533D02*
X97042932Y-115168057D01*
X97042932Y-115168057D02*
X96995313Y-115072819D01*
X96995313Y-115072819D02*
X96947694Y-115025200D01*
X96947694Y-115025200D02*
X96852456Y-114977580D01*
X96852456Y-114977580D02*
X96757218Y-114977580D01*
X96757218Y-114977580D02*
X96661980Y-115025200D01*
X96661980Y-115025200D02*
X96614361Y-115072819D01*
X96614361Y-115072819D02*
X96566742Y-115168057D01*
X96566742Y-115168057D02*
X96519123Y-115358533D01*
X96519123Y-115358533D02*
X96519123Y-115596628D01*
X96519123Y-115596628D02*
X96566742Y-115787104D01*
X96566742Y-115787104D02*
X96614361Y-115882342D01*
X96614361Y-115882342D02*
X96661980Y-115929961D01*
X96661980Y-115929961D02*
X96757218Y-115977580D01*
X97471504Y-115882342D02*
X97519123Y-115929961D01*
X97519123Y-115929961D02*
X97614361Y-115977580D01*
X97614361Y-115977580D02*
X97852456Y-115977580D01*
X97852456Y-115977580D02*
X97947694Y-115929961D01*
X97947694Y-115929961D02*
X97995313Y-115882342D01*
X97995313Y-115882342D02*
X98042932Y-115787104D01*
X98042932Y-115787104D02*
X98042932Y-115691866D01*
X98042932Y-115691866D02*
X97995313Y-115549009D01*
X97995313Y-115549009D02*
X97423885Y-114977580D01*
X97423885Y-114977580D02*
X98042932Y-114977580D01*
X98947694Y-115977580D02*
X98471504Y-115977580D01*
X98471504Y-115977580D02*
X98423885Y-115501390D01*
X98423885Y-115501390D02*
X98471504Y-115549009D01*
X98471504Y-115549009D02*
X98566742Y-115596628D01*
X98566742Y-115596628D02*
X98804837Y-115596628D01*
X98804837Y-115596628D02*
X98900075Y-115549009D01*
X98900075Y-115549009D02*
X98947694Y-115501390D01*
X98947694Y-115501390D02*
X98995313Y-115406152D01*
X98995313Y-115406152D02*
X98995313Y-115168057D01*
X98995313Y-115168057D02*
X98947694Y-115072819D01*
X98947694Y-115072819D02*
X98900075Y-115025200D01*
X98900075Y-115025200D02*
X98804837Y-114977580D01*
X98804837Y-114977580D02*
X98566742Y-114977580D01*
X98566742Y-114977580D02*
X98471504Y-115025200D01*
X98471504Y-115025200D02*
X98423885Y-115072819D01*
D11*
X147869757Y-85778572D02*
X147798328Y-85635715D01*
X147798328Y-85635715D02*
X147798328Y-85421429D01*
X147798328Y-85421429D02*
X147869757Y-85207143D01*
X147869757Y-85207143D02*
X148012614Y-85064286D01*
X148012614Y-85064286D02*
X148155471Y-84992857D01*
X148155471Y-84992857D02*
X148441185Y-84921429D01*
X148441185Y-84921429D02*
X148655471Y-84921429D01*
X148655471Y-84921429D02*
X148941185Y-84992857D01*
X148941185Y-84992857D02*
X149084042Y-85064286D01*
X149084042Y-85064286D02*
X149226900Y-85207143D01*
X149226900Y-85207143D02*
X149298328Y-85421429D01*
X149298328Y-85421429D02*
X149298328Y-85564286D01*
X149298328Y-85564286D02*
X149226900Y-85778572D01*
X149226900Y-85778572D02*
X149155471Y-85850000D01*
X149155471Y-85850000D02*
X148655471Y-85850000D01*
X148655471Y-85850000D02*
X148655471Y-85564286D01*
X147798328Y-86707143D02*
X148155471Y-86707143D01*
X148012614Y-86350000D02*
X148155471Y-86707143D01*
X148155471Y-86707143D02*
X148012614Y-87064286D01*
X148441185Y-86492857D02*
X148155471Y-86707143D01*
X148155471Y-86707143D02*
X148441185Y-86921429D01*
X147798328Y-87850000D02*
X148155471Y-87850000D01*
X148012614Y-87492857D02*
X148155471Y-87850000D01*
X148155471Y-87850000D02*
X148012614Y-88207143D01*
X148441185Y-87635714D02*
X148155471Y-87850000D01*
X148155471Y-87850000D02*
X148441185Y-88064286D01*
X147798328Y-88992857D02*
X148155471Y-88992857D01*
X148012614Y-88635714D02*
X148155471Y-88992857D01*
X148155471Y-88992857D02*
X148012614Y-89350000D01*
X148441185Y-88778571D02*
X148155471Y-88992857D01*
X148155471Y-88992857D02*
X148441185Y-89207143D01*
D12*
%TO.C,G\u002A\u002A\u002A*%
G36*
X162840816Y-81659565D02*
G01*
X162812685Y-81702017D01*
X162754291Y-81774910D01*
X162674616Y-81866783D01*
X162511597Y-82056104D01*
X162166703Y-82504037D01*
X161834382Y-82998218D01*
X161520423Y-83527230D01*
X161230617Y-84079656D01*
X160970755Y-84644079D01*
X160746626Y-85209081D01*
X160564020Y-85763246D01*
X160428728Y-86295157D01*
X160369632Y-86658923D01*
X160346556Y-87047933D01*
X160364409Y-87449708D01*
X160424086Y-87870459D01*
X160526482Y-88316400D01*
X160672493Y-88793741D01*
X160863014Y-89308696D01*
X160942205Y-89501841D01*
X161179719Y-90025045D01*
X161446954Y-90543141D01*
X161736986Y-91044567D01*
X162042891Y-91517763D01*
X162357742Y-91951167D01*
X162674616Y-92333217D01*
X162707842Y-92370797D01*
X162780238Y-92456589D01*
X162827828Y-92518903D01*
X162841629Y-92546280D01*
X162825012Y-92550993D01*
X162757131Y-92537985D01*
X162649550Y-92500356D01*
X162511986Y-92442691D01*
X162354152Y-92369574D01*
X162185763Y-92285591D01*
X162016533Y-92195327D01*
X161856178Y-92103365D01*
X161714411Y-92014292D01*
X161555738Y-91904878D01*
X161077656Y-91525339D01*
X160641774Y-91099281D01*
X160248529Y-90627397D01*
X159898357Y-90110381D01*
X159591695Y-89548924D01*
X159328980Y-88943721D01*
X159110646Y-88295463D01*
X158937132Y-87604845D01*
X158928397Y-87563435D01*
X158896193Y-87406414D01*
X158869869Y-87271288D01*
X158851943Y-87171312D01*
X158844935Y-87119741D01*
X158849849Y-87060947D01*
X158867636Y-86948921D01*
X158895790Y-86799707D01*
X158931620Y-86625900D01*
X158972433Y-86440093D01*
X159015536Y-86254883D01*
X159058238Y-86082862D01*
X159097845Y-85936625D01*
X159244853Y-85478001D01*
X159483584Y-84883761D01*
X159765223Y-84324954D01*
X160087325Y-83804743D01*
X160447447Y-83326295D01*
X160843145Y-82892776D01*
X161271975Y-82507350D01*
X161731493Y-82173184D01*
X162219255Y-81893443D01*
X162318697Y-81845110D01*
X162465779Y-81778670D01*
X162603427Y-81721761D01*
X162719826Y-81678933D01*
X162803164Y-81654736D01*
X162841629Y-81653720D01*
X162840816Y-81659565D01*
G37*
G36*
X153360554Y-70953449D02*
G01*
X153577693Y-70958106D01*
X153809830Y-70965190D01*
X154047593Y-70974421D01*
X154281610Y-70985517D01*
X154502507Y-70998198D01*
X154700912Y-71012181D01*
X154867454Y-71027187D01*
X155132446Y-71057877D01*
X155991534Y-71198477D01*
X156841351Y-71400061D01*
X157679472Y-71661228D01*
X158503469Y-71980580D01*
X159310918Y-72356719D01*
X160099392Y-72788247D01*
X160866464Y-73273764D01*
X161609709Y-73811871D01*
X162326699Y-74401172D01*
X163015010Y-75040266D01*
X163672215Y-75727755D01*
X164295888Y-76462241D01*
X164362492Y-76546646D01*
X164475114Y-76693584D01*
X164590989Y-76849045D01*
X164704190Y-77004641D01*
X164808789Y-77151980D01*
X164898861Y-77282675D01*
X164968477Y-77388335D01*
X165011713Y-77460571D01*
X165022640Y-77490992D01*
X165021805Y-77491449D01*
X164982909Y-77489196D01*
X164900438Y-77475900D01*
X164790808Y-77454169D01*
X164756294Y-77447433D01*
X164550295Y-77424529D01*
X164310526Y-77420116D01*
X164058885Y-77433200D01*
X163817269Y-77462787D01*
X163607578Y-77507883D01*
X163497156Y-77541738D01*
X163132479Y-77691170D01*
X162778642Y-77891544D01*
X162450018Y-78133902D01*
X162160981Y-78409288D01*
X162016579Y-78574116D01*
X161803944Y-78836690D01*
X161568918Y-79146549D01*
X161315119Y-79498647D01*
X161046166Y-79887935D01*
X160765678Y-80309365D01*
X160477274Y-80757888D01*
X160421618Y-80846327D01*
X160273754Y-81084559D01*
X160108665Y-81354430D01*
X159929923Y-81649830D01*
X159741099Y-81964648D01*
X159545768Y-82292771D01*
X159347499Y-82628089D01*
X159149867Y-82964490D01*
X158956442Y-83295861D01*
X158770797Y-83616093D01*
X158596505Y-83919073D01*
X158437137Y-84198690D01*
X158296266Y-84448832D01*
X158177464Y-84663389D01*
X158084303Y-84836247D01*
X158020355Y-84961297D01*
X157949175Y-85107806D01*
X157793579Y-85029748D01*
X157757197Y-85011496D01*
X157668517Y-84965660D01*
X157234983Y-84702217D01*
X156817467Y-84383463D01*
X156422594Y-84015454D01*
X156056991Y-83604248D01*
X155727284Y-83155901D01*
X155708658Y-83127585D01*
X155613951Y-82974609D01*
X155519766Y-82809702D01*
X155434707Y-82648986D01*
X155367375Y-82508582D01*
X155326374Y-82404611D01*
X155317802Y-82367873D01*
X155329767Y-82358984D01*
X155372649Y-82382236D01*
X155456336Y-82440349D01*
X155771324Y-82628785D01*
X156132290Y-82773146D01*
X156256761Y-82809020D01*
X156388987Y-82840731D01*
X156499274Y-82860687D01*
X156574830Y-82866628D01*
X156602858Y-82856291D01*
X156602418Y-82852030D01*
X156591920Y-82801268D01*
X156570288Y-82709569D01*
X156541330Y-82593207D01*
X156534797Y-82567315D01*
X156405376Y-81934690D01*
X156362715Y-81584122D01*
X157552127Y-81584122D01*
X157565265Y-81827080D01*
X157597056Y-82035776D01*
X157635160Y-82187977D01*
X157679160Y-82334438D01*
X157723256Y-82456962D01*
X157762908Y-82542982D01*
X157793579Y-82579930D01*
X157819308Y-82560448D01*
X157873538Y-82491039D01*
X157952495Y-82376543D01*
X158053148Y-82222164D01*
X158172468Y-82033107D01*
X158307422Y-81814575D01*
X158454981Y-81571773D01*
X158612114Y-81309904D01*
X158775790Y-81034174D01*
X158942978Y-80749786D01*
X159110648Y-80461944D01*
X159275770Y-80175853D01*
X159435312Y-79896716D01*
X159586244Y-79629739D01*
X159725535Y-79380124D01*
X159850155Y-79153077D01*
X159957072Y-78953801D01*
X160043257Y-78787501D01*
X160105679Y-78659381D01*
X160141306Y-78574644D01*
X160147109Y-78538496D01*
X160138378Y-78535509D01*
X160082420Y-78550532D01*
X159985525Y-78595812D01*
X159855257Y-78666543D01*
X159699180Y-78757921D01*
X159524860Y-78865144D01*
X159339861Y-78983407D01*
X159151747Y-79107905D01*
X158968083Y-79233835D01*
X158796433Y-79356393D01*
X158644363Y-79470775D01*
X158519436Y-79572177D01*
X158441237Y-79641163D01*
X158148645Y-79941376D01*
X157911125Y-80259705D01*
X157731239Y-80592303D01*
X157611553Y-80935317D01*
X157580493Y-81095466D01*
X157557313Y-81331914D01*
X157552127Y-81584122D01*
X156362715Y-81584122D01*
X156324987Y-81274094D01*
X156293758Y-80596964D01*
X156311816Y-79914738D01*
X156379291Y-79238852D01*
X156496310Y-78580745D01*
X156505673Y-78539088D01*
X156548641Y-78364131D01*
X156598918Y-78178958D01*
X156652774Y-77995487D01*
X156706479Y-77825631D01*
X156756302Y-77681308D01*
X156798512Y-77574431D01*
X156829378Y-77516918D01*
X156835609Y-77511147D01*
X156862074Y-77512527D01*
X156902666Y-77549445D01*
X156963245Y-77628244D01*
X157049672Y-77755263D01*
X157183042Y-77945039D01*
X157314698Y-78110138D01*
X157437229Y-78242379D01*
X157543648Y-78334223D01*
X157626969Y-78378132D01*
X157650693Y-78382575D01*
X157700810Y-78378744D01*
X157753850Y-78351461D01*
X157815839Y-78294663D01*
X157892805Y-78202291D01*
X157990773Y-78068285D01*
X158115770Y-77886584D01*
X158251219Y-77682543D01*
X158508027Y-77270260D01*
X158731046Y-76875753D01*
X158918701Y-76502829D01*
X159069415Y-76155295D01*
X159181612Y-75836958D01*
X159253717Y-75551625D01*
X159284153Y-75303101D01*
X159271345Y-75095195D01*
X159241060Y-75007460D01*
X159147304Y-74870218D01*
X158997854Y-74723608D01*
X158796286Y-74569844D01*
X158546178Y-74411140D01*
X158251106Y-74249709D01*
X157914649Y-74087764D01*
X157540383Y-73927521D01*
X157131886Y-73771192D01*
X156829201Y-73661624D01*
X157000796Y-73888824D01*
X157057622Y-73968647D01*
X157155594Y-74120235D01*
X157256033Y-74289023D01*
X157344322Y-74451084D01*
X157420031Y-74603556D01*
X157495651Y-74765354D01*
X157563677Y-74919872D01*
X157620064Y-75057239D01*
X157660765Y-75167581D01*
X157681736Y-75241026D01*
X157678932Y-75267702D01*
X157668218Y-75265535D01*
X157608355Y-75247050D01*
X157510753Y-75213758D01*
X157390162Y-75170618D01*
X157214844Y-75111685D01*
X156932589Y-75030963D01*
X156620959Y-74955046D01*
X156299456Y-74888582D01*
X155987578Y-74836221D01*
X155977628Y-74834801D01*
X155798708Y-74815735D01*
X155569442Y-74800464D01*
X155301681Y-74789052D01*
X155007278Y-74781561D01*
X154698083Y-74778051D01*
X154385948Y-74778586D01*
X154082725Y-74783226D01*
X153800263Y-74792035D01*
X153550415Y-74805074D01*
X153345032Y-74822405D01*
X153319853Y-74825182D01*
X153172494Y-74843060D01*
X153052718Y-74860302D01*
X152972267Y-74875066D01*
X152942880Y-74885511D01*
X152952892Y-74903543D01*
X152995684Y-74962469D01*
X153064387Y-75050739D01*
X153150529Y-75157267D01*
X153381374Y-75455157D01*
X153694994Y-75920540D01*
X153975601Y-76411515D01*
X154216866Y-76915667D01*
X154412458Y-77420578D01*
X154556047Y-77913834D01*
X154596335Y-78103787D01*
X154636289Y-78343545D01*
X154668507Y-78594326D01*
X154692079Y-78844006D01*
X154706097Y-79080465D01*
X154709651Y-79291579D01*
X154701832Y-79465226D01*
X154681730Y-79589284D01*
X154673995Y-79616177D01*
X154659373Y-79643640D01*
X154637478Y-79625666D01*
X154596024Y-79557731D01*
X154587010Y-79542351D01*
X154435279Y-79285202D01*
X154307966Y-79073468D01*
X154199220Y-78897873D01*
X154103188Y-78749136D01*
X154014017Y-78617978D01*
X153925857Y-78495122D01*
X153840117Y-78380483D01*
X153441867Y-77896354D01*
X153026239Y-77469682D01*
X152589055Y-77096824D01*
X152126133Y-76774140D01*
X151633293Y-76497988D01*
X151423567Y-76397921D01*
X150921343Y-76195798D01*
X150407929Y-76042849D01*
X149876380Y-75937897D01*
X149319748Y-75879763D01*
X148731087Y-75867269D01*
X148103450Y-75899236D01*
X147972804Y-75911756D01*
X147520315Y-75977588D01*
X147041022Y-76078312D01*
X146551457Y-76209638D01*
X146068151Y-76367276D01*
X145607639Y-76546935D01*
X145599844Y-76549809D01*
X145587415Y-76540244D01*
X145615140Y-76495114D01*
X145677647Y-76420239D01*
X145769564Y-76321439D01*
X145885521Y-76204535D01*
X146020146Y-76075345D01*
X146168067Y-75939691D01*
X146496258Y-75657049D01*
X147111571Y-75185017D01*
X147760790Y-74759188D01*
X148447357Y-74377721D01*
X149174717Y-74038773D01*
X149946314Y-73740505D01*
X150765591Y-73481072D01*
X150784657Y-73475658D01*
X151209091Y-73364342D01*
X151661636Y-73261545D01*
X152129836Y-73169215D01*
X152601234Y-73089301D01*
X153063373Y-73023753D01*
X153503797Y-72974520D01*
X153910048Y-72943551D01*
X154269670Y-72932795D01*
X154366568Y-72931934D01*
X154462132Y-72923314D01*
X154508939Y-72897815D01*
X154510715Y-72846343D01*
X154471185Y-72759804D01*
X154394074Y-72629103D01*
X154288047Y-72467111D01*
X154051787Y-72163412D01*
X153762736Y-71850746D01*
X153425993Y-71534446D01*
X153046654Y-71219843D01*
X152992788Y-71177580D01*
X152888027Y-71093310D01*
X152825113Y-71037100D01*
X152797880Y-71001859D01*
X152800159Y-70980498D01*
X152825785Y-70965926D01*
X152829429Y-70964728D01*
X152892851Y-70956860D01*
X153008761Y-70952545D01*
X153167786Y-70951502D01*
X153360554Y-70953449D01*
G37*
G36*
X158020355Y-89238703D02*
G01*
X158043211Y-89284586D01*
X158119760Y-89430291D01*
X158224035Y-89621259D01*
X158352463Y-89851380D01*
X158501472Y-90114541D01*
X158667490Y-90404632D01*
X158846945Y-90715540D01*
X159036264Y-91041154D01*
X159231875Y-91375363D01*
X159430207Y-91712055D01*
X159627686Y-92045119D01*
X159820741Y-92368443D01*
X160005800Y-92675916D01*
X160179289Y-92961426D01*
X160337638Y-93218862D01*
X160477274Y-93442112D01*
X160697050Y-93785276D01*
X160979768Y-94213668D01*
X161251819Y-94611130D01*
X161509585Y-94972613D01*
X161749446Y-95293070D01*
X161967785Y-95567452D01*
X162160981Y-95790712D01*
X162231638Y-95865112D01*
X162535105Y-96134906D01*
X162875147Y-96368766D01*
X163237420Y-96557744D01*
X163607578Y-96692895D01*
X163637413Y-96701025D01*
X163853952Y-96744014D01*
X164099866Y-96770971D01*
X164352852Y-96780900D01*
X164590601Y-96772805D01*
X164790808Y-96745692D01*
X164801956Y-96743340D01*
X164909716Y-96722365D01*
X164988750Y-96710055D01*
X165022640Y-96709008D01*
X165019838Y-96722850D01*
X164987869Y-96780588D01*
X164927325Y-96874856D01*
X164844133Y-96997263D01*
X164744220Y-97139420D01*
X164633512Y-97292938D01*
X164517936Y-97449427D01*
X164403419Y-97600497D01*
X164295888Y-97737759D01*
X164134149Y-97936744D01*
X163500098Y-98660430D01*
X162833264Y-99336420D01*
X162136016Y-99963345D01*
X161410725Y-100539837D01*
X160659760Y-101064527D01*
X160147109Y-101376726D01*
X159885492Y-101536048D01*
X159090290Y-101953032D01*
X158276525Y-102314109D01*
X157446567Y-102617912D01*
X156602785Y-102863072D01*
X155747549Y-103048221D01*
X154883231Y-103171991D01*
X154805167Y-103179668D01*
X154626210Y-103194001D01*
X154419440Y-103207274D01*
X154193938Y-103219215D01*
X153958784Y-103229553D01*
X153723060Y-103238015D01*
X153495844Y-103244331D01*
X153286219Y-103248227D01*
X153103264Y-103249433D01*
X152956060Y-103247676D01*
X152853687Y-103242685D01*
X152805226Y-103234187D01*
X152803472Y-103233174D01*
X152788383Y-103212132D01*
X152806203Y-103178992D01*
X152863473Y-103126130D01*
X152966733Y-103045921D01*
X153149299Y-102903538D01*
X153448639Y-102647367D01*
X153731972Y-102377428D01*
X153989151Y-102104147D01*
X154210031Y-101837947D01*
X154384468Y-101589251D01*
X154458772Y-101467664D01*
X154506846Y-101372276D01*
X154513019Y-101313244D01*
X154473425Y-101281861D01*
X154384196Y-101269418D01*
X154241466Y-101267205D01*
X154200507Y-101266789D01*
X154049367Y-101261445D01*
X153862393Y-101250903D01*
X153659484Y-101236387D01*
X153460534Y-101219123D01*
X153275700Y-101200361D01*
X152385167Y-101079463D01*
X151521252Y-100911265D01*
X150686690Y-100696929D01*
X149884218Y-100437618D01*
X149116573Y-100134498D01*
X148386490Y-99788730D01*
X147696707Y-99401479D01*
X147049959Y-98973909D01*
X146448982Y-98507183D01*
X145896513Y-98002465D01*
X145831910Y-97937807D01*
X145724347Y-97827405D01*
X145639973Y-97737146D01*
X145586130Y-97674986D01*
X145570165Y-97648884D01*
X145571818Y-97647769D01*
X145611455Y-97653625D01*
X145678909Y-97682507D01*
X145740422Y-97710349D01*
X145863577Y-97758486D01*
X146023972Y-97816362D01*
X146208446Y-97879585D01*
X146403835Y-97943761D01*
X146596977Y-98004495D01*
X146774708Y-98057395D01*
X146923867Y-98098066D01*
X147274175Y-98177414D01*
X147866444Y-98272217D01*
X148469116Y-98322748D01*
X149068794Y-98328574D01*
X149652078Y-98289261D01*
X150205567Y-98204375D01*
X150507009Y-98134222D01*
X151056431Y-97958115D01*
X151590710Y-97724809D01*
X152103601Y-97437982D01*
X152588862Y-97101309D01*
X153040249Y-96718466D01*
X153451519Y-96293129D01*
X153558931Y-96168754D01*
X153709030Y-95988170D01*
X153846925Y-95811762D01*
X153979549Y-95629527D01*
X154113837Y-95431462D01*
X154256722Y-95207565D01*
X154415140Y-94947835D01*
X154596024Y-94642269D01*
X154618459Y-94604269D01*
X154649317Y-94560062D01*
X154666312Y-94563719D01*
X154681730Y-94610716D01*
X154699915Y-94715418D01*
X154709293Y-94883251D01*
X154707179Y-95090142D01*
X154694482Y-95323967D01*
X154672111Y-95572604D01*
X154640975Y-95823931D01*
X154601984Y-96065826D01*
X154556047Y-96286166D01*
X154463494Y-96622539D01*
X154283566Y-97125125D01*
X154055974Y-97630853D01*
X153787051Y-98127308D01*
X153483125Y-98602073D01*
X153150529Y-99042733D01*
X153087114Y-99120796D01*
X153012675Y-99215296D01*
X152961773Y-99283555D01*
X152942880Y-99314489D01*
X152943656Y-99315785D01*
X152981942Y-99327039D01*
X153069427Y-99342320D01*
X153194370Y-99359786D01*
X153345032Y-99377595D01*
X153357232Y-99378899D01*
X153565983Y-99395939D01*
X153818401Y-99408691D01*
X154102633Y-99417217D01*
X154406830Y-99421579D01*
X154719139Y-99421839D01*
X155027710Y-99418059D01*
X155320690Y-99410301D01*
X155586229Y-99398627D01*
X155812476Y-99383099D01*
X155987578Y-99363779D01*
X156212087Y-99327387D01*
X156532890Y-99264331D01*
X156849171Y-99190545D01*
X157141428Y-99110679D01*
X157390162Y-99029382D01*
X157446514Y-99009002D01*
X157558552Y-98969694D01*
X157640940Y-98942474D01*
X157678932Y-98932298D01*
X157682138Y-98956770D01*
X157662116Y-99028388D01*
X157622188Y-99137331D01*
X157566400Y-99273728D01*
X157498796Y-99427707D01*
X157423421Y-99589393D01*
X157344322Y-99748916D01*
X157287413Y-99855247D01*
X157189387Y-100024454D01*
X157088975Y-100184406D01*
X157000796Y-100311176D01*
X156829201Y-100538376D01*
X157118328Y-100433612D01*
X157386750Y-100332939D01*
X157780896Y-100171255D01*
X158136353Y-100007820D01*
X158449811Y-99844678D01*
X158717962Y-99683869D01*
X158937500Y-99527436D01*
X159105115Y-99377420D01*
X159217499Y-99235862D01*
X159271345Y-99104805D01*
X159284766Y-98944156D01*
X159263068Y-98706637D01*
X159200398Y-98431784D01*
X159098552Y-98123864D01*
X158959328Y-97787149D01*
X158784523Y-97425908D01*
X158575935Y-97044410D01*
X158335359Y-96646926D01*
X158064594Y-96237725D01*
X157980620Y-96120177D01*
X157890741Y-96002984D01*
X157814186Y-95911899D01*
X157761634Y-95860229D01*
X157730309Y-95837327D01*
X157682148Y-95812427D01*
X157635072Y-95818867D01*
X157560825Y-95856060D01*
X157495263Y-95902762D01*
X157389125Y-96006401D01*
X157265981Y-96150689D01*
X157132979Y-96327117D01*
X156997268Y-96527171D01*
X156987978Y-96541503D01*
X156925416Y-96633553D01*
X156876229Y-96698594D01*
X156850376Y-96723327D01*
X156845788Y-96721173D01*
X156819581Y-96678029D01*
X156781490Y-96587638D01*
X156735143Y-96460746D01*
X156684169Y-96308102D01*
X156632194Y-96140452D01*
X156582846Y-95968544D01*
X156539754Y-95803125D01*
X156521750Y-95727907D01*
X156391092Y-95045244D01*
X156314115Y-94347640D01*
X156290811Y-93644728D01*
X156321174Y-92946145D01*
X156342770Y-92770183D01*
X157557700Y-92770183D01*
X157558782Y-92928376D01*
X157567148Y-93053981D01*
X157584131Y-93164418D01*
X157611070Y-93277106D01*
X157630381Y-93344067D01*
X157767103Y-93686491D01*
X157962940Y-94017696D01*
X158214761Y-94333025D01*
X158519436Y-94627823D01*
X158561326Y-94662957D01*
X158697017Y-94769644D01*
X158857096Y-94887560D01*
X159033998Y-95011903D01*
X159220159Y-95137868D01*
X159408014Y-95260651D01*
X159589999Y-95375448D01*
X159758549Y-95477455D01*
X159906100Y-95561868D01*
X160025086Y-95623884D01*
X160107944Y-95658697D01*
X160147109Y-95661504D01*
X160148828Y-95658984D01*
X160148871Y-95641814D01*
X160137873Y-95607873D01*
X160113350Y-95552380D01*
X160072819Y-95470555D01*
X160013794Y-95357617D01*
X159933792Y-95208786D01*
X159830329Y-95019282D01*
X159700920Y-94784323D01*
X159543081Y-94499130D01*
X159483448Y-94391903D01*
X159317450Y-94096827D01*
X159146386Y-93797244D01*
X158973267Y-93498106D01*
X158801106Y-93204364D01*
X158632916Y-92920970D01*
X158471711Y-92652878D01*
X158320501Y-92405038D01*
X158182301Y-92182404D01*
X158060123Y-91989927D01*
X157956979Y-91832559D01*
X157875884Y-91715253D01*
X157819848Y-91642961D01*
X157791885Y-91620635D01*
X157780588Y-91631736D01*
X157748591Y-91691563D01*
X157707785Y-91790390D01*
X157664263Y-91914199D01*
X157624457Y-92044937D01*
X157596920Y-92162090D01*
X157579016Y-92284400D01*
X157567919Y-92431179D01*
X157560806Y-92621739D01*
X157557700Y-92770183D01*
X156342770Y-92770183D01*
X156405196Y-92261527D01*
X156542870Y-91600507D01*
X156551850Y-91564428D01*
X156576636Y-91453451D01*
X156590416Y-91372357D01*
X156590397Y-91336649D01*
X156586136Y-91335047D01*
X156536406Y-91337553D01*
X156445266Y-91351710D01*
X156328482Y-91375198D01*
X156184374Y-91412887D01*
X155924956Y-91505806D01*
X155674748Y-91623955D01*
X155460688Y-91755529D01*
X155376129Y-91814787D01*
X155331591Y-91839566D01*
X155318229Y-91832144D01*
X155326374Y-91795389D01*
X155332189Y-91777902D01*
X155379266Y-91665182D01*
X155450917Y-91519320D01*
X155538538Y-91356438D01*
X155633529Y-91192658D01*
X155727284Y-91044099D01*
X155790493Y-90951090D01*
X156127964Y-90509737D01*
X156499996Y-90106745D01*
X156899963Y-89748171D01*
X157321238Y-89440071D01*
X157757197Y-89188504D01*
X157949175Y-89092194D01*
X158020355Y-89238703D01*
G37*
G36*
X149710065Y-77805126D02*
G01*
X149805990Y-77821833D01*
X149934156Y-77851973D01*
X150108818Y-77897367D01*
X150210632Y-77924537D01*
X150526997Y-78011607D01*
X150847503Y-78103448D01*
X151163999Y-78197473D01*
X151468334Y-78291098D01*
X151752358Y-78381738D01*
X152007919Y-78466808D01*
X152226866Y-78543723D01*
X152401048Y-78609899D01*
X152522313Y-78662749D01*
X152804454Y-78827290D01*
X153027798Y-79014357D01*
X153192324Y-79224079D01*
X153298084Y-79456620D01*
X153345129Y-79712147D01*
X153333511Y-79990824D01*
X153263282Y-80292818D01*
X153134494Y-80618293D01*
X153106689Y-80676541D01*
X152993665Y-80892418D01*
X152865308Y-81103883D01*
X152715968Y-81318251D01*
X152539995Y-81542836D01*
X152331737Y-81784951D01*
X152085543Y-82051910D01*
X151795764Y-82351027D01*
X151421838Y-82729938D01*
X151533269Y-82524845D01*
X151627610Y-82339167D01*
X151744074Y-82075881D01*
X151851761Y-81795545D01*
X151948271Y-81507361D01*
X152031205Y-81220532D01*
X152098162Y-80944259D01*
X152146742Y-80687744D01*
X152174545Y-80460188D01*
X152179171Y-80270794D01*
X152158220Y-80128763D01*
X152147442Y-80096578D01*
X152114448Y-80027962D01*
X152084521Y-80000621D01*
X152070771Y-80002726D01*
X151999153Y-80039501D01*
X151891104Y-80119170D01*
X151750314Y-80237969D01*
X151580472Y-80392131D01*
X151385269Y-80577890D01*
X151168395Y-80791483D01*
X150933539Y-81029142D01*
X150684392Y-81287102D01*
X150424643Y-81561598D01*
X150157983Y-81848865D01*
X149888102Y-82145135D01*
X149618689Y-82446645D01*
X149353434Y-82749629D01*
X149096028Y-83050320D01*
X149069539Y-83081443D01*
X148972529Y-83191772D01*
X148892523Y-83277132D01*
X148837204Y-83329591D01*
X148814254Y-83341216D01*
X148812597Y-83332879D01*
X148817886Y-83265500D01*
X148840233Y-83147273D01*
X148877858Y-82985514D01*
X148928981Y-82787537D01*
X148991824Y-82560659D01*
X149064605Y-82312195D01*
X149181576Y-81942698D01*
X149371940Y-81400175D01*
X149587332Y-80843578D01*
X149819926Y-80293823D01*
X149877405Y-80162075D01*
X149939370Y-80015187D01*
X149986895Y-79896782D01*
X150016122Y-79816531D01*
X150023194Y-79784104D01*
X149992083Y-79781173D01*
X149915075Y-79788435D01*
X149810857Y-79804972D01*
X149742997Y-79820133D01*
X149542314Y-79887521D01*
X149321428Y-79988387D01*
X149097599Y-80114282D01*
X148888089Y-80256755D01*
X148749017Y-80367673D01*
X148487414Y-80605588D01*
X148223191Y-80879610D01*
X147969324Y-81175105D01*
X147738787Y-81477442D01*
X147544557Y-81771985D01*
X147496916Y-81850207D01*
X147445507Y-81935379D01*
X147405562Y-82009730D01*
X147377380Y-82080485D01*
X147361259Y-82154869D01*
X147357499Y-82240106D01*
X147366399Y-82343422D01*
X147388258Y-82472042D01*
X147423374Y-82633189D01*
X147472046Y-82834091D01*
X147534574Y-83081970D01*
X147611255Y-83384053D01*
X147700518Y-83734610D01*
X147841655Y-84277656D01*
X147970967Y-84760010D01*
X148088687Y-85182442D01*
X148195051Y-85545718D01*
X148290294Y-85850607D01*
X148374651Y-86097878D01*
X148448356Y-86288299D01*
X148511645Y-86422637D01*
X148564753Y-86501663D01*
X148583874Y-86521067D01*
X148621667Y-86547112D01*
X148673093Y-86558807D01*
X148754510Y-86558583D01*
X148882278Y-86548872D01*
X149043651Y-86530078D01*
X149455061Y-86441031D01*
X149859005Y-86296173D01*
X150241911Y-86099986D01*
X150261888Y-86087921D01*
X150488913Y-85937659D01*
X150712452Y-85767444D01*
X150925232Y-85584695D01*
X151119978Y-85396828D01*
X151289414Y-85211261D01*
X151426268Y-85035413D01*
X151523264Y-84876702D01*
X151573127Y-84742545D01*
X151577824Y-84714656D01*
X151570527Y-84546208D01*
X151505480Y-84382326D01*
X151387113Y-84231064D01*
X151219861Y-84100479D01*
X151196049Y-84084702D01*
X151142945Y-84037604D01*
X151130599Y-84004346D01*
X151131012Y-84003704D01*
X151174373Y-83969348D01*
X151264151Y-83918331D01*
X151388181Y-83856459D01*
X151534298Y-83789539D01*
X151690337Y-83723376D01*
X151844132Y-83663778D01*
X151916006Y-83638498D01*
X152054703Y-83593437D01*
X152207058Y-83547369D01*
X152360769Y-83503640D01*
X152503536Y-83465600D01*
X152623056Y-83436596D01*
X152707028Y-83419977D01*
X152743149Y-83419090D01*
X152743021Y-83423838D01*
X152728749Y-83473897D01*
X152696260Y-83571141D01*
X152648614Y-83706799D01*
X152588870Y-83872102D01*
X152520091Y-84058280D01*
X152478191Y-84170840D01*
X152301840Y-84651134D01*
X152141355Y-85099182D01*
X151997959Y-85511278D01*
X151872876Y-85883716D01*
X151767332Y-86212792D01*
X151682550Y-86494801D01*
X151619754Y-86726037D01*
X151580170Y-86902795D01*
X151568160Y-86976573D01*
X151559912Y-87131991D01*
X151580170Y-87297205D01*
X151587018Y-87332173D01*
X151631951Y-87521559D01*
X151699820Y-87764586D01*
X151789398Y-88057549D01*
X151899462Y-88396743D01*
X152028788Y-88778461D01*
X152176151Y-89199001D01*
X152340327Y-89654655D01*
X152520091Y-90141720D01*
X152544940Y-90208547D01*
X152610912Y-90388433D01*
X152666780Y-90544382D01*
X152709482Y-90667624D01*
X152735959Y-90749390D01*
X152743149Y-90780910D01*
X152728093Y-90782433D01*
X152661993Y-90771744D01*
X152555348Y-90747354D01*
X152420448Y-90712600D01*
X152269586Y-90670822D01*
X152115051Y-90625357D01*
X151969136Y-90579544D01*
X151844132Y-90536722D01*
X151823010Y-90528929D01*
X151655586Y-90462099D01*
X151477992Y-90384327D01*
X151325305Y-90310882D01*
X151080423Y-90184780D01*
X151214870Y-90099351D01*
X151228800Y-90090378D01*
X151403180Y-89949989D01*
X151519858Y-89795621D01*
X151577089Y-89630401D01*
X151573127Y-89457455D01*
X151557800Y-89404233D01*
X151490258Y-89267033D01*
X151381764Y-89106718D01*
X151239759Y-88932083D01*
X151071688Y-88751928D01*
X150884994Y-88575049D01*
X150687119Y-88410243D01*
X150415469Y-88213726D01*
X150040001Y-87990772D01*
X149662026Y-87824763D01*
X149274115Y-87712600D01*
X148868842Y-87651181D01*
X148820188Y-87646987D01*
X148713427Y-87640721D01*
X148646536Y-87645484D01*
X148602527Y-87663927D01*
X148564413Y-87698703D01*
X148542288Y-87726750D01*
X148483384Y-87833085D01*
X148413691Y-87997571D01*
X148333063Y-88220684D01*
X148241356Y-88502901D01*
X148138422Y-88844698D01*
X148024117Y-89246552D01*
X147898295Y-89708940D01*
X147760811Y-90232338D01*
X147611518Y-90817222D01*
X147550758Y-91057409D01*
X147485300Y-91316765D01*
X147433721Y-91527519D01*
X147395721Y-91696888D01*
X147371000Y-91832089D01*
X147359258Y-91940339D01*
X147360194Y-92028854D01*
X147373509Y-92104852D01*
X147398903Y-92175551D01*
X147436075Y-92248166D01*
X147484727Y-92329915D01*
X147544557Y-92428015D01*
X147646923Y-92589389D01*
X147862874Y-92890058D01*
X148107941Y-93190412D01*
X148369149Y-93475816D01*
X148633523Y-93731639D01*
X148888089Y-93943245D01*
X148965517Y-93999216D01*
X149182549Y-94136340D01*
X149407290Y-94253651D01*
X149622479Y-94342697D01*
X149810857Y-94395028D01*
X149906277Y-94410394D01*
X149986572Y-94418591D01*
X150023194Y-94415896D01*
X150018762Y-94392012D01*
X149992701Y-94318598D01*
X149947691Y-94205343D01*
X149887561Y-94061830D01*
X149816139Y-93897642D01*
X149707048Y-93644729D01*
X149562869Y-93293149D01*
X149421430Y-92930306D01*
X149289126Y-92573116D01*
X149172349Y-92238494D01*
X149077492Y-91943354D01*
X149018785Y-91743747D01*
X148962137Y-91539852D01*
X148911284Y-91345931D01*
X148868695Y-91172078D01*
X148836842Y-91028385D01*
X148818195Y-90924947D01*
X148815224Y-90871855D01*
X148817635Y-90869179D01*
X148849461Y-90887696D01*
X148911531Y-90945623D01*
X148996250Y-91035450D01*
X149096028Y-91149664D01*
X149165688Y-91231761D01*
X149426753Y-91534821D01*
X149694445Y-91838885D01*
X149965084Y-92140198D01*
X150234993Y-92435006D01*
X150500491Y-92719554D01*
X150757901Y-92990090D01*
X151003544Y-93242857D01*
X151233739Y-93474103D01*
X151444810Y-93680072D01*
X151633076Y-93857011D01*
X151794859Y-94001166D01*
X151926480Y-94108781D01*
X152024260Y-94176104D01*
X152084521Y-94199379D01*
X152094623Y-94195260D01*
X152127051Y-94150125D01*
X152158220Y-94071238D01*
X152176438Y-93970018D01*
X152178161Y-93791342D01*
X152155973Y-93572190D01*
X152112275Y-93321751D01*
X152049467Y-93049218D01*
X151969951Y-92763781D01*
X151876126Y-92474631D01*
X151770393Y-92190959D01*
X151655154Y-91921955D01*
X151532808Y-91676811D01*
X151420429Y-91470062D01*
X151795059Y-91848973D01*
X151864408Y-91919384D01*
X152144835Y-92211205D01*
X152382825Y-92472697D01*
X152584043Y-92711188D01*
X152754154Y-92934007D01*
X152898823Y-93148480D01*
X153023715Y-93361938D01*
X153134494Y-93581707D01*
X153134536Y-93581798D01*
X153263304Y-93907375D01*
X153333475Y-94209548D01*
X153345020Y-94488410D01*
X153297908Y-94744058D01*
X153192111Y-94976583D01*
X153027600Y-95186082D01*
X152804343Y-95372647D01*
X152522313Y-95536374D01*
X152426004Y-95578566D01*
X152266503Y-95639760D01*
X152063816Y-95711760D01*
X151827289Y-95791701D01*
X151566268Y-95876719D01*
X151290099Y-95963949D01*
X151008125Y-96050529D01*
X150729693Y-96133593D01*
X150464148Y-96210277D01*
X150220836Y-96277718D01*
X150009101Y-96333050D01*
X149838289Y-96373410D01*
X149717746Y-96395933D01*
X149698706Y-96398282D01*
X149543078Y-96399134D01*
X149371803Y-96367629D01*
X149181030Y-96301738D01*
X148966910Y-96199432D01*
X148725592Y-96058682D01*
X148453226Y-95877460D01*
X148145961Y-95653737D01*
X147799947Y-95385485D01*
X147645034Y-95263090D01*
X147519615Y-95166642D01*
X147425061Y-95098989D01*
X147352042Y-95054481D01*
X147291228Y-95027468D01*
X147233288Y-95012299D01*
X147168891Y-95003324D01*
X146725710Y-94952218D01*
X146181010Y-94882913D01*
X145645264Y-94807886D01*
X145129290Y-94728807D01*
X145058897Y-94716994D01*
X144643909Y-94647350D01*
X144199938Y-94565186D01*
X143808199Y-94483987D01*
X143364822Y-94381237D01*
X142923368Y-94266994D01*
X142516385Y-94146988D01*
X142128913Y-94016471D01*
X141745991Y-93870697D01*
X141352658Y-93704919D01*
X141237964Y-93654786D01*
X140433281Y-93319733D01*
X139666200Y-93030798D01*
X138933072Y-92786931D01*
X138230245Y-92587082D01*
X137554071Y-92430198D01*
X136900900Y-92315232D01*
X136267081Y-92241130D01*
X136025885Y-92225134D01*
X135825093Y-92221551D01*
X135630590Y-92218080D01*
X135239046Y-92233124D01*
X134865462Y-92269162D01*
X134524044Y-92325087D01*
X134228999Y-92399793D01*
X134124786Y-92429511D01*
X134018751Y-92453701D01*
X133947951Y-92462875D01*
X133909561Y-92460243D01*
X133766447Y-92416654D01*
X133609210Y-92325093D01*
X133447156Y-92192841D01*
X133289591Y-92027178D01*
X133145821Y-91835383D01*
X133053930Y-91689717D01*
X132964081Y-91530448D01*
X132876428Y-91354608D01*
X132785838Y-91151245D01*
X132753935Y-91073043D01*
X140763355Y-91073043D01*
X140766564Y-91079231D01*
X140805518Y-91117816D01*
X140879372Y-91179920D01*
X140976336Y-91255448D01*
X140996623Y-91270689D01*
X141541139Y-91639438D01*
X142113393Y-91951619D01*
X142711945Y-92206618D01*
X143335353Y-92403816D01*
X143982180Y-92542597D01*
X144036433Y-92551092D01*
X144220178Y-92573971D01*
X144423453Y-92592078D01*
X144637102Y-92605339D01*
X144851968Y-92613679D01*
X145058897Y-92617025D01*
X145248733Y-92615300D01*
X145412321Y-92608432D01*
X145540504Y-92596344D01*
X145624129Y-92578963D01*
X145654038Y-92556215D01*
X145644822Y-92532570D01*
X145605937Y-92469370D01*
X145546979Y-92387372D01*
X145510950Y-92336718D01*
X145439202Y-92217976D01*
X145387224Y-92109134D01*
X145374234Y-92076240D01*
X145362492Y-92043226D01*
X145355905Y-92009621D01*
X145356376Y-91969654D01*
X145365806Y-91917557D01*
X145386100Y-91847560D01*
X145419160Y-91753893D01*
X145466889Y-91630786D01*
X145531190Y-91472470D01*
X145613966Y-91273176D01*
X145717120Y-91027133D01*
X145842554Y-90728571D01*
X145973972Y-90412894D01*
X146206855Y-89837749D01*
X146411982Y-89308738D01*
X146588835Y-88827344D01*
X146736895Y-88395053D01*
X146855643Y-88013349D01*
X146944561Y-87683716D01*
X147003129Y-87407640D01*
X147026384Y-87266220D01*
X147039070Y-87152941D01*
X147039423Y-87052900D01*
X147027442Y-86941053D01*
X147003129Y-86792360D01*
X146978278Y-86663962D01*
X146904646Y-86360940D01*
X146800765Y-86004788D01*
X146667077Y-85596772D01*
X146504026Y-85138161D01*
X146312054Y-84630221D01*
X146091605Y-84074221D01*
X145843120Y-83471429D01*
X145773293Y-83305026D01*
X145659537Y-83034322D01*
X145566852Y-82813344D01*
X145493358Y-82636443D01*
X145437175Y-82497970D01*
X145396425Y-82392275D01*
X145369227Y-82313710D01*
X145353701Y-82256625D01*
X145347970Y-82215372D01*
X145350151Y-82184300D01*
X145358367Y-82157761D01*
X145370737Y-82130106D01*
X145385383Y-82095686D01*
X145407355Y-82044966D01*
X145472821Y-81923765D01*
X145546979Y-81812629D01*
X145590312Y-81753398D01*
X145636220Y-81682872D01*
X145654038Y-81643786D01*
X145641248Y-81630375D01*
X145575511Y-81612298D01*
X145462282Y-81597911D01*
X145310999Y-81587775D01*
X145131103Y-81582451D01*
X144932034Y-81582501D01*
X144723231Y-81588485D01*
X144395529Y-81609971D01*
X143804708Y-81689063D01*
X143232913Y-81821250D01*
X142669116Y-82009340D01*
X142102292Y-82256141D01*
X142069047Y-82272477D01*
X141911381Y-82354975D01*
X141739220Y-82451816D01*
X141560269Y-82557937D01*
X141382231Y-82668276D01*
X141212810Y-82777769D01*
X141059710Y-82881352D01*
X140930633Y-82973964D01*
X140833285Y-83050540D01*
X140775369Y-83106018D01*
X140764588Y-83135334D01*
X140774308Y-83137083D01*
X140837621Y-83141584D01*
X140954016Y-83147302D01*
X141116871Y-83153990D01*
X141319567Y-83161398D01*
X141555482Y-83169280D01*
X141817996Y-83177385D01*
X142100489Y-83185466D01*
X142191413Y-83187997D01*
X142678689Y-83202734D01*
X143105045Y-83217803D01*
X143472346Y-83233300D01*
X143782455Y-83249319D01*
X144037233Y-83265954D01*
X144238545Y-83283300D01*
X144388253Y-83301451D01*
X144414691Y-83306051D01*
X144532344Y-83349689D01*
X144642613Y-83438141D01*
X144654129Y-83449846D01*
X144796350Y-83623121D01*
X144942538Y-83849541D01*
X145089578Y-84120303D01*
X145234359Y-84426603D01*
X145373766Y-84759637D01*
X145504686Y-85110604D01*
X145624006Y-85470700D01*
X145728612Y-85831121D01*
X145815393Y-86183065D01*
X145881233Y-86517728D01*
X145923020Y-86826308D01*
X145937641Y-87100000D01*
X145933640Y-87236015D01*
X145901685Y-87548980D01*
X145840705Y-87898323D01*
X145754206Y-88272862D01*
X145645694Y-88661416D01*
X145518676Y-89052804D01*
X145376657Y-89435845D01*
X145223143Y-89799358D01*
X145061640Y-90132161D01*
X144895655Y-90423073D01*
X144784299Y-90593437D01*
X144689079Y-90717025D01*
X144598431Y-90802092D01*
X144500378Y-90857547D01*
X144382947Y-90892302D01*
X144234162Y-90915267D01*
X144142279Y-90924560D01*
X143963531Y-90938217D01*
X143732584Y-90952318D01*
X143455807Y-90966582D01*
X143139570Y-90980730D01*
X142790241Y-90994482D01*
X142414189Y-91007559D01*
X142017783Y-91019680D01*
X141607392Y-91030568D01*
X141605099Y-91030624D01*
X141381922Y-91036888D01*
X141181013Y-91044022D01*
X141010535Y-91051616D01*
X140878656Y-91059258D01*
X140793541Y-91066537D01*
X140763355Y-91073043D01*
X132753935Y-91073043D01*
X132687178Y-90909406D01*
X132575314Y-90618137D01*
X132198755Y-89661704D01*
X131769478Y-88657984D01*
X131299082Y-87636398D01*
X131222849Y-87476641D01*
X131153560Y-87331846D01*
X131124159Y-87270640D01*
X133647354Y-87270640D01*
X133651669Y-87532140D01*
X133663649Y-87749919D01*
X133712617Y-88179892D01*
X133805160Y-88665298D01*
X133935368Y-89106599D01*
X134105481Y-89508935D01*
X134317741Y-89877443D01*
X134574388Y-90217263D01*
X134877665Y-90533534D01*
X134898127Y-90552278D01*
X135029157Y-90659874D01*
X135171746Y-90760969D01*
X135298468Y-90835857D01*
X135335119Y-90853890D01*
X135473501Y-90915607D01*
X135610546Y-90968379D01*
X135732371Y-91007602D01*
X135825093Y-91028673D01*
X135874832Y-91026988D01*
X135877426Y-91020636D01*
X135865354Y-90971211D01*
X135829416Y-90885763D01*
X135775119Y-90778039D01*
X135649480Y-90545113D01*
X135926728Y-90526230D01*
X136191642Y-90506184D01*
X136729263Y-90450885D01*
X137211967Y-90378999D01*
X137644152Y-90289368D01*
X138030212Y-90180838D01*
X138374545Y-90052255D01*
X138681546Y-89902461D01*
X138955613Y-89730303D01*
X139041952Y-89665831D01*
X139151153Y-89571705D01*
X139222969Y-89492151D01*
X139248834Y-89435774D01*
X139224712Y-89431436D01*
X139146830Y-89428276D01*
X139024865Y-89426982D01*
X138868839Y-89427652D01*
X138688772Y-89430382D01*
X138582476Y-89431785D01*
X138352950Y-89430894D01*
X138120391Y-89425557D01*
X137906827Y-89416383D01*
X137734286Y-89403981D01*
X137666272Y-89397205D01*
X137384589Y-89364008D01*
X137085849Y-89321671D01*
X136780030Y-89272162D01*
X136477109Y-89217448D01*
X136187063Y-89159497D01*
X135919868Y-89100278D01*
X135685502Y-89041759D01*
X135493941Y-88985906D01*
X135355162Y-88934689D01*
X135344298Y-88929846D01*
X135285047Y-88899449D01*
X135241035Y-88862398D01*
X135203127Y-88805506D01*
X135162188Y-88715585D01*
X135109084Y-88579449D01*
X135064983Y-88459316D01*
X134921984Y-87977853D01*
X134839124Y-87507890D01*
X134816405Y-87043301D01*
X134853825Y-86577964D01*
X134951385Y-86105755D01*
X135109084Y-85620551D01*
X135118263Y-85596461D01*
X135168939Y-85468165D01*
X135208833Y-85384089D01*
X135247078Y-85331046D01*
X135292809Y-85295849D01*
X135355162Y-85265311D01*
X135385040Y-85252778D01*
X135538250Y-85200190D01*
X135741693Y-85143469D01*
X135985394Y-85084583D01*
X136259374Y-85025501D01*
X136553658Y-84968190D01*
X136858268Y-84914618D01*
X137163227Y-84866754D01*
X137458559Y-84826565D01*
X137734286Y-84796019D01*
X137813676Y-84789479D01*
X138009393Y-84778609D01*
X138235167Y-84771269D01*
X138468969Y-84768069D01*
X138688772Y-84769618D01*
X138851076Y-84772162D01*
X139010067Y-84773041D01*
X139136038Y-84771947D01*
X139218967Y-84768977D01*
X139248834Y-84764226D01*
X139237836Y-84730928D01*
X139181327Y-84658605D01*
X139084397Y-84568659D01*
X138955613Y-84469697D01*
X138834290Y-84388248D01*
X138545732Y-84226444D01*
X138222232Y-84086477D01*
X137859394Y-83967193D01*
X137452820Y-83867435D01*
X136998116Y-83786049D01*
X136490884Y-83721879D01*
X135926728Y-83673771D01*
X135649480Y-83654887D01*
X135775119Y-83421961D01*
X135796605Y-83381148D01*
X135844874Y-83279921D01*
X135872785Y-83205961D01*
X135874832Y-83173012D01*
X135866176Y-83169993D01*
X135802971Y-83175069D01*
X135700160Y-83201891D01*
X135571233Y-83245970D01*
X135429682Y-83302816D01*
X135288997Y-83367941D01*
X135283884Y-83370520D01*
X135135875Y-83463149D01*
X134966653Y-83597281D01*
X134788049Y-83761384D01*
X134611893Y-83943924D01*
X134450015Y-84133367D01*
X134314247Y-84318182D01*
X134115037Y-84664667D01*
X133940228Y-85079239D01*
X133805395Y-85536679D01*
X133712019Y-86032771D01*
X133696126Y-86164432D01*
X133675090Y-86412315D01*
X133659596Y-86691878D01*
X133650174Y-86984269D01*
X133647354Y-87270640D01*
X131124159Y-87270640D01*
X131098455Y-87217130D01*
X131061842Y-87141462D01*
X131048029Y-87113810D01*
X131049036Y-87110869D01*
X131068487Y-87066959D01*
X131109677Y-86976953D01*
X131168728Y-86849245D01*
X131241763Y-86692231D01*
X131324904Y-86514307D01*
X131400016Y-86353356D01*
X131677192Y-85748244D01*
X131927954Y-85181100D01*
X132157658Y-84639361D01*
X132371660Y-84110469D01*
X132575314Y-83581863D01*
X132681760Y-83304355D01*
X132780977Y-83060227D01*
X132871858Y-82855142D01*
X132959537Y-82678147D01*
X133049147Y-82518290D01*
X133145821Y-82364617D01*
X133186504Y-82305392D01*
X133335340Y-82120594D01*
X133495209Y-81964088D01*
X133656805Y-81843154D01*
X133810821Y-81765073D01*
X133947951Y-81737125D01*
X134005044Y-81743695D01*
X134107176Y-81765832D01*
X134222643Y-81798228D01*
X134452819Y-81861656D01*
X134904100Y-81943343D01*
X135397649Y-81982666D01*
X135930977Y-81980078D01*
X136501599Y-81936031D01*
X137107029Y-81850977D01*
X137744778Y-81725369D01*
X138412362Y-81559660D01*
X139107293Y-81354301D01*
X139827085Y-81109745D01*
X140569251Y-80826445D01*
X141331305Y-80504853D01*
X141723699Y-80338484D01*
X142104414Y-80192381D01*
X142488249Y-80061851D01*
X142890177Y-79942125D01*
X143325170Y-79828435D01*
X143808199Y-79716013D01*
X144123312Y-79649938D01*
X144558447Y-79567826D01*
X145036993Y-79486112D01*
X145548130Y-79406468D01*
X146081038Y-79330567D01*
X146624899Y-79260078D01*
X147168891Y-79196676D01*
X147229873Y-79188327D01*
X147287931Y-79173664D01*
X147348330Y-79147479D01*
X147420400Y-79104122D01*
X147513473Y-79037943D01*
X147636879Y-78943291D01*
X147799947Y-78814515D01*
X147913519Y-78724891D01*
X148222346Y-78488305D01*
X148493956Y-78292537D01*
X148733601Y-78134464D01*
X148946535Y-78010960D01*
X149138010Y-77918900D01*
X149313281Y-77855160D01*
X149477599Y-77816615D01*
X149557922Y-77804712D01*
X149632127Y-77800027D01*
X149710065Y-77805126D01*
G37*
G36*
X156332499Y-62093628D02*
G01*
X156376604Y-62141753D01*
X156451555Y-62228136D01*
X156551362Y-62345752D01*
X156670038Y-62487576D01*
X156801595Y-62646584D01*
X156968693Y-62848450D01*
X157604481Y-63595004D01*
X158235329Y-64301934D01*
X158859217Y-64967415D01*
X159474128Y-65589619D01*
X160078042Y-66166720D01*
X160668943Y-66696891D01*
X161244811Y-67178306D01*
X161803628Y-67609138D01*
X162343376Y-67987561D01*
X162862038Y-68311748D01*
X163357594Y-68579873D01*
X163691336Y-68745239D01*
X164177966Y-68445503D01*
X164538161Y-68227458D01*
X165337574Y-67769513D01*
X166148312Y-67339397D01*
X166964013Y-66939778D01*
X167778316Y-66573320D01*
X168584859Y-66242692D01*
X169377282Y-65950558D01*
X170149223Y-65699587D01*
X170894320Y-65492444D01*
X171606212Y-65331796D01*
X171752055Y-65304370D01*
X171947512Y-65270711D01*
X172150520Y-65238538D01*
X172351118Y-65209174D01*
X172539342Y-65183943D01*
X172705232Y-65164167D01*
X172838824Y-65151169D01*
X172930156Y-65146272D01*
X172969267Y-65150799D01*
X172970309Y-65153768D01*
X172964903Y-65200640D01*
X172945036Y-65293719D01*
X172913400Y-65421274D01*
X172872687Y-65571577D01*
X172781152Y-65908287D01*
X172618358Y-66563014D01*
X172460709Y-67268560D01*
X172309608Y-68017054D01*
X172166464Y-68800622D01*
X172032681Y-69611393D01*
X171909666Y-70441494D01*
X171798825Y-71283053D01*
X171701564Y-72128199D01*
X171687804Y-72259552D01*
X171648596Y-72659256D01*
X171611292Y-73076381D01*
X171576182Y-73505197D01*
X171543556Y-73939970D01*
X171513703Y-74374969D01*
X171486912Y-74804462D01*
X171463474Y-75222718D01*
X171443677Y-75624004D01*
X171427812Y-76002590D01*
X171416167Y-76352742D01*
X171409033Y-76668730D01*
X171406698Y-76944821D01*
X171409453Y-77175284D01*
X171417587Y-77354387D01*
X171431390Y-77476398D01*
X171433262Y-77485958D01*
X171456180Y-77577712D01*
X171496282Y-77717738D01*
X171550544Y-77896255D01*
X171615943Y-78103485D01*
X171689453Y-78329650D01*
X171768051Y-78564969D01*
X171830588Y-78750444D01*
X171987712Y-79224044D01*
X172132097Y-79670485D01*
X172261770Y-80083418D01*
X172374756Y-80456489D01*
X172469082Y-80783347D01*
X172542772Y-81057640D01*
X172552740Y-81096918D01*
X172591196Y-81257064D01*
X172614855Y-81381766D01*
X172626049Y-81491883D01*
X172627110Y-81608275D01*
X172620368Y-81751801D01*
X172609012Y-81895908D01*
X172585126Y-82089212D01*
X172548954Y-82299670D01*
X172498394Y-82537897D01*
X172431346Y-82814509D01*
X172345710Y-83140124D01*
X172286589Y-83349423D01*
X172199475Y-83638692D01*
X172095643Y-83968347D01*
X171978409Y-84328490D01*
X171851088Y-84709227D01*
X171716995Y-85100661D01*
X171579445Y-85492896D01*
X171441752Y-85876037D01*
X171307233Y-86240186D01*
X170984632Y-87100000D01*
X171307233Y-87959814D01*
X171422884Y-88272247D01*
X171560336Y-88653351D01*
X171698103Y-89044918D01*
X171832872Y-89437052D01*
X171961327Y-89819858D01*
X172080153Y-90183439D01*
X172186036Y-90517900D01*
X172275660Y-90813344D01*
X172345710Y-91059876D01*
X172413489Y-91315779D01*
X172484600Y-91602654D01*
X172538743Y-91848718D01*
X172578019Y-92064586D01*
X172604527Y-92260874D01*
X172620368Y-92448199D01*
X172622280Y-92480989D01*
X172627606Y-92617223D01*
X172624649Y-92730618D01*
X172611080Y-92842032D01*
X172584564Y-92972327D01*
X172542772Y-93142360D01*
X172517368Y-93239837D01*
X172435616Y-93534821D01*
X172333979Y-93879960D01*
X172214429Y-94268903D01*
X172078942Y-94695296D01*
X171929491Y-95152790D01*
X171768051Y-95635031D01*
X171755241Y-95672947D01*
X171677254Y-95907457D01*
X171604840Y-96131246D01*
X171541022Y-96334533D01*
X171488825Y-96507541D01*
X171451273Y-96640491D01*
X171431390Y-96723603D01*
X171426026Y-96758455D01*
X171414190Y-96900587D01*
X171407923Y-97097856D01*
X171406937Y-97344529D01*
X171410942Y-97634876D01*
X171419647Y-97963163D01*
X171432764Y-98323660D01*
X171450004Y-98710634D01*
X171471075Y-99118354D01*
X171495690Y-99541088D01*
X171523558Y-99973103D01*
X171554390Y-100408670D01*
X171587896Y-100842054D01*
X171623787Y-101267526D01*
X171661773Y-101679352D01*
X171701564Y-102071801D01*
X171753479Y-102538206D01*
X171858408Y-103382346D01*
X171976142Y-104218555D01*
X172105274Y-105038962D01*
X172244397Y-105835693D01*
X172392106Y-106600877D01*
X172546995Y-107326641D01*
X172707657Y-108005114D01*
X172872687Y-108628423D01*
X172882432Y-108663375D01*
X172921351Y-108809613D01*
X172950591Y-108930483D01*
X172967461Y-109014256D01*
X172969267Y-109049202D01*
X172941943Y-109053633D01*
X172859795Y-109050430D01*
X172733489Y-109038874D01*
X172572987Y-109020287D01*
X172388251Y-108995994D01*
X172189243Y-108967316D01*
X171985926Y-108935576D01*
X171788262Y-108902098D01*
X171606212Y-108868204D01*
X171285070Y-108800652D01*
X170557198Y-108618404D01*
X169799031Y-108390880D01*
X169016931Y-108120747D01*
X168217260Y-107810673D01*
X167406377Y-107463323D01*
X166590645Y-107081363D01*
X165776425Y-106667462D01*
X164970078Y-106224284D01*
X164177966Y-105754497D01*
X163691336Y-105454761D01*
X163357594Y-105620127D01*
X163230139Y-105684835D01*
X162728336Y-105967821D01*
X162203956Y-106306391D01*
X161659018Y-106698718D01*
X161095540Y-107142976D01*
X160515539Y-107637338D01*
X159921035Y-108179978D01*
X159314045Y-108769070D01*
X158696588Y-109402786D01*
X158070682Y-110079300D01*
X157438345Y-110796785D01*
X157205100Y-111073943D01*
X156801595Y-111553416D01*
X156732855Y-111636715D01*
X156607160Y-111787783D01*
X156497417Y-111918063D01*
X156409616Y-112020531D01*
X156349744Y-112088161D01*
X156323789Y-112113930D01*
X156302083Y-112099848D01*
X156257493Y-112038770D01*
X156198215Y-111939696D01*
X156130048Y-111813447D01*
X156058797Y-111670846D01*
X155990262Y-111522715D01*
X155930246Y-111379876D01*
X155918519Y-111349632D01*
X155853401Y-111166252D01*
X155786666Y-110955762D01*
X155721487Y-110730556D01*
X155661040Y-110503028D01*
X155608499Y-110285571D01*
X155567040Y-110090580D01*
X155539836Y-109930447D01*
X155530063Y-109817568D01*
X155530045Y-109814219D01*
X155517775Y-109766985D01*
X155474845Y-109769514D01*
X155469062Y-109771711D01*
X155376572Y-109802337D01*
X155235858Y-109844009D01*
X155058972Y-109893528D01*
X154857962Y-109947693D01*
X154644878Y-110003307D01*
X154431772Y-110057168D01*
X154230693Y-110106079D01*
X154053690Y-110146839D01*
X153748674Y-110212073D01*
X153313386Y-110295663D01*
X152895965Y-110362663D01*
X152483011Y-110414432D01*
X152061120Y-110452331D01*
X151616894Y-110477719D01*
X151136929Y-110491954D01*
X150607827Y-110496398D01*
X150563435Y-110496389D01*
X150226576Y-110495483D01*
X149939059Y-110492547D01*
X149688608Y-110486813D01*
X149462944Y-110477513D01*
X149249791Y-110463881D01*
X149036872Y-110445147D01*
X148811909Y-110420546D01*
X148562627Y-110389309D01*
X148276747Y-110350670D01*
X148263388Y-110348817D01*
X147426036Y-110207969D01*
X146572398Y-110017774D01*
X145717103Y-109782629D01*
X144874782Y-109506929D01*
X144060064Y-109195070D01*
X143287578Y-108851450D01*
X143219786Y-108818669D01*
X143029952Y-108724398D01*
X142838453Y-108626137D01*
X142653606Y-108528462D01*
X142483724Y-108435948D01*
X142337120Y-108353171D01*
X142222110Y-108284705D01*
X142147007Y-108235126D01*
X142120125Y-108209008D01*
X142124709Y-108201793D01*
X142167781Y-108164080D01*
X142246495Y-108104741D01*
X142348883Y-108032984D01*
X142470849Y-107947356D01*
X142705089Y-107771613D01*
X142959485Y-107569016D01*
X143219452Y-107351596D01*
X143470407Y-107131382D01*
X143697765Y-106920402D01*
X144060622Y-106571918D01*
X143871305Y-106471789D01*
X143424707Y-106219368D01*
X142802593Y-105811219D01*
X142194919Y-105344565D01*
X141600555Y-104818452D01*
X141018368Y-104231925D01*
X140447228Y-103584031D01*
X140302864Y-103412025D01*
X139811923Y-102845709D01*
X139337233Y-102328746D01*
X138872049Y-101854428D01*
X138409626Y-101416052D01*
X137943221Y-101006911D01*
X137466088Y-100620301D01*
X137451922Y-100609233D01*
X137334366Y-100514529D01*
X137238603Y-100432448D01*
X137174158Y-100371454D01*
X137150560Y-100340008D01*
X137162616Y-100316573D01*
X137222881Y-100266134D01*
X137323965Y-100203502D01*
X137454829Y-100134758D01*
X137604437Y-100065983D01*
X137761750Y-100003260D01*
X137846597Y-99974242D01*
X138021406Y-99921714D01*
X138212935Y-99870901D01*
X138392747Y-99829629D01*
X138526935Y-99801129D01*
X138647206Y-99773826D01*
X138731285Y-99752714D01*
X138766319Y-99740845D01*
X138767353Y-99732882D01*
X138745110Y-99682590D01*
X138692769Y-99596638D01*
X138617029Y-99484718D01*
X138524590Y-99356520D01*
X138422153Y-99221738D01*
X138316418Y-99090062D01*
X137991320Y-98735464D01*
X137616467Y-98408816D01*
X137213141Y-98137414D01*
X136778753Y-97919535D01*
X136310715Y-97753454D01*
X136160186Y-97713767D01*
X135718310Y-97637137D01*
X135249554Y-97609655D01*
X134762019Y-97630352D01*
X134263805Y-97698258D01*
X133763011Y-97812403D01*
X133267737Y-97971816D01*
X132786083Y-98175528D01*
X132775565Y-98180544D01*
X132623182Y-98250330D01*
X132517477Y-98291650D01*
X132450720Y-98307082D01*
X132415183Y-98299203D01*
X132366510Y-98244380D01*
X132294079Y-98143472D01*
X132204711Y-98007274D01*
X132104684Y-97846138D01*
X132000280Y-97670416D01*
X131897779Y-97490459D01*
X131803460Y-97316620D01*
X131723603Y-97159249D01*
X131635596Y-96967538D01*
X131540022Y-96742010D01*
X131450817Y-96515845D01*
X131379518Y-96317271D01*
X131238707Y-95895163D01*
X130919874Y-95695739D01*
X130247381Y-95250196D01*
X129459569Y-94659798D01*
X128710020Y-94019962D01*
X128000678Y-93332478D01*
X127333486Y-92599134D01*
X126710386Y-91821717D01*
X126348027Y-91320064D01*
X125873109Y-90597399D01*
X125436957Y-89854745D01*
X125044907Y-89101901D01*
X124702294Y-88348667D01*
X124414456Y-87604845D01*
X124396115Y-87552206D01*
X124344260Y-87397904D01*
X124302166Y-87264537D01*
X124273763Y-87164898D01*
X124262980Y-87111778D01*
X124264134Y-87100000D01*
X127984473Y-87100000D01*
X127987529Y-87108703D01*
X128012856Y-87164747D01*
X128060491Y-87265016D01*
X128126424Y-87401201D01*
X128206645Y-87564988D01*
X128297145Y-87748067D01*
X128607851Y-88351264D01*
X129071862Y-89172878D01*
X129555280Y-89938133D01*
X130059723Y-90649689D01*
X130232666Y-90874401D01*
X130644846Y-91372435D01*
X131079051Y-91849164D01*
X131527231Y-92296764D01*
X131981341Y-92707412D01*
X132433331Y-93073286D01*
X132875156Y-93386563D01*
X132999205Y-93464792D01*
X133180441Y-93571946D01*
X133376712Y-93681891D01*
X133574323Y-93787356D01*
X133759580Y-93881069D01*
X133918789Y-93955759D01*
X134038254Y-94004155D01*
X134080570Y-94020593D01*
X134123952Y-94053376D01*
X134121721Y-94096423D01*
X134102882Y-94176164D01*
X134089434Y-94300400D01*
X134082384Y-94447710D01*
X134082211Y-94597954D01*
X134089391Y-94730993D01*
X134104403Y-94826688D01*
X134141930Y-94964928D01*
X134368357Y-94944836D01*
X134421540Y-94940697D01*
X134550748Y-94932400D01*
X134723548Y-94922618D01*
X134927950Y-94911991D01*
X135151965Y-94901156D01*
X135383603Y-94890754D01*
X135587774Y-94882936D01*
X136414747Y-94871655D01*
X137220203Y-94893329D01*
X138000165Y-94947237D01*
X138750660Y-95032657D01*
X139467713Y-95148868D01*
X140147350Y-95295148D01*
X140785596Y-95470777D01*
X141378475Y-95675032D01*
X141922015Y-95907193D01*
X142412240Y-96166537D01*
X142528367Y-96236426D01*
X143000713Y-96553736D01*
X143412824Y-96888564D01*
X143764567Y-97240779D01*
X144055805Y-97610247D01*
X144286403Y-97996836D01*
X144298300Y-98020482D01*
X144346252Y-98119876D01*
X144377605Y-98191753D01*
X144386063Y-98221897D01*
X144385631Y-98222094D01*
X144350441Y-98213369D01*
X144268919Y-98185977D01*
X144152669Y-98143977D01*
X144013293Y-98091431D01*
X143762711Y-98000271D01*
X143465050Y-97902174D01*
X143159842Y-97810737D01*
X142863438Y-97730598D01*
X142592183Y-97666399D01*
X142362427Y-97622781D01*
X142245681Y-97605852D01*
X142124800Y-97591570D01*
X142039100Y-97585317D01*
X142002094Y-97588383D01*
X142001551Y-97589203D01*
X142010114Y-97627611D01*
X142044069Y-97712395D01*
X142099238Y-97835049D01*
X142171442Y-97987068D01*
X142256500Y-98159948D01*
X142350234Y-98345182D01*
X142448464Y-98534266D01*
X142547010Y-98718695D01*
X142641693Y-98889963D01*
X142663637Y-98928566D01*
X142837064Y-99219574D01*
X143039216Y-99538778D01*
X143258755Y-99869418D01*
X143484345Y-100194734D01*
X143704647Y-100497968D01*
X143908326Y-100762360D01*
X144025557Y-100906071D01*
X144419972Y-101356534D01*
X144851327Y-101805322D01*
X145304806Y-102238097D01*
X145765592Y-102640522D01*
X146218870Y-102998258D01*
X146561092Y-103241902D01*
X147169055Y-103628646D01*
X147809094Y-103982967D01*
X148467787Y-104298146D01*
X149131714Y-104567469D01*
X149787454Y-104784217D01*
X149894108Y-104814273D01*
X150145243Y-104879181D01*
X150413248Y-104941795D01*
X150682668Y-104998924D01*
X150938045Y-105047382D01*
X151163924Y-105083978D01*
X151344846Y-105105524D01*
X151371088Y-105107895D01*
X151480304Y-105121456D01*
X151557009Y-105137023D01*
X151585963Y-105151678D01*
X151578717Y-105166249D01*
X151530914Y-105219060D01*
X151445059Y-105300072D01*
X151328951Y-105402713D01*
X151190387Y-105520407D01*
X151037166Y-105646579D01*
X150877087Y-105774656D01*
X150717949Y-105898064D01*
X150567549Y-106010227D01*
X150434647Y-106105505D01*
X149933761Y-106443125D01*
X149379255Y-106786281D01*
X148777765Y-107130817D01*
X148646136Y-107203472D01*
X148477184Y-107296866D01*
X148352966Y-107366176D01*
X148267076Y-107415445D01*
X148213106Y-107448713D01*
X148184650Y-107470020D01*
X148175300Y-107483408D01*
X148178651Y-107492916D01*
X148188295Y-107502586D01*
X148188648Y-107502940D01*
X148237864Y-107521648D01*
X148345582Y-107541537D01*
X148507308Y-107562161D01*
X148718549Y-107583074D01*
X148974812Y-107603831D01*
X149271603Y-107623986D01*
X149604427Y-107643092D01*
X149828920Y-107653079D01*
X150572604Y-107662187D01*
X151358118Y-107637624D01*
X152177222Y-107580216D01*
X153021675Y-107490792D01*
X153883236Y-107370178D01*
X154753665Y-107219202D01*
X155624721Y-107038691D01*
X155735700Y-107013370D01*
X155940898Y-106964918D01*
X156159161Y-106911705D01*
X156379847Y-106856476D01*
X156592313Y-106801975D01*
X156785918Y-106750946D01*
X156950019Y-106706133D01*
X157073975Y-106670279D01*
X157147144Y-106646130D01*
X157160455Y-106642636D01*
X157175057Y-106648724D01*
X157185867Y-106674082D01*
X157193476Y-106726016D01*
X157198476Y-106811832D01*
X157201458Y-106938836D01*
X157203012Y-107114334D01*
X157203730Y-107345630D01*
X157205100Y-108066832D01*
X157384558Y-107861739D01*
X157539551Y-107688282D01*
X157867049Y-107340962D01*
X158241913Y-106965878D01*
X158665167Y-106562080D01*
X159137835Y-106128620D01*
X159660940Y-105664551D01*
X160235505Y-105168924D01*
X160862556Y-104640791D01*
X160945943Y-104571431D01*
X161179515Y-104378322D01*
X161428589Y-104173896D01*
X161688566Y-103961815D01*
X161954851Y-103745740D01*
X162222846Y-103529334D01*
X162487957Y-103316258D01*
X162745585Y-103110175D01*
X162991135Y-102914746D01*
X163220011Y-102733633D01*
X163427615Y-102570498D01*
X163609351Y-102429003D01*
X163760622Y-102312810D01*
X163876833Y-102225581D01*
X163953387Y-102170978D01*
X163985687Y-102152662D01*
X163992976Y-102158333D01*
X164031241Y-102202733D01*
X164092631Y-102281487D01*
X164167902Y-102382917D01*
X164354172Y-102623472D01*
X164652687Y-102964305D01*
X164996559Y-103314956D01*
X165377916Y-103668219D01*
X165788889Y-104016891D01*
X166221607Y-104353768D01*
X166668199Y-104671644D01*
X166723822Y-104709167D01*
X167204411Y-105017304D01*
X167720123Y-105322040D01*
X168257611Y-105616560D01*
X168803531Y-105894048D01*
X169344537Y-106147689D01*
X169867284Y-106370669D01*
X170358427Y-106556171D01*
X170445058Y-106585962D01*
X170556058Y-106622501D01*
X170633663Y-106645955D01*
X170664860Y-106652242D01*
X170659813Y-106624416D01*
X170638494Y-106548013D01*
X170604236Y-106435301D01*
X170560627Y-106298453D01*
X170554270Y-106278842D01*
X170410660Y-105807827D01*
X170265308Y-105279143D01*
X170119247Y-104697934D01*
X169973512Y-104069344D01*
X169829135Y-103398516D01*
X169687149Y-102690594D01*
X169548587Y-101950722D01*
X169414484Y-101184044D01*
X169285872Y-100395703D01*
X169163784Y-99590843D01*
X169049254Y-98774608D01*
X169045494Y-98746749D01*
X169019742Y-98559942D01*
X168996371Y-98396990D01*
X168976835Y-98267571D01*
X168962590Y-98181365D01*
X168955089Y-98148049D01*
X168953904Y-98147786D01*
X168919141Y-98165837D01*
X168845028Y-98213840D01*
X168741490Y-98285156D01*
X168618453Y-98373150D01*
X168606982Y-98381471D01*
X168452387Y-98491107D01*
X168272204Y-98615070D01*
X168072932Y-98749232D01*
X167861069Y-98889468D01*
X167643111Y-99031651D01*
X167425556Y-99171655D01*
X167214901Y-99305353D01*
X167017645Y-99428620D01*
X166840285Y-99537329D01*
X166689318Y-99627353D01*
X166571242Y-99694567D01*
X166492554Y-99734844D01*
X166459751Y-99744057D01*
X166468027Y-99717108D01*
X166498851Y-99637546D01*
X166550046Y-99511154D01*
X166619225Y-99343673D01*
X166704001Y-99140843D01*
X166801986Y-98908406D01*
X166910793Y-98652102D01*
X167028033Y-98377673D01*
X167167132Y-98052372D01*
X167493299Y-97283623D01*
X167796102Y-96561113D01*
X168075234Y-95885659D01*
X168330388Y-95258081D01*
X168561257Y-94679195D01*
X168767536Y-94149819D01*
X168948917Y-93670771D01*
X169105094Y-93242870D01*
X169235760Y-92866932D01*
X169340609Y-92543775D01*
X169419334Y-92274219D01*
X169471628Y-92059079D01*
X169497185Y-91899174D01*
X169495699Y-91795323D01*
X169470789Y-91701054D01*
X169415060Y-91539870D01*
X169335964Y-91339147D01*
X169237620Y-91107545D01*
X169124150Y-90853726D01*
X168999675Y-90586353D01*
X168868316Y-90314085D01*
X168734194Y-90045584D01*
X168601431Y-89789512D01*
X168474147Y-89554531D01*
X168356464Y-89349301D01*
X168252502Y-89182485D01*
X168189816Y-89089351D01*
X168043621Y-88888927D01*
X167910058Y-88735142D01*
X167780427Y-88619795D01*
X167646027Y-88534690D01*
X167498158Y-88471628D01*
X167474883Y-88463781D01*
X167357576Y-88427966D01*
X167198560Y-88383314D01*
X167007172Y-88332104D01*
X166792747Y-88276612D01*
X166564620Y-88219118D01*
X166332129Y-88161898D01*
X166104608Y-88107231D01*
X165891393Y-88057396D01*
X165701820Y-88014670D01*
X165545225Y-87981330D01*
X165430944Y-87959656D01*
X165368312Y-87951926D01*
X165358761Y-87952696D01*
X165341401Y-87964001D01*
X165333621Y-87995375D01*
X165336098Y-88055156D01*
X165349508Y-88151682D01*
X165374527Y-88293292D01*
X165411833Y-88488323D01*
X165495652Y-88853196D01*
X165618754Y-89248659D01*
X165766710Y-89608853D01*
X165936783Y-89929839D01*
X166126239Y-90207678D01*
X166332342Y-90438428D01*
X166552355Y-90618150D01*
X166783542Y-90742905D01*
X167023168Y-90808753D01*
X167173044Y-90830395D01*
X167172936Y-91150229D01*
X167170218Y-91354126D01*
X167132366Y-91954730D01*
X167051806Y-92552624D01*
X166930920Y-93139983D01*
X166772090Y-93708983D01*
X166577697Y-94251799D01*
X166350122Y-94760605D01*
X166091749Y-95227577D01*
X165804957Y-95644890D01*
X165793033Y-95660301D01*
X165702091Y-95773942D01*
X165606594Y-95887736D01*
X165515368Y-95991820D01*
X165437236Y-96076332D01*
X165381023Y-96131409D01*
X165355552Y-96147187D01*
X165355555Y-96135149D01*
X165365513Y-96071832D01*
X165386306Y-95963937D01*
X165415819Y-95822215D01*
X165451936Y-95657417D01*
X165510388Y-95383584D01*
X165580813Y-95022010D01*
X165648328Y-94643322D01*
X165709627Y-94267050D01*
X165761403Y-93912724D01*
X165800347Y-93599876D01*
X165814344Y-93448556D01*
X165828219Y-93235537D01*
X165838558Y-93002367D01*
X165845112Y-92762889D01*
X165847635Y-92530946D01*
X165845881Y-92320380D01*
X165839602Y-92145035D01*
X165828551Y-92018752D01*
X165827091Y-92008473D01*
X165811650Y-91934878D01*
X165782093Y-91882332D01*
X165724497Y-91834048D01*
X165624941Y-91773239D01*
X165539127Y-91720889D01*
X165234366Y-91493477D01*
X164940086Y-91209638D01*
X164659828Y-90874383D01*
X164397132Y-90492720D01*
X164155535Y-90069659D01*
X163938579Y-89610209D01*
X163749801Y-89119379D01*
X163699486Y-88966286D01*
X163630962Y-88740117D01*
X163562585Y-88497325D01*
X163498345Y-88253199D01*
X163442234Y-88023027D01*
X163398242Y-87822097D01*
X163370359Y-87665698D01*
X163349681Y-87521458D01*
X162295400Y-87319405D01*
X162101140Y-87281879D01*
X161868022Y-87236005D01*
X161661324Y-87194386D01*
X161488164Y-87158501D01*
X161355663Y-87129832D01*
X161270942Y-87109860D01*
X161241119Y-87100068D01*
X161258964Y-87093486D01*
X161331691Y-87075745D01*
X161453829Y-87048983D01*
X161618251Y-87014681D01*
X161817832Y-86974319D01*
X162045447Y-86929378D01*
X162293971Y-86881337D01*
X163346823Y-86679891D01*
X163386513Y-86456095D01*
X163475152Y-86020416D01*
X163617819Y-85479954D01*
X163790751Y-84963593D01*
X163991286Y-84476131D01*
X164216758Y-84022361D01*
X164464504Y-83607081D01*
X164731859Y-83235085D01*
X165016160Y-82911169D01*
X165314742Y-82640130D01*
X165624941Y-82426761D01*
X165638599Y-82418811D01*
X165732769Y-82360237D01*
X165786536Y-82312310D01*
X165813822Y-82258243D01*
X165828551Y-82181248D01*
X165838051Y-82080507D01*
X165845132Y-81912597D01*
X165847645Y-81707091D01*
X165845838Y-81477832D01*
X165839958Y-81238663D01*
X165830252Y-81003427D01*
X165816966Y-80785967D01*
X165800347Y-80600124D01*
X165768918Y-80343162D01*
X165719064Y-79994429D01*
X165659131Y-79620474D01*
X165592427Y-79240828D01*
X165522260Y-78875021D01*
X165451936Y-78542584D01*
X165430536Y-78445864D01*
X165397948Y-78292986D01*
X165373178Y-78169351D01*
X165358341Y-78085710D01*
X165355552Y-78052813D01*
X165356947Y-78052288D01*
X165387276Y-78074191D01*
X165447107Y-78134005D01*
X165527615Y-78221867D01*
X165619975Y-78327914D01*
X165715364Y-78442282D01*
X165804957Y-78555110D01*
X165905733Y-78691258D01*
X166183109Y-79126372D01*
X166431254Y-79608479D01*
X166647788Y-80129754D01*
X166830330Y-80682372D01*
X166976497Y-81258507D01*
X167083908Y-81850336D01*
X167150182Y-82450032D01*
X167172936Y-83049771D01*
X167173044Y-83369605D01*
X167023168Y-83391247D01*
X166816877Y-83444154D01*
X166584334Y-83560843D01*
X166362580Y-83733054D01*
X166154351Y-83956849D01*
X165962382Y-84228288D01*
X165789410Y-84543429D01*
X165638171Y-84898335D01*
X165511400Y-85289064D01*
X165411833Y-85711677D01*
X165395277Y-85797235D01*
X165363005Y-85969734D01*
X165342745Y-86092172D01*
X165333823Y-86172887D01*
X165335561Y-86220217D01*
X165347283Y-86242500D01*
X165368312Y-86248075D01*
X165379887Y-86247456D01*
X165457346Y-86235646D01*
X165583854Y-86210569D01*
X165750065Y-86174501D01*
X165946634Y-86129719D01*
X166164216Y-86078500D01*
X166393464Y-86023121D01*
X166625034Y-85965859D01*
X166849580Y-85908991D01*
X167057757Y-85854793D01*
X167240218Y-85805544D01*
X167387620Y-85763519D01*
X167490616Y-85730995D01*
X167555229Y-85707764D01*
X167683900Y-85652362D01*
X167787336Y-85587450D01*
X167885737Y-85498775D01*
X167999303Y-85372086D01*
X168106039Y-85234342D01*
X168246227Y-85026697D01*
X168399189Y-84776710D01*
X168560199Y-84493503D01*
X168724536Y-84186199D01*
X168887474Y-83863921D01*
X169044291Y-83535790D01*
X169190264Y-83210929D01*
X169320668Y-82898462D01*
X169430780Y-82607509D01*
X169517731Y-82362582D01*
X169463093Y-82104521D01*
X169436703Y-81991503D01*
X169369552Y-81749989D01*
X169276167Y-81453883D01*
X169157132Y-81104695D01*
X169013033Y-80703933D01*
X168844455Y-80253107D01*
X168651982Y-79753727D01*
X168436201Y-79207302D01*
X168197694Y-78615341D01*
X167937049Y-77979354D01*
X167654850Y-77300850D01*
X167351681Y-76581338D01*
X167028128Y-75822327D01*
X166918130Y-75564940D01*
X166808698Y-75307309D01*
X166709936Y-75073178D01*
X166624233Y-74868286D01*
X166553977Y-74698375D01*
X166501554Y-74569184D01*
X166469355Y-74486456D01*
X166459765Y-74455929D01*
X166464846Y-74455224D01*
X166512998Y-74474757D01*
X166604995Y-74524116D01*
X166734384Y-74599192D01*
X166894715Y-74695876D01*
X167079535Y-74810061D01*
X167282392Y-74937637D01*
X167496834Y-75074497D01*
X167716411Y-75216531D01*
X167934670Y-75359632D01*
X168145159Y-75499691D01*
X168341426Y-75632599D01*
X168517021Y-75754248D01*
X168665491Y-75860530D01*
X168760940Y-75929218D01*
X168858114Y-75996144D01*
X168926326Y-76039532D01*
X168954798Y-76052242D01*
X168955408Y-76051091D01*
X168964040Y-76009612D01*
X168979200Y-75916617D01*
X168999429Y-75781792D01*
X169023266Y-75614822D01*
X169049254Y-75425392D01*
X169054194Y-75388763D01*
X169169084Y-74572926D01*
X169291485Y-73768695D01*
X169420364Y-72981212D01*
X169554689Y-72215621D01*
X169693425Y-71477066D01*
X169835540Y-70770691D01*
X169980000Y-70101640D01*
X170125772Y-69475056D01*
X170271823Y-68896084D01*
X170417119Y-68369866D01*
X170560627Y-67901547D01*
X170601736Y-67772709D01*
X170636686Y-67658124D01*
X170658923Y-67579082D01*
X170664860Y-67547758D01*
X170647925Y-67548881D01*
X170580551Y-67567838D01*
X170471801Y-67604086D01*
X170331913Y-67653879D01*
X170171122Y-67713469D01*
X169999668Y-67779107D01*
X169827786Y-67847046D01*
X169665715Y-67913539D01*
X169312819Y-68066321D01*
X168605534Y-68400889D01*
X167916945Y-68764115D01*
X167255929Y-69150673D01*
X166631361Y-69555238D01*
X166052115Y-69972483D01*
X165527067Y-70397083D01*
X165379363Y-70527612D01*
X165156830Y-70734891D01*
X164932130Y-70955322D01*
X164713691Y-71179964D01*
X164509941Y-71399875D01*
X164329306Y-71606115D01*
X164180215Y-71789741D01*
X164071095Y-71941813D01*
X164055678Y-71965027D01*
X164011410Y-72024786D01*
X163985687Y-72048926D01*
X163977832Y-72044912D01*
X163927253Y-72009395D01*
X163835203Y-71940619D01*
X163707061Y-71842775D01*
X163548200Y-71720056D01*
X163363998Y-71576654D01*
X163159829Y-71416761D01*
X162941071Y-71244571D01*
X162713099Y-71064275D01*
X162481289Y-70880067D01*
X162251016Y-70696137D01*
X162045664Y-70530923D01*
X161698766Y-70249013D01*
X161336658Y-69951667D01*
X160968609Y-69646649D01*
X160603890Y-69341722D01*
X160251772Y-69044651D01*
X159921525Y-68763198D01*
X159622420Y-68505127D01*
X159363727Y-68278202D01*
X159239285Y-68166629D01*
X159022887Y-67968122D01*
X158790770Y-67750575D01*
X158550756Y-67521651D01*
X158310669Y-67289011D01*
X158078332Y-67060318D01*
X157861569Y-66843235D01*
X157668204Y-66645422D01*
X157506059Y-66474544D01*
X157382959Y-66338261D01*
X157205100Y-66133168D01*
X157203730Y-66854370D01*
X157203573Y-66917100D01*
X157202056Y-67143445D01*
X157198898Y-67314133D01*
X157193753Y-67435171D01*
X157186273Y-67512566D01*
X157176111Y-67552327D01*
X157162920Y-67560459D01*
X157136195Y-67551104D01*
X157039636Y-67521481D01*
X156899592Y-67481524D01*
X156728198Y-67434491D01*
X156537587Y-67383638D01*
X156339895Y-67332223D01*
X156147255Y-67283503D01*
X155971802Y-67240735D01*
X155215309Y-67072610D01*
X154118006Y-66869397D01*
X152990382Y-66707813D01*
X151822609Y-66586309D01*
X151813581Y-66585545D01*
X151584475Y-66570685D01*
X151307445Y-66559666D01*
X150994816Y-66552421D01*
X150658917Y-66548887D01*
X150312074Y-66548997D01*
X149966617Y-66552689D01*
X149634871Y-66559896D01*
X149329164Y-66570555D01*
X149061824Y-66584599D01*
X148845178Y-66601965D01*
X148732426Y-66613496D01*
X148517543Y-66636730D01*
X148359468Y-66657283D01*
X148253999Y-66677287D01*
X148196935Y-66698875D01*
X148184075Y-66724176D01*
X148211218Y-66755322D01*
X148274161Y-66794444D01*
X148368705Y-66843674D01*
X148636857Y-66984522D01*
X148979819Y-67176686D01*
X149343024Y-67391017D01*
X149711099Y-67618004D01*
X150068669Y-67848140D01*
X150400359Y-68071915D01*
X150690795Y-68279821D01*
X150831905Y-68387377D01*
X150983100Y-68507303D01*
X151133377Y-68630472D01*
X151274592Y-68749879D01*
X151398601Y-68858519D01*
X151497262Y-68949387D01*
X151562431Y-69015480D01*
X151585963Y-69049791D01*
X151584211Y-69052922D01*
X151542481Y-69067799D01*
X151456513Y-69083318D01*
X151341429Y-69096586D01*
X151216888Y-69109846D01*
X150896658Y-69158379D01*
X150539885Y-69229304D01*
X150160711Y-69319130D01*
X149773276Y-69424366D01*
X149391722Y-69541521D01*
X149030187Y-69667106D01*
X148908566Y-69714162D01*
X148651227Y-69822649D01*
X148363141Y-69953242D01*
X148059087Y-70098631D01*
X147753841Y-70251506D01*
X147462183Y-70404557D01*
X147198889Y-70550473D01*
X146978737Y-70681943D01*
X146922004Y-70717893D01*
X146442939Y-71041079D01*
X145967672Y-71394681D01*
X145525227Y-71757228D01*
X145388191Y-71878897D01*
X145139768Y-72112035D01*
X144874629Y-72373945D01*
X144605846Y-72651044D01*
X144346488Y-72929748D01*
X144109625Y-73196475D01*
X143908326Y-73437640D01*
X143698908Y-73709770D01*
X143472893Y-74021828D01*
X143241766Y-74356816D01*
X143016894Y-74697879D01*
X142809646Y-75028161D01*
X142631391Y-75330807D01*
X142543843Y-75488680D01*
X142443431Y-75675778D01*
X142344083Y-75866387D01*
X142249940Y-76052077D01*
X142165142Y-76224419D01*
X142093829Y-76374985D01*
X142040142Y-76495344D01*
X142008220Y-76577068D01*
X142002205Y-76611728D01*
X142040349Y-76618438D01*
X142130864Y-76612053D01*
X142262538Y-76593449D01*
X142425052Y-76564606D01*
X142608088Y-76527502D01*
X142801328Y-76484116D01*
X142994453Y-76436426D01*
X143177144Y-76386412D01*
X143209891Y-76376828D01*
X143417472Y-76313238D01*
X143636687Y-76242082D01*
X143843355Y-76171377D01*
X144013293Y-76109143D01*
X144023852Y-76105077D01*
X144161916Y-76052951D01*
X144276035Y-76011696D01*
X144354615Y-75985388D01*
X144386063Y-75978103D01*
X144386492Y-75980356D01*
X144372568Y-76020694D01*
X144337107Y-76099702D01*
X144286403Y-76203164D01*
X144118741Y-76493711D01*
X143853425Y-76852709D01*
X143533770Y-77196871D01*
X143164418Y-77522191D01*
X142750010Y-77824663D01*
X142295189Y-78100280D01*
X141804597Y-78345037D01*
X141643423Y-78415398D01*
X141014461Y-78653667D01*
X140336745Y-78856734D01*
X139613447Y-79024121D01*
X138847736Y-79155349D01*
X138042783Y-79249939D01*
X137201757Y-79307412D01*
X136327828Y-79327290D01*
X135424166Y-79309092D01*
X135207288Y-79299915D01*
X134975820Y-79289392D01*
X134763684Y-79279013D01*
X134581812Y-79269339D01*
X134441136Y-79260927D01*
X134352589Y-79254336D01*
X134142037Y-79234674D01*
X134104457Y-79373113D01*
X134089700Y-79465935D01*
X134082307Y-79598358D01*
X134082289Y-79748473D01*
X134089169Y-79896142D01*
X134102472Y-80021224D01*
X134121721Y-80103577D01*
X134127832Y-80127161D01*
X134108670Y-80163517D01*
X134038254Y-80195846D01*
X133947155Y-80231858D01*
X133795029Y-80301716D01*
X133614027Y-80392098D01*
X133417844Y-80495733D01*
X133220175Y-80605349D01*
X133034714Y-80713674D01*
X132875156Y-80813437D01*
X132793589Y-80867562D01*
X132450690Y-81111334D01*
X132111556Y-81380374D01*
X131764359Y-81684444D01*
X131397272Y-82033306D01*
X130977642Y-82463451D01*
X130478527Y-83027163D01*
X130006094Y-83623115D01*
X129556040Y-84257438D01*
X129124065Y-84936261D01*
X128705867Y-85665716D01*
X128297145Y-86451933D01*
X128253510Y-86540005D01*
X128167350Y-86715037D01*
X128093356Y-86866864D01*
X128035539Y-86987174D01*
X127997908Y-87067657D01*
X127984473Y-87100000D01*
X124264134Y-87100000D01*
X124268315Y-87057326D01*
X124297447Y-86935462D01*
X124349145Y-86769785D01*
X124420332Y-86567910D01*
X124507928Y-86337451D01*
X124608853Y-86086023D01*
X124720027Y-85821241D01*
X124838371Y-85550720D01*
X124960806Y-85282074D01*
X125084251Y-85022919D01*
X125205628Y-84780870D01*
X125507491Y-84221579D01*
X126033243Y-83350054D01*
X126604091Y-82521138D01*
X127219028Y-81735936D01*
X127877049Y-80995550D01*
X128577149Y-80301086D01*
X129318323Y-79653647D01*
X130099566Y-79054337D01*
X130919874Y-78504261D01*
X131238707Y-78304837D01*
X131379518Y-77882729D01*
X131448481Y-77690335D01*
X131537334Y-77464567D01*
X131632887Y-77238630D01*
X131723603Y-77040751D01*
X131802130Y-76885906D01*
X131896277Y-76712239D01*
X131998702Y-76532297D01*
X132103124Y-76356434D01*
X132203263Y-76195001D01*
X132292840Y-76058349D01*
X132365573Y-75956831D01*
X132415183Y-75900798D01*
X132416539Y-75899741D01*
X132453689Y-75893154D01*
X132522510Y-75910029D01*
X132630732Y-75952942D01*
X132786083Y-76024472D01*
X132826126Y-76043410D01*
X133353955Y-76259696D01*
X133898760Y-76423872D01*
X134449188Y-76533056D01*
X134993885Y-76584371D01*
X135285765Y-76587745D01*
X135792003Y-76550619D01*
X136270774Y-76457151D01*
X136724066Y-76306615D01*
X137153870Y-76098286D01*
X137562173Y-75831438D01*
X137950966Y-75505345D01*
X137984901Y-75472713D01*
X138091697Y-75362016D01*
X138208757Y-75231263D01*
X138329541Y-75088844D01*
X138447512Y-74943149D01*
X138556131Y-74802566D01*
X138648859Y-74675486D01*
X138719159Y-74570298D01*
X138760492Y-74495391D01*
X138766319Y-74459155D01*
X138735048Y-74448332D01*
X138653661Y-74427708D01*
X138535276Y-74400703D01*
X138392747Y-74370371D01*
X138288127Y-74347254D01*
X138097886Y-74299331D01*
X137912948Y-74246552D01*
X137761750Y-74196740D01*
X137658813Y-74156818D01*
X137505275Y-74089457D01*
X137366643Y-74020013D01*
X137253955Y-73954567D01*
X137178248Y-73899199D01*
X137150560Y-73859992D01*
X137150876Y-73858196D01*
X137179544Y-73823005D01*
X137247987Y-73759216D01*
X137346677Y-73675293D01*
X137466088Y-73579699D01*
X137604056Y-73471022D01*
X138077432Y-73078652D01*
X138542009Y-72661834D01*
X139004533Y-72213861D01*
X139471748Y-71728030D01*
X139950398Y-71197634D01*
X140447228Y-70615969D01*
X140847635Y-70154053D01*
X141426422Y-69549399D01*
X142017052Y-69005443D01*
X142620655Y-68521229D01*
X143238362Y-68095803D01*
X143871305Y-67728212D01*
X144060622Y-67628082D01*
X143697765Y-67279598D01*
X143568335Y-67157869D01*
X143325390Y-66940023D01*
X143067389Y-66719985D01*
X142808914Y-66509785D01*
X142564551Y-66321453D01*
X142348883Y-66167017D01*
X142303346Y-66135665D01*
X142209535Y-66068049D01*
X142144472Y-66016755D01*
X142120125Y-65990992D01*
X142123884Y-65984398D01*
X142169480Y-65949114D01*
X142260236Y-65892052D01*
X142387840Y-65817787D01*
X142543977Y-65730895D01*
X142720334Y-65635950D01*
X142908596Y-65537527D01*
X143100449Y-65440202D01*
X143287578Y-65348550D01*
X143299687Y-65342750D01*
X144072974Y-64999609D01*
X144888256Y-64688302D01*
X145730905Y-64413224D01*
X146586289Y-64178772D01*
X147439780Y-63989342D01*
X148276747Y-63849330D01*
X148313447Y-63844270D01*
X148594280Y-63806560D01*
X148839990Y-63776162D01*
X149062856Y-63752306D01*
X149275154Y-63734227D01*
X149489162Y-63721155D01*
X149717156Y-63712325D01*
X149971413Y-63706967D01*
X150264211Y-63704316D01*
X150607827Y-63703603D01*
X150964793Y-63705522D01*
X151459819Y-63716306D01*
X151914591Y-63737784D01*
X152342511Y-63771315D01*
X152756980Y-63818259D01*
X153171398Y-63879975D01*
X153599168Y-63957822D01*
X154053690Y-64053161D01*
X154068980Y-64056559D01*
X154248760Y-64098222D01*
X154451483Y-64147735D01*
X154665101Y-64201897D01*
X154877562Y-64257511D01*
X155076817Y-64311376D01*
X155250816Y-64360293D01*
X155387509Y-64401063D01*
X155474845Y-64430486D01*
X155477516Y-64431496D01*
X155518865Y-64432066D01*
X155530063Y-64382432D01*
X155530419Y-64365507D01*
X155543689Y-64242861D01*
X155573796Y-64075277D01*
X155617566Y-63875149D01*
X155671825Y-63654870D01*
X155733396Y-63426834D01*
X155799107Y-63203435D01*
X155865782Y-62997067D01*
X155930246Y-62820124D01*
X155979335Y-62702156D01*
X156046834Y-62554160D01*
X156118034Y-62409861D01*
X156187131Y-62280080D01*
X156248324Y-62175640D01*
X156295811Y-62107363D01*
X156323789Y-62086071D01*
X156332499Y-62093628D01*
G37*
%TD*%
%LPC*%
D13*
%TO.C,U1*%
X97165000Y-63130000D03*
D14*
X97465000Y-66160000D03*
X102315000Y-66160000D03*
D13*
X102615000Y-63130000D03*
D15*
X91000000Y-63000000D03*
D16*
X91000000Y-65540000D03*
D17*
X91000000Y-68080000D03*
D16*
X91000000Y-70620000D03*
X91000000Y-73160000D03*
X91000000Y-75700000D03*
X91000000Y-78240000D03*
D17*
X91000000Y-80780000D03*
D16*
X91000000Y-83320000D03*
X91000000Y-85860000D03*
X91000000Y-88400000D03*
X91000000Y-90940000D03*
D17*
X91000000Y-93480000D03*
D16*
X91000000Y-96020000D03*
X91000000Y-98560000D03*
X91000000Y-101100000D03*
X91000000Y-103640000D03*
D17*
X91000000Y-106180000D03*
D16*
X91000000Y-108720000D03*
X91000000Y-111260000D03*
X108780000Y-111260000D03*
X108780000Y-108720000D03*
D18*
X108780000Y-106180000D03*
D16*
X108780000Y-103640000D03*
X108780000Y-101100000D03*
X108780000Y-98560000D03*
X108780000Y-96020000D03*
D18*
X108780000Y-93480000D03*
D16*
X108780000Y-90940000D03*
X108780000Y-88400000D03*
X108780000Y-85860000D03*
X108780000Y-83320000D03*
D18*
X108780000Y-80780000D03*
D16*
X108780000Y-78240000D03*
X108780000Y-75700000D03*
X108780000Y-73160000D03*
X108780000Y-70620000D03*
D18*
X108780000Y-68080000D03*
D16*
X108780000Y-65540000D03*
X108780000Y-63000000D03*
%TD*%
D19*
%TO.C,TP3*%
X177885000Y-59325000D03*
%TD*%
%TO.C,TP11*%
X147568000Y-59325000D03*
%TD*%
%TO.C,TP10*%
X138906000Y-59325000D03*
%TD*%
%TO.C,TP9*%
X143237000Y-59325000D03*
%TD*%
%TO.C,TP8*%
X151899000Y-59325000D03*
%TD*%
%TO.C,TP7*%
X169223000Y-59325000D03*
%TD*%
%TO.C,TP6*%
X164892000Y-59325000D03*
%TD*%
%TO.C,TP5*%
X160561000Y-59325000D03*
%TD*%
%TO.C,TP4*%
X156230000Y-59325000D03*
%TD*%
%TO.C,TP2*%
X173554000Y-59325000D03*
%TD*%
%TO.C,TP1*%
X134575000Y-59325000D03*
%TD*%
D20*
%TO.C,J2*%
X183200000Y-79880000D03*
D21*
X183200000Y-82380000D03*
X183200000Y-84880000D03*
X183200000Y-87380000D03*
X183200000Y-89880000D03*
X183200000Y-92380000D03*
%TD*%
D22*
%TO.C,J1*%
X128730000Y-114000000D03*
D23*
X133730000Y-114000000D03*
X138730000Y-114000000D03*
X143730000Y-114000000D03*
X148730000Y-114000000D03*
X153730000Y-114000000D03*
X158730000Y-114000000D03*
X163730000Y-114000000D03*
X168730000Y-114000000D03*
X173730000Y-114000000D03*
%TD*%
D24*
%TO.C,J3*%
X180945000Y-73730000D03*
D23*
X180945000Y-68730000D03*
%TD*%
D25*
%TO.C,JP1*%
X120080000Y-63795000D03*
D26*
X122620000Y-63795000D03*
X125160000Y-63795000D03*
%TD*%
%LPD*%
M02*
