%TF.GenerationSoftware,KiCad,Pcbnew,9.0.2*%
%TF.CreationDate,2025-06-08T07:26:58-06:00*%
%TF.ProjectId,Pico_H-bridge_complete,5069636f-5f48-42d6-9272-696467655f63,rev?*%
%TF.SameCoordinates,Original*%
%TF.FileFunction,Soldermask,Bot*%
%TF.FilePolarity,Negative*%
%FSLAX46Y46*%
G04 Gerber Fmt 4.6, Leading zero omitted, Abs format (unit mm)*
G04 Created by KiCad (PCBNEW 9.0.2) date 2025-06-08 07:26:58*
%MOMM*%
%LPD*%
G01*
G04 APERTURE LIST*
G04 Aperture macros list*
%AMRoundRect*
0 Rectangle with rounded corners*
0 $1 Rounding radius*
0 $2 $3 $4 $5 $6 $7 $8 $9 X,Y pos of 4 corners*
0 Add a 4 corners polygon primitive as box body*
4,1,4,$2,$3,$4,$5,$6,$7,$8,$9,$2,$3,0*
0 Add four circle primitives for the rounded corners*
1,1,$1+$1,$2,$3*
1,1,$1+$1,$4,$5*
1,1,$1+$1,$6,$7*
1,1,$1+$1,$8,$9*
0 Add four rect primitives between the rounded corners*
20,1,$1+$1,$2,$3,$4,$5,0*
20,1,$1+$1,$4,$5,$6,$7,0*
20,1,$1+$1,$6,$7,$8,$9,0*
20,1,$1+$1,$8,$9,$2,$3,0*%
%AMFreePoly0*
4,1,37,0.603843,0.796157,0.639018,0.796157,0.711114,0.766294,0.766294,0.711114,0.796157,0.639018,0.796157,0.603843,0.800000,0.600000,0.800000,-0.600000,0.796157,-0.603843,0.796157,-0.639018,0.766294,-0.711114,0.711114,-0.766294,0.639018,-0.796157,0.603843,-0.796157,0.600000,-0.800000,0.000000,-0.800000,0.000000,-0.796148,-0.078414,-0.796148,-0.232228,-0.765552,-0.377117,-0.705537,
-0.507515,-0.618408,-0.618408,-0.507515,-0.705537,-0.377117,-0.765552,-0.232228,-0.796148,-0.078414,-0.796148,0.078414,-0.765552,0.232228,-0.705537,0.377117,-0.618408,0.507515,-0.507515,0.618408,-0.377117,0.705537,-0.232228,0.765552,-0.078414,0.796148,0.000000,0.796148,0.000000,0.800000,0.600000,0.800000,0.603843,0.796157,0.603843,0.796157,$1*%
%AMFreePoly1*
4,1,37,0.000000,0.796148,0.078414,0.796148,0.232228,0.765552,0.377117,0.705537,0.507515,0.618408,0.618408,0.507515,0.705537,0.377117,0.765552,0.232228,0.796148,0.078414,0.796148,-0.078414,0.765552,-0.232228,0.705537,-0.377117,0.618408,-0.507515,0.507515,-0.618408,0.377117,-0.705537,0.232228,-0.765552,0.078414,-0.796148,0.000000,-0.796148,0.000000,-0.800000,-0.600000,-0.800000,
-0.603843,-0.796157,-0.639018,-0.796157,-0.711114,-0.766294,-0.766294,-0.711114,-0.796157,-0.639018,-0.796157,-0.603843,-0.800000,-0.600000,-0.800000,0.600000,-0.796157,0.603843,-0.796157,0.639018,-0.766294,0.711114,-0.711114,0.766294,-0.639018,0.796157,-0.603843,0.796157,-0.600000,0.800000,0.000000,0.800000,0.000000,0.796148,0.000000,0.796148,$1*%
G04 Aperture macros list end*
%ADD10C,2.200000*%
%ADD11C,1.850000*%
%ADD12RoundRect,0.200000X-0.600000X-0.600000X0.600000X-0.600000X0.600000X0.600000X-0.600000X0.600000X0*%
%ADD13C,1.600000*%
%ADD14FreePoly0,0.000000*%
%ADD15FreePoly1,0.000000*%
%ADD16C,2.000000*%
%ADD17RoundRect,0.250000X-0.725000X0.600000X-0.725000X-0.600000X0.725000X-0.600000X0.725000X0.600000X0*%
%ADD18O,1.950000X1.700000*%
%ADD19RoundRect,0.250000X-1.050000X-1.050000X1.050000X-1.050000X1.050000X1.050000X-1.050000X1.050000X0*%
%ADD20C,2.600000*%
%ADD21RoundRect,0.250000X1.050000X-1.050000X1.050000X1.050000X-1.050000X1.050000X-1.050000X-1.050000X0*%
%ADD22R,1.700000X1.700000*%
%ADD23C,1.700000*%
G04 APERTURE END LIST*
D10*
%TO.C,U1*%
X97165000Y-63130000D03*
D11*
X97465000Y-66160000D03*
X102315000Y-66160000D03*
D10*
X102615000Y-63130000D03*
D12*
X91000000Y-63000000D03*
D13*
X91000000Y-65540000D03*
D14*
X91000000Y-68080000D03*
D13*
X91000000Y-70620000D03*
X91000000Y-73160000D03*
X91000000Y-75700000D03*
X91000000Y-78240000D03*
D14*
X91000000Y-80780000D03*
D13*
X91000000Y-83320000D03*
X91000000Y-85860000D03*
X91000000Y-88400000D03*
X91000000Y-90940000D03*
D14*
X91000000Y-93480000D03*
D13*
X91000000Y-96020000D03*
X91000000Y-98560000D03*
X91000000Y-101100000D03*
X91000000Y-103640000D03*
D14*
X91000000Y-106180000D03*
D13*
X91000000Y-108720000D03*
X91000000Y-111260000D03*
X108780000Y-111260000D03*
X108780000Y-108720000D03*
D15*
X108780000Y-106180000D03*
D13*
X108780000Y-103640000D03*
X108780000Y-101100000D03*
X108780000Y-98560000D03*
X108780000Y-96020000D03*
D15*
X108780000Y-93480000D03*
D13*
X108780000Y-90940000D03*
X108780000Y-88400000D03*
X108780000Y-85860000D03*
X108780000Y-83320000D03*
D15*
X108780000Y-80780000D03*
D13*
X108780000Y-78240000D03*
X108780000Y-75700000D03*
X108780000Y-73160000D03*
X108780000Y-70620000D03*
D15*
X108780000Y-68080000D03*
D13*
X108780000Y-65540000D03*
X108780000Y-63000000D03*
%TD*%
D16*
%TO.C,TP3*%
X177885000Y-59325000D03*
%TD*%
%TO.C,TP11*%
X147568000Y-59325000D03*
%TD*%
%TO.C,TP10*%
X138906000Y-59325000D03*
%TD*%
%TO.C,TP9*%
X143237000Y-59325000D03*
%TD*%
%TO.C,TP8*%
X151899000Y-59325000D03*
%TD*%
%TO.C,TP7*%
X169223000Y-59325000D03*
%TD*%
%TO.C,TP6*%
X164892000Y-59325000D03*
%TD*%
%TO.C,TP5*%
X160561000Y-59325000D03*
%TD*%
%TO.C,TP4*%
X156230000Y-59325000D03*
%TD*%
%TO.C,TP2*%
X173554000Y-59325000D03*
%TD*%
%TO.C,TP1*%
X134575000Y-59325000D03*
%TD*%
D17*
%TO.C,J2*%
X183200000Y-79880000D03*
D18*
X183200000Y-82380000D03*
X183200000Y-84880000D03*
X183200000Y-87380000D03*
X183200000Y-89880000D03*
X183200000Y-92380000D03*
%TD*%
D19*
%TO.C,J1*%
X128730000Y-114000000D03*
D20*
X133730000Y-114000000D03*
X138730000Y-114000000D03*
X143730000Y-114000000D03*
X148730000Y-114000000D03*
X153730000Y-114000000D03*
X158730000Y-114000000D03*
X163730000Y-114000000D03*
X168730000Y-114000000D03*
X173730000Y-114000000D03*
%TD*%
D21*
%TO.C,J3*%
X180945000Y-73730000D03*
D20*
X180945000Y-68730000D03*
%TD*%
D22*
%TO.C,JP1*%
X120080000Y-63795000D03*
D23*
X122620000Y-63795000D03*
X125160000Y-63795000D03*
%TD*%
M02*
