%TF.GenerationSoftware,KiCad,Pcbnew,7.0.11*%
%TF.CreationDate,2024-05-22T12:52:35-06:00*%
%TF.ProjectId,H_Bridge,485f4272-6964-4676-952e-6b696361645f,rev?*%
%TF.SameCoordinates,Original*%
%TF.FileFunction,Soldermask,Bot*%
%TF.FilePolarity,Negative*%
%FSLAX46Y46*%
G04 Gerber Fmt 4.6, Leading zero omitted, Abs format (unit mm)*
G04 Created by KiCad (PCBNEW 7.0.11) date 2024-05-22 12:52:35*
%MOMM*%
%LPD*%
G01*
G04 APERTURE LIST*
%ADD10C,6.000000*%
%ADD11R,1.800000X1.800000*%
%ADD12C,1.800000*%
%ADD13R,1.600000X1.600000*%
%ADD14O,1.600000X1.600000*%
%ADD15C,1.600000*%
%ADD16C,2.000000*%
%ADD17R,2.400000X1.600000*%
%ADD18O,2.400000X1.600000*%
%ADD19R,2.000000X1.905000*%
%ADD20O,2.000000X1.905000*%
%ADD21C,3.000000*%
%ADD22R,1.700000X1.700000*%
%ADD23O,1.700000X1.700000*%
G04 APERTURE END LIST*
D10*
%TO.C,HS4*%
X184658000Y-84836000D03*
X184658000Y-110236000D03*
%TD*%
D11*
%TO.C,D7*%
X173228000Y-97536000D03*
D12*
X175768000Y-97536000D03*
%TD*%
D13*
%TO.C,D6*%
X179658000Y-139446000D03*
D14*
X187278000Y-139446000D03*
%TD*%
D15*
%TO.C,R10*%
X161671000Y-105791000D03*
D14*
X174371000Y-105791000D03*
%TD*%
D13*
%TO.C,D3*%
X179658000Y-120904000D03*
D14*
X187278000Y-120904000D03*
%TD*%
D16*
%TO.C,TP3*%
X148701400Y-146812000D03*
%TD*%
D13*
%TO.C,U3*%
X167132000Y-121158000D03*
D14*
X167132000Y-123698000D03*
X167132000Y-126238000D03*
X167132000Y-128778000D03*
X167132000Y-131318000D03*
X167132000Y-133858000D03*
X167132000Y-136398000D03*
X167132000Y-138938000D03*
X174752000Y-138938000D03*
X174752000Y-136398000D03*
X174752000Y-133858000D03*
X174752000Y-131318000D03*
X174752000Y-128778000D03*
X174752000Y-126238000D03*
X174752000Y-123698000D03*
X174752000Y-121158000D03*
%TD*%
D10*
%TO.C,HS2*%
X134620000Y-110236000D03*
X134620000Y-84836000D03*
%TD*%
D17*
%TO.C,U1*%
X138938000Y-121158000D03*
D18*
X138938000Y-123698000D03*
X138938000Y-126238000D03*
X138938000Y-128778000D03*
X138938000Y-131318000D03*
X138938000Y-133858000D03*
X138938000Y-136398000D03*
X146558000Y-136398000D03*
X146558000Y-133858000D03*
X146558000Y-131318000D03*
X146558000Y-128778000D03*
X146558000Y-126238000D03*
X146558000Y-123698000D03*
X146558000Y-121158000D03*
%TD*%
D19*
%TO.C,Q2*%
X132080000Y-94996000D03*
D20*
X132080000Y-97536000D03*
X132080000Y-100076000D03*
%TD*%
D21*
%TO.C,TP4*%
X172851000Y-146812000D03*
%TD*%
D15*
%TO.C,R6*%
X144558334Y-79629000D03*
D14*
X157258334Y-79629000D03*
%TD*%
D10*
%TO.C,HS1*%
X134620000Y-74168000D03*
X134620000Y-48768000D03*
%TD*%
D15*
%TO.C,R3*%
X144558334Y-68961000D03*
D14*
X157258334Y-68961000D03*
%TD*%
D15*
%TO.C,R2*%
X144558334Y-53721000D03*
D14*
X157258334Y-53721000D03*
%TD*%
D15*
%TO.C,R1*%
X144431334Y-43434000D03*
D14*
X157131334Y-43434000D03*
%TD*%
D13*
%TO.C,D4*%
X179658000Y-127084666D03*
D14*
X187278000Y-127084666D03*
%TD*%
D21*
%TO.C,TP6*%
X181102000Y-146812000D03*
%TD*%
D11*
%TO.C,D8*%
X173228000Y-61468000D03*
D12*
X175768000Y-61468000D03*
%TD*%
D15*
%TO.C,R8*%
X161671000Y-68961000D03*
D14*
X174371000Y-68961000D03*
%TD*%
D22*
%TO.C,J1*%
X132588000Y-139954000D03*
D23*
X132588000Y-137414000D03*
X132588000Y-134874000D03*
X132588000Y-132334000D03*
X132588000Y-129794000D03*
X132588000Y-127254000D03*
X132588000Y-124714000D03*
X132588000Y-122174000D03*
%TD*%
D15*
%TO.C,R4*%
X144558334Y-90297000D03*
D14*
X157258334Y-90297000D03*
%TD*%
D16*
%TO.C,TP7*%
X159633800Y-146812000D03*
%TD*%
D10*
%TO.C,HS3*%
X184658000Y-48768000D03*
X184658000Y-74168000D03*
%TD*%
D15*
%TO.C,R12*%
X161671000Y-53721000D03*
D14*
X174371000Y-53721000D03*
%TD*%
D15*
%TO.C,R11*%
X161544000Y-43434000D03*
D14*
X174244000Y-43434000D03*
%TD*%
D11*
%TO.C,D2*%
X143510000Y-97536000D03*
D12*
X146050000Y-97536000D03*
%TD*%
D16*
%TO.C,TP2*%
X143235200Y-146812000D03*
%TD*%
D15*
%TO.C,C1*%
X156758000Y-97536000D03*
X161758000Y-97536000D03*
%TD*%
D11*
%TO.C,D1*%
X143510000Y-61468000D03*
D12*
X146050000Y-61468000D03*
%TD*%
D19*
%TO.C,Q4*%
X187198000Y-100076000D03*
D20*
X187198000Y-97536000D03*
X187198000Y-94996000D03*
%TD*%
D16*
%TO.C,TP5*%
X154167600Y-146812000D03*
%TD*%
D19*
%TO.C,Q1*%
X132080000Y-58928000D03*
D20*
X132080000Y-61468000D03*
X132080000Y-64008000D03*
%TD*%
D19*
%TO.C,Q3*%
X187198000Y-64008000D03*
D20*
X187198000Y-61468000D03*
X187198000Y-58928000D03*
%TD*%
D15*
%TO.C,R9*%
X161671000Y-79629000D03*
D14*
X174371000Y-79629000D03*
%TD*%
D13*
%TO.C,D5*%
X179658000Y-133265332D03*
D14*
X187278000Y-133265332D03*
%TD*%
D16*
%TO.C,TP1*%
X137769000Y-146812000D03*
%TD*%
D15*
%TO.C,R5*%
X161671000Y-90297000D03*
D14*
X174371000Y-90297000D03*
%TD*%
D16*
%TO.C,TP8*%
X165100000Y-146812000D03*
%TD*%
D17*
%TO.C,U2*%
X153210000Y-121158000D03*
D18*
X153210000Y-123698000D03*
X153210000Y-126238000D03*
X153210000Y-128778000D03*
X153210000Y-131318000D03*
X153210000Y-133858000D03*
X153210000Y-136398000D03*
X160830000Y-136398000D03*
X160830000Y-133858000D03*
X160830000Y-131318000D03*
X160830000Y-128778000D03*
X160830000Y-126238000D03*
X160830000Y-123698000D03*
X160830000Y-121158000D03*
%TD*%
D15*
%TO.C,R7*%
X144558334Y-105791000D03*
D14*
X157258334Y-105791000D03*
%TD*%
M02*
