<?xml version="1.0" encoding="utf-8"?>
<!-- Generator: Fusion 360, Shaper Origin Export Add-In, Version 1.7.0  -->
<svg xmlns="http://www.w3.org/2000/svg" xmlns:xlink="http://www.w3.org/1999/xlink" xmlns:shaper="http://www.shapertools.com/namespaces/shaper" shaper:fusionaddin="version:1.7.0" width="3.5cm" height="3.5cm" version="1.1" x="0cm" y="0cm" viewBox="0 0 3.5 3.5" enable-background="new 0 0 3.5 3.5" xml:space="preserve"><path d="M-1.9944388,0.1191828 a1.75,1.75 0 1,1 3.5,0 a1.75,1.75 0 1,1 -3.5,0z" transform="matrix(1,0,0,-1,1.9944388,1.8691828)" fill="rgb(0,0,0)" shaper:cutDepth="0.3cm" stroke-linecap="round" stroke-linejoin="round" /><path d="M0.1441867,0.0864687 A0.39,0.39 355.1882532 0,0 0.1394581,0.0504574 L0.1394581,0.0504574 0.1284405,0.0451627 0.1173936,0.0405839 0.1063516,0.0367472 0.0953516,0.0336872 0.0844357,0.031453 0.0736546,0.0301229 0.0630793,0.0298404 0.0528645,0.0310247 0.0208365,0.0404289 A0.025,0.025 73.6363636 0,1 -0.0094358,0.0256836 A0.25292,0.25292 338.3041825 0,0 -0.0171019,0.0083385 A0.025,0.025 154.0071987 0,1 -0.007628,-0.0239738 L0.0208864,-0.0413278 0.0208864,-0.0413278 0.0286384,-0.0480845 0.0355483,-0.056095 0.041822,-0.064963 0.0475181,-0.0745392 0.05266,-0.0847335 0.0572558,-0.0954818 0.061306,-0.1067332 0.0648072,-0.1184449 A0.39,0.39 322.4609805 0,0 0.0413601,-0.146183 L0.0413601,-0.146183 0.0292289,-0.1446806 0.0174602,-0.1425602 0.0060968,-0.1398181 -0.0048113,-0.1364453 -0.0152023,-0.1324231 -0.024991,-0.1277135 -0.0340402,-0.1222337 -0.0419932,-0.1157149 -0.0638525,-0.0904879 A0.025,0.025 40.9090909 0,1 -0.0972912,-0.086526 A0.25292,0.25292 305.5769098 0,0 -0.1131178,-0.096973 A0.025,0.025 121.2799259 0,1 -0.1226171,-0.1292778 L-0.1080116,-0.159293 -0.1080116,-0.159293 -0.1051432,-0.169168 -0.103661,-0.1796427 -0.1031776,-0.1904948 -0.103563,-0.2016304 -0.1047489,-0.2129863 -0.1066936,-0.2245129 -0.1093693,-0.236168 -0.1127557,-0.2479133 A0.39,0.39 289.7337078 0,0 -0.1474771,-0.2585717 L-0.1474771,-0.2585717 -0.1568702,-0.2507492 -0.1656243,-0.2426027 -0.1737013,-0.2341524 -0.1810543,-0.2254177 -0.1876212,-0.2164162 -0.1933098,-0.207162 -0.1979598,-0.1976597 -0.201126,-0.1878761 -0.2058765,-0.1548357 A0.025,0.025 8.1818182 0,1 -0.2318649,-0.1334245 A0.25292,0.25292 272.849637 0,0 -0.2508271,-0.1336565 A0.025,0.025 88.5526532 0,1 -0.2762838,-0.1556973 L-0.2802243,-0.1888441 -0.2802243,-0.1888441 -0.2831501,-0.1987023 -0.2875662,-0.2083155 -0.2930266,-0.2177062 -0.2993712,-0.2268656 -0.3065083,-0.2357777 -0.3143761,-0.2444231 -0.3229282,-0.2527814 -0.332127,-0.2608314 A0.39,0.39 257.006435 0,0 -0.3670989,-0.251026 L-0.3670989,-0.251026 -0.3707717,-0.239367 -0.3737318,-0.2277809 -0.375958,-0.2163053 -0.3774214,-0.2049818 -0.3780793,-0.193859 -0.3778616,-0.1829984 -0.3766362,-0.1724905 -0.3740103,-0.1625482 -0.3601437,-0.1321846 A0.025,0.025 335.4545455 0,1 -0.3704307,-0.100122 A0.25292,0.25292 240.1223643 0,0 -0.3865083,-0.0900654 A0.025,0.025 55.8253805 0,1 -0.4198399,-0.0948444 L-0.4410753,-0.1205988 -0.4410753,-0.1205988 -0.4488664,-0.1273103 -0.4577788,-0.1330099 -0.4674494,-0.1379577 -0.4777388,-0.1422329 -0.4885611,-0.1458717 -0.499854,-0.1488911 -0.5115673,-0.1512989 -0.523658,-0.1530977 A0.39,0.39 224.2791623 0,0 -0.547777,-0.1259416 L-0.547777,-0.1259416 -0.5445635,-0.1141478 -0.5407897,-0.1028006 -0.5364584,-0.0919431 -0.5315675,-0.081626 -0.5261075,-0.0719132 -0.5200527,-0.0628944 -0.5133408,-0.0547171 -0.5057565,-0.0477728 -0.4776754,-0.0297262 A0.025,0.025 302.7272727 0,1 -0.4689951,0.0028083 A0.25292,0.25292 207.3950916 0,0 -0.4770833,0.0199605 A0.025,0.025 23.0981077 0,1 -0.5077074,0.0339606 L-0.5394957,0.0237754 -0.5394957,0.0237754 -0.5496785,0.0223415 -0.5602575,0.0223651 -0.5710679,0.0234311 -0.5820352,0.0253974 -0.5931068,0.0281873 -0.6042394,0.0317526 -0.615395,0.0360597 -0.6265389,0.0410832 A0.39,0.39 191.5518896 0,0 -0.6321474,0.076968 L-0.6321474,0.076968 -0.6230677,0.0851522 -0.6137583,0.0926579 -0.6042445,0.0994501 -0.5945523,0.1054852 -0.5847079,0.1107042 -0.5747383,0.1150178 -0.564671,0.1182682 -0.5545363,0.1200098 -0.5211562,0.1200098 A0.025,0.025 270 0,1 -0.4962643,0.1426866 A0.25292,0.25292 174.6678188 0,0 -0.4937954,0.1614888 A0.025,0.025 350.370835 0,1 -0.511989,0.1898231 L-0.5442376,0.1984408 -0.5442376,0.1984408 -0.5535791,0.2027398 -0.562466,0.208479 -0.5709839,0.2152203 -0.5791472,0.2228039 -0.5869529,0.2311366 -0.5943906,0.2401547 -0.6014467,0.2498093 -0.6081057,0.2600601 A0.39,0.39 158.8246169 0,0 -0.593423,0.2932805 L-0.593423,0.2932805 -0.58136,0.2952567 -0.5694706,0.2965378 -0.557795,0.2971082 -0.5463785,0.2969452 -0.5352752,0.2960135 -0.5245561,0.2942524 -0.5143297,0.291544 -0.5048623,0.2875299 -0.4767811,0.2694832 A0.025,0.025 237.2727273 0,1 -0.4435808,0.2751026 A0.25292,0.25292 141.9405461 0,0 -0.4313386,0.2895853 A0.025,0.025 317.6435623 0,1 -0.4313253,0.3232578 L-0.4537955,0.3479423 -0.4537955,0.3479423 -0.4593298,0.3566092 -0.4637031,0.366242 -0.4672242,0.3765183 -0.4699916,0.3873114 -0.4720532,0.3985414 -0.4734347,0.410149 -0.474151,0.4220858 -0.4742108,0.4343095 A0.39,0.39 126.0973441 0,0 -0.4438986,0.4543182 L-0.4438986,0.4543182 -0.4326822,0.449459 -0.4219876,0.4441088 -0.411857,0.4382763 -0.402341,0.431967 -0.3935041,0.4251803 -0.3854387,0.4179036 -0.3782999,0.4100963 -0.3725056,0.4016009 -0.358639,0.3712373 A0.025,0.025 204.5454545 0,1 -0.3276711,0.3580152 A0.25292,0.25292 109.2132734 0,0 -0.3095423,0.3635801 A0.025,0.025 284.9162896 0,1 -0.2913265,0.3919001 L-0.2968841,0.4248143 -0.2968841,0.4248143 -0.2968542,0.4350974 -0.2953253,0.4455654 -0.2927317,0.4561141 -0.2892246,0.46669 -0.2848875,0.4772518 -0.2797741,0.4877637 -0.2739232,0.4981928 -0.2673649,0.5085083 A0.39,0.39 93.3700714 0,0 -0.2310472,0.5089528 L-0.2310472,0.5089528 -0.2242384,0.4988008 -0.218134,0.488518 -0.212765,0.4781344 -0.2081706,0.4676819 -0.2044058,0.457195 -0.2015548,0.446713 -0.1997702,0.4362856 -0.1994887,0.4260062 -0.2042392,0.3929658 A0.025,0.025 171.8181818 0,1 -0.1853357,0.3651001 A0.25292,0.25292 76.4860007 0,0 -0.1670762,0.3599805 A0.025,0.025 252.1890168 0,1 -0.1364411,0.3739565 L-0.1233217,0.4046504 -0.1233217,0.4046504 -0.1177371,0.413285 -0.1107915,0.4212647 -0.1029066,0.4287366 -0.0942385,0.4357375 -0.0848797,0.4422778 -0.0748949,0.4483565 -0.0643344,0.4539668 -0.0532402,0.4590991 A0.39,0.39 60.6427987 0,0 -0.0224475,0.4398381 L-0.0224475,0.4398381 -0.0222081,0.4276167 -0.0226321,0.4156659 -0.0237291,0.404028 -0.0255152,0.3927509 -0.0280177,0.3818933 -0.0312863,0.3715339 -0.0354225,0.3617969 -0.0407431,0.3529972 -0.0626024,0.3277702 A0.025,0.025 139.0909091 0,1 -0.0617652,0.2941081 A0.25292,0.25292 43.7587279 0,0 -0.0491722,0.2799293 A0.025,0.025 219.4617441 0,1 -0.0158443,0.2751241 L0.0117868,0.2938526 0.0117868,0.2938526 0.0211532,0.2980972 0.0313103,0.301055 0.0419831,0.3030779 0.0530602,0.3042811 0.0644693,0.3047234 0.0761554,0.3044389 0.0880726,0.3034492 0.1001803,0.3017688 A0.39,0.39 27.9155259 0,0 0.1156715,0.2689176 L0.1156715,0.2689176 0.1092655,0.2585069 0.1024478,0.2486825 0.0952329,0.2394851 0.0876335,0.2309639 0.0796583,0.2231828 0.0713078,0.2162351 0.062564,0.2102801 0.0533305,0.2057538 0.0213025,0.1963495 A0.025,0.025 106.3636364 0,1 0.0038078,0.1675785 A0.25292,0.25292 11.0314552 0,0 0.0067361,0.1488422 A0.025,0.025 186.7344714 0,1 0.0321754,0.1267814 L0.0655455,0.1275983 0.0655455,0.1275983 0.0757198,0.1261053 0.0858637,0.1231022 0.0959358,0.1190338 0.105905,0.1140573 0.1157421,0.1082612 0.1254192,0.1017039 0.1349095,0.0944283 0.1441867,0.0864687z" transform="matrix(1,0,0,-1,1.9944388,1.8691828)" fill="rgb(255,255,255)" stroke="rgb(0,0,0)" stroke-width="0.0010cm" stroke-linecap="round" stroke-linejoin="round" shaper:cutDepth="0.3cm" /></svg>