M48
; DRILL file {KiCad 9.0.2} date 2025-06-08T07:28:39-0600
; FORMAT={-:-/ absolute / metric / decimal}
; #@! TF.CreationDate,2025-06-08T07:28:39-06:00
; #@! TF.GenerationSoftware,Kicad,Pcbnew,9.0.2
; #@! TF.FileFunction,Plated,1,4,PTH
FMAT,2
METRIC
; #@! TA.AperFunction,Plated,PTH,ViaDrill
T1C0.300
; #@! TA.AperFunction,Plated,PTH,ComponentDrill
T2C0.950
; #@! TA.AperFunction,Plated,PTH,ComponentDrill
T3C1.000
; #@! TA.AperFunction,Plated,PTH,ComponentDrill
T4C1.300
%
G90
G05
T1
X106.42Y-70.8
X110.37Y-85.85
X112.225Y-99.625
X112.235Y-98.145
X112.255Y-103.955
X112.265Y-105.435
X112.369Y-114.674
X112.92Y-70.7
X115.62Y-102.1
X116.688Y-108.8
X116.971Y-114.674
X118.335Y-107.65
X118.52Y-96.4
X121.105Y-102.115
X121.285Y-107.65
X121.465Y-96.39
X121.47Y-79.475
X122.975Y-107.85
X123.77Y-79.475
X124.545Y-102.965
X124.545Y-104.45
X126.785Y-107.42
X127.17Y-74.17
X127.92Y-104.1
X129.54Y-107.188
X131.72Y-82.6
X131.82Y-81.4
X133.12Y-103.9
X134.74Y-107.188
X135.37Y-74.1
X135.87Y-96.1
X138.51Y-106.94
X139.657Y-71.76
X140.22Y-107.188
X140.87Y-81.45
X141.735Y-68.335
X141.802Y-73.12
X141.802Y-74.12
X141.802Y-75.12
X141.802Y-76.12
X141.802Y-77.12
X141.802Y-78.12
X141.802Y-79.12
X141.802Y-80.12
X141.802Y-82.12
X141.802Y-83.12
X141.802Y-84.12
X141.802Y-85.12
X142.802Y-68.12
X142.802Y-73.12
X142.802Y-74.12
X142.802Y-75.12
X142.802Y-76.12
X142.802Y-77.12
X142.802Y-78.12
X142.802Y-79.12
X142.802Y-80.12
X142.802Y-84.12
X142.802Y-85.12
X142.82Y-103.9
X142.853Y-83.123
X143.381Y-71.539
X143.795Y-75.12
X143.795Y-76.12
X143.795Y-77.12
X143.795Y-78.12
X143.795Y-79.12
X143.795Y-80.12
X143.802Y-68.12
X143.802Y-73.12
X143.802Y-74.12
X143.802Y-84.12
X143.802Y-85.12
X143.87Y-101.15
X144.618Y-83.335
X144.795Y-75.12
X144.795Y-76.12
X144.795Y-77.12
X144.795Y-78.12
X144.795Y-79.12
X144.795Y-80.12
X144.802Y-68.12
X144.802Y-73.12
X144.802Y-74.12
X144.802Y-84.12
X144.802Y-85.12
X144.89Y-105.438
X145.795Y-75.12
X145.795Y-76.12
X145.795Y-77.12
X145.795Y-78.12
X145.795Y-79.12
X145.802Y-73.12
X145.802Y-74.12
X145.802Y-84.12
X145.802Y-85.12
X146.802Y-84.12
X146.802Y-85.12
X147.802Y-84.12
X147.802Y-85.12
X148.795Y-76.12
X148.795Y-80.12
X148.795Y-81.12
X148.795Y-82.12
X148.795Y-83.12
X148.802Y-68.12
X148.802Y-69.12
X148.802Y-70.12
X148.802Y-71.12
X148.802Y-72.12
X148.802Y-84.12
X148.802Y-85.12
X149.795Y-76.12
X149.795Y-80.12
X149.795Y-81.12
X149.795Y-82.12
X149.795Y-83.12
X149.802Y-68.12
X149.802Y-69.12
X149.802Y-70.12
X149.802Y-71.12
X149.802Y-72.12
X149.802Y-84.12
X149.802Y-85.12
X149.81Y-105.438
X150.795Y-76.12
X150.795Y-80.12
X150.795Y-81.12
X150.795Y-82.12
X150.795Y-83.12
X150.802Y-68.12
X150.802Y-69.12
X150.802Y-70.12
X150.802Y-71.12
X150.802Y-72.12
X150.802Y-84.12
X150.802Y-85.12
X151.795Y-76.12
X151.795Y-80.12
X151.795Y-81.12
X151.795Y-82.12
X151.795Y-83.12
X151.802Y-68.12
X151.802Y-69.12
X151.802Y-70.12
X151.802Y-71.12
X151.802Y-72.12
X151.802Y-84.12
X151.802Y-85.12
X152.22Y-89.1
X152.22Y-89.9
X152.22Y-90.8
X152.795Y-83.12
X152.802Y-68.12
X152.802Y-69.12
X152.802Y-84.12
X152.802Y-85.12
X152.82Y-95.5
X152.938Y-98.52
X152.938Y-101.945
X152.938Y-105.455
X153.802Y-68.12
X153.802Y-69.12
X154.795Y-75.12
X154.795Y-76.12
X154.795Y-77.12
X154.795Y-78.12
X154.795Y-79.12
X154.795Y-80.12
X154.802Y-68.12
X154.802Y-73.12
X154.802Y-74.12
X155.213Y-96.62
X155.213Y-100.045
X155.213Y-103.555
X155.802Y-68.12
X155.802Y-73.12
X155.802Y-74.12
X155.802Y-75.12
X155.802Y-76.12
X155.802Y-77.12
X155.802Y-78.12
X155.802Y-79.12
X155.802Y-80.12
X155.802Y-84.12
X155.802Y-85.12
X156.142Y-81.26
X156.802Y-68.12
X156.802Y-73.12
X156.802Y-74.12
X156.802Y-75.12
X156.802Y-76.12
X156.802Y-77.12
X156.802Y-78.12
X156.802Y-79.12
X156.802Y-80.12
X156.802Y-82.12
X156.802Y-84.12
X156.802Y-85.12
X157.02Y-104.3
X157.077Y-101.945
X157.077Y-105.455
X157.09Y-98.52
X157.795Y-68.12
X157.795Y-73.12
X157.795Y-74.12
X157.795Y-75.12
X157.795Y-76.12
X157.795Y-77.12
X157.795Y-78.12
X157.795Y-79.12
X157.795Y-80.12
X157.795Y-82.12
X157.795Y-84.12
X157.82Y-94.8
X157.927Y-81.472
X158.751Y-83.831
X159.22Y-69.485
X159.352Y-100.045
X159.352Y-103.555
X159.365Y-96.62
X161.243Y-105.455
X161.442Y-98.52
X161.882Y-73.96
X163.517Y-103.555
X163.517Y-104.505
X163.718Y-96.62
X165.37Y-105.25
X165.565Y-102.625
X166.045Y-74.3
X167.065Y-102.537
X168.295Y-105.2
X168.565Y-102.625
X169.223Y-68.097
X169.456Y-70.1
X169.728Y-70.853
X169.82Y-94.62
X172.065Y-102.537
X174.82Y-106.1
X176.22Y-93.7
X176.27Y-90.3
X178.625Y-102.575
T2
X183.2Y-79.88
X183.2Y-82.38
X183.2Y-84.88
X183.2Y-87.38
X183.2Y-89.88
X183.2Y-92.38
T3
X91.0Y-63.0
X91.0Y-65.54
X91.0Y-68.08
X91.0Y-70.62
X91.0Y-73.16
X91.0Y-75.7
X91.0Y-78.24
X91.0Y-80.78
X91.0Y-83.32
X91.0Y-85.86
X91.0Y-88.4
X91.0Y-90.94
X91.0Y-93.48
X91.0Y-96.02
X91.0Y-98.56
X91.0Y-101.1
X91.0Y-103.64
X91.0Y-106.18
X91.0Y-108.72
X91.0Y-111.26
X108.78Y-63.0
X108.78Y-65.54
X108.78Y-68.08
X108.78Y-70.62
X108.78Y-73.16
X108.78Y-75.7
X108.78Y-78.24
X108.78Y-80.78
X108.78Y-83.32
X108.78Y-85.86
X108.78Y-88.4
X108.78Y-90.94
X108.78Y-93.48
X108.78Y-96.02
X108.78Y-98.56
X108.78Y-101.1
X108.78Y-103.64
X108.78Y-106.18
X108.78Y-108.72
X108.78Y-111.26
X120.08Y-63.795
X122.62Y-63.795
X125.16Y-63.795
X134.575Y-59.325
X138.906Y-59.325
X143.237Y-59.325
X147.568Y-59.325
X151.899Y-59.325
X156.23Y-59.325
X160.561Y-59.325
X164.892Y-59.325
X169.223Y-59.325
X173.554Y-59.325
X177.885Y-59.325
T4
X128.73Y-114.0
X133.73Y-114.0
X138.73Y-114.0
X143.73Y-114.0
X148.73Y-114.0
X153.73Y-114.0
X158.73Y-114.0
X163.73Y-114.0
X168.73Y-114.0
X173.73Y-114.0
X180.945Y-68.73
X180.945Y-73.73
M30
