%TF.GenerationSoftware,KiCad,Pcbnew,9.0.2*%
%TF.CreationDate,2025-06-08T07:26:57-06:00*%
%TF.ProjectId,Pico_H-bridge_complete,5069636f-5f48-42d6-9272-696467655f63,rev?*%
%TF.SameCoordinates,Original*%
%TF.FileFunction,Paste,Top*%
%TF.FilePolarity,Positive*%
%FSLAX46Y46*%
G04 Gerber Fmt 4.6, Leading zero omitted, Abs format (unit mm)*
G04 Created by KiCad (PCBNEW 9.0.2) date 2025-06-08 07:26:57*
%MOMM*%
%LPD*%
G01*
G04 APERTURE LIST*
G04 Aperture macros list*
%AMRoundRect*
0 Rectangle with rounded corners*
0 $1 Rounding radius*
0 $2 $3 $4 $5 $6 $7 $8 $9 X,Y pos of 4 corners*
0 Add a 4 corners polygon primitive as box body*
4,1,4,$2,$3,$4,$5,$6,$7,$8,$9,$2,$3,0*
0 Add four circle primitives for the rounded corners*
1,1,$1+$1,$2,$3*
1,1,$1+$1,$4,$5*
1,1,$1+$1,$6,$7*
1,1,$1+$1,$8,$9*
0 Add four rect primitives between the rounded corners*
20,1,$1+$1,$2,$3,$4,$5,0*
20,1,$1+$1,$4,$5,$6,$7,0*
20,1,$1+$1,$6,$7,$8,$9,0*
20,1,$1+$1,$8,$9,$2,$3,0*%
%AMFreePoly0*
4,1,9,3.862500,-0.866500,0.737500,-0.866500,0.737500,-0.450000,-0.737500,-0.450000,-0.737500,0.450000,0.737500,0.450000,0.737500,0.866500,3.862500,0.866500,3.862500,-0.866500,3.862500,-0.866500,$1*%
G04 Aperture macros list end*
%ADD10RoundRect,0.150000X-0.587500X-0.150000X0.587500X-0.150000X0.587500X0.150000X-0.587500X0.150000X0*%
%ADD11RoundRect,0.250000X1.100000X-0.325000X1.100000X0.325000X-1.100000X0.325000X-1.100000X-0.325000X0*%
%ADD12RoundRect,0.200000X0.200000X0.275000X-0.200000X0.275000X-0.200000X-0.275000X0.200000X-0.275000X0*%
%ADD13RoundRect,0.200000X-0.200000X-0.275000X0.200000X-0.275000X0.200000X0.275000X-0.200000X0.275000X0*%
%ADD14RoundRect,0.112500X-0.187500X-0.112500X0.187500X-0.112500X0.187500X0.112500X-0.187500X0.112500X0*%
%ADD15RoundRect,0.200000X0.275000X-0.200000X0.275000X0.200000X-0.275000X0.200000X-0.275000X-0.200000X0*%
%ADD16RoundRect,0.225000X-0.250000X0.225000X-0.250000X-0.225000X0.250000X-0.225000X0.250000X0.225000X0*%
%ADD17RoundRect,0.250000X-0.325000X-1.100000X0.325000X-1.100000X0.325000X1.100000X-0.325000X1.100000X0*%
%ADD18RoundRect,0.225000X0.225000X-0.425000X0.225000X0.425000X-0.225000X0.425000X-0.225000X-0.425000X0*%
%ADD19FreePoly0,90.000000*%
%ADD20RoundRect,0.150000X0.587500X0.150000X-0.587500X0.150000X-0.587500X-0.150000X0.587500X-0.150000X0*%
%ADD21RoundRect,0.218750X0.218750X0.256250X-0.218750X0.256250X-0.218750X-0.256250X0.218750X-0.256250X0*%
%ADD22RoundRect,0.112500X-0.112500X0.187500X-0.112500X-0.187500X0.112500X-0.187500X0.112500X0.187500X0*%
%ADD23RoundRect,0.150000X0.512500X0.150000X-0.512500X0.150000X-0.512500X-0.150000X0.512500X-0.150000X0*%
%ADD24RoundRect,0.200000X-0.275000X0.200000X-0.275000X-0.200000X0.275000X-0.200000X0.275000X0.200000X0*%
%ADD25RoundRect,0.250000X-0.325000X-0.650000X0.325000X-0.650000X0.325000X0.650000X-0.325000X0.650000X0*%
%ADD26RoundRect,0.243750X0.243750X0.456250X-0.243750X0.456250X-0.243750X-0.456250X0.243750X-0.456250X0*%
%ADD27R,1.550000X0.600000*%
%ADD28R,1.500000X1.100000*%
%ADD29RoundRect,0.250000X-0.400000X-0.750000X0.400000X-0.750000X0.400000X0.750000X-0.400000X0.750000X0*%
%ADD30RoundRect,0.250000X-0.750000X-0.750000X0.750000X-0.750000X0.750000X0.750000X-0.750000X0.750000X0*%
%ADD31RoundRect,0.250000X-0.650000X1.000000X-0.650000X-1.000000X0.650000X-1.000000X0.650000X1.000000X0*%
%ADD32RoundRect,0.243750X-0.243750X-0.456250X0.243750X-0.456250X0.243750X0.456250X-0.243750X0.456250X0*%
G04 APERTURE END LIST*
D10*
%TO.C,Q6*%
X161882500Y-72060000D03*
X161882500Y-73960000D03*
X163757500Y-73010000D03*
%TD*%
D11*
%TO.C,C4*%
X178625000Y-105525000D03*
X178625000Y-102575000D03*
%TD*%
D12*
%TO.C,R5*%
X176165000Y-92000000D03*
X174515000Y-92000000D03*
%TD*%
%TO.C,R4*%
X144642500Y-107147500D03*
X142992500Y-107147500D03*
%TD*%
D13*
%TO.C,R2*%
X112105000Y-108778400D03*
X113755000Y-108778400D03*
%TD*%
D14*
%TO.C,D16*%
X174170000Y-90300000D03*
X176270000Y-90300000D03*
%TD*%
D13*
%TO.C,R31*%
X135395000Y-74100000D03*
X137045000Y-74100000D03*
%TD*%
D15*
%TO.C,R24*%
X137050000Y-106940000D03*
X137050000Y-105290000D03*
%TD*%
D13*
%TO.C,R27*%
X164395000Y-74300000D03*
X166045000Y-74300000D03*
%TD*%
%TO.C,R12*%
X112235000Y-98145000D03*
X113885000Y-98145000D03*
%TD*%
D15*
%TO.C,R8*%
X127830000Y-106940000D03*
X127830000Y-105290000D03*
%TD*%
D16*
%TO.C,C5*%
X176245000Y-80155000D03*
X176245000Y-81705000D03*
%TD*%
D17*
%TO.C,C12*%
X165345000Y-105200000D03*
X168295000Y-105200000D03*
%TD*%
D10*
%TO.C,Q3*%
X144617500Y-69660000D03*
X144617500Y-71560000D03*
X146492500Y-70610000D03*
%TD*%
D18*
%TO.C,U7*%
X165565000Y-102625000D03*
D19*
X167065000Y-102537500D03*
D18*
X168565000Y-102625000D03*
%TD*%
D20*
%TO.C,Q5*%
X139657500Y-73660000D03*
X139657500Y-71760000D03*
X137782500Y-72710000D03*
%TD*%
D14*
%TO.C,D12*%
X147710000Y-105437500D03*
X149810000Y-105437500D03*
%TD*%
D10*
%TO.C,Q1*%
X144617500Y-81435000D03*
X144617500Y-83335000D03*
X146492500Y-82385000D03*
%TD*%
D21*
%TO.C,D1*%
X116971500Y-114674000D03*
X115396500Y-114674000D03*
%TD*%
D12*
%TO.C,R16*%
X113915000Y-105435000D03*
X112265000Y-105435000D03*
%TD*%
D13*
%TO.C,R17*%
X122885000Y-105950000D03*
X124535000Y-105950000D03*
%TD*%
D22*
%TO.C,D14*%
X134740000Y-105087500D03*
X134740000Y-107187500D03*
%TD*%
D13*
%TO.C,R19*%
X122895000Y-102965000D03*
X124545000Y-102965000D03*
%TD*%
D18*
%TO.C,U6*%
X170565000Y-102625000D03*
D19*
X172065000Y-102537500D03*
D18*
X173565000Y-102625000D03*
%TD*%
D12*
%TO.C,R7*%
X149600000Y-74350000D03*
X147950000Y-74350000D03*
%TD*%
D23*
%TO.C,U2*%
X155212500Y-105455000D03*
X155212500Y-104505000D03*
X155212500Y-103555000D03*
X152937500Y-103555000D03*
X152937500Y-105455000D03*
%TD*%
D24*
%TO.C,R35*%
X142852600Y-81472500D03*
X142852600Y-83122500D03*
%TD*%
D11*
%TO.C,C8*%
X169820000Y-97570000D03*
X169820000Y-94620000D03*
%TD*%
D20*
%TO.C,Q4*%
X156142500Y-71385000D03*
X156142500Y-69485000D03*
X154267500Y-70435000D03*
%TD*%
D12*
%TO.C,R13*%
X113875000Y-99625000D03*
X112225000Y-99625000D03*
%TD*%
D23*
%TO.C,U9*%
X163517500Y-98520000D03*
X163517500Y-97570000D03*
X163517500Y-96620000D03*
X161242500Y-96620000D03*
X161242500Y-98520000D03*
%TD*%
D12*
%TO.C,R3*%
X176165000Y-88600000D03*
X174515000Y-88600000D03*
%TD*%
D21*
%TO.C,D2*%
X116687500Y-108800000D03*
X115112500Y-108800000D03*
%TD*%
D25*
%TO.C,C2*%
X118335000Y-107650000D03*
X121285000Y-107650000D03*
%TD*%
D15*
%TO.C,R10*%
X133040000Y-106940000D03*
X133040000Y-105290000D03*
%TD*%
D23*
%TO.C,U13*%
X159352500Y-105455000D03*
X159352500Y-104505000D03*
X159352500Y-103555000D03*
X157077500Y-103555000D03*
X157077500Y-105455000D03*
%TD*%
D15*
%TO.C,R37*%
X157927000Y-83122500D03*
X157927000Y-81472500D03*
%TD*%
D26*
%TO.C,D3*%
X149732500Y-78120000D03*
X147857500Y-78120000D03*
%TD*%
D13*
%TO.C,R1*%
X112369000Y-114674000D03*
X114019000Y-114674000D03*
%TD*%
D22*
%TO.C,D11*%
X140220000Y-105087500D03*
X140220000Y-107187500D03*
%TD*%
D20*
%TO.C,Q2*%
X156142500Y-83160000D03*
X156142500Y-81260000D03*
X154267500Y-82210000D03*
%TD*%
D14*
%TO.C,D17*%
X174170000Y-93700000D03*
X176270000Y-93700000D03*
%TD*%
D25*
%TO.C,C1*%
X118515000Y-96390000D03*
X121465000Y-96390000D03*
%TD*%
D23*
%TO.C,U8*%
X163517500Y-105455000D03*
X163517500Y-104505000D03*
X163517500Y-103555000D03*
X161242500Y-103555000D03*
X161242500Y-105455000D03*
%TD*%
D25*
%TO.C,C3*%
X122975000Y-107850000D03*
X125925000Y-107850000D03*
%TD*%
D27*
%TO.C,U5*%
X115705000Y-98205000D03*
X115705000Y-99475000D03*
X115705000Y-100745000D03*
X115705000Y-102015000D03*
X115705000Y-103285000D03*
X115705000Y-104555000D03*
X115705000Y-105825000D03*
X121105000Y-105825000D03*
X121105000Y-104555000D03*
X121105000Y-103285000D03*
X121105000Y-102015000D03*
X121105000Y-100745000D03*
X121105000Y-99475000D03*
X121105000Y-98205000D03*
%TD*%
D23*
%TO.C,U4*%
X159352500Y-101945000D03*
X159352500Y-100995000D03*
X159352500Y-100045000D03*
X157077500Y-100045000D03*
X157077500Y-101945000D03*
%TD*%
D12*
%TO.C,R18*%
X124545000Y-104450000D03*
X122895000Y-104450000D03*
%TD*%
D28*
%TO.C,SW1*%
X127170000Y-74170000D03*
X118270000Y-74170000D03*
%TD*%
D23*
%TO.C,U12*%
X159365000Y-98520000D03*
X159365000Y-97570000D03*
X159365000Y-96620000D03*
X157090000Y-96620000D03*
X157090000Y-98520000D03*
%TD*%
D13*
%TO.C,R30*%
X138145000Y-68700000D03*
X139795000Y-68700000D03*
%TD*%
D29*
%TO.C,RV1*%
X123770000Y-79475000D03*
D30*
X122620000Y-83475000D03*
D29*
X121470000Y-79475000D03*
%TD*%
D13*
%TO.C,R14*%
X115195000Y-107230000D03*
X116845000Y-107230000D03*
%TD*%
%TO.C,R15*%
X112255000Y-103955000D03*
X113905000Y-103955000D03*
%TD*%
D22*
%TO.C,D15*%
X129540000Y-105087500D03*
X129540000Y-107187500D03*
%TD*%
D24*
%TO.C,R25*%
X138510000Y-105290000D03*
X138510000Y-106940000D03*
%TD*%
D31*
%TO.C,D5*%
X178570000Y-108100000D03*
X178570000Y-112100000D03*
%TD*%
D23*
%TO.C,U10*%
X155212500Y-101945000D03*
X155212500Y-100995000D03*
X155212500Y-100045000D03*
X152937500Y-100045000D03*
X152937500Y-101945000D03*
%TD*%
D13*
%TO.C,R28*%
X162095000Y-69000000D03*
X163745000Y-69000000D03*
%TD*%
D23*
%TO.C,U3*%
X155212500Y-98520000D03*
X155212500Y-97570000D03*
X155212500Y-96620000D03*
X152937500Y-96620000D03*
X152937500Y-98520000D03*
%TD*%
D13*
%TO.C,R11*%
X115335000Y-96810000D03*
X116985000Y-96810000D03*
%TD*%
D14*
%TO.C,D13*%
X142790000Y-105437500D03*
X144890000Y-105437500D03*
%TD*%
D32*
%TO.C,D4*%
X151082500Y-74350000D03*
X152957500Y-74350000D03*
%TD*%
D12*
%TO.C,R6*%
X149562500Y-107167500D03*
X147912500Y-107167500D03*
%TD*%
D13*
%TO.C,R29*%
X138145000Y-70200000D03*
X139795000Y-70200000D03*
%TD*%
%TO.C,R26*%
X162095000Y-70500000D03*
X163745000Y-70500000D03*
%TD*%
%TO.C,R9*%
X151150000Y-78120000D03*
X152800000Y-78120000D03*
%TD*%
M02*
