<?xml version="1.0" encoding="utf-8"?>
<!-- Generator: Fusion 360, Shaper Origin Export Add-In, Version 1.7.0  -->
<svg xmlns="http://www.w3.org/2000/svg" xmlns:xlink="http://www.w3.org/1999/xlink" xmlns:shaper="http://www.shapertools.com/namespaces/shaper" shaper:fusionaddin="version:1.7.0" width="1.532134cm" height="2.5cm" version="1.1" x="0cm" y="0cm" viewBox="0 0 1.532134 2.5" enable-background="new 0 0 1.532134 2.5" xml:space="preserve"><path d="M0.8330456,-1.1538462 A1.25,1.25 247.3801351 0,0 0.8330456,1.1538462 A0.05,0.05 292.6198649 0,1 0.8138148,1.25 L-0.6183192,1.25 A0.05,0.05 90 0,1 -0.6661929,1.1855738 A4.1091132,4.1091132 16.7695537 0,0 -0.6661929,-1.1855738 A0.05,0.05 163.2304463 0,1 -0.6183192,-1.25 L0.8138148,-1.25 A0.05,0.05 270 0,1 0.8330456,-1.1538462z" transform="matrix(1,0,0,-1,0.6683192,1.25)" fill="rgb(0,0,0)" shaper:cutDepth="0.3cm" stroke-linecap="round" stroke-linejoin="round" /><path d="M-0.3638148,-0.9 L-0.0638148,-0.9 -0.0638148,-0.6 -0.3638148,-0.6 -0.3638148,-0.9z" transform="matrix(1,0,0,-1,0.6683192,1.25)" fill="rgb(255,255,255)" stroke="rgb(0,0,0)" stroke-width="0.0010cm" stroke-linecap="round" stroke-linejoin="round" shaper:cutDepth="0.3cm" /><path d="M-0.3638148,-0.15 L-0.0638148,-0.15 -0.0638148,0.15 -0.3638148,0.15 -0.3638148,-0.15z" transform="matrix(1,0,0,-1,0.6683192,1.25)" fill="rgb(255,255,255)" stroke="rgb(0,0,0)" stroke-width="0.0010cm" stroke-linecap="round" stroke-linejoin="round" shaper:cutDepth="0.3cm" /><path d="M-0.3638148,0.6 L-0.0638148,0.6 -0.0638148,0.9 -0.3638148,0.9 -0.3638148,0.6z" transform="matrix(1,0,0,-1,0.6683192,1.25)" fill="rgb(255,255,255)" stroke="rgb(0,0,0)" stroke-width="0.0010cm" stroke-linecap="round" stroke-linejoin="round" shaper:cutDepth="0.3cm" /></svg>