<?xml version="1.0" encoding="utf-8"?>
<!-- Generator: Fusion 360, Shaper Origin Export Add-In, Version 1.7.0  -->
<svg xmlns="http://www.w3.org/2000/svg" xmlns:xlink="http://www.w3.org/1999/xlink" xmlns:shaper="http://www.shapertools.com/namespaces/shaper" shaper:fusionaddin="version:1.7.0" width="3.232134cm" height="2.5cm" version="1.1" x="0cm" y="0cm" viewBox="0 0 3.232134 2.5" enable-background="new 0 0 3.232134 2.5" xml:space="preserve"><path d="M1.6113772,-1.1855738 A4.1091132,4.1091132 196.7695537 0,0 1.6113772,1.1855738 A0.05,0.05 343.2304463 0,1 1.5635036,1.25 L-0.3686304,1.25 A1.25,1.25 90 0,1 -0.3686304,-1.25 L1.5635036,-1.25 A0.05,0.05 270 0,1 1.6113772,-1.1855738z" transform="matrix(1,0,0,-1,1.6186304,1.25)" fill="rgb(0,0,0)" shaper:cutDepth="0.3cm" stroke-linecap="round" stroke-linejoin="round" /><path d="M1.3089992,-0.6 L1.0089992,-0.6 1.0089992,-0.9 1.3089992,-0.9 1.3089992,-0.6z" transform="matrix(1,0,0,-1,1.6186304,1.25)" fill="rgb(255,255,255)" stroke="rgb(0,0,0)" stroke-width="0.0010cm" stroke-linecap="round" stroke-linejoin="round" shaper:cutDepth="0.3cm" /><path d="M1.3089992,0.15 L1.0089992,0.15 1.0089992,-0.15 1.3089992,-0.15 1.3089992,0.15z" transform="matrix(1,0,0,-1,1.6186304,1.25)" fill="rgb(255,255,255)" stroke="rgb(0,0,0)" stroke-width="0.0010cm" stroke-linecap="round" stroke-linejoin="round" shaper:cutDepth="0.3cm" /><path d="M1.3089992,0.9 L1.0089992,0.9 1.0089992,0.6 1.3089992,0.6 1.3089992,0.9z" transform="matrix(1,0,0,-1,1.6186304,1.25)" fill="rgb(255,255,255)" stroke="rgb(0,0,0)" stroke-width="0.0010cm" stroke-linecap="round" stroke-linejoin="round" shaper:cutDepth="0.3cm" /><path d="M-0.5686304,0.8 a0.2,0.2 0 1,1 0.4,0 a0.2,0.2 0 1,1 -0.4,0z" transform="matrix(1,0,0,-1,1.6186304,1.25)" fill="rgb(255,255,255)" stroke="rgb(0,0,0)" stroke-width="0.0010cm" stroke-linecap="round" stroke-linejoin="round" shaper:cutDepth="0.3cm" /><path d="M-0.5686304,-0.8 a0.2,0.2 0 1,1 0.4,0 a0.2,0.2 0 1,1 -0.4,0z" transform="matrix(1,0,0,-1,1.6186304,1.25)" fill="rgb(255,255,255)" stroke="rgb(0,0,0)" stroke-width="0.0010cm" stroke-linecap="round" stroke-linejoin="round" shaper:cutDepth="0.3cm" /><path d="M-0.7186304,0 a0.35,0.35 0 1,1 0.7,0 a0.35,0.35 0 1,1 -0.7,0z" transform="matrix(1,0,0,-1,1.6186304,1.25)" fill="rgb(255,255,255)" stroke="rgb(0,0,0)" stroke-width="0.0010cm" stroke-linecap="round" stroke-linejoin="round" shaper:cutDepth="0.3cm" /></svg>