<?xml version="1.0" encoding="utf-8"?>
<!-- Generator: Fusion 360, Shaper Origin Export Add-In, Version 1.7.0  -->
<svg xmlns="http://www.w3.org/2000/svg" xmlns:xlink="http://www.w3.org/1999/xlink" xmlns:shaper="http://www.shapertools.com/namespaces/shaper" shaper:fusionaddin="version:1.7.0" width="4.8cm" height="2.5cm" version="1.1" x="0cm" y="0cm" viewBox="0 0 4.8 2.5" enable-background="new 0 0 4.8 2.5" xml:space="preserve"><path d="M-2.1,-0.9 L-2.1,-1.25 2.1,-1.25 2.1,-0.9 2.4,-0.9 2.4,-0.6 2.1,-0.6 2.1,-0.15 2.4,-0.15 2.4,0.15 2.1,0.15 2.1,0.6 2.4,0.6 2.4,0.9 2.1,0.9 2.1,1.25 -2.1,1.25 -2.1,0.9 -2.4,0.9 -2.4,0.6 -2.1,0.6 -2.1,0.15 -2.4,0.15 -2.4,-0.15 -2.1,-0.15 -2.1,-0.6 -2.4,-0.6 -2.4,-0.9 -2.1,-0.9z" transform="matrix(1,0,0,-1,2.4,1.25)" fill="rgb(0,0,0)" shaper:cutDepth="0.3cm" stroke-linecap="round" stroke-linejoin="round" /></svg>