%TF.GenerationSoftware,KiCad,Pcbnew,8.0.8*%
%TF.CreationDate,2025-02-05T11:08:30-07:00*%
%TF.ProjectId,IF Box PCB,49462042-6f78-4205-9043-422e6b696361,2*%
%TF.SameCoordinates,Original*%
%TF.FileFunction,Soldermask,Top*%
%TF.FilePolarity,Negative*%
%FSLAX46Y46*%
G04 Gerber Fmt 4.6, Leading zero omitted, Abs format (unit mm)*
G04 Created by KiCad (PCBNEW 8.0.8) date 2025-02-05 11:08:30*
%MOMM*%
%LPD*%
G01*
G04 APERTURE LIST*
G04 Aperture macros list*
%AMRoundRect*
0 Rectangle with rounded corners*
0 $1 Rounding radius*
0 $2 $3 $4 $5 $6 $7 $8 $9 X,Y pos of 4 corners*
0 Add a 4 corners polygon primitive as box body*
4,1,4,$2,$3,$4,$5,$6,$7,$8,$9,$2,$3,0*
0 Add four circle primitives for the rounded corners*
1,1,$1+$1,$2,$3*
1,1,$1+$1,$4,$5*
1,1,$1+$1,$6,$7*
1,1,$1+$1,$8,$9*
0 Add four rect primitives between the rounded corners*
20,1,$1+$1,$2,$3,$4,$5,0*
20,1,$1+$1,$4,$5,$6,$7,0*
20,1,$1+$1,$6,$7,$8,$9,0*
20,1,$1+$1,$8,$9,$2,$3,0*%
G04 Aperture macros list end*
%ADD10RoundRect,0.102000X-0.679000X0.679000X-0.679000X-0.679000X0.679000X-0.679000X0.679000X0.679000X0*%
%ADD11C,1.562000*%
%ADD12C,4.220000*%
%ADD13RoundRect,0.102000X-0.975000X0.975000X-0.975000X-0.975000X0.975000X-0.975000X0.975000X0.975000X0*%
%ADD14C,2.154000*%
G04 APERTURE END LIST*
D10*
%TO.C,J3*%
X145420000Y-85320000D03*
D11*
X145420000Y-88090000D03*
X145420000Y-90860000D03*
X145420000Y-93630000D03*
X145420000Y-96400000D03*
X145420000Y-99170000D03*
X145420000Y-101940000D03*
X145420000Y-104710000D03*
X145420000Y-107480000D03*
X145420000Y-110250000D03*
X145420000Y-113020000D03*
X145420000Y-115790000D03*
X145420000Y-118560000D03*
X145420000Y-121330000D03*
X145420000Y-124100000D03*
X145420000Y-126870000D03*
X145420000Y-129640000D03*
X145420000Y-132410000D03*
X145420000Y-135180000D03*
X142580000Y-86705000D03*
X142580000Y-89475000D03*
X142580000Y-92245000D03*
X142580000Y-95015000D03*
X142580000Y-97785000D03*
X142580000Y-100555000D03*
X142580000Y-103325000D03*
X142580000Y-106095000D03*
X142580000Y-108865000D03*
X142580000Y-111635000D03*
X142580000Y-114405000D03*
X142580000Y-117175000D03*
X142580000Y-119945000D03*
X142580000Y-122715000D03*
X142580000Y-125485000D03*
X142580000Y-128255000D03*
X142580000Y-131025000D03*
X142580000Y-133795000D03*
D12*
X144000000Y-78500000D03*
X144000000Y-142000000D03*
%TD*%
D13*
%TO.C,J2*%
X119150000Y-113000000D03*
D14*
X128500000Y-113000000D03*
X119150000Y-116500000D03*
X128500000Y-116500000D03*
X119150000Y-120000000D03*
X128500000Y-120000000D03*
X119150000Y-123500000D03*
X128500000Y-123500000D03*
X119150000Y-127000000D03*
X128500000Y-127000000D03*
X119150000Y-130500000D03*
X128500000Y-130500000D03*
X119150000Y-134000000D03*
X128500000Y-134000000D03*
X119150000Y-137500000D03*
X128500000Y-137500000D03*
X119150000Y-141000000D03*
X128500000Y-141000000D03*
X119150000Y-144500000D03*
X128500000Y-144500000D03*
%TD*%
D13*
%TO.C,J1*%
X119000000Y-75500000D03*
D14*
X128350000Y-75500000D03*
X119000000Y-79000000D03*
X128350000Y-79000000D03*
X119000000Y-82500000D03*
X128350000Y-82500000D03*
X119000000Y-86000000D03*
X128350000Y-86000000D03*
X119000000Y-89500000D03*
X128350000Y-89500000D03*
X119000000Y-93000000D03*
X128350000Y-93000000D03*
X119000000Y-96500000D03*
X128350000Y-96500000D03*
X119000000Y-100000000D03*
X128350000Y-100000000D03*
X119000000Y-103500000D03*
X128350000Y-103500000D03*
X119000000Y-107000000D03*
X128350000Y-107000000D03*
%TD*%
M02*
