M48
; DRILL file {KiCad 8.0.8} date 2025-02-05T11:09:06-0700
; FORMAT={-:-/ absolute / metric / decimal}
; #@! TF.CreationDate,2025-02-05T11:09:06-07:00
; #@! TF.GenerationSoftware,Kicad,Pcbnew,8.0.8
; #@! TF.FileFunction,Plated,1,2,PTH
FMAT,2
METRIC
; #@! TA.AperFunction,Plated,PTH,ComponentDrill
T1C0.850
; #@! TA.AperFunction,Plated,PTH,ComponentDrill
T2C1.300
; #@! TA.AperFunction,Plated,PTH,ComponentDrill
T3C3.000
%
G90
G05
T1
X142.58Y-86.705
X142.58Y-89.475
X142.58Y-92.245
X142.58Y-95.015
X142.58Y-97.785
X142.58Y-100.555
X142.58Y-103.325
X142.58Y-106.095
X142.58Y-108.865
X142.58Y-111.635
X142.58Y-114.405
X142.58Y-117.175
X142.58Y-119.945
X142.58Y-122.715
X142.58Y-125.485
X142.58Y-128.255
X142.58Y-131.025
X142.58Y-133.795
X145.42Y-85.32
X145.42Y-88.09
X145.42Y-90.86
X145.42Y-93.63
X145.42Y-96.4
X145.42Y-99.17
X145.42Y-101.94
X145.42Y-104.71
X145.42Y-107.48
X145.42Y-110.25
X145.42Y-113.02
X145.42Y-115.79
X145.42Y-118.56
X145.42Y-121.33
X145.42Y-124.1
X145.42Y-126.87
X145.42Y-129.64
X145.42Y-132.41
X145.42Y-135.18
T2
X119.0Y-75.5
X119.0Y-79.0
X119.0Y-82.5
X119.0Y-86.0
X119.0Y-89.5
X119.0Y-93.0
X119.0Y-96.5
X119.0Y-100.0
X119.0Y-103.5
X119.0Y-107.0
X119.15Y-113.0
X119.15Y-116.5
X119.15Y-120.0
X119.15Y-123.5
X119.15Y-127.0
X119.15Y-130.5
X119.15Y-134.0
X119.15Y-137.5
X119.15Y-141.0
X119.15Y-144.5
X128.35Y-75.5
X128.35Y-79.0
X128.35Y-82.5
X128.35Y-86.0
X128.35Y-89.5
X128.35Y-93.0
X128.35Y-96.5
X128.35Y-100.0
X128.35Y-103.5
X128.35Y-107.0
X128.5Y-113.0
X128.5Y-116.5
X128.5Y-120.0
X128.5Y-123.5
X128.5Y-127.0
X128.5Y-130.5
X128.5Y-134.0
X128.5Y-137.5
X128.5Y-141.0
X128.5Y-144.5
T3
X144.0Y-78.5
X144.0Y-142.0
M30
