M48
; DRILL file {KiCad 9.0.2} date 2025-07-28T14:04:30-0600
; FORMAT={-:-/ absolute / metric / decimal}
; #@! TF.CreationDate,2025-07-28T14:04:30-06:00
; #@! TF.GenerationSoftware,Kicad,Pcbnew,9.0.2
; #@! TF.FileFunction,Plated,1,4,PTH
FMAT,2
METRIC
; #@! TA.AperFunction,Plated,PTH,ViaDrill
T1C0.300
; #@! TA.AperFunction,Plated,PTH,ViaDrill
T2C0.500
; #@! TA.AperFunction,Plated,PTH,ComponentDrill
T3C0.950
; #@! TA.AperFunction,Plated,PTH,ComponentDrill
T4C1.000
; #@! TA.AperFunction,Plated,PTH,ComponentDrill
T5C1.300
; #@! TA.AperFunction,Plated,PTH,ComponentDrill
T6C1.400
; #@! TA.AperFunction,Plated,PTH,ComponentDrill
T7C2.000
%
G90
G05
T1
X86.62Y-93.12
X89.52Y-103.825
X89.52Y-106.125
X100.61Y-91.755
X100.62Y-94.7
X102.665Y-102.36
X104.645Y-102.37
X105.685Y-88.4
X106.235Y-92.415
X106.235Y-97.815
X107.575Y-102.34
X107.677Y-88.4
X109.555Y-102.33
X110.127Y-84.5
X111.87Y-92.235
X111.87Y-95.185
X111.97Y-87.595
X111.97Y-90.545
X112.402Y-83.55
X117.12Y-95.6
X119.367Y-81.9
X119.377Y-87.55
X120.79Y-70.669
X120.79Y-76.413
X121.32Y-81.9
X121.52Y-79.2
X122.12Y-79.9
X122.32Y-79.2
X122.74Y-68.713
X122.92Y-80.1
X123.12Y-79.4
X123.72Y-80.3
X124.32Y-79.1
X124.36Y-77.4
X124.36Y-78.218
X124.52Y-80.6
X124.822Y-74.791
X125.31Y-80.093
X125.32Y-80.9
X125.36Y-118.75
X125.365Y-114.85
X125.42Y-103.3
X126.256Y-103.316
X126.42Y-79.9
X126.42Y-80.8
X126.832Y-64.22
X126.832Y-66.12
X126.832Y-69.955
X127.22Y-104.7
X127.32Y-79.6
X127.32Y-80.8
X127.32Y-102.4
X127.995Y-80.22
X128.02Y-81.1
X128.12Y-101.4
X128.12Y-103.4
X128.12Y-104.4
X128.12Y-105.4
X128.131Y-102.366
X128.62Y-80.8
X128.72Y-79.6
X128.92Y-101.4
X128.92Y-102.4
X128.92Y-103.4
X128.92Y-104.4
X128.92Y-105.4
X128.92Y-106.4
X129.107Y-64.22
X129.107Y-65.17
X129.107Y-68.055
X129.42Y-79.2
X129.42Y-80.0
X129.62Y-80.9
X129.72Y-102.4
X129.72Y-103.4
X129.72Y-104.4
X129.72Y-105.4
X129.72Y-106.4
X130.12Y-79.1
X130.32Y-79.9
X130.325Y-74.746
X130.52Y-80.6
X130.52Y-103.4
X130.52Y-104.4
X130.52Y-105.4
X130.52Y-106.4
X130.52Y-107.4
X130.92Y-79.2
X131.12Y-79.9
X131.327Y-68.045
X131.327Y-69.945
X131.42Y-80.6
X131.42Y-104.4
X131.42Y-107.4
X131.42Y-108.3
X131.82Y-79.2
X132.12Y-80.0
X132.12Y-80.8
X132.32Y-104.4
X132.32Y-109.8
X132.35Y-108.6
X132.72Y-78.3
X133.602Y-68.045
X133.82Y-109.8
X133.9Y-108.6
X134.32Y-104.4
X134.32Y-107.4
X134.62Y-80.8
X135.22Y-104.4
X135.22Y-107.4
X135.22Y-108.3
X135.42Y-80.5
X135.52Y-88.5
X135.72Y-79.7
X135.96Y-69.15
X136.12Y-74.9
X136.12Y-103.4
X136.12Y-104.4
X136.12Y-105.4
X136.12Y-106.4
X136.12Y-107.4
X136.155Y-66.525
X136.22Y-80.5
X136.32Y-79.2
X136.82Y-79.9
X136.92Y-102.4
X136.92Y-103.4
X136.92Y-104.4
X136.92Y-105.4
X136.92Y-106.4
X137.02Y-80.7
X137.12Y-79.2
X137.655Y-66.438
X137.72Y-101.4
X137.72Y-102.4
X137.72Y-103.4
X137.72Y-104.4
X137.72Y-105.4
X137.92Y-79.8
X137.92Y-80.9
X138.509Y-102.366
X138.52Y-101.4
X138.52Y-103.4
X138.52Y-104.4
X138.595Y-80.32
X138.885Y-69.1
X139.32Y-79.8
X139.32Y-80.9
X139.92Y-80.3
X140.12Y-80.9
X140.262Y-101.46
X140.405Y-78.457
X140.42Y-77.7
X140.42Y-79.2
X140.92Y-80.9
X141.02Y-101.4
X141.05Y-69.09
X141.255Y-66.5
X141.32Y-79.5
X141.355Y-80.332
X141.615Y-74.891
X141.92Y-80.8
X142.12Y-80.1
X142.62Y-80.6
X142.755Y-66.438
X143.32Y-80.3
X143.72Y-79.3
X144.0Y-69.09
X144.12Y-80.0
X144.255Y-66.525
X144.82Y-79.5
X145.82Y-81.8
X145.882Y-87.55
X146.295Y-59.905
X147.82Y-81.8
X148.29Y-71.403
X149.275Y-108.125
X149.3Y-59.96
X149.375Y-106.2
X150.16Y-77.28
X150.57Y-96.181
X150.67Y-91.777
X151.27Y-104.275
X151.27Y-108.125
X151.37Y-99.186
X152.87Y-94.229
X152.97Y-89.825
T2
X151.82Y-59.96
T3
X141.575Y-117.555
X144.075Y-117.555
X146.575Y-117.555
X149.075Y-117.555
X151.575Y-117.555
X154.075Y-117.555
T4
X86.55Y-67.485
X86.55Y-70.025
X86.55Y-72.565
X97.4Y-64.3
X97.4Y-66.84
X97.4Y-69.38
X97.4Y-71.92
X97.4Y-74.46
X97.4Y-77.0
X97.4Y-79.54
X97.4Y-82.08
X97.4Y-84.62
X97.4Y-87.16
X97.4Y-89.7
X97.4Y-92.24
X97.4Y-94.78
X97.4Y-97.32
X97.4Y-99.86
X97.4Y-102.4
X97.4Y-104.94
X97.4Y-107.48
X97.4Y-110.02
X97.4Y-112.56
X115.18Y-64.3
X115.18Y-66.84
X115.18Y-69.38
X115.18Y-71.92
X115.18Y-74.46
X115.18Y-77.0
X115.18Y-79.54
X115.18Y-82.08
X115.18Y-84.62
X115.18Y-87.16
X115.18Y-89.7
X115.18Y-92.24
X115.18Y-94.78
X115.18Y-97.32
X115.18Y-99.86
X115.18Y-102.4
X115.18Y-104.94
X115.18Y-107.48
X115.18Y-110.02
X115.18Y-112.56
X131.865Y-105.995
X134.405Y-105.995
T5
X130.425Y-115.1
X135.425Y-115.1
X160.22Y-65.3
X160.22Y-70.3
X160.22Y-75.3
X160.22Y-80.3
X160.22Y-85.3
X160.22Y-90.3
X160.22Y-95.3
X160.22Y-100.3
X160.22Y-105.3
X160.22Y-110.3
T6
X130.908Y-58.725
T7
X126.575Y-58.725
X135.24Y-58.725
X139.573Y-58.725
M30
