<?xml version="1.0" encoding="utf-8"?>
<!-- Generator: Fusion 360, Shaper Origin Export Add-In, Version 1.7.0  -->
<svg xmlns="http://www.w3.org/2000/svg" xmlns:xlink="http://www.w3.org/1999/xlink" xmlns:shaper="http://www.shapertools.com/namespaces/shaper" shaper:fusionaddin="version:1.7.0" width="6.3cm" height="3.7cm" version="1.1" x="0cm" y="0cm" viewBox="0 0 6.3 3.7" enable-background="new 0 0 6.3 3.7" xml:space="preserve"><path d="M-3.15,0.7 L-2.85,0.7 -2.85,0.15 -3.15,0.15 -3.15,-0.15 -2.85,-0.15 -2.85,-0.7 -3.15,-0.7 -3.15,-1 -2.85,-1 -2.85,-1.55 -3.15,-1.55 -3.15,-1.85 3.15,-1.85 3.15,-1.55 2.85,-1.55 2.85,-1 3.15,-1 3.15,-0.7 2.85,-0.7 2.85,-0.15 3.15,-0.15 3.15,0.15 2.85,0.15 2.85,0.7 3.15,0.7 3.15,1 2.85,1 2.85,1.55 3.15,1.55 3.15,1.85 -3.15,1.85 -3.15,1.55 -2.85,1.55 -2.85,1 -3.15,1 -3.15,0.7z" transform="matrix(1,0,0,-1,3.15,1.85)" fill="rgb(0,0,0)" shaper:cutDepth="0.3cm" stroke-linecap="round" stroke-linejoin="round" /></svg>