%TF.GenerationSoftware,KiCad,Pcbnew,8.0.8*%
%TF.CreationDate,2025-02-05T11:08:30-07:00*%
%TF.ProjectId,IF Box PCB,49462042-6f78-4205-9043-422e6b696361,2*%
%TF.SameCoordinates,Original*%
%TF.FileFunction,Copper,L2,Bot*%
%TF.FilePolarity,Positive*%
%FSLAX46Y46*%
G04 Gerber Fmt 4.6, Leading zero omitted, Abs format (unit mm)*
G04 Created by KiCad (PCBNEW 8.0.8) date 2025-02-05 11:08:30*
%MOMM*%
%LPD*%
G01*
G04 APERTURE LIST*
%TA.AperFunction,ComponentPad*%
%ADD10R,1.358000X1.358000*%
%TD*%
%TA.AperFunction,ComponentPad*%
%ADD11C,1.358000*%
%TD*%
%TA.AperFunction,ComponentPad*%
%ADD12C,4.016000*%
%TD*%
%TA.AperFunction,ComponentPad*%
%ADD13R,1.950000X1.950000*%
%TD*%
%TA.AperFunction,ComponentPad*%
%ADD14C,1.950000*%
%TD*%
%TA.AperFunction,Conductor*%
%ADD15C,0.200000*%
%TD*%
G04 APERTURE END LIST*
D10*
%TO.P,J3,1,Pin_1*%
%TO.N,Net-(J1-Pin_1)*%
X145420000Y-85320000D03*
D11*
%TO.P,J3,2,Pin_2*%
%TO.N,Net-(J1-Pin_3)*%
X145420000Y-88090000D03*
%TO.P,J3,3,Pin_3*%
%TO.N,Net-(J1-Pin_6)*%
X145420000Y-90860000D03*
%TO.P,J3,4,Pin_4*%
%TO.N,Net-(J1-Pin_8)*%
X145420000Y-93630000D03*
%TO.P,J3,5,Pin_5*%
%TO.N,Net-(J1-Pin_10)*%
X145420000Y-96400000D03*
%TO.P,J3,6,Pin_6*%
%TO.N,Net-(J1-Pin_12)*%
X145420000Y-99170000D03*
%TO.P,J3,7,Pin_7*%
%TO.N,Net-(J1-Pin_14)*%
X145420000Y-101940000D03*
%TO.P,J3,8,Pin_8*%
%TO.N,Net-(J1-Pin_16)*%
X145420000Y-104710000D03*
%TO.P,J3,9,Pin_9*%
%TO.N,Net-(J1-Pin_18)*%
X145420000Y-107480000D03*
%TO.P,J3,10,Pin_10*%
%TO.N,Net-(J1-Pin_20)*%
X145420000Y-110250000D03*
%TO.P,J3,11,Pin_11*%
%TO.N,Net-(J2-Pin_2)*%
X145420000Y-113020000D03*
%TO.P,J3,12,Pin_12*%
%TO.N,Net-(J2-Pin_4)*%
X145420000Y-115790000D03*
%TO.P,J3,13,Pin_13*%
%TO.N,Net-(J2-Pin_6)*%
X145420000Y-118560000D03*
%TO.P,J3,14,Pin_14*%
%TO.N,Net-(J2-Pin_8)*%
X145420000Y-121330000D03*
%TO.P,J3,15,Pin_15*%
%TO.N,Net-(J2-Pin_10)*%
X145420000Y-124100000D03*
%TO.P,J3,16,Pin_16*%
%TO.N,Net-(J2-Pin_12)*%
X145420000Y-126870000D03*
%TO.P,J3,17,Pin_17*%
%TO.N,Net-(J2-Pin_14)*%
X145420000Y-129640000D03*
%TO.P,J3,18,Pin_18*%
%TO.N,Net-(J2-Pin_16)*%
X145420000Y-132410000D03*
%TO.P,J3,19,Pin_19*%
%TO.N,Net-(J2-Pin_18)*%
X145420000Y-135180000D03*
%TO.P,J3,20,Pin_20*%
%TO.N,Net-(J1-Pin_5)*%
X142580000Y-86705000D03*
%TO.P,J3,21,Pin_21*%
%TO.N,Net-(J1-Pin_7)*%
X142580000Y-89475000D03*
%TO.P,J3,22,Pin_22*%
%TO.N,Net-(J1-Pin_9)*%
X142580000Y-92245000D03*
%TO.P,J3,23,Pin_23*%
%TO.N,Net-(J1-Pin_11)*%
X142580000Y-95015000D03*
%TO.P,J3,24,Pin_24*%
%TO.N,Net-(J1-Pin_13)*%
X142580000Y-97785000D03*
%TO.P,J3,25,Pin_25*%
%TO.N,Net-(J1-Pin_15)*%
X142580000Y-100555000D03*
%TO.P,J3,26,Pin_26*%
%TO.N,Net-(J1-Pin_17)*%
X142580000Y-103325000D03*
%TO.P,J3,27,Pin_27*%
%TO.N,Net-(J1-Pin_19)*%
X142580000Y-106095000D03*
%TO.P,J3,28,Pin_28*%
%TO.N,Net-(J2-Pin_1)*%
X142580000Y-108865000D03*
%TO.P,J3,29,Pin_29*%
%TO.N,Net-(J2-Pin_3)*%
X142580000Y-111635000D03*
%TO.P,J3,30,Pin_30*%
%TO.N,Net-(J2-Pin_5)*%
X142580000Y-114405000D03*
%TO.P,J3,31,Pin_31*%
%TO.N,Net-(J2-Pin_7)*%
X142580000Y-117175000D03*
%TO.P,J3,32,Pin_32*%
%TO.N,Net-(J2-Pin_9)*%
X142580000Y-119945000D03*
%TO.P,J3,33,Pin_33*%
%TO.N,Net-(J2-Pin_11)*%
X142580000Y-122715000D03*
%TO.P,J3,34,Pin_34*%
%TO.N,Net-(J2-Pin_13)*%
X142580000Y-125485000D03*
%TO.P,J3,35,Pin_35*%
%TO.N,Net-(J2-Pin_15)*%
X142580000Y-128255000D03*
%TO.P,J3,36,Pin_36*%
%TO.N,Net-(J2-Pin_17)*%
X142580000Y-131025000D03*
%TO.P,J3,37,Pin_37*%
%TO.N,Net-(J2-Pin_19)*%
X142580000Y-133795000D03*
D12*
%TO.P,J3,S1*%
%TO.N,N/C*%
X144000000Y-78500000D03*
%TO.P,J3,S2*%
X144000000Y-142000000D03*
%TD*%
D13*
%TO.P,J2,1,Pin_1*%
%TO.N,Net-(J2-Pin_1)*%
X119150000Y-113000000D03*
D14*
%TO.P,J2,2,Pin_2*%
%TO.N,Net-(J2-Pin_2)*%
X128500000Y-113000000D03*
%TO.P,J2,3,Pin_3*%
%TO.N,Net-(J2-Pin_3)*%
X119150000Y-116500000D03*
%TO.P,J2,4,Pin_4*%
%TO.N,Net-(J2-Pin_4)*%
X128500000Y-116500000D03*
%TO.P,J2,5,Pin_5*%
%TO.N,Net-(J2-Pin_5)*%
X119150000Y-120000000D03*
%TO.P,J2,6,Pin_6*%
%TO.N,Net-(J2-Pin_6)*%
X128500000Y-120000000D03*
%TO.P,J2,7,Pin_7*%
%TO.N,Net-(J2-Pin_7)*%
X119150000Y-123500000D03*
%TO.P,J2,8,Pin_8*%
%TO.N,Net-(J2-Pin_8)*%
X128500000Y-123500000D03*
%TO.P,J2,9,Pin_9*%
%TO.N,Net-(J2-Pin_9)*%
X119150000Y-127000000D03*
%TO.P,J2,10,Pin_10*%
%TO.N,Net-(J2-Pin_10)*%
X128500000Y-127000000D03*
%TO.P,J2,11,Pin_11*%
%TO.N,Net-(J2-Pin_11)*%
X119150000Y-130500000D03*
%TO.P,J2,12,Pin_12*%
%TO.N,Net-(J2-Pin_12)*%
X128500000Y-130500000D03*
%TO.P,J2,13,Pin_13*%
%TO.N,Net-(J2-Pin_13)*%
X119150000Y-134000000D03*
%TO.P,J2,14,Pin_14*%
%TO.N,Net-(J2-Pin_14)*%
X128500000Y-134000000D03*
%TO.P,J2,15,Pin_15*%
%TO.N,Net-(J2-Pin_15)*%
X119150000Y-137500000D03*
%TO.P,J2,16,Pin_16*%
%TO.N,Net-(J2-Pin_16)*%
X128500000Y-137500000D03*
%TO.P,J2,17,Pin_17*%
%TO.N,Net-(J2-Pin_17)*%
X119150000Y-141000000D03*
%TO.P,J2,18,Pin_18*%
%TO.N,Net-(J2-Pin_18)*%
X128500000Y-141000000D03*
%TO.P,J2,19,Pin_19*%
%TO.N,Net-(J2-Pin_19)*%
X119150000Y-144500000D03*
%TO.P,J2,20,Pin_20*%
X128500000Y-144500000D03*
%TD*%
D13*
%TO.P,J1,1,Pin_1*%
%TO.N,Net-(J1-Pin_1)*%
X119000000Y-75500000D03*
D14*
%TO.P,J1,2,Pin_2*%
X128350000Y-75500000D03*
%TO.P,J1,3,Pin_3*%
%TO.N,Net-(J1-Pin_3)*%
X119000000Y-79000000D03*
%TO.P,J1,4,Pin_4*%
X128350000Y-79000000D03*
%TO.P,J1,5,Pin_5*%
%TO.N,Net-(J1-Pin_5)*%
X119000000Y-82500000D03*
%TO.P,J1,6,Pin_6*%
%TO.N,Net-(J1-Pin_6)*%
X128350000Y-82500000D03*
%TO.P,J1,7,Pin_7*%
%TO.N,Net-(J1-Pin_7)*%
X119000000Y-86000000D03*
%TO.P,J1,8,Pin_8*%
%TO.N,Net-(J1-Pin_8)*%
X128350000Y-86000000D03*
%TO.P,J1,9,Pin_9*%
%TO.N,Net-(J1-Pin_9)*%
X119000000Y-89500000D03*
%TO.P,J1,10,Pin_10*%
%TO.N,Net-(J1-Pin_10)*%
X128350000Y-89500000D03*
%TO.P,J1,11,Pin_11*%
%TO.N,Net-(J1-Pin_11)*%
X119000000Y-93000000D03*
%TO.P,J1,12,Pin_12*%
%TO.N,Net-(J1-Pin_12)*%
X128350000Y-93000000D03*
%TO.P,J1,13,Pin_13*%
%TO.N,Net-(J1-Pin_13)*%
X119000000Y-96500000D03*
%TO.P,J1,14,Pin_14*%
%TO.N,Net-(J1-Pin_14)*%
X128350000Y-96500000D03*
%TO.P,J1,15,Pin_15*%
%TO.N,Net-(J1-Pin_15)*%
X119000000Y-100000000D03*
%TO.P,J1,16,Pin_16*%
%TO.N,Net-(J1-Pin_16)*%
X128350000Y-100000000D03*
%TO.P,J1,17,Pin_17*%
%TO.N,Net-(J1-Pin_17)*%
X119000000Y-103500000D03*
%TO.P,J1,18,Pin_18*%
%TO.N,Net-(J1-Pin_18)*%
X128350000Y-103500000D03*
%TO.P,J1,19,Pin_19*%
%TO.N,Net-(J1-Pin_19)*%
X119000000Y-107000000D03*
%TO.P,J1,20,Pin_20*%
%TO.N,Net-(J1-Pin_20)*%
X128350000Y-107000000D03*
%TD*%
D15*
%TO.N,Net-(J1-Pin_5)*%
X142580000Y-86705000D02*
X140375000Y-84500000D01*
X121000000Y-84500000D02*
X119000000Y-82500000D01*
X140375000Y-84500000D02*
X121000000Y-84500000D01*
%TO.N,Net-(J1-Pin_11)*%
X142580000Y-95015000D02*
X121015000Y-95015000D01*
X121015000Y-95015000D02*
X119000000Y-93000000D01*
%TO.N,Net-(J1-Pin_7)*%
X121000000Y-88000000D02*
X119000000Y-86000000D01*
X141975000Y-89475000D02*
X140500000Y-88000000D01*
X142580000Y-89475000D02*
X141975000Y-89475000D01*
X140500000Y-88000000D02*
X121000000Y-88000000D01*
%TO.N,Net-(J1-Pin_15)*%
X141635000Y-101500000D02*
X120500000Y-101500000D01*
X142580000Y-100555000D02*
X141635000Y-101500000D01*
X120500000Y-101500000D02*
X119000000Y-100000000D01*
%TO.N,Net-(J1-Pin_13)*%
X142580000Y-97785000D02*
X141865000Y-98500000D01*
X121000000Y-98500000D02*
X119000000Y-96500000D01*
X141865000Y-98500000D02*
X121000000Y-98500000D01*
%TO.N,Net-(J1-Pin_9)*%
X121000000Y-91500000D02*
X119000000Y-89500000D01*
X141835000Y-91500000D02*
X121000000Y-91500000D01*
X142580000Y-92245000D02*
X141835000Y-91500000D01*
%TO.N,Net-(J1-Pin_17)*%
X139500000Y-105500000D02*
X121000000Y-105500000D01*
X141675000Y-103325000D02*
X139500000Y-105500000D01*
X142580000Y-103325000D02*
X141675000Y-103325000D01*
X121000000Y-105500000D02*
X119000000Y-103500000D01*
%TO.N,Net-(J2-Pin_19)*%
X128500000Y-144500000D02*
X119150000Y-144500000D01*
X131875000Y-144500000D02*
X128500000Y-144500000D01*
X142580000Y-133795000D02*
X131875000Y-144500000D01*
%TO.N,Net-(J2-Pin_5)*%
X138000000Y-118500000D02*
X120650000Y-118500000D01*
X142580000Y-114405000D02*
X142095000Y-114405000D01*
X120650000Y-118500000D02*
X119150000Y-120000000D01*
X142095000Y-114405000D02*
X138000000Y-118500000D01*
%TO.N,Net-(J2-Pin_9)*%
X142580000Y-119945000D02*
X142305000Y-119945000D01*
X136750000Y-125500000D02*
X120650000Y-125500000D01*
X120650000Y-125500000D02*
X119150000Y-127000000D01*
X142305000Y-119945000D02*
X136750000Y-125500000D01*
%TO.N,Net-(J2-Pin_13)*%
X135282500Y-132500000D02*
X120650000Y-132500000D01*
X142580000Y-125485000D02*
X142297500Y-125485000D01*
X120650000Y-132500000D02*
X119150000Y-134000000D01*
X142297500Y-125485000D02*
X135282500Y-132500000D01*
%TO.N,Net-(J2-Pin_7)*%
X120650000Y-122000000D02*
X119150000Y-123500000D01*
X142580000Y-117175000D02*
X141950000Y-117175000D01*
X141950000Y-117175000D02*
X137125000Y-122000000D01*
X137125000Y-122000000D02*
X120650000Y-122000000D01*
%TO.N,Net-(J2-Pin_17)*%
X120650000Y-139500000D02*
X119150000Y-141000000D01*
X142580000Y-131025000D02*
X141975000Y-131025000D01*
X133500000Y-139500000D02*
X120650000Y-139500000D01*
X141975000Y-131025000D02*
X133500000Y-139500000D01*
%TO.N,Net-(J2-Pin_15)*%
X120650000Y-136000000D02*
X119150000Y-137500000D01*
X142580000Y-128255000D02*
X141870000Y-128255000D01*
X134125000Y-136000000D02*
X120650000Y-136000000D01*
X141870000Y-128255000D02*
X134125000Y-136000000D01*
%TO.N,Net-(J2-Pin_1)*%
X142135000Y-108865000D02*
X139500000Y-111500000D01*
X139500000Y-111500000D02*
X120650000Y-111500000D01*
X142580000Y-108865000D02*
X142135000Y-108865000D01*
X120650000Y-111500000D02*
X119150000Y-113000000D01*
%TO.N,Net-(J2-Pin_11)*%
X142285000Y-122715000D02*
X136000000Y-129000000D01*
X120650000Y-129000000D02*
X119150000Y-130500000D01*
X142580000Y-122715000D02*
X142285000Y-122715000D01*
X136000000Y-129000000D02*
X120650000Y-129000000D01*
%TO.N,Net-(J1-Pin_19)*%
X121000000Y-109000000D02*
X119000000Y-107000000D01*
X139000000Y-109000000D02*
X121000000Y-109000000D01*
X142580000Y-106095000D02*
X141905000Y-106095000D01*
X141905000Y-106095000D02*
X139000000Y-109000000D01*
%TO.N,Net-(J2-Pin_3)*%
X139000000Y-115000000D02*
X121000000Y-115000000D01*
X142580000Y-111635000D02*
X142365000Y-111635000D01*
X119500000Y-116500000D02*
X119150000Y-116500000D01*
X142365000Y-111635000D02*
X139000000Y-115000000D01*
X121000000Y-115000000D02*
X119500000Y-116500000D01*
%TD*%
%TA.AperFunction,Conductor*%
%TO.N,Net-(J2-Pin_19)*%
G36*
X152944720Y-68061632D02*
G01*
X153102086Y-68075403D01*
X153123365Y-68079156D01*
X153270696Y-68118636D01*
X153291004Y-68126028D01*
X153429246Y-68190492D01*
X153447961Y-68201297D01*
X153572910Y-68288789D01*
X153589466Y-68302682D01*
X153697317Y-68410533D01*
X153711210Y-68427089D01*
X153798699Y-68552033D01*
X153809507Y-68570753D01*
X153873971Y-68708995D01*
X153881363Y-68729304D01*
X153920842Y-68876630D01*
X153924596Y-68897915D01*
X153938368Y-69055278D01*
X153938840Y-69066089D01*
X153938840Y-151433910D01*
X153938368Y-151444721D01*
X153924596Y-151602084D01*
X153920842Y-151623369D01*
X153881363Y-151770695D01*
X153873971Y-151791004D01*
X153809507Y-151929246D01*
X153798699Y-151947966D01*
X153711210Y-152072910D01*
X153697317Y-152089466D01*
X153589466Y-152197317D01*
X153572910Y-152211210D01*
X153447966Y-152298699D01*
X153429246Y-152309507D01*
X153291004Y-152373971D01*
X153270695Y-152381363D01*
X153123369Y-152420842D01*
X153102084Y-152424596D01*
X152944717Y-152438368D01*
X152933910Y-152438840D01*
X152866346Y-152438841D01*
X152864655Y-152438953D01*
X113505500Y-152499490D01*
X113494502Y-152499018D01*
X113337247Y-152485260D01*
X113315961Y-152481507D01*
X113168630Y-152442030D01*
X113148318Y-152434637D01*
X113010084Y-152370177D01*
X112991366Y-152359370D01*
X112866417Y-152271880D01*
X112849859Y-152257986D01*
X112742013Y-152150140D01*
X112728119Y-152133582D01*
X112640629Y-152008633D01*
X112629822Y-151989915D01*
X112565362Y-151851681D01*
X112557969Y-151831369D01*
X112518492Y-151684038D01*
X112514739Y-151662753D01*
X112500974Y-151505421D01*
X112500503Y-151494555D01*
X112501971Y-149499998D01*
X113494390Y-149499998D01*
X113494390Y-149500001D01*
X113514804Y-149785433D01*
X113575628Y-150065037D01*
X113675635Y-150333166D01*
X113812770Y-150584309D01*
X113812775Y-150584317D01*
X113984254Y-150813387D01*
X113984270Y-150813405D01*
X114186594Y-151015729D01*
X114186612Y-151015745D01*
X114415682Y-151187224D01*
X114415690Y-151187229D01*
X114666833Y-151324364D01*
X114666832Y-151324364D01*
X114666836Y-151324365D01*
X114666839Y-151324367D01*
X114934954Y-151424369D01*
X114934960Y-151424370D01*
X114934962Y-151424371D01*
X115214566Y-151485195D01*
X115214568Y-151485195D01*
X115214572Y-151485196D01*
X115468220Y-151503337D01*
X115499999Y-151505610D01*
X115500000Y-151505610D01*
X115500001Y-151505610D01*
X115528595Y-151503564D01*
X115785428Y-151485196D01*
X116020277Y-151434108D01*
X116065037Y-151424371D01*
X116065037Y-151424370D01*
X116065046Y-151424369D01*
X116333161Y-151324367D01*
X116584315Y-151187226D01*
X116813395Y-151015739D01*
X117015739Y-150813395D01*
X117187226Y-150584315D01*
X117324367Y-150333161D01*
X117424369Y-150065046D01*
X117485196Y-149785428D01*
X117505610Y-149500000D01*
X117505610Y-149499998D01*
X148994390Y-149499998D01*
X148994390Y-149500001D01*
X149014804Y-149785433D01*
X149075628Y-150065037D01*
X149175635Y-150333166D01*
X149312770Y-150584309D01*
X149312775Y-150584317D01*
X149484254Y-150813387D01*
X149484270Y-150813405D01*
X149686594Y-151015729D01*
X149686612Y-151015745D01*
X149915682Y-151187224D01*
X149915690Y-151187229D01*
X150166833Y-151324364D01*
X150166832Y-151324364D01*
X150166836Y-151324365D01*
X150166839Y-151324367D01*
X150434954Y-151424369D01*
X150434960Y-151424370D01*
X150434962Y-151424371D01*
X150714566Y-151485195D01*
X150714568Y-151485195D01*
X150714572Y-151485196D01*
X150968220Y-151503337D01*
X150999999Y-151505610D01*
X151000000Y-151505610D01*
X151000001Y-151505610D01*
X151028595Y-151503564D01*
X151285428Y-151485196D01*
X151520277Y-151434108D01*
X151565037Y-151424371D01*
X151565037Y-151424370D01*
X151565046Y-151424369D01*
X151833161Y-151324367D01*
X152084315Y-151187226D01*
X152313395Y-151015739D01*
X152515739Y-150813395D01*
X152687226Y-150584315D01*
X152824367Y-150333161D01*
X152924369Y-150065046D01*
X152985196Y-149785428D01*
X153005610Y-149500000D01*
X152985196Y-149214572D01*
X152924369Y-148934954D01*
X152824367Y-148666839D01*
X152744025Y-148519705D01*
X152687229Y-148415690D01*
X152687224Y-148415682D01*
X152515745Y-148186612D01*
X152515729Y-148186594D01*
X152313405Y-147984270D01*
X152313387Y-147984254D01*
X152084317Y-147812775D01*
X152084309Y-147812770D01*
X151833166Y-147675635D01*
X151833167Y-147675635D01*
X151725915Y-147635632D01*
X151565046Y-147575631D01*
X151565043Y-147575630D01*
X151565037Y-147575628D01*
X151285433Y-147514804D01*
X151000001Y-147494390D01*
X150999999Y-147494390D01*
X150714566Y-147514804D01*
X150434962Y-147575628D01*
X150166833Y-147675635D01*
X149915690Y-147812770D01*
X149915682Y-147812775D01*
X149686612Y-147984254D01*
X149686594Y-147984270D01*
X149484270Y-148186594D01*
X149484254Y-148186612D01*
X149312775Y-148415682D01*
X149312770Y-148415690D01*
X149175635Y-148666833D01*
X149075628Y-148934962D01*
X149014804Y-149214566D01*
X148994390Y-149499998D01*
X117505610Y-149499998D01*
X117485196Y-149214572D01*
X117424369Y-148934954D01*
X117324367Y-148666839D01*
X117244025Y-148519705D01*
X117187229Y-148415690D01*
X117187224Y-148415682D01*
X117015745Y-148186612D01*
X117015729Y-148186594D01*
X116813405Y-147984270D01*
X116813387Y-147984254D01*
X116584317Y-147812775D01*
X116584309Y-147812770D01*
X116333166Y-147675635D01*
X116333167Y-147675635D01*
X116225915Y-147635632D01*
X116065046Y-147575631D01*
X116065043Y-147575630D01*
X116065037Y-147575628D01*
X115785433Y-147514804D01*
X115500001Y-147494390D01*
X115499999Y-147494390D01*
X115214566Y-147514804D01*
X114934962Y-147575628D01*
X114666833Y-147675635D01*
X114415690Y-147812770D01*
X114415682Y-147812775D01*
X114186612Y-147984254D01*
X114186594Y-147984270D01*
X113984270Y-148186594D01*
X113984254Y-148186612D01*
X113812775Y-148415682D01*
X113812770Y-148415690D01*
X113675635Y-148666833D01*
X113575628Y-148934962D01*
X113514804Y-149214566D01*
X113494390Y-149499998D01*
X112501971Y-149499998D01*
X112505650Y-144499994D01*
X117669945Y-144499994D01*
X117669945Y-144500005D01*
X117690130Y-144743605D01*
X117750138Y-144980573D01*
X117848330Y-145204429D01*
X117944626Y-145351819D01*
X118548958Y-144747487D01*
X118573978Y-144807890D01*
X118645112Y-144914351D01*
X118735649Y-145004888D01*
X118842110Y-145076022D01*
X118902511Y-145101041D01*
X118297758Y-145705794D01*
X118297758Y-145705796D01*
X118340478Y-145739046D01*
X118340484Y-145739050D01*
X118555468Y-145855394D01*
X118555476Y-145855397D01*
X118786664Y-145934765D01*
X119027779Y-145975000D01*
X119272221Y-145975000D01*
X119513335Y-145934765D01*
X119744523Y-145855397D01*
X119744531Y-145855394D01*
X119959514Y-145739051D01*
X119959514Y-145739050D01*
X120002240Y-145705795D01*
X120002240Y-145705794D01*
X119397488Y-145101041D01*
X119457890Y-145076022D01*
X119564351Y-145004888D01*
X119654888Y-144914351D01*
X119726022Y-144807890D01*
X119751041Y-144747488D01*
X120355372Y-145351819D01*
X120451667Y-145204431D01*
X120451672Y-145204423D01*
X120549861Y-144980573D01*
X120609869Y-144743605D01*
X120630055Y-144500005D01*
X120630055Y-144499994D01*
X127019945Y-144499994D01*
X127019945Y-144500005D01*
X127040130Y-144743605D01*
X127100138Y-144980573D01*
X127198330Y-145204429D01*
X127294626Y-145351819D01*
X127898958Y-144747487D01*
X127923978Y-144807890D01*
X127995112Y-144914351D01*
X128085649Y-145004888D01*
X128192110Y-145076022D01*
X128252511Y-145101041D01*
X127647758Y-145705794D01*
X127647758Y-145705796D01*
X127690478Y-145739046D01*
X127690484Y-145739050D01*
X127905468Y-145855394D01*
X127905476Y-145855397D01*
X128136664Y-145934765D01*
X128377779Y-145975000D01*
X128622221Y-145975000D01*
X128863335Y-145934765D01*
X129094523Y-145855397D01*
X129094531Y-145855394D01*
X129309514Y-145739051D01*
X129309514Y-145739050D01*
X129352240Y-145705795D01*
X129352240Y-145705794D01*
X128747488Y-145101041D01*
X128807890Y-145076022D01*
X128914351Y-145004888D01*
X129004888Y-144914351D01*
X129076022Y-144807890D01*
X129101041Y-144747488D01*
X129705372Y-145351819D01*
X129801667Y-145204431D01*
X129801672Y-145204423D01*
X129899861Y-144980573D01*
X129959869Y-144743605D01*
X129980055Y-144500005D01*
X129980055Y-144499994D01*
X129959869Y-144256394D01*
X129899861Y-144019426D01*
X129801669Y-143795570D01*
X129705372Y-143648179D01*
X129101041Y-144252510D01*
X129076022Y-144192110D01*
X129004888Y-144085649D01*
X128914351Y-143995112D01*
X128807890Y-143923978D01*
X128747487Y-143898958D01*
X129352240Y-143294204D01*
X129352240Y-143294203D01*
X129309514Y-143260949D01*
X129094531Y-143144605D01*
X129094523Y-143144602D01*
X128863335Y-143065234D01*
X128622221Y-143025000D01*
X128377779Y-143025000D01*
X128136664Y-143065234D01*
X127905476Y-143144602D01*
X127905468Y-143144605D01*
X127690481Y-143260951D01*
X127647758Y-143294202D01*
X127647757Y-143294204D01*
X128252511Y-143898958D01*
X128192110Y-143923978D01*
X128085649Y-143995112D01*
X127995112Y-144085649D01*
X127923978Y-144192110D01*
X127898958Y-144252511D01*
X127294626Y-143648179D01*
X127198328Y-143795575D01*
X127100138Y-144019426D01*
X127040130Y-144256394D01*
X127019945Y-144499994D01*
X120630055Y-144499994D01*
X120609869Y-144256394D01*
X120549861Y-144019426D01*
X120451669Y-143795570D01*
X120355372Y-143648179D01*
X119751041Y-144252510D01*
X119726022Y-144192110D01*
X119654888Y-144085649D01*
X119564351Y-143995112D01*
X119457890Y-143923978D01*
X119397487Y-143898958D01*
X120002240Y-143294204D01*
X120002240Y-143294203D01*
X119959514Y-143260949D01*
X119744531Y-143144605D01*
X119744523Y-143144602D01*
X119513335Y-143065234D01*
X119272221Y-143025000D01*
X119027779Y-143025000D01*
X118786664Y-143065234D01*
X118555476Y-143144602D01*
X118555468Y-143144605D01*
X118340481Y-143260951D01*
X118297758Y-143294202D01*
X118297757Y-143294204D01*
X118902511Y-143898958D01*
X118842110Y-143923978D01*
X118735649Y-143995112D01*
X118645112Y-144085649D01*
X118573978Y-144192110D01*
X118548958Y-144252511D01*
X117944626Y-143648179D01*
X117848328Y-143795575D01*
X117750138Y-144019426D01*
X117690130Y-144256394D01*
X117669945Y-144499994D01*
X112505650Y-144499994D01*
X112526253Y-116499994D01*
X117669443Y-116499994D01*
X117669443Y-116500005D01*
X117689634Y-116743683D01*
X117689636Y-116743695D01*
X117749663Y-116980734D01*
X117847888Y-117204666D01*
X117981632Y-117409378D01*
X118147242Y-117589277D01*
X118147246Y-117589281D01*
X118340212Y-117739473D01*
X118555267Y-117855855D01*
X118555270Y-117855856D01*
X118786541Y-117935251D01*
X118786543Y-117935251D01*
X118786545Y-117935252D01*
X119027737Y-117975500D01*
X119027738Y-117975500D01*
X119272262Y-117975500D01*
X119272263Y-117975500D01*
X119513455Y-117935252D01*
X119744733Y-117855855D01*
X119959788Y-117739473D01*
X120152754Y-117589281D01*
X120318368Y-117409377D01*
X120452111Y-117204667D01*
X120550336Y-116980736D01*
X120610364Y-116743692D01*
X120626296Y-116551422D01*
X120630557Y-116500005D01*
X120630557Y-116499994D01*
X120613776Y-116297483D01*
X120627857Y-116229047D01*
X120649667Y-116199566D01*
X121212416Y-115636819D01*
X121273739Y-115603334D01*
X121300097Y-115600500D01*
X127096048Y-115600500D01*
X127163087Y-115620185D01*
X127208842Y-115672989D01*
X127218786Y-115742147D01*
X127199854Y-115792326D01*
X127197887Y-115795335D01*
X127099663Y-116019265D01*
X127039636Y-116256304D01*
X127039634Y-116256316D01*
X127019443Y-116499994D01*
X127019443Y-116500005D01*
X127039634Y-116743683D01*
X127039636Y-116743695D01*
X127099663Y-116980734D01*
X127197888Y-117204666D01*
X127331632Y-117409378D01*
X127497242Y-117589277D01*
X127497252Y-117589286D01*
X127610778Y-117677647D01*
X127651591Y-117734357D01*
X127655266Y-117804130D01*
X127620634Y-117864813D01*
X127558693Y-117897140D01*
X127534616Y-117899500D01*
X120570940Y-117899500D01*
X120530019Y-117910464D01*
X120530019Y-117910465D01*
X120492751Y-117920451D01*
X120418214Y-117940423D01*
X120418209Y-117940426D01*
X120281290Y-118019475D01*
X120281282Y-118019481D01*
X120169478Y-118131286D01*
X119733871Y-118566892D01*
X119672548Y-118600377D01*
X119605929Y-118596493D01*
X119513455Y-118564747D01*
X119306754Y-118530255D01*
X119272263Y-118524500D01*
X119027737Y-118524500D01*
X118979498Y-118532549D01*
X118786541Y-118564748D01*
X118555270Y-118644143D01*
X118555265Y-118644145D01*
X118340212Y-118760526D01*
X118340208Y-118760529D01*
X118147252Y-118910713D01*
X118147242Y-118910722D01*
X117981632Y-119090621D01*
X117847888Y-119295333D01*
X117749663Y-119519265D01*
X117689636Y-119756304D01*
X117689634Y-119756316D01*
X117669443Y-119999994D01*
X117669443Y-120000005D01*
X117689634Y-120243683D01*
X117689636Y-120243695D01*
X117749663Y-120480734D01*
X117847888Y-120704666D01*
X117981632Y-120909378D01*
X118147242Y-121089277D01*
X118147252Y-121089286D01*
X118192495Y-121124500D01*
X118340212Y-121239473D01*
X118555267Y-121355855D01*
X118555270Y-121355856D01*
X118786541Y-121435251D01*
X118786543Y-121435251D01*
X118786545Y-121435252D01*
X119027737Y-121475500D01*
X119027738Y-121475500D01*
X119272262Y-121475500D01*
X119272263Y-121475500D01*
X119513455Y-121435252D01*
X119744733Y-121355855D01*
X119959788Y-121239473D01*
X120152754Y-121089281D01*
X120318368Y-120909377D01*
X120452111Y-120704667D01*
X120550336Y-120480736D01*
X120610364Y-120243692D01*
X120614758Y-120190667D01*
X120630557Y-120000005D01*
X120630557Y-119999994D01*
X120610365Y-119756316D01*
X120610364Y-119756312D01*
X120610364Y-119756308D01*
X120553413Y-119531415D01*
X120556037Y-119461598D01*
X120585933Y-119413300D01*
X120862417Y-119136816D01*
X120923739Y-119103334D01*
X120950097Y-119100500D01*
X127096048Y-119100500D01*
X127163087Y-119120185D01*
X127208842Y-119172989D01*
X127218786Y-119242147D01*
X127199854Y-119292326D01*
X127197887Y-119295335D01*
X127099663Y-119519265D01*
X127039636Y-119756304D01*
X127039634Y-119756316D01*
X127019443Y-119999994D01*
X127019443Y-120000005D01*
X127039634Y-120243683D01*
X127039636Y-120243695D01*
X127099663Y-120480734D01*
X127197888Y-120704666D01*
X127331632Y-120909378D01*
X127497242Y-121089277D01*
X127497252Y-121089286D01*
X127610778Y-121177647D01*
X127651591Y-121234357D01*
X127655266Y-121304130D01*
X127620634Y-121364813D01*
X127558693Y-121397140D01*
X127534616Y-121399500D01*
X120570940Y-121399500D01*
X120530019Y-121410464D01*
X120530019Y-121410465D01*
X120492751Y-121420451D01*
X120418214Y-121440423D01*
X120418209Y-121440426D01*
X120281290Y-121519475D01*
X120281282Y-121519481D01*
X120169478Y-121631286D01*
X119733871Y-122066892D01*
X119672548Y-122100377D01*
X119605929Y-122096493D01*
X119513455Y-122064747D01*
X119306754Y-122030255D01*
X119272263Y-122024500D01*
X119027737Y-122024500D01*
X118979498Y-122032549D01*
X118786541Y-122064748D01*
X118555270Y-122144143D01*
X118555265Y-122144145D01*
X118340212Y-122260526D01*
X118340208Y-122260529D01*
X118147252Y-122410713D01*
X118147242Y-122410722D01*
X117981632Y-122590621D01*
X117847888Y-122795333D01*
X117749663Y-123019265D01*
X117689636Y-123256304D01*
X117689634Y-123256316D01*
X117669443Y-123499994D01*
X117669443Y-123500005D01*
X117689634Y-123743683D01*
X117689636Y-123743695D01*
X117749663Y-123980734D01*
X117847888Y-124204666D01*
X117981632Y-124409378D01*
X118147242Y-124589277D01*
X118147246Y-124589281D01*
X118340212Y-124739473D01*
X118555267Y-124855855D01*
X118555270Y-124855856D01*
X118786541Y-124935251D01*
X118786543Y-124935251D01*
X118786545Y-124935252D01*
X119027737Y-124975500D01*
X119027738Y-124975500D01*
X119272262Y-124975500D01*
X119272263Y-124975500D01*
X119513455Y-124935252D01*
X119744733Y-124855855D01*
X119959788Y-124739473D01*
X120152754Y-124589281D01*
X120318368Y-124409377D01*
X120452111Y-124204667D01*
X120550336Y-123980736D01*
X120610364Y-123743692D01*
X120616298Y-123672079D01*
X120630557Y-123500005D01*
X120630557Y-123499994D01*
X120610365Y-123256316D01*
X120610364Y-123256312D01*
X120610364Y-123256308D01*
X120553413Y-123031415D01*
X120556037Y-122961598D01*
X120585933Y-122913300D01*
X120862417Y-122636816D01*
X120923739Y-122603334D01*
X120950097Y-122600500D01*
X127096048Y-122600500D01*
X127163087Y-122620185D01*
X127208842Y-122672989D01*
X127218786Y-122742147D01*
X127199854Y-122792326D01*
X127197887Y-122795335D01*
X127099663Y-123019265D01*
X127039636Y-123256304D01*
X127039634Y-123256316D01*
X127019443Y-123499994D01*
X127019443Y-123500005D01*
X127039634Y-123743683D01*
X127039636Y-123743695D01*
X127099663Y-123980734D01*
X127197888Y-124204666D01*
X127331632Y-124409378D01*
X127497242Y-124589277D01*
X127497252Y-124589286D01*
X127610778Y-124677647D01*
X127651591Y-124734357D01*
X127655266Y-124804130D01*
X127620634Y-124864813D01*
X127558693Y-124897140D01*
X127534616Y-124899500D01*
X120570940Y-124899500D01*
X120530019Y-124910464D01*
X120530019Y-124910465D01*
X120492751Y-124920451D01*
X120418214Y-124940423D01*
X120418209Y-124940426D01*
X120281290Y-125019475D01*
X120281282Y-125019481D01*
X120169478Y-125131286D01*
X119733871Y-125566892D01*
X119672548Y-125600377D01*
X119605929Y-125596493D01*
X119513455Y-125564747D01*
X119306754Y-125530255D01*
X119272263Y-125524500D01*
X119027737Y-125524500D01*
X118979498Y-125532549D01*
X118786541Y-125564748D01*
X118555270Y-125644143D01*
X118555265Y-125644145D01*
X118340212Y-125760526D01*
X118340208Y-125760529D01*
X118147252Y-125910713D01*
X118147242Y-125910722D01*
X117981632Y-126090621D01*
X117847888Y-126295333D01*
X117749663Y-126519265D01*
X117689636Y-126756304D01*
X117689634Y-126756316D01*
X117669443Y-126999994D01*
X117669443Y-127000005D01*
X117689634Y-127243683D01*
X117689636Y-127243695D01*
X117749663Y-127480734D01*
X117847888Y-127704666D01*
X117981632Y-127909378D01*
X118147242Y-128089277D01*
X118147246Y-128089281D01*
X118340212Y-128239473D01*
X118555267Y-128355855D01*
X118555270Y-128355856D01*
X118786541Y-128435251D01*
X118786543Y-128435251D01*
X118786545Y-128435252D01*
X119027737Y-128475500D01*
X119027738Y-128475500D01*
X119272262Y-128475500D01*
X119272263Y-128475500D01*
X119513455Y-128435252D01*
X119744733Y-128355855D01*
X119959788Y-128239473D01*
X120152754Y-128089281D01*
X120318368Y-127909377D01*
X120452111Y-127704667D01*
X120550336Y-127480736D01*
X120610364Y-127243692D01*
X120614429Y-127194633D01*
X120630557Y-127000005D01*
X120630557Y-126999994D01*
X120610365Y-126756316D01*
X120610364Y-126756312D01*
X120610364Y-126756308D01*
X120553413Y-126531415D01*
X120556037Y-126461598D01*
X120585933Y-126413300D01*
X120862417Y-126136816D01*
X120923739Y-126103334D01*
X120950097Y-126100500D01*
X127096048Y-126100500D01*
X127163087Y-126120185D01*
X127208842Y-126172989D01*
X127218786Y-126242147D01*
X127199854Y-126292326D01*
X127197887Y-126295335D01*
X127099663Y-126519265D01*
X127039636Y-126756304D01*
X127039634Y-126756316D01*
X127019443Y-126999994D01*
X127019443Y-127000005D01*
X127039634Y-127243683D01*
X127039636Y-127243695D01*
X127099663Y-127480734D01*
X127197888Y-127704666D01*
X127331632Y-127909378D01*
X127497242Y-128089277D01*
X127497252Y-128089286D01*
X127610778Y-128177647D01*
X127651591Y-128234357D01*
X127655266Y-128304130D01*
X127620634Y-128364813D01*
X127558693Y-128397140D01*
X127534616Y-128399500D01*
X120570940Y-128399500D01*
X120530019Y-128410464D01*
X120530019Y-128410465D01*
X120492751Y-128420451D01*
X120418214Y-128440423D01*
X120418209Y-128440426D01*
X120281290Y-128519475D01*
X120281282Y-128519481D01*
X120169478Y-128631286D01*
X119733871Y-129066892D01*
X119672548Y-129100377D01*
X119605929Y-129096493D01*
X119513455Y-129064747D01*
X119306754Y-129030255D01*
X119272263Y-129024500D01*
X119027737Y-129024500D01*
X118979498Y-129032549D01*
X118786541Y-129064748D01*
X118555270Y-129144143D01*
X118555265Y-129144145D01*
X118340212Y-129260526D01*
X118340208Y-129260529D01*
X118147252Y-129410713D01*
X118147242Y-129410722D01*
X117981632Y-129590621D01*
X117847888Y-129795333D01*
X117749663Y-130019265D01*
X117689636Y-130256304D01*
X117689634Y-130256316D01*
X117669443Y-130499994D01*
X117669443Y-130500005D01*
X117689634Y-130743683D01*
X117689636Y-130743695D01*
X117749663Y-130980734D01*
X117847888Y-131204666D01*
X117981632Y-131409378D01*
X118147242Y-131589277D01*
X118147252Y-131589286D01*
X118260778Y-131677647D01*
X118340212Y-131739473D01*
X118555267Y-131855855D01*
X118555270Y-131855856D01*
X118786541Y-131935251D01*
X118786543Y-131935251D01*
X118786545Y-131935252D01*
X119027737Y-131975500D01*
X119027738Y-131975500D01*
X119272262Y-131975500D01*
X119272263Y-131975500D01*
X119513455Y-131935252D01*
X119744733Y-131855855D01*
X119959788Y-131739473D01*
X120152754Y-131589281D01*
X120318368Y-131409377D01*
X120452111Y-131204667D01*
X120550336Y-130980736D01*
X120610364Y-130743692D01*
X120613954Y-130700366D01*
X120630557Y-130500005D01*
X120630557Y-130499994D01*
X120610365Y-130256316D01*
X120610364Y-130256312D01*
X120610364Y-130256308D01*
X120553413Y-130031415D01*
X120556037Y-129961598D01*
X120585933Y-129913300D01*
X120862417Y-129636816D01*
X120923739Y-129603334D01*
X120950097Y-129600500D01*
X127096048Y-129600500D01*
X127163087Y-129620185D01*
X127208842Y-129672989D01*
X127218786Y-129742147D01*
X127199854Y-129792326D01*
X127197887Y-129795335D01*
X127099663Y-130019265D01*
X127039636Y-130256304D01*
X127039634Y-130256316D01*
X127019443Y-130499994D01*
X127019443Y-130500005D01*
X127039634Y-130743683D01*
X127039636Y-130743695D01*
X127099663Y-130980734D01*
X127197888Y-131204666D01*
X127331632Y-131409378D01*
X127497242Y-131589277D01*
X127497252Y-131589286D01*
X127610778Y-131677647D01*
X127651591Y-131734357D01*
X127655266Y-131804130D01*
X127620634Y-131864813D01*
X127558693Y-131897140D01*
X127534616Y-131899500D01*
X120570940Y-131899500D01*
X120530019Y-131910464D01*
X120530019Y-131910465D01*
X120492751Y-131920451D01*
X120418214Y-131940423D01*
X120418209Y-131940426D01*
X120281290Y-132019475D01*
X120281282Y-132019481D01*
X120169478Y-132131286D01*
X119733871Y-132566892D01*
X119672548Y-132600377D01*
X119605929Y-132596493D01*
X119513455Y-132564747D01*
X119306754Y-132530255D01*
X119272263Y-132524500D01*
X119027737Y-132524500D01*
X118979498Y-132532549D01*
X118786541Y-132564748D01*
X118555270Y-132644143D01*
X118555265Y-132644145D01*
X118340212Y-132760526D01*
X118340208Y-132760529D01*
X118147252Y-132910713D01*
X118147242Y-132910722D01*
X117981632Y-133090621D01*
X117847888Y-133295333D01*
X117749663Y-133519265D01*
X117689636Y-133756304D01*
X117689634Y-133756316D01*
X117669443Y-133999994D01*
X117669443Y-134000005D01*
X117689634Y-134243683D01*
X117689636Y-134243695D01*
X117749663Y-134480734D01*
X117847888Y-134704666D01*
X117981632Y-134909378D01*
X118147242Y-135089277D01*
X118147246Y-135089281D01*
X118340212Y-135239473D01*
X118555267Y-135355855D01*
X118555270Y-135355856D01*
X118786541Y-135435251D01*
X118786543Y-135435251D01*
X118786545Y-135435252D01*
X119027737Y-135475500D01*
X119027738Y-135475500D01*
X119272262Y-135475500D01*
X119272263Y-135475500D01*
X119513455Y-135435252D01*
X119744733Y-135355855D01*
X119959788Y-135239473D01*
X120152754Y-135089281D01*
X120318368Y-134909377D01*
X120452111Y-134704667D01*
X120550336Y-134480736D01*
X120610364Y-134243692D01*
X120614727Y-134191037D01*
X120630557Y-134000005D01*
X120630557Y-133999994D01*
X120610365Y-133756316D01*
X120610364Y-133756312D01*
X120610364Y-133756308D01*
X120553413Y-133531415D01*
X120556037Y-133461598D01*
X120585933Y-133413300D01*
X120862417Y-133136816D01*
X120923739Y-133103334D01*
X120950097Y-133100500D01*
X127096048Y-133100500D01*
X127163087Y-133120185D01*
X127208842Y-133172989D01*
X127218786Y-133242147D01*
X127199854Y-133292326D01*
X127197887Y-133295335D01*
X127099663Y-133519265D01*
X127039636Y-133756304D01*
X127039634Y-133756316D01*
X127019443Y-133999994D01*
X127019443Y-134000005D01*
X127039634Y-134243683D01*
X127039636Y-134243695D01*
X127099663Y-134480734D01*
X127197888Y-134704666D01*
X127331632Y-134909378D01*
X127497242Y-135089277D01*
X127497252Y-135089286D01*
X127610778Y-135177647D01*
X127651591Y-135234357D01*
X127655266Y-135304130D01*
X127620634Y-135364813D01*
X127558693Y-135397140D01*
X127534616Y-135399500D01*
X120570940Y-135399500D01*
X120530019Y-135410464D01*
X120530019Y-135410465D01*
X120492751Y-135420451D01*
X120418214Y-135440423D01*
X120418209Y-135440426D01*
X120281290Y-135519475D01*
X120281282Y-135519481D01*
X120169478Y-135631286D01*
X119733871Y-136066892D01*
X119672548Y-136100377D01*
X119605929Y-136096493D01*
X119513455Y-136064747D01*
X119306754Y-136030255D01*
X119272263Y-136024500D01*
X119027737Y-136024500D01*
X118979498Y-136032549D01*
X118786541Y-136064748D01*
X118555270Y-136144143D01*
X118555265Y-136144145D01*
X118340212Y-136260526D01*
X118340208Y-136260529D01*
X118147252Y-136410713D01*
X118147242Y-136410722D01*
X117981632Y-136590621D01*
X117847888Y-136795333D01*
X117749663Y-137019265D01*
X117689636Y-137256304D01*
X117689634Y-137256316D01*
X117669443Y-137499994D01*
X117669443Y-137500005D01*
X117689634Y-137743683D01*
X117689636Y-137743695D01*
X117749663Y-137980734D01*
X117847888Y-138204666D01*
X117981632Y-138409378D01*
X118147242Y-138589277D01*
X118147246Y-138589281D01*
X118340212Y-138739473D01*
X118555267Y-138855855D01*
X118555270Y-138855856D01*
X118786541Y-138935251D01*
X118786543Y-138935251D01*
X118786545Y-138935252D01*
X119027737Y-138975500D01*
X119027738Y-138975500D01*
X119272262Y-138975500D01*
X119272263Y-138975500D01*
X119513455Y-138935252D01*
X119744733Y-138855855D01*
X119959788Y-138739473D01*
X120152754Y-138589281D01*
X120318368Y-138409377D01*
X120452111Y-138204667D01*
X120550336Y-137980736D01*
X120610364Y-137743692D01*
X120630557Y-137500000D01*
X120610364Y-137256308D01*
X120553413Y-137031415D01*
X120556037Y-136961598D01*
X120585933Y-136913300D01*
X120862417Y-136636816D01*
X120923739Y-136603334D01*
X120950097Y-136600500D01*
X127096048Y-136600500D01*
X127163087Y-136620185D01*
X127208842Y-136672989D01*
X127218786Y-136742147D01*
X127199854Y-136792326D01*
X127197887Y-136795335D01*
X127099663Y-137019265D01*
X127039636Y-137256304D01*
X127039634Y-137256316D01*
X127019443Y-137499994D01*
X127019443Y-137500005D01*
X127039634Y-137743683D01*
X127039636Y-137743695D01*
X127099663Y-137980734D01*
X127197888Y-138204666D01*
X127331632Y-138409378D01*
X127497242Y-138589277D01*
X127497252Y-138589286D01*
X127610778Y-138677647D01*
X127651591Y-138734357D01*
X127655266Y-138804130D01*
X127620634Y-138864813D01*
X127558693Y-138897140D01*
X127534616Y-138899500D01*
X120570940Y-138899500D01*
X120530019Y-138910464D01*
X120530019Y-138910465D01*
X120492751Y-138920451D01*
X120418214Y-138940423D01*
X120418209Y-138940426D01*
X120281290Y-139019475D01*
X120281282Y-139019481D01*
X120169478Y-139131286D01*
X119733871Y-139566892D01*
X119672548Y-139600377D01*
X119605929Y-139596493D01*
X119513455Y-139564747D01*
X119306754Y-139530255D01*
X119272263Y-139524500D01*
X119027737Y-139524500D01*
X118988437Y-139531058D01*
X118786541Y-139564748D01*
X118555270Y-139644143D01*
X118555265Y-139644145D01*
X118340212Y-139760526D01*
X118340208Y-139760529D01*
X118147252Y-139910713D01*
X118147242Y-139910722D01*
X117981632Y-140090621D01*
X117847888Y-140295333D01*
X117749663Y-140519265D01*
X117689636Y-140756304D01*
X117689634Y-140756316D01*
X117669443Y-140999994D01*
X117669443Y-141000005D01*
X117689634Y-141243683D01*
X117689636Y-141243695D01*
X117749663Y-141480734D01*
X117847888Y-141704666D01*
X117981632Y-141909378D01*
X118147242Y-142089277D01*
X118147252Y-142089286D01*
X118340208Y-142239470D01*
X118340212Y-142239473D01*
X118479810Y-142315020D01*
X118555267Y-142355855D01*
X118555270Y-142355856D01*
X118786541Y-142435251D01*
X118786543Y-142435251D01*
X118786545Y-142435252D01*
X119027737Y-142475500D01*
X119027738Y-142475500D01*
X119272262Y-142475500D01*
X119272263Y-142475500D01*
X119513455Y-142435252D01*
X119744733Y-142355855D01*
X119959788Y-142239473D01*
X120152754Y-142089281D01*
X120318368Y-141909377D01*
X120452111Y-141704667D01*
X120550336Y-141480736D01*
X120610364Y-141243692D01*
X120610365Y-141243683D01*
X120630557Y-141000005D01*
X120630557Y-140999994D01*
X120610365Y-140756316D01*
X120610364Y-140756312D01*
X120610364Y-140756308D01*
X120553413Y-140531415D01*
X120556037Y-140461598D01*
X120585933Y-140413300D01*
X120862417Y-140136816D01*
X120923739Y-140103334D01*
X120950097Y-140100500D01*
X127096048Y-140100500D01*
X127163087Y-140120185D01*
X127208842Y-140172989D01*
X127218786Y-140242147D01*
X127199854Y-140292326D01*
X127197887Y-140295335D01*
X127099663Y-140519265D01*
X127039636Y-140756304D01*
X127039634Y-140756316D01*
X127019443Y-140999994D01*
X127019443Y-141000005D01*
X127039634Y-141243683D01*
X127039636Y-141243695D01*
X127099663Y-141480734D01*
X127197888Y-141704666D01*
X127331632Y-141909378D01*
X127497242Y-142089277D01*
X127497252Y-142089286D01*
X127690208Y-142239470D01*
X127690212Y-142239473D01*
X127829810Y-142315020D01*
X127905267Y-142355855D01*
X127905270Y-142355856D01*
X128136541Y-142435251D01*
X128136543Y-142435251D01*
X128136545Y-142435252D01*
X128377737Y-142475500D01*
X128377738Y-142475500D01*
X128622262Y-142475500D01*
X128622263Y-142475500D01*
X128863455Y-142435252D01*
X129094733Y-142355855D01*
X129309788Y-142239473D01*
X129502754Y-142089281D01*
X129584949Y-141999994D01*
X141486540Y-141999994D01*
X141486540Y-142000005D01*
X141506357Y-142315012D01*
X141514149Y-142355856D01*
X141565505Y-142625072D01*
X141565507Y-142625077D01*
X141663044Y-142925267D01*
X141663046Y-142925272D01*
X141797436Y-143210865D01*
X141797442Y-143210876D01*
X141966561Y-143477365D01*
X141966563Y-143477368D01*
X141966568Y-143477375D01*
X142107870Y-143648179D01*
X142167772Y-143720588D01*
X142397858Y-143936652D01*
X142397868Y-143936660D01*
X142653209Y-144122176D01*
X142653214Y-144122178D01*
X142653221Y-144122184D01*
X142929821Y-144274247D01*
X142929826Y-144274249D01*
X142929828Y-144274250D01*
X142929829Y-144274251D01*
X143223294Y-144390442D01*
X143223297Y-144390443D01*
X143529021Y-144468939D01*
X143529025Y-144468940D01*
X143594717Y-144477238D01*
X143842167Y-144508499D01*
X143842176Y-144508499D01*
X143842179Y-144508500D01*
X143842181Y-144508500D01*
X144157819Y-144508500D01*
X144157821Y-144508500D01*
X144157824Y-144508499D01*
X144157832Y-144508499D01*
X144344692Y-144484892D01*
X144470975Y-144468940D01*
X144776702Y-144390443D01*
X144776705Y-144390442D01*
X145070170Y-144274251D01*
X145070171Y-144274250D01*
X145070169Y-144274250D01*
X145070179Y-144274247D01*
X145346779Y-144122184D01*
X145602140Y-143936654D01*
X145832233Y-143720582D01*
X146033432Y-143477375D01*
X146202562Y-143210869D01*
X146336956Y-142925266D01*
X146434495Y-142625072D01*
X146493641Y-142315020D01*
X146498395Y-142239470D01*
X146513460Y-142000005D01*
X146513460Y-141999994D01*
X146493642Y-141684987D01*
X146493641Y-141684980D01*
X146434495Y-141374928D01*
X146336956Y-141074734D01*
X146202562Y-140789131D01*
X146033432Y-140522625D01*
X145832233Y-140279418D01*
X145832232Y-140279417D01*
X145832227Y-140279411D01*
X145602141Y-140063347D01*
X145602131Y-140063339D01*
X145346790Y-139877823D01*
X145346783Y-139877818D01*
X145346779Y-139877816D01*
X145070179Y-139725753D01*
X145070176Y-139725751D01*
X145070171Y-139725749D01*
X145070170Y-139725748D01*
X144776705Y-139609557D01*
X144776702Y-139609556D01*
X144470978Y-139531060D01*
X144470965Y-139531058D01*
X144157832Y-139491500D01*
X144157821Y-139491500D01*
X143842179Y-139491500D01*
X143842167Y-139491500D01*
X143529034Y-139531058D01*
X143529021Y-139531060D01*
X143223297Y-139609556D01*
X143223294Y-139609557D01*
X142929829Y-139725748D01*
X142929828Y-139725749D01*
X142653221Y-139877816D01*
X142653209Y-139877823D01*
X142397868Y-140063339D01*
X142397858Y-140063347D01*
X142167772Y-140279411D01*
X142154599Y-140295335D01*
X141969349Y-140519264D01*
X141966561Y-140522634D01*
X141797442Y-140789123D01*
X141797436Y-140789134D01*
X141663046Y-141074727D01*
X141663044Y-141074732D01*
X141608149Y-141243683D01*
X141565505Y-141374928D01*
X141545321Y-141480736D01*
X141506357Y-141684987D01*
X141486540Y-141999994D01*
X129584949Y-141999994D01*
X129668368Y-141909377D01*
X129802111Y-141704667D01*
X129900336Y-141480736D01*
X129960364Y-141243692D01*
X129960365Y-141243683D01*
X129980557Y-141000005D01*
X129980557Y-140999994D01*
X129960365Y-140756316D01*
X129960363Y-140756304D01*
X129900336Y-140519265D01*
X129878881Y-140470353D01*
X129802111Y-140295333D01*
X129800145Y-140292324D01*
X129799719Y-140290912D01*
X129799671Y-140290823D01*
X129799689Y-140290813D01*
X129779956Y-140225437D01*
X129799133Y-140158251D01*
X129851590Y-140112098D01*
X129903952Y-140100500D01*
X133413331Y-140100500D01*
X133413347Y-140100501D01*
X133420943Y-140100501D01*
X133579054Y-140100501D01*
X133579057Y-140100501D01*
X133731785Y-140059577D01*
X133807255Y-140016004D01*
X133868716Y-139980520D01*
X133980520Y-139868716D01*
X133980520Y-139868714D01*
X133990724Y-139858511D01*
X133990728Y-139858506D01*
X138669234Y-135179999D01*
X144235447Y-135179999D01*
X144235447Y-135180000D01*
X144255615Y-135397660D01*
X144255616Y-135397662D01*
X144315435Y-135607905D01*
X144315441Y-135607920D01*
X144412869Y-135803581D01*
X144412874Y-135803589D01*
X144544604Y-135978027D01*
X144544605Y-135978028D01*
X144706147Y-136125294D01*
X144706149Y-136125295D01*
X144706150Y-136125296D01*
X144891995Y-136240366D01*
X144892001Y-136240369D01*
X144935182Y-136257097D01*
X145095832Y-136319333D01*
X145310703Y-136359500D01*
X145310705Y-136359500D01*
X145529295Y-136359500D01*
X145529297Y-136359500D01*
X145744168Y-136319333D01*
X145948001Y-136240368D01*
X146133853Y-136125294D01*
X146295395Y-135978028D01*
X146427127Y-135803587D01*
X146524563Y-135607910D01*
X146584384Y-135397661D01*
X146604553Y-135180000D01*
X146584384Y-134962339D01*
X146524563Y-134752090D01*
X146524558Y-134752079D01*
X146427130Y-134556418D01*
X146427125Y-134556410D01*
X146295395Y-134381972D01*
X146143713Y-134243695D01*
X146133853Y-134234706D01*
X146133850Y-134234704D01*
X146133849Y-134234703D01*
X145948004Y-134119633D01*
X145947998Y-134119630D01*
X145783634Y-134055956D01*
X145744168Y-134040667D01*
X145529297Y-134000500D01*
X145310703Y-134000500D01*
X145095832Y-134040667D01*
X145095829Y-134040667D01*
X145095829Y-134040668D01*
X144892001Y-134119630D01*
X144891995Y-134119633D01*
X144706150Y-134234703D01*
X144544604Y-134381972D01*
X144412874Y-134556410D01*
X144412869Y-134556418D01*
X144315441Y-134752079D01*
X144315435Y-134752094D01*
X144255616Y-134962337D01*
X144255615Y-134962339D01*
X144235447Y-135179999D01*
X138669234Y-135179999D01*
X140054234Y-133794999D01*
X141395949Y-133794999D01*
X141395949Y-133795000D01*
X141416109Y-134012564D01*
X141475906Y-134222732D01*
X141573300Y-134418323D01*
X141586130Y-134435314D01*
X141586131Y-134435315D01*
X142158274Y-133863172D01*
X142183963Y-133959044D01*
X142239916Y-134055956D01*
X142319044Y-134135084D01*
X142415956Y-134191037D01*
X142511827Y-134216725D01*
X141941925Y-134786625D01*
X142052225Y-134854919D01*
X142255970Y-134933850D01*
X142470753Y-134974000D01*
X142689247Y-134974000D01*
X142904028Y-134933850D01*
X142904029Y-134933850D01*
X143107781Y-134854916D01*
X143218073Y-134786625D01*
X142648173Y-134216725D01*
X142744044Y-134191037D01*
X142840956Y-134135084D01*
X142920084Y-134055956D01*
X142976037Y-133959044D01*
X143001725Y-133863172D01*
X143573867Y-134435314D01*
X143586699Y-134418323D01*
X143586703Y-134418316D01*
X143684093Y-134222732D01*
X143743890Y-134012564D01*
X143764051Y-133795000D01*
X143764051Y-133794999D01*
X143743890Y-133577435D01*
X143684093Y-133367267D01*
X143586699Y-133171675D01*
X143573868Y-133154684D01*
X143001725Y-133726826D01*
X142976037Y-133630956D01*
X142920084Y-133534044D01*
X142840956Y-133454916D01*
X142744044Y-133398963D01*
X142648173Y-133373274D01*
X143218073Y-132803373D01*
X143218072Y-132803372D01*
X143107780Y-132735082D01*
X143107774Y-132735080D01*
X142904029Y-132656149D01*
X142689247Y-132616000D01*
X142470753Y-132616000D01*
X142255971Y-132656149D01*
X142255970Y-132656149D01*
X142052226Y-132735079D01*
X141941925Y-132803373D01*
X142511827Y-133373274D01*
X142415956Y-133398963D01*
X142319044Y-133454916D01*
X142239916Y-133534044D01*
X142183963Y-133630956D01*
X142158274Y-133726827D01*
X141586131Y-133154684D01*
X141573297Y-133171681D01*
X141475906Y-133367267D01*
X141416109Y-133577435D01*
X141395949Y-133794999D01*
X140054234Y-133794999D01*
X141439234Y-132409999D01*
X144235447Y-132409999D01*
X144235447Y-132410000D01*
X144255615Y-132627660D01*
X144255616Y-132627662D01*
X144315435Y-132837905D01*
X144315441Y-132837920D01*
X144412869Y-133033581D01*
X144412874Y-133033589D01*
X144544604Y-133208027D01*
X144544605Y-133208028D01*
X144706147Y-133355294D01*
X144706149Y-133355295D01*
X144706150Y-133355296D01*
X144891995Y-133470366D01*
X144892001Y-133470369D01*
X144935182Y-133487097D01*
X145095832Y-133549333D01*
X145310703Y-133589500D01*
X145310705Y-133589500D01*
X145529295Y-133589500D01*
X145529297Y-133589500D01*
X145744168Y-133549333D01*
X145948001Y-133470368D01*
X146133853Y-133355294D01*
X146295395Y-133208028D01*
X146427127Y-133033587D01*
X146524563Y-132837910D01*
X146584384Y-132627661D01*
X146604553Y-132410000D01*
X146584384Y-132192339D01*
X146524563Y-131982090D01*
X146521282Y-131975500D01*
X146427130Y-131786418D01*
X146427125Y-131786410D01*
X146295395Y-131611972D01*
X146270500Y-131589277D01*
X146133853Y-131464706D01*
X146133850Y-131464704D01*
X146133849Y-131464703D01*
X145948004Y-131349633D01*
X145947998Y-131349630D01*
X145787351Y-131287396D01*
X145744168Y-131270667D01*
X145529297Y-131230500D01*
X145310703Y-131230500D01*
X145095832Y-131270667D01*
X145095829Y-131270667D01*
X145095829Y-131270668D01*
X144892001Y-131349630D01*
X144891995Y-131349633D01*
X144706150Y-131464703D01*
X144544604Y-131611972D01*
X144412874Y-131786410D01*
X144412869Y-131786418D01*
X144315441Y-131982079D01*
X144315435Y-131982094D01*
X144255616Y-132192337D01*
X144255615Y-132192339D01*
X144235447Y-132409999D01*
X141439234Y-132409999D01*
X141804598Y-132044635D01*
X141865919Y-132011152D01*
X141935611Y-132016136D01*
X141957554Y-132026891D01*
X142051995Y-132085366D01*
X142052001Y-132085369D01*
X142095182Y-132102097D01*
X142255832Y-132164333D01*
X142470703Y-132204500D01*
X142470705Y-132204500D01*
X142689295Y-132204500D01*
X142689297Y-132204500D01*
X142904168Y-132164333D01*
X143108001Y-132085368D01*
X143293853Y-131970294D01*
X143455395Y-131823028D01*
X143587127Y-131648587D01*
X143684563Y-131452910D01*
X143744384Y-131242661D01*
X143764553Y-131025000D01*
X143744384Y-130807339D01*
X143684563Y-130597090D01*
X143684558Y-130597079D01*
X143587130Y-130401418D01*
X143587125Y-130401410D01*
X143455395Y-130226972D01*
X143293853Y-130079706D01*
X143293850Y-130079704D01*
X143293849Y-130079703D01*
X143108004Y-129964633D01*
X143107998Y-129964630D01*
X142947351Y-129902396D01*
X142904168Y-129885667D01*
X142689297Y-129845500D01*
X142470703Y-129845500D01*
X142255832Y-129885667D01*
X142255829Y-129885667D01*
X142255829Y-129885668D01*
X142052001Y-129964630D01*
X142051995Y-129964633D01*
X141866150Y-130079703D01*
X141704604Y-130226972D01*
X141572874Y-130401410D01*
X141572867Y-130401422D01*
X141475441Y-130597080D01*
X141475435Y-130597096D01*
X141453136Y-130675467D01*
X141421551Y-130729212D01*
X133287584Y-138863181D01*
X133226261Y-138896666D01*
X133199903Y-138899500D01*
X129465384Y-138899500D01*
X129398345Y-138879815D01*
X129352590Y-138827011D01*
X129342646Y-138757853D01*
X129371671Y-138694297D01*
X129389222Y-138677647D01*
X129422194Y-138651983D01*
X129502754Y-138589281D01*
X129668368Y-138409377D01*
X129802111Y-138204667D01*
X129900336Y-137980736D01*
X129960364Y-137743692D01*
X129980557Y-137500000D01*
X129960364Y-137256308D01*
X129900336Y-137019264D01*
X129802111Y-136795333D01*
X129800145Y-136792324D01*
X129799719Y-136790912D01*
X129799671Y-136790823D01*
X129799689Y-136790813D01*
X129779956Y-136725437D01*
X129799133Y-136658251D01*
X129851590Y-136612098D01*
X129903952Y-136600500D01*
X134038331Y-136600500D01*
X134038347Y-136600501D01*
X134045943Y-136600501D01*
X134204054Y-136600501D01*
X134204057Y-136600501D01*
X134356785Y-136559577D01*
X134432255Y-136516004D01*
X134493716Y-136480520D01*
X134605520Y-136368716D01*
X134605520Y-136368714D01*
X134615724Y-136358511D01*
X134615728Y-136358506D01*
X141334234Y-129639999D01*
X144235447Y-129639999D01*
X144235447Y-129640000D01*
X144255615Y-129857660D01*
X144255616Y-129857662D01*
X144315435Y-130067905D01*
X144315441Y-130067920D01*
X144412869Y-130263581D01*
X144412874Y-130263589D01*
X144516958Y-130401418D01*
X144544605Y-130438028D01*
X144706147Y-130585294D01*
X144706149Y-130585295D01*
X144706150Y-130585296D01*
X144891995Y-130700366D01*
X144892001Y-130700369D01*
X144907675Y-130706441D01*
X145095832Y-130779333D01*
X145310703Y-130819500D01*
X145310705Y-130819500D01*
X145529295Y-130819500D01*
X145529297Y-130819500D01*
X145744168Y-130779333D01*
X145948001Y-130700368D01*
X146133853Y-130585294D01*
X146295395Y-130438028D01*
X146427127Y-130263587D01*
X146524563Y-130067910D01*
X146584384Y-129857661D01*
X146604553Y-129640000D01*
X146601155Y-129603334D01*
X146584384Y-129422339D01*
X146584383Y-129422337D01*
X146581078Y-129410722D01*
X146524563Y-129212090D01*
X146519041Y-129201000D01*
X146427130Y-129016418D01*
X146427125Y-129016410D01*
X146295395Y-128841972D01*
X146133853Y-128694706D01*
X146133850Y-128694704D01*
X146133849Y-128694703D01*
X145948004Y-128579633D01*
X145947998Y-128579630D01*
X145787351Y-128517396D01*
X145744168Y-128500667D01*
X145529297Y-128460500D01*
X145310703Y-128460500D01*
X145095832Y-128500667D01*
X145095829Y-128500667D01*
X145095829Y-128500668D01*
X144892001Y-128579630D01*
X144891995Y-128579633D01*
X144706150Y-128694703D01*
X144544604Y-128841972D01*
X144412874Y-129016410D01*
X144412869Y-129016418D01*
X144315441Y-129212079D01*
X144315435Y-129212094D01*
X144255616Y-129422337D01*
X144255615Y-129422339D01*
X144235447Y-129639999D01*
X141334234Y-129639999D01*
X141739750Y-129234483D01*
X141801071Y-129201000D01*
X141870763Y-129205984D01*
X141892706Y-129216739D01*
X142051995Y-129315366D01*
X142052001Y-129315369D01*
X142095182Y-129332097D01*
X142255832Y-129394333D01*
X142470703Y-129434500D01*
X142470705Y-129434500D01*
X142689295Y-129434500D01*
X142689297Y-129434500D01*
X142904168Y-129394333D01*
X143108001Y-129315368D01*
X143293853Y-129200294D01*
X143455395Y-129053028D01*
X143587127Y-128878587D01*
X143684563Y-128682910D01*
X143744384Y-128472661D01*
X143764553Y-128255000D01*
X143744384Y-128037339D01*
X143684563Y-127827090D01*
X143684558Y-127827079D01*
X143587130Y-127631418D01*
X143587125Y-127631410D01*
X143455395Y-127456972D01*
X143293853Y-127309706D01*
X143293850Y-127309704D01*
X143293849Y-127309703D01*
X143108004Y-127194633D01*
X143107998Y-127194630D01*
X142947351Y-127132396D01*
X142904168Y-127115667D01*
X142689297Y-127075500D01*
X142470703Y-127075500D01*
X142255832Y-127115667D01*
X142255829Y-127115667D01*
X142255829Y-127115668D01*
X142052001Y-127194630D01*
X142051995Y-127194633D01*
X141866150Y-127309703D01*
X141704604Y-127456972D01*
X141572873Y-127631412D01*
X141510993Y-127755680D01*
X141487676Y-127788088D01*
X141389480Y-127886284D01*
X141389478Y-127886286D01*
X133912584Y-135363181D01*
X133851261Y-135396666D01*
X133824903Y-135399500D01*
X129465384Y-135399500D01*
X129398345Y-135379815D01*
X129352590Y-135327011D01*
X129342646Y-135257853D01*
X129371671Y-135194297D01*
X129389222Y-135177647D01*
X129422194Y-135151983D01*
X129502754Y-135089281D01*
X129668368Y-134909377D01*
X129802111Y-134704667D01*
X129900336Y-134480736D01*
X129960364Y-134243692D01*
X129964727Y-134191037D01*
X129980557Y-134000005D01*
X129980557Y-133999994D01*
X129960365Y-133756316D01*
X129960363Y-133756304D01*
X129915067Y-133577435D01*
X129900336Y-133519264D01*
X129802111Y-133295333D01*
X129800145Y-133292324D01*
X129799719Y-133290912D01*
X129799671Y-133290823D01*
X129799689Y-133290813D01*
X129779956Y-133225437D01*
X129799133Y-133158251D01*
X129851590Y-133112098D01*
X129903952Y-133100500D01*
X135195831Y-133100500D01*
X135195847Y-133100501D01*
X135203443Y-133100501D01*
X135361554Y-133100501D01*
X135361557Y-133100501D01*
X135514285Y-133059577D01*
X135589755Y-133016004D01*
X135651216Y-132980520D01*
X135763020Y-132868716D01*
X135763020Y-132868714D01*
X135773224Y-132858511D01*
X135773228Y-132858506D01*
X141761734Y-126869999D01*
X144235447Y-126869999D01*
X144235447Y-126870000D01*
X144255615Y-127087660D01*
X144255616Y-127087662D01*
X144315435Y-127297905D01*
X144315441Y-127297920D01*
X144412869Y-127493581D01*
X144412874Y-127493589D01*
X144516958Y-127631418D01*
X144544605Y-127668028D01*
X144706147Y-127815294D01*
X144706149Y-127815295D01*
X144706150Y-127815296D01*
X144891995Y-127930366D01*
X144892001Y-127930369D01*
X144935182Y-127947097D01*
X145095832Y-128009333D01*
X145310703Y-128049500D01*
X145310705Y-128049500D01*
X145529295Y-128049500D01*
X145529297Y-128049500D01*
X145744168Y-128009333D01*
X145948001Y-127930368D01*
X146133853Y-127815294D01*
X146295395Y-127668028D01*
X146427127Y-127493587D01*
X146524563Y-127297910D01*
X146584384Y-127087661D01*
X146604553Y-126870000D01*
X146584384Y-126652339D01*
X146524563Y-126442090D01*
X146524558Y-126442079D01*
X146427130Y-126246418D01*
X146427125Y-126246410D01*
X146295395Y-126071972D01*
X146281796Y-126059575D01*
X146133853Y-125924706D01*
X146133850Y-125924704D01*
X146133849Y-125924703D01*
X145948004Y-125809633D01*
X145947998Y-125809630D01*
X145787351Y-125747396D01*
X145744168Y-125730667D01*
X145529297Y-125690500D01*
X145310703Y-125690500D01*
X145095832Y-125730667D01*
X145095829Y-125730667D01*
X145095829Y-125730668D01*
X144892001Y-125809630D01*
X144891995Y-125809633D01*
X144706150Y-125924703D01*
X144544604Y-126071972D01*
X144412874Y-126246410D01*
X144412869Y-126246418D01*
X144315441Y-126442079D01*
X144315435Y-126442094D01*
X144255616Y-126652337D01*
X144255615Y-126652339D01*
X144235447Y-126869999D01*
X141761734Y-126869999D01*
X142019638Y-126612095D01*
X142080959Y-126578612D01*
X142150651Y-126583596D01*
X142152110Y-126584151D01*
X142255832Y-126624333D01*
X142470703Y-126664500D01*
X142470705Y-126664500D01*
X142689295Y-126664500D01*
X142689297Y-126664500D01*
X142904168Y-126624333D01*
X143108001Y-126545368D01*
X143293853Y-126430294D01*
X143455395Y-126283028D01*
X143587127Y-126108587D01*
X143684563Y-125912910D01*
X143744384Y-125702661D01*
X143764553Y-125485000D01*
X143744384Y-125267339D01*
X143684563Y-125057090D01*
X143684558Y-125057079D01*
X143587130Y-124861418D01*
X143587125Y-124861410D01*
X143455395Y-124686972D01*
X143348239Y-124589286D01*
X143293853Y-124539706D01*
X143293850Y-124539704D01*
X143293849Y-124539703D01*
X143108004Y-124424633D01*
X143107998Y-124424630D01*
X142947351Y-124362396D01*
X142904168Y-124345667D01*
X142689297Y-124305500D01*
X142470703Y-124305500D01*
X142255832Y-124345667D01*
X142255829Y-124345667D01*
X142255829Y-124345668D01*
X142052001Y-124424630D01*
X142051995Y-124424633D01*
X141866150Y-124539703D01*
X141704604Y-124686972D01*
X141572874Y-124861410D01*
X141572869Y-124861418D01*
X141475441Y-125057079D01*
X141475435Y-125057094D01*
X141415616Y-125267337D01*
X141415615Y-125267339D01*
X141395447Y-125484999D01*
X141395447Y-125486455D01*
X141395249Y-125487126D01*
X141394918Y-125490708D01*
X141394217Y-125490643D01*
X141375762Y-125553494D01*
X141359128Y-125574136D01*
X135070084Y-131863181D01*
X135008761Y-131896666D01*
X134982403Y-131899500D01*
X129465384Y-131899500D01*
X129398345Y-131879815D01*
X129352590Y-131827011D01*
X129342646Y-131757853D01*
X129371671Y-131694297D01*
X129389222Y-131677647D01*
X129426566Y-131648581D01*
X129502754Y-131589281D01*
X129668368Y-131409377D01*
X129802111Y-131204667D01*
X129900336Y-130980736D01*
X129960364Y-130743692D01*
X129963954Y-130700366D01*
X129980557Y-130500005D01*
X129980557Y-130499994D01*
X129960365Y-130256316D01*
X129960363Y-130256304D01*
X129912655Y-130067910D01*
X129900336Y-130019264D01*
X129802111Y-129795333D01*
X129800145Y-129792324D01*
X129799719Y-129790912D01*
X129799671Y-129790823D01*
X129799689Y-129790813D01*
X129779956Y-129725437D01*
X129799133Y-129658251D01*
X129851590Y-129612098D01*
X129903952Y-129600500D01*
X135913331Y-129600500D01*
X135913347Y-129600501D01*
X135920943Y-129600501D01*
X136079054Y-129600501D01*
X136079057Y-129600501D01*
X136231785Y-129559577D01*
X136307255Y-129516004D01*
X136368716Y-129480520D01*
X136480520Y-129368716D01*
X136480520Y-129368714D01*
X136490724Y-129358511D01*
X136490728Y-129358506D01*
X141749234Y-124099999D01*
X144235447Y-124099999D01*
X144235447Y-124100000D01*
X144255615Y-124317660D01*
X144255616Y-124317662D01*
X144315435Y-124527905D01*
X144315441Y-124527920D01*
X144412869Y-124723581D01*
X144412874Y-124723589D01*
X144519522Y-124864813D01*
X144544605Y-124898028D01*
X144706147Y-125045294D01*
X144706149Y-125045295D01*
X144706150Y-125045296D01*
X144891995Y-125160366D01*
X144892001Y-125160369D01*
X144935182Y-125177097D01*
X145095832Y-125239333D01*
X145310703Y-125279500D01*
X145310705Y-125279500D01*
X145529295Y-125279500D01*
X145529297Y-125279500D01*
X145744168Y-125239333D01*
X145948001Y-125160368D01*
X146133853Y-125045294D01*
X146295395Y-124898028D01*
X146427127Y-124723587D01*
X146524563Y-124527910D01*
X146584384Y-124317661D01*
X146604553Y-124100000D01*
X146584384Y-123882339D01*
X146524563Y-123672090D01*
X146524558Y-123672079D01*
X146427130Y-123476418D01*
X146427125Y-123476410D01*
X146295395Y-123301972D01*
X146245290Y-123256295D01*
X146133853Y-123154706D01*
X146133850Y-123154704D01*
X146133849Y-123154703D01*
X145948004Y-123039633D01*
X145947998Y-123039630D01*
X145787351Y-122977396D01*
X145744168Y-122960667D01*
X145529297Y-122920500D01*
X145310703Y-122920500D01*
X145095832Y-122960667D01*
X145095829Y-122960667D01*
X145095829Y-122960668D01*
X144892001Y-123039630D01*
X144891995Y-123039633D01*
X144706150Y-123154703D01*
X144544604Y-123301972D01*
X144412874Y-123476410D01*
X144412869Y-123476418D01*
X144315441Y-123672079D01*
X144315435Y-123672094D01*
X144255616Y-123882337D01*
X144255615Y-123882339D01*
X144235447Y-124099999D01*
X141749234Y-124099999D01*
X142010628Y-123838605D01*
X142071949Y-123805122D01*
X142141641Y-123810106D01*
X142143091Y-123810657D01*
X142255832Y-123854333D01*
X142470703Y-123894500D01*
X142470705Y-123894500D01*
X142689295Y-123894500D01*
X142689297Y-123894500D01*
X142904168Y-123854333D01*
X143108001Y-123775368D01*
X143293853Y-123660294D01*
X143455395Y-123513028D01*
X143587127Y-123338587D01*
X143684563Y-123142910D01*
X143744384Y-122932661D01*
X143764553Y-122715000D01*
X143759294Y-122658251D01*
X143744384Y-122497339D01*
X143744383Y-122497337D01*
X143739599Y-122480524D01*
X143684563Y-122287090D01*
X143684558Y-122287079D01*
X143587130Y-122091418D01*
X143587125Y-122091410D01*
X143455395Y-121916972D01*
X143293853Y-121769706D01*
X143293850Y-121769704D01*
X143293849Y-121769703D01*
X143108004Y-121654633D01*
X143107998Y-121654630D01*
X142947351Y-121592396D01*
X142904168Y-121575667D01*
X142689297Y-121535500D01*
X142470703Y-121535500D01*
X142255832Y-121575667D01*
X142255829Y-121575667D01*
X142255829Y-121575668D01*
X142052001Y-121654630D01*
X142051995Y-121654633D01*
X141866150Y-121769703D01*
X141704604Y-121916972D01*
X141572874Y-122091410D01*
X141572869Y-122091418D01*
X141475441Y-122287079D01*
X141475435Y-122287094D01*
X141415616Y-122497337D01*
X141415615Y-122497339D01*
X141395460Y-122714853D01*
X141369674Y-122779791D01*
X141359670Y-122791093D01*
X135787584Y-128363181D01*
X135726261Y-128396666D01*
X135699903Y-128399500D01*
X129465384Y-128399500D01*
X129398345Y-128379815D01*
X129352590Y-128327011D01*
X129342646Y-128257853D01*
X129371671Y-128194297D01*
X129389222Y-128177647D01*
X129422194Y-128151983D01*
X129502754Y-128089281D01*
X129668368Y-127909377D01*
X129802111Y-127704667D01*
X129900336Y-127480736D01*
X129960364Y-127243692D01*
X129964429Y-127194633D01*
X129980557Y-127000005D01*
X129980557Y-126999994D01*
X129960365Y-126756316D01*
X129960363Y-126756304D01*
X129926943Y-126624331D01*
X129900336Y-126519264D01*
X129802111Y-126295333D01*
X129800145Y-126292324D01*
X129799719Y-126290912D01*
X129799671Y-126290823D01*
X129799689Y-126290813D01*
X129779956Y-126225437D01*
X129799133Y-126158251D01*
X129851590Y-126112098D01*
X129903952Y-126100500D01*
X136663331Y-126100500D01*
X136663347Y-126100501D01*
X136670943Y-126100501D01*
X136829054Y-126100501D01*
X136829057Y-126100501D01*
X136981785Y-126059577D01*
X137057255Y-126016004D01*
X137118716Y-125980520D01*
X137230520Y-125868716D01*
X137230520Y-125868714D01*
X137240724Y-125858511D01*
X137240728Y-125858506D01*
X141769234Y-121329999D01*
X144235447Y-121329999D01*
X144235447Y-121330000D01*
X144255615Y-121547660D01*
X144255616Y-121547662D01*
X144315435Y-121757905D01*
X144315441Y-121757920D01*
X144412869Y-121953581D01*
X144412874Y-121953589D01*
X144516958Y-122091418D01*
X144544605Y-122128028D01*
X144706147Y-122275294D01*
X144706149Y-122275295D01*
X144706150Y-122275296D01*
X144891995Y-122390366D01*
X144892001Y-122390369D01*
X144935182Y-122407097D01*
X145095832Y-122469333D01*
X145310703Y-122509500D01*
X145310705Y-122509500D01*
X145529295Y-122509500D01*
X145529297Y-122509500D01*
X145744168Y-122469333D01*
X145948001Y-122390368D01*
X146133853Y-122275294D01*
X146295395Y-122128028D01*
X146427127Y-121953587D01*
X146524563Y-121757910D01*
X146584384Y-121547661D01*
X146604553Y-121330000D01*
X146595690Y-121234357D01*
X146584384Y-121112339D01*
X146584383Y-121112337D01*
X146577824Y-121089286D01*
X146524563Y-120902090D01*
X146524558Y-120902079D01*
X146427130Y-120706418D01*
X146427125Y-120706410D01*
X146295395Y-120531972D01*
X146239190Y-120480734D01*
X146133853Y-120384706D01*
X146133850Y-120384704D01*
X146133849Y-120384703D01*
X145948004Y-120269633D01*
X145947998Y-120269630D01*
X145787351Y-120207396D01*
X145744168Y-120190667D01*
X145529297Y-120150500D01*
X145310703Y-120150500D01*
X145095832Y-120190667D01*
X145095829Y-120190667D01*
X145095829Y-120190668D01*
X144892001Y-120269630D01*
X144891995Y-120269633D01*
X144706150Y-120384703D01*
X144544604Y-120531972D01*
X144412874Y-120706410D01*
X144412869Y-120706418D01*
X144315441Y-120902079D01*
X144315435Y-120902094D01*
X144255616Y-121112337D01*
X144255615Y-121112339D01*
X144235447Y-121329999D01*
X141769234Y-121329999D01*
X142025045Y-121074188D01*
X142086366Y-121040705D01*
X142156058Y-121045689D01*
X142157348Y-121046180D01*
X142255832Y-121084333D01*
X142470703Y-121124500D01*
X142470705Y-121124500D01*
X142689295Y-121124500D01*
X142689297Y-121124500D01*
X142904168Y-121084333D01*
X143108001Y-121005368D01*
X143293853Y-120890294D01*
X143455395Y-120743028D01*
X143587127Y-120568587D01*
X143684563Y-120372910D01*
X143744384Y-120162661D01*
X143764553Y-119945000D01*
X143744384Y-119727339D01*
X143684563Y-119517090D01*
X143684558Y-119517079D01*
X143587130Y-119321418D01*
X143587125Y-119321410D01*
X143455395Y-119146972D01*
X143404418Y-119100500D01*
X143293853Y-118999706D01*
X143293850Y-118999704D01*
X143293849Y-118999703D01*
X143108004Y-118884633D01*
X143107998Y-118884630D01*
X142947351Y-118822396D01*
X142904168Y-118805667D01*
X142689297Y-118765500D01*
X142470703Y-118765500D01*
X142255832Y-118805667D01*
X142255829Y-118805667D01*
X142255829Y-118805668D01*
X142052001Y-118884630D01*
X142051995Y-118884633D01*
X141866150Y-118999703D01*
X141704604Y-119146972D01*
X141572874Y-119321410D01*
X141572869Y-119321418D01*
X141475441Y-119517079D01*
X141475435Y-119517094D01*
X141415616Y-119727337D01*
X141415615Y-119727339D01*
X141395447Y-119944999D01*
X141395447Y-119950733D01*
X141393531Y-119950733D01*
X141381773Y-120010816D01*
X141359401Y-120041362D01*
X136537584Y-124863181D01*
X136476261Y-124896666D01*
X136449903Y-124899500D01*
X129465384Y-124899500D01*
X129398345Y-124879815D01*
X129352590Y-124827011D01*
X129342646Y-124757853D01*
X129371671Y-124694297D01*
X129389222Y-124677647D01*
X129422194Y-124651983D01*
X129502754Y-124589281D01*
X129668368Y-124409377D01*
X129802111Y-124204667D01*
X129900336Y-123980736D01*
X129960364Y-123743692D01*
X129966298Y-123672079D01*
X129980557Y-123500005D01*
X129980557Y-123499994D01*
X129960365Y-123256316D01*
X129960363Y-123256304D01*
X129931650Y-123142920D01*
X129900336Y-123019264D01*
X129802111Y-122795333D01*
X129800145Y-122792324D01*
X129799719Y-122790912D01*
X129799671Y-122790823D01*
X129799689Y-122790813D01*
X129779956Y-122725437D01*
X129799133Y-122658251D01*
X129851590Y-122612098D01*
X129903952Y-122600500D01*
X137038331Y-122600500D01*
X137038347Y-122600501D01*
X137045943Y-122600501D01*
X137204054Y-122600501D01*
X137204057Y-122600501D01*
X137356785Y-122559577D01*
X137432255Y-122516004D01*
X137443521Y-122509500D01*
X137493709Y-122480524D01*
X137493708Y-122480524D01*
X137493716Y-122480520D01*
X137605520Y-122368716D01*
X137605520Y-122368714D01*
X137615724Y-122358511D01*
X137615728Y-122358506D01*
X141414234Y-118559999D01*
X144235447Y-118559999D01*
X144235447Y-118560000D01*
X144255615Y-118777660D01*
X144255616Y-118777662D01*
X144315435Y-118987905D01*
X144315441Y-118987920D01*
X144412869Y-119183581D01*
X144412874Y-119183589D01*
X144516958Y-119321418D01*
X144544605Y-119358028D01*
X144706147Y-119505294D01*
X144706149Y-119505295D01*
X144706150Y-119505296D01*
X144891995Y-119620366D01*
X144892001Y-119620369D01*
X144935182Y-119637097D01*
X145095832Y-119699333D01*
X145310703Y-119739500D01*
X145310705Y-119739500D01*
X145529295Y-119739500D01*
X145529297Y-119739500D01*
X145744168Y-119699333D01*
X145948001Y-119620368D01*
X146133853Y-119505294D01*
X146295395Y-119358028D01*
X146427127Y-119183587D01*
X146524563Y-118987910D01*
X146584384Y-118777661D01*
X146604553Y-118560000D01*
X146601263Y-118524500D01*
X146584384Y-118342339D01*
X146584383Y-118342337D01*
X146576415Y-118314333D01*
X146524563Y-118132090D01*
X146524162Y-118131284D01*
X146427130Y-117936418D01*
X146427125Y-117936410D01*
X146295395Y-117761972D01*
X146265103Y-117734357D01*
X146133853Y-117614706D01*
X146133850Y-117614704D01*
X146133849Y-117614703D01*
X145948004Y-117499633D01*
X145947998Y-117499630D01*
X145787351Y-117437396D01*
X145744168Y-117420667D01*
X145529297Y-117380500D01*
X145310703Y-117380500D01*
X145095832Y-117420667D01*
X145095829Y-117420667D01*
X145095829Y-117420668D01*
X144892001Y-117499630D01*
X144891995Y-117499633D01*
X144706150Y-117614703D01*
X144544604Y-117761972D01*
X144412874Y-117936410D01*
X144412869Y-117936418D01*
X144315441Y-118132079D01*
X144315435Y-118132094D01*
X144255616Y-118342337D01*
X144255615Y-118342339D01*
X144235447Y-118559999D01*
X141414234Y-118559999D01*
X141789158Y-118185075D01*
X141850479Y-118151592D01*
X141920171Y-118156576D01*
X141942114Y-118167331D01*
X142051995Y-118235366D01*
X142052001Y-118235369D01*
X142095182Y-118252097D01*
X142255832Y-118314333D01*
X142470703Y-118354500D01*
X142470705Y-118354500D01*
X142689295Y-118354500D01*
X142689297Y-118354500D01*
X142904168Y-118314333D01*
X143108001Y-118235368D01*
X143293853Y-118120294D01*
X143455395Y-117973028D01*
X143587127Y-117798587D01*
X143684563Y-117602910D01*
X143744384Y-117392661D01*
X143764553Y-117175000D01*
X143744384Y-116957339D01*
X143684563Y-116747090D01*
X143684558Y-116747079D01*
X143587130Y-116551418D01*
X143587125Y-116551410D01*
X143455395Y-116376972D01*
X143368200Y-116297483D01*
X143293853Y-116229706D01*
X143293850Y-116229704D01*
X143293849Y-116229703D01*
X143108004Y-116114633D01*
X143107998Y-116114630D01*
X142947351Y-116052396D01*
X142904168Y-116035667D01*
X142689297Y-115995500D01*
X142470703Y-115995500D01*
X142255832Y-116035667D01*
X142255829Y-116035667D01*
X142255829Y-116035668D01*
X142052001Y-116114630D01*
X142051995Y-116114633D01*
X141866150Y-116229703D01*
X141704604Y-116376972D01*
X141572874Y-116551410D01*
X141572867Y-116551422D01*
X141475441Y-116747080D01*
X141475436Y-116747093D01*
X141463078Y-116790526D01*
X141431493Y-116844270D01*
X136912584Y-121363181D01*
X136851261Y-121396666D01*
X136824903Y-121399500D01*
X129465384Y-121399500D01*
X129398345Y-121379815D01*
X129352590Y-121327011D01*
X129342646Y-121257853D01*
X129371671Y-121194297D01*
X129389222Y-121177647D01*
X129473129Y-121112339D01*
X129502754Y-121089281D01*
X129668368Y-120909377D01*
X129802111Y-120704667D01*
X129900336Y-120480736D01*
X129960364Y-120243692D01*
X129964758Y-120190667D01*
X129980557Y-120000005D01*
X129980557Y-119999994D01*
X129960365Y-119756316D01*
X129960363Y-119756304D01*
X129953028Y-119727339D01*
X129900336Y-119519264D01*
X129802111Y-119295333D01*
X129800145Y-119292324D01*
X129799719Y-119290912D01*
X129799671Y-119290823D01*
X129799689Y-119290813D01*
X129779956Y-119225437D01*
X129799133Y-119158251D01*
X129851590Y-119112098D01*
X129903952Y-119100500D01*
X137913331Y-119100500D01*
X137913347Y-119100501D01*
X137920943Y-119100501D01*
X138079054Y-119100501D01*
X138079057Y-119100501D01*
X138231785Y-119059577D01*
X138307255Y-119016004D01*
X138368716Y-118980520D01*
X138480520Y-118868716D01*
X138480520Y-118868714D01*
X138490724Y-118858511D01*
X138490727Y-118858506D01*
X141559235Y-115789999D01*
X144235447Y-115789999D01*
X144235447Y-115790000D01*
X144255615Y-116007660D01*
X144255616Y-116007662D01*
X144315435Y-116217905D01*
X144315441Y-116217920D01*
X144412869Y-116413581D01*
X144412874Y-116413589D01*
X144516958Y-116551418D01*
X144544605Y-116588028D01*
X144706147Y-116735294D01*
X144706149Y-116735295D01*
X144706150Y-116735296D01*
X144891995Y-116850366D01*
X144892001Y-116850369D01*
X144935182Y-116867097D01*
X145095832Y-116929333D01*
X145310703Y-116969500D01*
X145310705Y-116969500D01*
X145529295Y-116969500D01*
X145529297Y-116969500D01*
X145744168Y-116929333D01*
X145948001Y-116850368D01*
X146133853Y-116735294D01*
X146295395Y-116588028D01*
X146427127Y-116413587D01*
X146524563Y-116217910D01*
X146584384Y-116007661D01*
X146604553Y-115790000D01*
X146593710Y-115672989D01*
X146584384Y-115572339D01*
X146584383Y-115572337D01*
X146580752Y-115559577D01*
X146524563Y-115362090D01*
X146522776Y-115358501D01*
X146427130Y-115166418D01*
X146427125Y-115166410D01*
X146295395Y-114991972D01*
X146133853Y-114844706D01*
X146133850Y-114844704D01*
X146133849Y-114844703D01*
X145948004Y-114729633D01*
X145947998Y-114729630D01*
X145787351Y-114667396D01*
X145744168Y-114650667D01*
X145529297Y-114610500D01*
X145310703Y-114610500D01*
X145095832Y-114650667D01*
X145095829Y-114650667D01*
X145095829Y-114650668D01*
X144892001Y-114729630D01*
X144891995Y-114729633D01*
X144706150Y-114844703D01*
X144544604Y-114991972D01*
X144412874Y-115166410D01*
X144412869Y-115166418D01*
X144315441Y-115362079D01*
X144315435Y-115362094D01*
X144255616Y-115572337D01*
X144255615Y-115572339D01*
X144235447Y-115789999D01*
X141559235Y-115789999D01*
X141878711Y-115470523D01*
X141940032Y-115437040D01*
X142009724Y-115442024D01*
X142031664Y-115452777D01*
X142051999Y-115465368D01*
X142255832Y-115544333D01*
X142470703Y-115584500D01*
X142470705Y-115584500D01*
X142689295Y-115584500D01*
X142689297Y-115584500D01*
X142904168Y-115544333D01*
X143108001Y-115465368D01*
X143293853Y-115350294D01*
X143455395Y-115203028D01*
X143587127Y-115028587D01*
X143684563Y-114832910D01*
X143744384Y-114622661D01*
X143764553Y-114405000D01*
X143744384Y-114187339D01*
X143684563Y-113977090D01*
X143684558Y-113977079D01*
X143587130Y-113781418D01*
X143587125Y-113781410D01*
X143455395Y-113606972D01*
X143293853Y-113459706D01*
X143293850Y-113459704D01*
X143293849Y-113459703D01*
X143108004Y-113344633D01*
X143107998Y-113344630D01*
X142947351Y-113282396D01*
X142904168Y-113265667D01*
X142689297Y-113225500D01*
X142470703Y-113225500D01*
X142255832Y-113265667D01*
X142255829Y-113265667D01*
X142255829Y-113265668D01*
X142052001Y-113344630D01*
X142051995Y-113344633D01*
X141866150Y-113459703D01*
X141704604Y-113606972D01*
X141572874Y-113781410D01*
X141572869Y-113781418D01*
X141475441Y-113977079D01*
X141475435Y-113977094D01*
X141415616Y-114187337D01*
X141414864Y-114195453D01*
X141389075Y-114260390D01*
X141379074Y-114271688D01*
X137787584Y-117863181D01*
X137726261Y-117896666D01*
X137699903Y-117899500D01*
X129465384Y-117899500D01*
X129398345Y-117879815D01*
X129352590Y-117827011D01*
X129342646Y-117757853D01*
X129371671Y-117694297D01*
X129389222Y-117677647D01*
X129470092Y-117614703D01*
X129502754Y-117589281D01*
X129668368Y-117409377D01*
X129802111Y-117204667D01*
X129900336Y-116980736D01*
X129960364Y-116743692D01*
X129976296Y-116551422D01*
X129980557Y-116500005D01*
X129980557Y-116499994D01*
X129960365Y-116256316D01*
X129960363Y-116256304D01*
X129924487Y-116114633D01*
X129900336Y-116019264D01*
X129802111Y-115795333D01*
X129800145Y-115792324D01*
X129799719Y-115790912D01*
X129799671Y-115790823D01*
X129799689Y-115790813D01*
X129779956Y-115725437D01*
X129799133Y-115658251D01*
X129851590Y-115612098D01*
X129903952Y-115600500D01*
X138913331Y-115600500D01*
X138913347Y-115600501D01*
X138920943Y-115600501D01*
X139079054Y-115600501D01*
X139079057Y-115600501D01*
X139231785Y-115559577D01*
X139307255Y-115516004D01*
X139368716Y-115480520D01*
X139480520Y-115368716D01*
X139480520Y-115368714D01*
X139490724Y-115358511D01*
X139490727Y-115358506D01*
X141829235Y-113019999D01*
X144235447Y-113019999D01*
X144235447Y-113020000D01*
X144255615Y-113237660D01*
X144255616Y-113237662D01*
X144315435Y-113447905D01*
X144315441Y-113447920D01*
X144412869Y-113643581D01*
X144412874Y-113643589D01*
X144516958Y-113781418D01*
X144544605Y-113818028D01*
X144706147Y-113965294D01*
X144706149Y-113965295D01*
X144706150Y-113965296D01*
X144891995Y-114080366D01*
X144892001Y-114080369D01*
X144897458Y-114082483D01*
X145095832Y-114159333D01*
X145310703Y-114199500D01*
X145310705Y-114199500D01*
X145529295Y-114199500D01*
X145529297Y-114199500D01*
X145744168Y-114159333D01*
X145948001Y-114080368D01*
X146133853Y-113965294D01*
X146295395Y-113818028D01*
X146427127Y-113643587D01*
X146524563Y-113447910D01*
X146584384Y-113237661D01*
X146604553Y-113020000D01*
X146584384Y-112802339D01*
X146524563Y-112592090D01*
X146524558Y-112592079D01*
X146427130Y-112396418D01*
X146427125Y-112396410D01*
X146295395Y-112221972D01*
X146133853Y-112074706D01*
X146133850Y-112074704D01*
X146133849Y-112074703D01*
X145948004Y-111959633D01*
X145947998Y-111959630D01*
X145787351Y-111897396D01*
X145744168Y-111880667D01*
X145529297Y-111840500D01*
X145310703Y-111840500D01*
X145095832Y-111880667D01*
X145095829Y-111880667D01*
X145095829Y-111880668D01*
X144892001Y-111959630D01*
X144891995Y-111959633D01*
X144706150Y-112074703D01*
X144544604Y-112221972D01*
X144412874Y-112396410D01*
X144412869Y-112396418D01*
X144315441Y-112592079D01*
X144315435Y-112592094D01*
X144255616Y-112802337D01*
X144255615Y-112802339D01*
X144235447Y-113019999D01*
X141829235Y-113019999D01*
X142068292Y-112780942D01*
X142129613Y-112747459D01*
X142199305Y-112752443D01*
X142200590Y-112752932D01*
X142255832Y-112774333D01*
X142470703Y-112814500D01*
X142470705Y-112814500D01*
X142689295Y-112814500D01*
X142689297Y-112814500D01*
X142904168Y-112774333D01*
X143108001Y-112695368D01*
X143293853Y-112580294D01*
X143455395Y-112433028D01*
X143587127Y-112258587D01*
X143684563Y-112062910D01*
X143744384Y-111852661D01*
X143764553Y-111635000D01*
X143744384Y-111417339D01*
X143684563Y-111207090D01*
X143684558Y-111207079D01*
X143587130Y-111011418D01*
X143587125Y-111011410D01*
X143455395Y-110836972D01*
X143293853Y-110689706D01*
X143293850Y-110689704D01*
X143293849Y-110689703D01*
X143108004Y-110574633D01*
X143107998Y-110574630D01*
X142947351Y-110512396D01*
X142904168Y-110495667D01*
X142689297Y-110455500D01*
X142470703Y-110455500D01*
X142255832Y-110495667D01*
X142255829Y-110495667D01*
X142255829Y-110495668D01*
X142052001Y-110574630D01*
X142051995Y-110574633D01*
X141866150Y-110689703D01*
X141704604Y-110836972D01*
X141572874Y-111011410D01*
X141572869Y-111011418D01*
X141475441Y-111207079D01*
X141475435Y-111207094D01*
X141415616Y-111417337D01*
X141415615Y-111417339D01*
X141395447Y-111634999D01*
X141395447Y-111635002D01*
X141400279Y-111687152D01*
X141386864Y-111755721D01*
X141364489Y-111786273D01*
X138787584Y-114363181D01*
X138726261Y-114396666D01*
X138699903Y-114399500D01*
X129465384Y-114399500D01*
X129398345Y-114379815D01*
X129352590Y-114327011D01*
X129342646Y-114257853D01*
X129371671Y-114194297D01*
X129389222Y-114177647D01*
X129422194Y-114151983D01*
X129502754Y-114089281D01*
X129668368Y-113909377D01*
X129802111Y-113704667D01*
X129900336Y-113480736D01*
X129960364Y-113243692D01*
X129960864Y-113237660D01*
X129980557Y-113000005D01*
X129980557Y-112999994D01*
X129960365Y-112756316D01*
X129960363Y-112756304D01*
X129900336Y-112519265D01*
X129859030Y-112425097D01*
X129802111Y-112295333D01*
X129800145Y-112292324D01*
X129799719Y-112290912D01*
X129799671Y-112290823D01*
X129799689Y-112290813D01*
X129779956Y-112225437D01*
X129799133Y-112158251D01*
X129851590Y-112112098D01*
X129903952Y-112100500D01*
X139413331Y-112100500D01*
X139413347Y-112100501D01*
X139420943Y-112100501D01*
X139579054Y-112100501D01*
X139579057Y-112100501D01*
X139731785Y-112059577D01*
X139807255Y-112016004D01*
X139868716Y-111980520D01*
X139980520Y-111868716D01*
X139980520Y-111868714D01*
X139990724Y-111858511D01*
X139990727Y-111858506D01*
X141599235Y-110249999D01*
X144235447Y-110249999D01*
X144235447Y-110250000D01*
X144255615Y-110467660D01*
X144255616Y-110467662D01*
X144315435Y-110677905D01*
X144315441Y-110677920D01*
X144412869Y-110873581D01*
X144412874Y-110873589D01*
X144523047Y-111019481D01*
X144544605Y-111048028D01*
X144706147Y-111195294D01*
X144706149Y-111195295D01*
X144706150Y-111195296D01*
X144891995Y-111310366D01*
X144892001Y-111310369D01*
X144935182Y-111327097D01*
X145095832Y-111389333D01*
X145310703Y-111429500D01*
X145310705Y-111429500D01*
X145529295Y-111429500D01*
X145529297Y-111429500D01*
X145744168Y-111389333D01*
X145948001Y-111310368D01*
X146133853Y-111195294D01*
X146295395Y-111048028D01*
X146427127Y-110873587D01*
X146524563Y-110677910D01*
X146584384Y-110467661D01*
X146604553Y-110250000D01*
X146584384Y-110032339D01*
X146524563Y-109822090D01*
X146524558Y-109822079D01*
X146427130Y-109626418D01*
X146427125Y-109626410D01*
X146295395Y-109451972D01*
X146204068Y-109368716D01*
X146133853Y-109304706D01*
X146133850Y-109304704D01*
X146133849Y-109304703D01*
X145948004Y-109189633D01*
X145947998Y-109189630D01*
X145787351Y-109127396D01*
X145744168Y-109110667D01*
X145529297Y-109070500D01*
X145310703Y-109070500D01*
X145095832Y-109110667D01*
X145095829Y-109110667D01*
X145095829Y-109110668D01*
X144892001Y-109189630D01*
X144891995Y-109189633D01*
X144706150Y-109304703D01*
X144544604Y-109451972D01*
X144412874Y-109626410D01*
X144412869Y-109626418D01*
X144315441Y-109822079D01*
X144315435Y-109822094D01*
X144255616Y-110032337D01*
X144255615Y-110032339D01*
X144235447Y-110249999D01*
X141599235Y-110249999D01*
X141903415Y-109945819D01*
X141964736Y-109912336D01*
X142034428Y-109917320D01*
X142046622Y-109923305D01*
X142046868Y-109922813D01*
X142051999Y-109925368D01*
X142255832Y-110004333D01*
X142470703Y-110044500D01*
X142470705Y-110044500D01*
X142689295Y-110044500D01*
X142689297Y-110044500D01*
X142904168Y-110004333D01*
X143108001Y-109925368D01*
X143293853Y-109810294D01*
X143455395Y-109663028D01*
X143587127Y-109488587D01*
X143684563Y-109292910D01*
X143744384Y-109082661D01*
X143764553Y-108865000D01*
X143744384Y-108647339D01*
X143684563Y-108437090D01*
X143683648Y-108435252D01*
X143587130Y-108241418D01*
X143587125Y-108241410D01*
X143455395Y-108066972D01*
X143293853Y-107919706D01*
X143293850Y-107919704D01*
X143293849Y-107919703D01*
X143108004Y-107804633D01*
X143107998Y-107804630D01*
X142947351Y-107742396D01*
X142904168Y-107725667D01*
X142689297Y-107685500D01*
X142470703Y-107685500D01*
X142255832Y-107725667D01*
X142255829Y-107725667D01*
X142255829Y-107725668D01*
X142052001Y-107804630D01*
X142051995Y-107804633D01*
X141866150Y-107919703D01*
X141704604Y-108066972D01*
X141572874Y-108241410D01*
X141572869Y-108241418D01*
X141475441Y-108437079D01*
X141475435Y-108437094D01*
X141415616Y-108647337D01*
X141415615Y-108647339D01*
X141410779Y-108699534D01*
X141384992Y-108764471D01*
X141374989Y-108775773D01*
X139287584Y-110863181D01*
X139226261Y-110896666D01*
X139199903Y-110899500D01*
X120570940Y-110899500D01*
X120530019Y-110910464D01*
X120530019Y-110910465D01*
X120492751Y-110920451D01*
X120418214Y-110940423D01*
X120418209Y-110940426D01*
X120281290Y-111019475D01*
X120281282Y-111019481D01*
X120169478Y-111131286D01*
X119812582Y-111488181D01*
X119751259Y-111521666D01*
X119724901Y-111524500D01*
X118127129Y-111524500D01*
X118127123Y-111524501D01*
X118067516Y-111530908D01*
X117932671Y-111581202D01*
X117932664Y-111581206D01*
X117817455Y-111667452D01*
X117817452Y-111667455D01*
X117731206Y-111782664D01*
X117731202Y-111782671D01*
X117680908Y-111917517D01*
X117674501Y-111977116D01*
X117674500Y-111977135D01*
X117674500Y-114022870D01*
X117674501Y-114022876D01*
X117680908Y-114082483D01*
X117731202Y-114217328D01*
X117731206Y-114217335D01*
X117817452Y-114332544D01*
X117817455Y-114332547D01*
X117932664Y-114418793D01*
X117932671Y-114418797D01*
X118067517Y-114469091D01*
X118067516Y-114469091D01*
X118074444Y-114469835D01*
X118127127Y-114475500D01*
X120172872Y-114475499D01*
X120232483Y-114469091D01*
X120367331Y-114418796D01*
X120429773Y-114372051D01*
X120473333Y-114355804D01*
X120485177Y-114329031D01*
X120568796Y-114217331D01*
X120619091Y-114082483D01*
X120625500Y-114022873D01*
X120625499Y-112425096D01*
X120645184Y-112358058D01*
X120661818Y-112337416D01*
X120862416Y-112136819D01*
X120923739Y-112103334D01*
X120950097Y-112100500D01*
X127096048Y-112100500D01*
X127163087Y-112120185D01*
X127208842Y-112172989D01*
X127218786Y-112242147D01*
X127199854Y-112292326D01*
X127197887Y-112295335D01*
X127099663Y-112519265D01*
X127039636Y-112756304D01*
X127039634Y-112756316D01*
X127019443Y-112999994D01*
X127019443Y-113000005D01*
X127039634Y-113243683D01*
X127039636Y-113243695D01*
X127099663Y-113480734D01*
X127197888Y-113704666D01*
X127331632Y-113909378D01*
X127497242Y-114089277D01*
X127497252Y-114089286D01*
X127610778Y-114177647D01*
X127651591Y-114234357D01*
X127655266Y-114304130D01*
X127620634Y-114364813D01*
X127558693Y-114397140D01*
X127534616Y-114399500D01*
X120920940Y-114399500D01*
X120880019Y-114410464D01*
X120880019Y-114410465D01*
X120848939Y-114418793D01*
X120768215Y-114440423D01*
X120646444Y-114510727D01*
X120613374Y-114518748D01*
X120603350Y-114545628D01*
X120591764Y-114559000D01*
X120519480Y-114631284D01*
X120519478Y-114631286D01*
X119980040Y-115170723D01*
X119918717Y-115204208D01*
X119849025Y-115199224D01*
X119833342Y-115192097D01*
X119744739Y-115144148D01*
X119744729Y-115144143D01*
X119513458Y-115064748D01*
X119332561Y-115034562D01*
X119272263Y-115024500D01*
X119027737Y-115024500D01*
X118979498Y-115032549D01*
X118786541Y-115064748D01*
X118555270Y-115144143D01*
X118555265Y-115144145D01*
X118340212Y-115260526D01*
X118340208Y-115260529D01*
X118147252Y-115410713D01*
X118147242Y-115410722D01*
X117981632Y-115590621D01*
X117847888Y-115795333D01*
X117749663Y-116019265D01*
X117689636Y-116256304D01*
X117689634Y-116256316D01*
X117669443Y-116499994D01*
X112526253Y-116499994D01*
X112551271Y-82499994D01*
X117519443Y-82499994D01*
X117519443Y-82500005D01*
X117539634Y-82743683D01*
X117539636Y-82743695D01*
X117599663Y-82980734D01*
X117697888Y-83204666D01*
X117831632Y-83409378D01*
X117997242Y-83589277D01*
X117997246Y-83589281D01*
X118190212Y-83739473D01*
X118405267Y-83855855D01*
X118405270Y-83855856D01*
X118636541Y-83935251D01*
X118636543Y-83935251D01*
X118636545Y-83935252D01*
X118877737Y-83975500D01*
X118877738Y-83975500D01*
X119122262Y-83975500D01*
X119122263Y-83975500D01*
X119363455Y-83935252D01*
X119455928Y-83903505D01*
X119525725Y-83900356D01*
X119583871Y-83933106D01*
X120515139Y-84864374D01*
X120515149Y-84864385D01*
X120519479Y-84868715D01*
X120519480Y-84868716D01*
X120631284Y-84980520D01*
X120631286Y-84980521D01*
X120631290Y-84980524D01*
X120692740Y-85016002D01*
X120692744Y-85016003D01*
X120692745Y-85016004D01*
X120730480Y-85037790D01*
X120768212Y-85059576D01*
X120768214Y-85059576D01*
X120768215Y-85059577D01*
X120920943Y-85100500D01*
X121079057Y-85100500D01*
X126946048Y-85100500D01*
X127013087Y-85120185D01*
X127058842Y-85172989D01*
X127068786Y-85242147D01*
X127049854Y-85292326D01*
X127047887Y-85295335D01*
X126949663Y-85519265D01*
X126889636Y-85756304D01*
X126889634Y-85756316D01*
X126869443Y-85999994D01*
X126869443Y-86000005D01*
X126889634Y-86243683D01*
X126889636Y-86243695D01*
X126949663Y-86480734D01*
X127047888Y-86704666D01*
X127181632Y-86909378D01*
X127347242Y-87089277D01*
X127347252Y-87089286D01*
X127460778Y-87177647D01*
X127501591Y-87234357D01*
X127505266Y-87304130D01*
X127470634Y-87364813D01*
X127408693Y-87397140D01*
X127384616Y-87399500D01*
X121300097Y-87399500D01*
X121233058Y-87379815D01*
X121212416Y-87363181D01*
X120435938Y-86586703D01*
X120402453Y-86525380D01*
X120403414Y-86468581D01*
X120409944Y-86442797D01*
X120460364Y-86243692D01*
X120460365Y-86243683D01*
X120480557Y-86000005D01*
X120480557Y-85999994D01*
X120460365Y-85756316D01*
X120460363Y-85756304D01*
X120407686Y-85548290D01*
X120400336Y-85519264D01*
X120302111Y-85295333D01*
X120222180Y-85172989D01*
X120168367Y-85090621D01*
X120002757Y-84910722D01*
X120002747Y-84910713D01*
X119809791Y-84760529D01*
X119809787Y-84760526D01*
X119594734Y-84644145D01*
X119594729Y-84644143D01*
X119363458Y-84564748D01*
X119176293Y-84533516D01*
X119122263Y-84524500D01*
X118877737Y-84524500D01*
X118829498Y-84532549D01*
X118636541Y-84564748D01*
X118405270Y-84644143D01*
X118405265Y-84644145D01*
X118190212Y-84760526D01*
X118190208Y-84760529D01*
X117997252Y-84910713D01*
X117997242Y-84910722D01*
X117831632Y-85090621D01*
X117697888Y-85295333D01*
X117599663Y-85519265D01*
X117539636Y-85756304D01*
X117539634Y-85756316D01*
X117519443Y-85999994D01*
X117519443Y-86000005D01*
X117539634Y-86243683D01*
X117539636Y-86243695D01*
X117599663Y-86480734D01*
X117697888Y-86704666D01*
X117831632Y-86909378D01*
X117997242Y-87089277D01*
X117997252Y-87089286D01*
X118110778Y-87177647D01*
X118190212Y-87239473D01*
X118405267Y-87355855D01*
X118405270Y-87355856D01*
X118636541Y-87435251D01*
X118636543Y-87435251D01*
X118636545Y-87435252D01*
X118877737Y-87475500D01*
X118877738Y-87475500D01*
X119122262Y-87475500D01*
X119122263Y-87475500D01*
X119363455Y-87435252D01*
X119455928Y-87403505D01*
X119525725Y-87400356D01*
X119583871Y-87433106D01*
X120515139Y-88364374D01*
X120515149Y-88364385D01*
X120519479Y-88368715D01*
X120519480Y-88368716D01*
X120631284Y-88480520D01*
X120631286Y-88480521D01*
X120631290Y-88480524D01*
X120692740Y-88516002D01*
X120692744Y-88516003D01*
X120692745Y-88516004D01*
X120730480Y-88537790D01*
X120768212Y-88559576D01*
X120768214Y-88559576D01*
X120768215Y-88559577D01*
X120920943Y-88600500D01*
X126946048Y-88600500D01*
X127013087Y-88620185D01*
X127058842Y-88672989D01*
X127068786Y-88742147D01*
X127049854Y-88792326D01*
X127047887Y-88795335D01*
X126949663Y-89019265D01*
X126889636Y-89256304D01*
X126889634Y-89256316D01*
X126869443Y-89499994D01*
X126869443Y-89500005D01*
X126889634Y-89743683D01*
X126889636Y-89743695D01*
X126949663Y-89980734D01*
X127047888Y-90204666D01*
X127181632Y-90409378D01*
X127347242Y-90589277D01*
X127347252Y-90589286D01*
X127460778Y-90677647D01*
X127501591Y-90734357D01*
X127505266Y-90804130D01*
X127470634Y-90864813D01*
X127408693Y-90897140D01*
X127384616Y-90899500D01*
X121300097Y-90899500D01*
X121233058Y-90879815D01*
X121212416Y-90863181D01*
X120435938Y-90086703D01*
X120402453Y-90025380D01*
X120403414Y-89968581D01*
X120460361Y-89743704D01*
X120460363Y-89743695D01*
X120460364Y-89743692D01*
X120462272Y-89720667D01*
X120480557Y-89500005D01*
X120480557Y-89499994D01*
X120460365Y-89256316D01*
X120460363Y-89256304D01*
X120433536Y-89150366D01*
X120400336Y-89019264D01*
X120302111Y-88795333D01*
X120222180Y-88672989D01*
X120168367Y-88590621D01*
X120002757Y-88410722D01*
X120002747Y-88410713D01*
X119809791Y-88260529D01*
X119809787Y-88260526D01*
X119594734Y-88144145D01*
X119594729Y-88144143D01*
X119363458Y-88064748D01*
X119182561Y-88034562D01*
X119122263Y-88024500D01*
X118877737Y-88024500D01*
X118829498Y-88032549D01*
X118636541Y-88064748D01*
X118405270Y-88144143D01*
X118405265Y-88144145D01*
X118190212Y-88260526D01*
X118190208Y-88260529D01*
X117997252Y-88410713D01*
X117997242Y-88410722D01*
X117831632Y-88590621D01*
X117697888Y-88795333D01*
X117599663Y-89019265D01*
X117539636Y-89256304D01*
X117539634Y-89256316D01*
X117519443Y-89499994D01*
X117519443Y-89500005D01*
X117539634Y-89743683D01*
X117539636Y-89743695D01*
X117599663Y-89980734D01*
X117697888Y-90204666D01*
X117831632Y-90409378D01*
X117997242Y-90589277D01*
X117997252Y-90589286D01*
X118081039Y-90654500D01*
X118190212Y-90739473D01*
X118405267Y-90855855D01*
X118405270Y-90855856D01*
X118636541Y-90935251D01*
X118636543Y-90935251D01*
X118636545Y-90935252D01*
X118877737Y-90975500D01*
X118877738Y-90975500D01*
X119122262Y-90975500D01*
X119122263Y-90975500D01*
X119363455Y-90935252D01*
X119455928Y-90903505D01*
X119525725Y-90900356D01*
X119583871Y-90933106D01*
X120515139Y-91864374D01*
X120515149Y-91864385D01*
X120519479Y-91868715D01*
X120519480Y-91868716D01*
X120631284Y-91980520D01*
X120631286Y-91980521D01*
X120631290Y-91980524D01*
X120692740Y-92016002D01*
X120692744Y-92016003D01*
X120692745Y-92016004D01*
X120712378Y-92027339D01*
X120768212Y-92059576D01*
X120768214Y-92059576D01*
X120768215Y-92059577D01*
X120920943Y-92100500D01*
X121079057Y-92100500D01*
X126946048Y-92100500D01*
X127013087Y-92120185D01*
X127058842Y-92172989D01*
X127068786Y-92242147D01*
X127049854Y-92292326D01*
X127047887Y-92295335D01*
X126949663Y-92519265D01*
X126889636Y-92756304D01*
X126889634Y-92756316D01*
X126869443Y-92999994D01*
X126869443Y-93000005D01*
X126889634Y-93243683D01*
X126889636Y-93243695D01*
X126949663Y-93480734D01*
X127047888Y-93704666D01*
X127181632Y-93909378D01*
X127347242Y-94089277D01*
X127347252Y-94089286D01*
X127480050Y-94192647D01*
X127520863Y-94249357D01*
X127524538Y-94319130D01*
X127489906Y-94379813D01*
X127427965Y-94412140D01*
X127403888Y-94414500D01*
X121315097Y-94414500D01*
X121248058Y-94394815D01*
X121227416Y-94378181D01*
X120435938Y-93586703D01*
X120402453Y-93525380D01*
X120403414Y-93468581D01*
X120460361Y-93243704D01*
X120460363Y-93243695D01*
X120460364Y-93243692D01*
X120463811Y-93202094D01*
X120480557Y-93000005D01*
X120480557Y-92999994D01*
X120460365Y-92756316D01*
X120460363Y-92756304D01*
X120400336Y-92519265D01*
X120387792Y-92490668D01*
X120302111Y-92295333D01*
X120222180Y-92172989D01*
X120168367Y-92090621D01*
X120002757Y-91910722D01*
X120002747Y-91910713D01*
X119809791Y-91760529D01*
X119809787Y-91760526D01*
X119594734Y-91644145D01*
X119594729Y-91644143D01*
X119363458Y-91564748D01*
X119182561Y-91534562D01*
X119122263Y-91524500D01*
X118877737Y-91524500D01*
X118829498Y-91532549D01*
X118636541Y-91564748D01*
X118405270Y-91644143D01*
X118405265Y-91644145D01*
X118190212Y-91760526D01*
X118190208Y-91760529D01*
X117997252Y-91910713D01*
X117997242Y-91910722D01*
X117831632Y-92090621D01*
X117697888Y-92295333D01*
X117599663Y-92519265D01*
X117539636Y-92756304D01*
X117539634Y-92756316D01*
X117519443Y-92999994D01*
X117519443Y-93000005D01*
X117539634Y-93243683D01*
X117539636Y-93243695D01*
X117599663Y-93480734D01*
X117697888Y-93704666D01*
X117831632Y-93909378D01*
X117997242Y-94089277D01*
X117997252Y-94089286D01*
X118190208Y-94239470D01*
X118190212Y-94239473D01*
X118379685Y-94342011D01*
X118405267Y-94355855D01*
X118405270Y-94355856D01*
X118636541Y-94435251D01*
X118636543Y-94435251D01*
X118636545Y-94435252D01*
X118877737Y-94475500D01*
X118877738Y-94475500D01*
X119122262Y-94475500D01*
X119122263Y-94475500D01*
X119363455Y-94435252D01*
X119455928Y-94403505D01*
X119525725Y-94400356D01*
X119583871Y-94433106D01*
X120530139Y-95379374D01*
X120530149Y-95379385D01*
X120534479Y-95383715D01*
X120534480Y-95383716D01*
X120646284Y-95495520D01*
X120646286Y-95495521D01*
X120646290Y-95495524D01*
X120783209Y-95574573D01*
X120783216Y-95574577D01*
X120885456Y-95601972D01*
X120935942Y-95615500D01*
X120935943Y-95615500D01*
X126937111Y-95615500D01*
X127004150Y-95635185D01*
X127049905Y-95687989D01*
X127059849Y-95757147D01*
X127048917Y-95790183D01*
X127049949Y-95790636D01*
X126949663Y-96019265D01*
X126889636Y-96256304D01*
X126889634Y-96256316D01*
X126869443Y-96499994D01*
X126869443Y-96500005D01*
X126889634Y-96743683D01*
X126889636Y-96743695D01*
X126949663Y-96980734D01*
X127047888Y-97204666D01*
X127181632Y-97409378D01*
X127347242Y-97589277D01*
X127347252Y-97589286D01*
X127460778Y-97677647D01*
X127501591Y-97734357D01*
X127505266Y-97804130D01*
X127470634Y-97864813D01*
X127408693Y-97897140D01*
X127384616Y-97899500D01*
X121300097Y-97899500D01*
X121233058Y-97879815D01*
X121212416Y-97863181D01*
X120435938Y-97086703D01*
X120402453Y-97025380D01*
X120403414Y-96968581D01*
X120460361Y-96743704D01*
X120460363Y-96743695D01*
X120460364Y-96743692D01*
X120460365Y-96743683D01*
X120480557Y-96500005D01*
X120480557Y-96499994D01*
X120460365Y-96256316D01*
X120460363Y-96256304D01*
X120414544Y-96075369D01*
X120400336Y-96019264D01*
X120302111Y-95795333D01*
X120277163Y-95757147D01*
X120168367Y-95590621D01*
X120002757Y-95410722D01*
X120002747Y-95410713D01*
X119809791Y-95260529D01*
X119809787Y-95260526D01*
X119594734Y-95144145D01*
X119594729Y-95144143D01*
X119363458Y-95064748D01*
X119182561Y-95034562D01*
X119122263Y-95024500D01*
X118877737Y-95024500D01*
X118829498Y-95032549D01*
X118636541Y-95064748D01*
X118405270Y-95144143D01*
X118405265Y-95144145D01*
X118190212Y-95260526D01*
X118190208Y-95260529D01*
X117997252Y-95410713D01*
X117997242Y-95410722D01*
X117831632Y-95590621D01*
X117697888Y-95795333D01*
X117599663Y-96019265D01*
X117539636Y-96256304D01*
X117539634Y-96256316D01*
X117519443Y-96499994D01*
X117519443Y-96500005D01*
X117539634Y-96743683D01*
X117539636Y-96743695D01*
X117599663Y-96980734D01*
X117697888Y-97204666D01*
X117831632Y-97409378D01*
X117988242Y-97579500D01*
X117997246Y-97589281D01*
X118190212Y-97739473D01*
X118405267Y-97855855D01*
X118405270Y-97855856D01*
X118636541Y-97935251D01*
X118636543Y-97935251D01*
X118636545Y-97935252D01*
X118877737Y-97975500D01*
X118877738Y-97975500D01*
X119122262Y-97975500D01*
X119122263Y-97975500D01*
X119363455Y-97935252D01*
X119455928Y-97903505D01*
X119525725Y-97900356D01*
X119583871Y-97933106D01*
X120515139Y-98864374D01*
X120515149Y-98864385D01*
X120519479Y-98868715D01*
X120519480Y-98868716D01*
X120631284Y-98980520D01*
X120631286Y-98980521D01*
X120631290Y-98980524D01*
X120692740Y-99016002D01*
X120692744Y-99016003D01*
X120692745Y-99016004D01*
X120730480Y-99037790D01*
X120768212Y-99059576D01*
X120768214Y-99059576D01*
X120768215Y-99059577D01*
X120920943Y-99100500D01*
X126946048Y-99100500D01*
X127013087Y-99120185D01*
X127058842Y-99172989D01*
X127068786Y-99242147D01*
X127049854Y-99292326D01*
X127047887Y-99295335D01*
X126949663Y-99519265D01*
X126889636Y-99756304D01*
X126889634Y-99756316D01*
X126869443Y-99999994D01*
X126869443Y-100000005D01*
X126889634Y-100243683D01*
X126889636Y-100243695D01*
X126949663Y-100480734D01*
X127047887Y-100704664D01*
X127049854Y-100707674D01*
X127050280Y-100709087D01*
X127050329Y-100709177D01*
X127050310Y-100709186D01*
X127070044Y-100774563D01*
X127050867Y-100841749D01*
X126998410Y-100887902D01*
X126946048Y-100899500D01*
X120800097Y-100899500D01*
X120733058Y-100879815D01*
X120712416Y-100863181D01*
X120435938Y-100586703D01*
X120402453Y-100525380D01*
X120403414Y-100468581D01*
X120460361Y-100243704D01*
X120460363Y-100243695D01*
X120460364Y-100243692D01*
X120470027Y-100127079D01*
X120480557Y-100000005D01*
X120480557Y-99999994D01*
X120460365Y-99756316D01*
X120460363Y-99756304D01*
X120423238Y-99609703D01*
X120400336Y-99519264D01*
X120302111Y-99295333D01*
X120220227Y-99169999D01*
X120168367Y-99090621D01*
X120002757Y-98910722D01*
X120002747Y-98910713D01*
X119809791Y-98760529D01*
X119809787Y-98760526D01*
X119594734Y-98644145D01*
X119594729Y-98644143D01*
X119363458Y-98564748D01*
X119182561Y-98534562D01*
X119122263Y-98524500D01*
X118877737Y-98524500D01*
X118829498Y-98532549D01*
X118636541Y-98564748D01*
X118405270Y-98644143D01*
X118405265Y-98644145D01*
X118190212Y-98760526D01*
X118190208Y-98760529D01*
X117997252Y-98910713D01*
X117997242Y-98910722D01*
X117831632Y-99090621D01*
X117697888Y-99295333D01*
X117599663Y-99519265D01*
X117539636Y-99756304D01*
X117539634Y-99756316D01*
X117519443Y-99999994D01*
X117519443Y-100000005D01*
X117539634Y-100243683D01*
X117539636Y-100243695D01*
X117599663Y-100480734D01*
X117697888Y-100704666D01*
X117831632Y-100909378D01*
X117997242Y-101089277D01*
X117997252Y-101089286D01*
X118190208Y-101239470D01*
X118190212Y-101239473D01*
X118405267Y-101355855D01*
X118405270Y-101355856D01*
X118636541Y-101435251D01*
X118636543Y-101435251D01*
X118636545Y-101435252D01*
X118877737Y-101475500D01*
X118877738Y-101475500D01*
X119122262Y-101475500D01*
X119122263Y-101475500D01*
X119363455Y-101435252D01*
X119455928Y-101403505D01*
X119525725Y-101400356D01*
X119583871Y-101433106D01*
X120015139Y-101864374D01*
X120015149Y-101864385D01*
X120019479Y-101868715D01*
X120019480Y-101868716D01*
X120131284Y-101980520D01*
X120131286Y-101980521D01*
X120131290Y-101980524D01*
X120268209Y-102059573D01*
X120268216Y-102059577D01*
X120380019Y-102089534D01*
X120420942Y-102100500D01*
X120420943Y-102100500D01*
X127384616Y-102100500D01*
X127451655Y-102120185D01*
X127497410Y-102172989D01*
X127507354Y-102242147D01*
X127478329Y-102305703D01*
X127460778Y-102322353D01*
X127347252Y-102410713D01*
X127347242Y-102410722D01*
X127181632Y-102590621D01*
X127047888Y-102795333D01*
X126949663Y-103019265D01*
X126889636Y-103256304D01*
X126889634Y-103256316D01*
X126869443Y-103499994D01*
X126869443Y-103500005D01*
X126889634Y-103743683D01*
X126889636Y-103743695D01*
X126949663Y-103980734D01*
X127047888Y-104204666D01*
X127181632Y-104409378D01*
X127347242Y-104589277D01*
X127347252Y-104589286D01*
X127460778Y-104677647D01*
X127501591Y-104734357D01*
X127505266Y-104804130D01*
X127470634Y-104864813D01*
X127408693Y-104897140D01*
X127384616Y-104899500D01*
X121300097Y-104899500D01*
X121233058Y-104879815D01*
X121212416Y-104863181D01*
X120435938Y-104086703D01*
X120402453Y-104025380D01*
X120403414Y-103968581D01*
X120460361Y-103743704D01*
X120460363Y-103743695D01*
X120460364Y-103743692D01*
X120468158Y-103649632D01*
X120480557Y-103500005D01*
X120480557Y-103499994D01*
X120460365Y-103256316D01*
X120460363Y-103256304D01*
X120422639Y-103107337D01*
X120400336Y-103019264D01*
X120302111Y-102795333D01*
X120240750Y-102701413D01*
X120168367Y-102590621D01*
X120002757Y-102410722D01*
X120002747Y-102410713D01*
X119809791Y-102260529D01*
X119809787Y-102260526D01*
X119594734Y-102144145D01*
X119594729Y-102144143D01*
X119363458Y-102064748D01*
X119182561Y-102034562D01*
X119122263Y-102024500D01*
X118877737Y-102024500D01*
X118840948Y-102030639D01*
X118636541Y-102064748D01*
X118405270Y-102144143D01*
X118405265Y-102144145D01*
X118190212Y-102260526D01*
X118190208Y-102260529D01*
X117997252Y-102410713D01*
X117997242Y-102410722D01*
X117831632Y-102590621D01*
X117697888Y-102795333D01*
X117599663Y-103019265D01*
X117539636Y-103256304D01*
X117539634Y-103256316D01*
X117519443Y-103499994D01*
X117519443Y-103500005D01*
X117539634Y-103743683D01*
X117539636Y-103743695D01*
X117599663Y-103980734D01*
X117697888Y-104204666D01*
X117831632Y-104409378D01*
X117908002Y-104492337D01*
X117997246Y-104589281D01*
X118190212Y-104739473D01*
X118405267Y-104855855D01*
X118405270Y-104855856D01*
X118636541Y-104935251D01*
X118636543Y-104935251D01*
X118636545Y-104935252D01*
X118877737Y-104975500D01*
X118877738Y-104975500D01*
X119122262Y-104975500D01*
X119122263Y-104975500D01*
X119363455Y-104935252D01*
X119455928Y-104903505D01*
X119525725Y-104900356D01*
X119583871Y-104933106D01*
X120515139Y-105864374D01*
X120515149Y-105864385D01*
X120519479Y-105868715D01*
X120519480Y-105868716D01*
X120631284Y-105980520D01*
X120631286Y-105980521D01*
X120631290Y-105980524D01*
X120692740Y-106016002D01*
X120692744Y-106016003D01*
X120692745Y-106016004D01*
X120730480Y-106037790D01*
X120768212Y-106059576D01*
X120768214Y-106059576D01*
X120768215Y-106059577D01*
X120920943Y-106100500D01*
X126946048Y-106100500D01*
X127013087Y-106120185D01*
X127058842Y-106172989D01*
X127068786Y-106242147D01*
X127049854Y-106292326D01*
X127047887Y-106295335D01*
X126949663Y-106519265D01*
X126889636Y-106756304D01*
X126889634Y-106756316D01*
X126869443Y-106999994D01*
X126869443Y-107000005D01*
X126889634Y-107243683D01*
X126889636Y-107243695D01*
X126949663Y-107480734D01*
X127047888Y-107704666D01*
X127181632Y-107909378D01*
X127347242Y-108089277D01*
X127347252Y-108089286D01*
X127460778Y-108177647D01*
X127501591Y-108234357D01*
X127505266Y-108304130D01*
X127470634Y-108364813D01*
X127408693Y-108397140D01*
X127384616Y-108399500D01*
X121300097Y-108399500D01*
X121233058Y-108379815D01*
X121212416Y-108363181D01*
X120435938Y-107586703D01*
X120402453Y-107525380D01*
X120403414Y-107468581D01*
X120460361Y-107243704D01*
X120460363Y-107243695D01*
X120460364Y-107243692D01*
X120473276Y-107087869D01*
X120480557Y-107000005D01*
X120480557Y-106999994D01*
X120460365Y-106756316D01*
X120460363Y-106756304D01*
X120404246Y-106534706D01*
X120400336Y-106519264D01*
X120302111Y-106295333D01*
X120222180Y-106172989D01*
X120168367Y-106090621D01*
X120002757Y-105910722D01*
X120002747Y-105910713D01*
X119809791Y-105760529D01*
X119809787Y-105760526D01*
X119594734Y-105644145D01*
X119594729Y-105644143D01*
X119363458Y-105564748D01*
X119182561Y-105534562D01*
X119122263Y-105524500D01*
X118877737Y-105524500D01*
X118829498Y-105532549D01*
X118636541Y-105564748D01*
X118405270Y-105644143D01*
X118405265Y-105644145D01*
X118190212Y-105760526D01*
X118190208Y-105760529D01*
X117997252Y-105910713D01*
X117997242Y-105910722D01*
X117831632Y-106090621D01*
X117697888Y-106295333D01*
X117599663Y-106519265D01*
X117539636Y-106756304D01*
X117539634Y-106756316D01*
X117519443Y-106999994D01*
X117519443Y-107000005D01*
X117539634Y-107243683D01*
X117539636Y-107243695D01*
X117599663Y-107480734D01*
X117697888Y-107704666D01*
X117831632Y-107909378D01*
X117997242Y-108089277D01*
X117997252Y-108089286D01*
X118190208Y-108239470D01*
X118190212Y-108239473D01*
X118261453Y-108278027D01*
X118405267Y-108355855D01*
X118405270Y-108355856D01*
X118636541Y-108435251D01*
X118636543Y-108435251D01*
X118636545Y-108435252D01*
X118877737Y-108475500D01*
X118877738Y-108475500D01*
X119122262Y-108475500D01*
X119122263Y-108475500D01*
X119363455Y-108435252D01*
X119455928Y-108403505D01*
X119525725Y-108400356D01*
X119583871Y-108433106D01*
X120515139Y-109364374D01*
X120515149Y-109364385D01*
X120519479Y-109368715D01*
X120519480Y-109368716D01*
X120631284Y-109480520D01*
X120718095Y-109530639D01*
X120718097Y-109530641D01*
X120756151Y-109552611D01*
X120768215Y-109559577D01*
X120920943Y-109600500D01*
X121079057Y-109600500D01*
X138913331Y-109600500D01*
X138913347Y-109600501D01*
X138920943Y-109600501D01*
X139079054Y-109600501D01*
X139079057Y-109600501D01*
X139231785Y-109559577D01*
X139281904Y-109530639D01*
X139368716Y-109480520D01*
X139480520Y-109368716D01*
X139480520Y-109368714D01*
X139490728Y-109358507D01*
X139490730Y-109358504D01*
X141369234Y-107479999D01*
X144235447Y-107479999D01*
X144235447Y-107480000D01*
X144255615Y-107697660D01*
X144255616Y-107697662D01*
X144315435Y-107907905D01*
X144315441Y-107907920D01*
X144412869Y-108103581D01*
X144412874Y-108103589D01*
X144544604Y-108278027D01*
X144544605Y-108278028D01*
X144706147Y-108425294D01*
X144706149Y-108425295D01*
X144706150Y-108425296D01*
X144891995Y-108540366D01*
X144892001Y-108540369D01*
X144935182Y-108557097D01*
X145095832Y-108619333D01*
X145310703Y-108659500D01*
X145310705Y-108659500D01*
X145529295Y-108659500D01*
X145529297Y-108659500D01*
X145744168Y-108619333D01*
X145948001Y-108540368D01*
X146133853Y-108425294D01*
X146295395Y-108278028D01*
X146427127Y-108103587D01*
X146524563Y-107907910D01*
X146584384Y-107697661D01*
X146604553Y-107480000D01*
X146584384Y-107262339D01*
X146524563Y-107052090D01*
X146524558Y-107052079D01*
X146427130Y-106856418D01*
X146427125Y-106856410D01*
X146295395Y-106681972D01*
X146133853Y-106534706D01*
X146133850Y-106534704D01*
X146133849Y-106534703D01*
X145948004Y-106419633D01*
X145947998Y-106419630D01*
X145787351Y-106357396D01*
X145744168Y-106340667D01*
X145529297Y-106300500D01*
X145310703Y-106300500D01*
X145095832Y-106340667D01*
X145095829Y-106340667D01*
X145095829Y-106340668D01*
X144892001Y-106419630D01*
X144891995Y-106419633D01*
X144706150Y-106534703D01*
X144544604Y-106681972D01*
X144412874Y-106856410D01*
X144412869Y-106856418D01*
X144315441Y-107052079D01*
X144315435Y-107052094D01*
X144255616Y-107262337D01*
X144255615Y-107262339D01*
X144235447Y-107479999D01*
X141369234Y-107479999D01*
X141761366Y-107087867D01*
X141822687Y-107054384D01*
X141892379Y-107059368D01*
X141914322Y-107070123D01*
X142051995Y-107155366D01*
X142052001Y-107155369D01*
X142095182Y-107172097D01*
X142255832Y-107234333D01*
X142470703Y-107274500D01*
X142470705Y-107274500D01*
X142689295Y-107274500D01*
X142689297Y-107274500D01*
X142904168Y-107234333D01*
X143108001Y-107155368D01*
X143293853Y-107040294D01*
X143455395Y-106893028D01*
X143587127Y-106718587D01*
X143684563Y-106522910D01*
X143744384Y-106312661D01*
X143764553Y-106095000D01*
X143764147Y-106090623D01*
X143744384Y-105877339D01*
X143744383Y-105877337D01*
X143741930Y-105868716D01*
X143684563Y-105667090D01*
X143683716Y-105665389D01*
X143587130Y-105471418D01*
X143587125Y-105471410D01*
X143455395Y-105296972D01*
X143293853Y-105149706D01*
X143293850Y-105149704D01*
X143293849Y-105149703D01*
X143108004Y-105034633D01*
X143107998Y-105034630D01*
X142947351Y-104972396D01*
X142904168Y-104955667D01*
X142689297Y-104915500D01*
X142470703Y-104915500D01*
X142255832Y-104955667D01*
X142255829Y-104955667D01*
X142255829Y-104955668D01*
X142052001Y-105034630D01*
X142051995Y-105034633D01*
X141866150Y-105149703D01*
X141704604Y-105296972D01*
X141572874Y-105471410D01*
X141572869Y-105471418D01*
X141476283Y-105665389D01*
X141452967Y-105697795D01*
X141424484Y-105726279D01*
X141424480Y-105726284D01*
X141424478Y-105726286D01*
X140091397Y-107059368D01*
X138787584Y-108363181D01*
X138726261Y-108396666D01*
X138699903Y-108399500D01*
X129315384Y-108399500D01*
X129248345Y-108379815D01*
X129202590Y-108327011D01*
X129192646Y-108257853D01*
X129221671Y-108194297D01*
X129239222Y-108177647D01*
X129334371Y-108103589D01*
X129352754Y-108089281D01*
X129518368Y-107909377D01*
X129652111Y-107704667D01*
X129750336Y-107480736D01*
X129810364Y-107243692D01*
X129823276Y-107087869D01*
X129830557Y-107000005D01*
X129830557Y-106999994D01*
X129810365Y-106756316D01*
X129810363Y-106756304D01*
X129754246Y-106534706D01*
X129750336Y-106519264D01*
X129659711Y-106312660D01*
X129652112Y-106295335D01*
X129650146Y-106292326D01*
X129649719Y-106290912D01*
X129649671Y-106290823D01*
X129649689Y-106290813D01*
X129629956Y-106225437D01*
X129649133Y-106158251D01*
X129701590Y-106112098D01*
X129753952Y-106100500D01*
X139413331Y-106100500D01*
X139413347Y-106100501D01*
X139420943Y-106100501D01*
X139579054Y-106100501D01*
X139579057Y-106100501D01*
X139731785Y-106059577D01*
X139807255Y-106016004D01*
X139807259Y-106016002D01*
X139868709Y-105980524D01*
X139868708Y-105980524D01*
X139868716Y-105980520D01*
X139980520Y-105868716D01*
X139980520Y-105868714D01*
X139990724Y-105858511D01*
X139990728Y-105858506D01*
X141139234Y-104709999D01*
X144235447Y-104709999D01*
X144235447Y-104710000D01*
X144255615Y-104927660D01*
X144255616Y-104927662D01*
X144315435Y-105137905D01*
X144315441Y-105137920D01*
X144412869Y-105333581D01*
X144412874Y-105333589D01*
X144516958Y-105471418D01*
X144544605Y-105508028D01*
X144706147Y-105655294D01*
X144706149Y-105655295D01*
X144706150Y-105655296D01*
X144891995Y-105770366D01*
X144892001Y-105770369D01*
X144935182Y-105787097D01*
X145095832Y-105849333D01*
X145310703Y-105889500D01*
X145310705Y-105889500D01*
X145529295Y-105889500D01*
X145529297Y-105889500D01*
X145744168Y-105849333D01*
X145948001Y-105770368D01*
X146133853Y-105655294D01*
X146295395Y-105508028D01*
X146427127Y-105333587D01*
X146524563Y-105137910D01*
X146584384Y-104927661D01*
X146604553Y-104710000D01*
X146584384Y-104492339D01*
X146524563Y-104282090D01*
X146524558Y-104282079D01*
X146427130Y-104086418D01*
X146427125Y-104086410D01*
X146295395Y-103911972D01*
X146133853Y-103764706D01*
X146133850Y-103764704D01*
X146133849Y-103764703D01*
X145948004Y-103649633D01*
X145947998Y-103649630D01*
X145787351Y-103587396D01*
X145744168Y-103570667D01*
X145529297Y-103530500D01*
X145310703Y-103530500D01*
X145095832Y-103570667D01*
X145095829Y-103570667D01*
X145095829Y-103570668D01*
X144892001Y-103649630D01*
X144891995Y-103649633D01*
X144706150Y-103764703D01*
X144544604Y-103911972D01*
X144412874Y-104086410D01*
X144412869Y-104086418D01*
X144315441Y-104282079D01*
X144315435Y-104282094D01*
X144255616Y-104492337D01*
X144255615Y-104492339D01*
X144235447Y-104709999D01*
X141139234Y-104709999D01*
X141632185Y-104217048D01*
X141693506Y-104183565D01*
X141763198Y-104188549D01*
X141803400Y-104213092D01*
X141866147Y-104270294D01*
X141866149Y-104270295D01*
X141866150Y-104270296D01*
X142051995Y-104385366D01*
X142052001Y-104385369D01*
X142095182Y-104402097D01*
X142255832Y-104464333D01*
X142470703Y-104504500D01*
X142470705Y-104504500D01*
X142689295Y-104504500D01*
X142689297Y-104504500D01*
X142904168Y-104464333D01*
X143108001Y-104385368D01*
X143293853Y-104270294D01*
X143455395Y-104123028D01*
X143587127Y-103948587D01*
X143684563Y-103752910D01*
X143744384Y-103542661D01*
X143764553Y-103325000D01*
X143758187Y-103256304D01*
X143744384Y-103107339D01*
X143744383Y-103107337D01*
X143736415Y-103079333D01*
X143684563Y-102897090D01*
X143684558Y-102897079D01*
X143587130Y-102701418D01*
X143587125Y-102701410D01*
X143455395Y-102526972D01*
X143293853Y-102379706D01*
X143293850Y-102379704D01*
X143293849Y-102379703D01*
X143108004Y-102264633D01*
X143107998Y-102264630D01*
X142930505Y-102195870D01*
X142904168Y-102185667D01*
X142689297Y-102145500D01*
X142470703Y-102145500D01*
X142255832Y-102185667D01*
X142255829Y-102185667D01*
X142255829Y-102185668D01*
X142052001Y-102264630D01*
X142051995Y-102264633D01*
X141866150Y-102379703D01*
X141704604Y-102526972D01*
X141570851Y-102704089D01*
X141514742Y-102745725D01*
X141503993Y-102749136D01*
X141443221Y-102765421D01*
X141443209Y-102765426D01*
X141306290Y-102844475D01*
X141306282Y-102844481D01*
X141194480Y-102956284D01*
X141194478Y-102956286D01*
X140238793Y-103911972D01*
X139287584Y-104863181D01*
X139226261Y-104896666D01*
X139199903Y-104899500D01*
X129315384Y-104899500D01*
X129248345Y-104879815D01*
X129202590Y-104827011D01*
X129192646Y-104757853D01*
X129221671Y-104694297D01*
X129239222Y-104677647D01*
X129272194Y-104651983D01*
X129352754Y-104589281D01*
X129518368Y-104409377D01*
X129652111Y-104204667D01*
X129750336Y-103980736D01*
X129810364Y-103743692D01*
X129818158Y-103649632D01*
X129830557Y-103500005D01*
X129830557Y-103499994D01*
X129810365Y-103256316D01*
X129810363Y-103256304D01*
X129772639Y-103107337D01*
X129750336Y-103019264D01*
X129652111Y-102795333D01*
X129590750Y-102701413D01*
X129518367Y-102590621D01*
X129352757Y-102410722D01*
X129352747Y-102410713D01*
X129239222Y-102322353D01*
X129198409Y-102265643D01*
X129194734Y-102195870D01*
X129229366Y-102135187D01*
X129291307Y-102102860D01*
X129315384Y-102100500D01*
X141548331Y-102100500D01*
X141548347Y-102100501D01*
X141555943Y-102100501D01*
X141714054Y-102100501D01*
X141714057Y-102100501D01*
X141866785Y-102059577D01*
X141916904Y-102030639D01*
X142003716Y-101980520D01*
X142044237Y-101939999D01*
X144235447Y-101939999D01*
X144235447Y-101940000D01*
X144255615Y-102157660D01*
X144255616Y-102157662D01*
X144315435Y-102367905D01*
X144315441Y-102367920D01*
X144412869Y-102563581D01*
X144412874Y-102563589D01*
X144544604Y-102738027D01*
X144544605Y-102738028D01*
X144706147Y-102885294D01*
X144706149Y-102885295D01*
X144706150Y-102885296D01*
X144891995Y-103000366D01*
X144892001Y-103000369D01*
X144935182Y-103017097D01*
X145095832Y-103079333D01*
X145310703Y-103119500D01*
X145310705Y-103119500D01*
X145529295Y-103119500D01*
X145529297Y-103119500D01*
X145744168Y-103079333D01*
X145948001Y-103000368D01*
X146133853Y-102885294D01*
X146295395Y-102738028D01*
X146427127Y-102563587D01*
X146524563Y-102367910D01*
X146584384Y-102157661D01*
X146604553Y-101940000D01*
X146584384Y-101722339D01*
X146524563Y-101512090D01*
X146524558Y-101512079D01*
X146427130Y-101316418D01*
X146427125Y-101316410D01*
X146295395Y-101141972D01*
X146133853Y-100994706D01*
X146133850Y-100994704D01*
X146133849Y-100994703D01*
X145948004Y-100879633D01*
X145947998Y-100879630D01*
X145787351Y-100817396D01*
X145744168Y-100800667D01*
X145529297Y-100760500D01*
X145310703Y-100760500D01*
X145095832Y-100800667D01*
X145095829Y-100800667D01*
X145095829Y-100800668D01*
X144892001Y-100879630D01*
X144891995Y-100879633D01*
X144706150Y-100994703D01*
X144544604Y-101141972D01*
X144412874Y-101316410D01*
X144412869Y-101316418D01*
X144315441Y-101512079D01*
X144315435Y-101512094D01*
X144255616Y-101722337D01*
X144255615Y-101722339D01*
X144235447Y-101939999D01*
X142044237Y-101939999D01*
X142115520Y-101868716D01*
X142115520Y-101868714D01*
X142125728Y-101858507D01*
X142125730Y-101858504D01*
X142238319Y-101745914D01*
X142299640Y-101712431D01*
X142348781Y-101711708D01*
X142470703Y-101734500D01*
X142470706Y-101734500D01*
X142689295Y-101734500D01*
X142689297Y-101734500D01*
X142904168Y-101694333D01*
X143108001Y-101615368D01*
X143293853Y-101500294D01*
X143455395Y-101353028D01*
X143587127Y-101178587D01*
X143684563Y-100982910D01*
X143744384Y-100772661D01*
X143764553Y-100555000D01*
X143744384Y-100337339D01*
X143684563Y-100127090D01*
X143684558Y-100127079D01*
X143587130Y-99931418D01*
X143587125Y-99931410D01*
X143455395Y-99756972D01*
X143454662Y-99756304D01*
X143293853Y-99609706D01*
X143293850Y-99609704D01*
X143293849Y-99609703D01*
X143108004Y-99494633D01*
X143107998Y-99494630D01*
X142947351Y-99432396D01*
X142904168Y-99415667D01*
X142689297Y-99375500D01*
X142470703Y-99375500D01*
X142255832Y-99415667D01*
X142255829Y-99415667D01*
X142255829Y-99415668D01*
X142052001Y-99494630D01*
X142051995Y-99494633D01*
X141866150Y-99609703D01*
X141704604Y-99756972D01*
X141572874Y-99931410D01*
X141572869Y-99931418D01*
X141475441Y-100127079D01*
X141475435Y-100127094D01*
X141415616Y-100337337D01*
X141415615Y-100337339D01*
X141395447Y-100554999D01*
X141395447Y-100555000D01*
X141414819Y-100764059D01*
X141401404Y-100832629D01*
X141353047Y-100883060D01*
X141291348Y-100899500D01*
X129753952Y-100899500D01*
X129686913Y-100879815D01*
X129641158Y-100827011D01*
X129631214Y-100757853D01*
X129650146Y-100707674D01*
X129652111Y-100704667D01*
X129750336Y-100480736D01*
X129810364Y-100243692D01*
X129820027Y-100127079D01*
X129830557Y-100000005D01*
X129830557Y-99999994D01*
X129810365Y-99756316D01*
X129810363Y-99756304D01*
X129773238Y-99609703D01*
X129750336Y-99519264D01*
X129652111Y-99295333D01*
X129650145Y-99292324D01*
X129649719Y-99290912D01*
X129649671Y-99290823D01*
X129649689Y-99290813D01*
X129629956Y-99225437D01*
X129645780Y-99169999D01*
X144235447Y-99169999D01*
X144235447Y-99170000D01*
X144255615Y-99387660D01*
X144255616Y-99387662D01*
X144315435Y-99597905D01*
X144315441Y-99597920D01*
X144412869Y-99793581D01*
X144412874Y-99793589D01*
X144516958Y-99931418D01*
X144544605Y-99968028D01*
X144706147Y-100115294D01*
X144706149Y-100115295D01*
X144706150Y-100115296D01*
X144891995Y-100230366D01*
X144892001Y-100230369D01*
X144926369Y-100243683D01*
X145095832Y-100309333D01*
X145310703Y-100349500D01*
X145310705Y-100349500D01*
X145529295Y-100349500D01*
X145529297Y-100349500D01*
X145744168Y-100309333D01*
X145948001Y-100230368D01*
X146133853Y-100115294D01*
X146295395Y-99968028D01*
X146427127Y-99793587D01*
X146524563Y-99597910D01*
X146584384Y-99387661D01*
X146604553Y-99170000D01*
X146584384Y-98952339D01*
X146524563Y-98742090D01*
X146524558Y-98742079D01*
X146427130Y-98546418D01*
X146427125Y-98546410D01*
X146295395Y-98371972D01*
X146133853Y-98224706D01*
X146133850Y-98224704D01*
X146133849Y-98224703D01*
X145948004Y-98109633D01*
X145947998Y-98109630D01*
X145787351Y-98047396D01*
X145744168Y-98030667D01*
X145529297Y-97990500D01*
X145310703Y-97990500D01*
X145095832Y-98030667D01*
X145095829Y-98030667D01*
X145095829Y-98030668D01*
X144892001Y-98109630D01*
X144891995Y-98109633D01*
X144706150Y-98224703D01*
X144544604Y-98371972D01*
X144412874Y-98546410D01*
X144412869Y-98546418D01*
X144315441Y-98742079D01*
X144315435Y-98742094D01*
X144255616Y-98952337D01*
X144255615Y-98952339D01*
X144235447Y-99169999D01*
X129645780Y-99169999D01*
X129649133Y-99158251D01*
X129701590Y-99112098D01*
X129753952Y-99100500D01*
X141778331Y-99100500D01*
X141778347Y-99100501D01*
X141785943Y-99100501D01*
X141944054Y-99100501D01*
X141944057Y-99100501D01*
X142096785Y-99059577D01*
X142172255Y-99016004D01*
X142172259Y-99016002D01*
X142233711Y-98980523D01*
X142233714Y-98980521D01*
X142233716Y-98980520D01*
X142238316Y-98975920D01*
X142299637Y-98942432D01*
X142348787Y-98941709D01*
X142470703Y-98964500D01*
X142470704Y-98964500D01*
X142689295Y-98964500D01*
X142689297Y-98964500D01*
X142904168Y-98924333D01*
X143108001Y-98845368D01*
X143293853Y-98730294D01*
X143455395Y-98583028D01*
X143587127Y-98408587D01*
X143684563Y-98212910D01*
X143744384Y-98002661D01*
X143764553Y-97785000D01*
X143762037Y-97757853D01*
X143744384Y-97567339D01*
X143744383Y-97567337D01*
X143736415Y-97539333D01*
X143684563Y-97357090D01*
X143684558Y-97357079D01*
X143587130Y-97161418D01*
X143587125Y-97161410D01*
X143455395Y-96986972D01*
X143435221Y-96968581D01*
X143293853Y-96839706D01*
X143293850Y-96839704D01*
X143293849Y-96839703D01*
X143108004Y-96724633D01*
X143107998Y-96724630D01*
X142947351Y-96662396D01*
X142904168Y-96645667D01*
X142689297Y-96605500D01*
X142470703Y-96605500D01*
X142255832Y-96645667D01*
X142255829Y-96645667D01*
X142255829Y-96645668D01*
X142052001Y-96724630D01*
X142051995Y-96724633D01*
X141866150Y-96839703D01*
X141704604Y-96986972D01*
X141572874Y-97161410D01*
X141572869Y-97161418D01*
X141475441Y-97357079D01*
X141475435Y-97357094D01*
X141415616Y-97567337D01*
X141415615Y-97567339D01*
X141395267Y-97786941D01*
X141369481Y-97851878D01*
X141312680Y-97892566D01*
X141271796Y-97899500D01*
X129315384Y-97899500D01*
X129248345Y-97879815D01*
X129202590Y-97827011D01*
X129192646Y-97757853D01*
X129221671Y-97694297D01*
X129239222Y-97677647D01*
X129272194Y-97651983D01*
X129352754Y-97589281D01*
X129518368Y-97409377D01*
X129652111Y-97204667D01*
X129750336Y-96980736D01*
X129810364Y-96743692D01*
X129810365Y-96743683D01*
X129830557Y-96500005D01*
X129830557Y-96499994D01*
X129822271Y-96399999D01*
X144235447Y-96399999D01*
X144235447Y-96400000D01*
X144255615Y-96617660D01*
X144255616Y-96617662D01*
X144315435Y-96827905D01*
X144315441Y-96827920D01*
X144412869Y-97023581D01*
X144412874Y-97023589D01*
X144516958Y-97161418D01*
X144544605Y-97198028D01*
X144706147Y-97345294D01*
X144706149Y-97345295D01*
X144706150Y-97345296D01*
X144891995Y-97460366D01*
X144892001Y-97460369D01*
X144935182Y-97477097D01*
X145095832Y-97539333D01*
X145310703Y-97579500D01*
X145310705Y-97579500D01*
X145529295Y-97579500D01*
X145529297Y-97579500D01*
X145744168Y-97539333D01*
X145948001Y-97460368D01*
X146133853Y-97345294D01*
X146295395Y-97198028D01*
X146427127Y-97023587D01*
X146524563Y-96827910D01*
X146584384Y-96617661D01*
X146604553Y-96400000D01*
X146584384Y-96182339D01*
X146524563Y-95972090D01*
X146524558Y-95972079D01*
X146427130Y-95776418D01*
X146427125Y-95776410D01*
X146295394Y-95601971D01*
X146265340Y-95574573D01*
X146133853Y-95454706D01*
X146133850Y-95454704D01*
X146133849Y-95454703D01*
X145948004Y-95339633D01*
X145947998Y-95339630D01*
X145787351Y-95277396D01*
X145744168Y-95260667D01*
X145529297Y-95220500D01*
X145310703Y-95220500D01*
X145095832Y-95260667D01*
X145095829Y-95260667D01*
X145095829Y-95260668D01*
X144892001Y-95339630D01*
X144891995Y-95339633D01*
X144706150Y-95454703D01*
X144544606Y-95601971D01*
X144412874Y-95776410D01*
X144412869Y-95776418D01*
X144315441Y-95972079D01*
X144315435Y-95972094D01*
X144255616Y-96182337D01*
X144255615Y-96182339D01*
X144235447Y-96399999D01*
X129822271Y-96399999D01*
X129810365Y-96256316D01*
X129810363Y-96256304D01*
X129764544Y-96075369D01*
X129750336Y-96019264D01*
X129659873Y-95813028D01*
X129650051Y-95790636D01*
X129651976Y-95789791D01*
X129639237Y-95730218D01*
X129663884Y-95664840D01*
X129719965Y-95623166D01*
X129762889Y-95615500D01*
X141493694Y-95615500D01*
X141560733Y-95635185D01*
X141592647Y-95664772D01*
X141610180Y-95687989D01*
X141676954Y-95776413D01*
X141704605Y-95813028D01*
X141866147Y-95960294D01*
X141866149Y-95960295D01*
X141866150Y-95960296D01*
X142051995Y-96075366D01*
X142052001Y-96075369D01*
X142095182Y-96092097D01*
X142255832Y-96154333D01*
X142470703Y-96194500D01*
X142470705Y-96194500D01*
X142689295Y-96194500D01*
X142689297Y-96194500D01*
X142904168Y-96154333D01*
X143108001Y-96075368D01*
X143293853Y-95960294D01*
X143455395Y-95813028D01*
X143587127Y-95638587D01*
X143684563Y-95442910D01*
X143744384Y-95232661D01*
X143764553Y-95015000D01*
X143744384Y-94797339D01*
X143684563Y-94587090D01*
X143684558Y-94587079D01*
X143587130Y-94391418D01*
X143587125Y-94391410D01*
X143455395Y-94216972D01*
X143428712Y-94192647D01*
X143293853Y-94069706D01*
X143293850Y-94069704D01*
X143293849Y-94069703D01*
X143108004Y-93954633D01*
X143107998Y-93954630D01*
X142947351Y-93892396D01*
X142904168Y-93875667D01*
X142689297Y-93835500D01*
X142470703Y-93835500D01*
X142255832Y-93875667D01*
X142255829Y-93875667D01*
X142255829Y-93875668D01*
X142052001Y-93954630D01*
X142051995Y-93954633D01*
X141866150Y-94069703D01*
X141704604Y-94216972D01*
X141627459Y-94319130D01*
X141599725Y-94355856D01*
X141592648Y-94365227D01*
X141536539Y-94406863D01*
X141493694Y-94414500D01*
X129296112Y-94414500D01*
X129229073Y-94394815D01*
X129183318Y-94342011D01*
X129173374Y-94272853D01*
X129202399Y-94209297D01*
X129219950Y-94192647D01*
X129249894Y-94169339D01*
X129352754Y-94089281D01*
X129518368Y-93909377D01*
X129652111Y-93704667D01*
X129684863Y-93629999D01*
X144235447Y-93629999D01*
X144235447Y-93630000D01*
X144255615Y-93847660D01*
X144255616Y-93847662D01*
X144315435Y-94057905D01*
X144315441Y-94057920D01*
X144412869Y-94253581D01*
X144412874Y-94253589D01*
X144523708Y-94400356D01*
X144544605Y-94428028D01*
X144706147Y-94575294D01*
X144706149Y-94575295D01*
X144706150Y-94575296D01*
X144891995Y-94690366D01*
X144892001Y-94690369D01*
X144935182Y-94707097D01*
X145095832Y-94769333D01*
X145310703Y-94809500D01*
X145310705Y-94809500D01*
X145529295Y-94809500D01*
X145529297Y-94809500D01*
X145744168Y-94769333D01*
X145948001Y-94690368D01*
X146133853Y-94575294D01*
X146295395Y-94428028D01*
X146427127Y-94253587D01*
X146524563Y-94057910D01*
X146584384Y-93847661D01*
X146604553Y-93630000D01*
X146584384Y-93412339D01*
X146524563Y-93202090D01*
X146524558Y-93202079D01*
X146427130Y-93006418D01*
X146427125Y-93006410D01*
X146295395Y-92831972D01*
X146212396Y-92756308D01*
X146133853Y-92684706D01*
X146133850Y-92684704D01*
X146133849Y-92684703D01*
X145948004Y-92569633D01*
X145947998Y-92569630D01*
X145787351Y-92507396D01*
X145744168Y-92490667D01*
X145529297Y-92450500D01*
X145310703Y-92450500D01*
X145095832Y-92490667D01*
X145095829Y-92490667D01*
X145095829Y-92490668D01*
X144892001Y-92569630D01*
X144891995Y-92569633D01*
X144706150Y-92684703D01*
X144544604Y-92831972D01*
X144412874Y-93006410D01*
X144412869Y-93006418D01*
X144315441Y-93202079D01*
X144315435Y-93202094D01*
X144255616Y-93412337D01*
X144255615Y-93412339D01*
X144235447Y-93629999D01*
X129684863Y-93629999D01*
X129750336Y-93480736D01*
X129810364Y-93243692D01*
X129813811Y-93202094D01*
X129830557Y-93000005D01*
X129830557Y-92999994D01*
X129810365Y-92756316D01*
X129810363Y-92756304D01*
X129750336Y-92519265D01*
X129737792Y-92490668D01*
X129652111Y-92295333D01*
X129650145Y-92292324D01*
X129649719Y-92290912D01*
X129649671Y-92290823D01*
X129649689Y-92290813D01*
X129629956Y-92225437D01*
X129649133Y-92158251D01*
X129701590Y-92112098D01*
X129753952Y-92100500D01*
X141272815Y-92100500D01*
X141339854Y-92120185D01*
X141385609Y-92172989D01*
X141396286Y-92235938D01*
X141395447Y-92244994D01*
X141395447Y-92245000D01*
X141415615Y-92462660D01*
X141415616Y-92462662D01*
X141475435Y-92672905D01*
X141475441Y-92672920D01*
X141572869Y-92868581D01*
X141572874Y-92868589D01*
X141676958Y-93006418D01*
X141704605Y-93043028D01*
X141866147Y-93190294D01*
X141866149Y-93190295D01*
X141866150Y-93190296D01*
X142051995Y-93305366D01*
X142052001Y-93305369D01*
X142095182Y-93322097D01*
X142255832Y-93384333D01*
X142470703Y-93424500D01*
X142470705Y-93424500D01*
X142689295Y-93424500D01*
X142689297Y-93424500D01*
X142904168Y-93384333D01*
X143108001Y-93305368D01*
X143293853Y-93190294D01*
X143455395Y-93043028D01*
X143587127Y-92868587D01*
X143684563Y-92672910D01*
X143744384Y-92462661D01*
X143764553Y-92245000D01*
X143764552Y-92244994D01*
X143744384Y-92027339D01*
X143744383Y-92027337D01*
X143741158Y-92016004D01*
X143684563Y-91817090D01*
X143684558Y-91817079D01*
X143587130Y-91621418D01*
X143587125Y-91621410D01*
X143455395Y-91446972D01*
X143293853Y-91299706D01*
X143293850Y-91299704D01*
X143293849Y-91299703D01*
X143108004Y-91184633D01*
X143107998Y-91184630D01*
X142947351Y-91122396D01*
X142904168Y-91105667D01*
X142689297Y-91065500D01*
X142470703Y-91065500D01*
X142453703Y-91068677D01*
X142348783Y-91088290D01*
X142279268Y-91081258D01*
X142238318Y-91054082D01*
X142203717Y-91019481D01*
X142203709Y-91019475D01*
X142085372Y-90951154D01*
X142085369Y-90951153D01*
X142066785Y-90940423D01*
X141914057Y-90899499D01*
X141755943Y-90899499D01*
X141748347Y-90899499D01*
X141748331Y-90899500D01*
X129315384Y-90899500D01*
X129248345Y-90879815D01*
X129231174Y-90859999D01*
X144235447Y-90859999D01*
X144235447Y-90860000D01*
X144255615Y-91077660D01*
X144255616Y-91077662D01*
X144315435Y-91287905D01*
X144315441Y-91287920D01*
X144412869Y-91483581D01*
X144412874Y-91483589D01*
X144534121Y-91644145D01*
X144544605Y-91658028D01*
X144706147Y-91805294D01*
X144706149Y-91805295D01*
X144706150Y-91805296D01*
X144891995Y-91920366D01*
X144892001Y-91920369D01*
X144935182Y-91937097D01*
X145095832Y-91999333D01*
X145310703Y-92039500D01*
X145310705Y-92039500D01*
X145529295Y-92039500D01*
X145529297Y-92039500D01*
X145744168Y-91999333D01*
X145948001Y-91920368D01*
X146133853Y-91805294D01*
X146295395Y-91658028D01*
X146427127Y-91483587D01*
X146524563Y-91287910D01*
X146584384Y-91077661D01*
X146604553Y-90860000D01*
X146584384Y-90642339D01*
X146524563Y-90432090D01*
X146524558Y-90432079D01*
X146427130Y-90236418D01*
X146427125Y-90236410D01*
X146295395Y-90061972D01*
X146206284Y-89980736D01*
X146133853Y-89914706D01*
X146133850Y-89914704D01*
X146133849Y-89914703D01*
X145948004Y-89799633D01*
X145947998Y-89799630D01*
X145787351Y-89737396D01*
X145744168Y-89720667D01*
X145529297Y-89680500D01*
X145310703Y-89680500D01*
X145095832Y-89720667D01*
X145095829Y-89720667D01*
X145095829Y-89720668D01*
X144892001Y-89799630D01*
X144891995Y-89799633D01*
X144706150Y-89914703D01*
X144544604Y-90061972D01*
X144412874Y-90236410D01*
X144412869Y-90236418D01*
X144315441Y-90432079D01*
X144315435Y-90432094D01*
X144255616Y-90642337D01*
X144255615Y-90642339D01*
X144235447Y-90859999D01*
X129231174Y-90859999D01*
X129202590Y-90827011D01*
X129192646Y-90757853D01*
X129221671Y-90694297D01*
X129239222Y-90677647D01*
X129320570Y-90614331D01*
X129352754Y-90589281D01*
X129518368Y-90409377D01*
X129652111Y-90204667D01*
X129750336Y-89980736D01*
X129810364Y-89743692D01*
X129812272Y-89720667D01*
X129830557Y-89500005D01*
X129830557Y-89499994D01*
X129810365Y-89256316D01*
X129810363Y-89256304D01*
X129783536Y-89150366D01*
X129750336Y-89019264D01*
X129652111Y-88795333D01*
X129650145Y-88792324D01*
X129649719Y-88790912D01*
X129649671Y-88790823D01*
X129649689Y-88790813D01*
X129629956Y-88725437D01*
X129649133Y-88658251D01*
X129701590Y-88612098D01*
X129753952Y-88600500D01*
X140199903Y-88600500D01*
X140266942Y-88620185D01*
X140287584Y-88636819D01*
X141421551Y-89770786D01*
X141453136Y-89824532D01*
X141475434Y-89902901D01*
X141475441Y-89902919D01*
X141572867Y-90098577D01*
X141572874Y-90098589D01*
X141676958Y-90236418D01*
X141704605Y-90273028D01*
X141866147Y-90420294D01*
X141866149Y-90420295D01*
X141866150Y-90420296D01*
X142051995Y-90535366D01*
X142052001Y-90535369D01*
X142095182Y-90552097D01*
X142255832Y-90614333D01*
X142470703Y-90654500D01*
X142470705Y-90654500D01*
X142689295Y-90654500D01*
X142689297Y-90654500D01*
X142904168Y-90614333D01*
X143108001Y-90535368D01*
X143293853Y-90420294D01*
X143455395Y-90273028D01*
X143587127Y-90098587D01*
X143684563Y-89902910D01*
X143744384Y-89692661D01*
X143764553Y-89475000D01*
X143744384Y-89257339D01*
X143684563Y-89047090D01*
X143684558Y-89047079D01*
X143587130Y-88851418D01*
X143587125Y-88851410D01*
X143455395Y-88676972D01*
X143434859Y-88658251D01*
X143293853Y-88529706D01*
X143293850Y-88529704D01*
X143293849Y-88529703D01*
X143108004Y-88414633D01*
X143107998Y-88414630D01*
X142947351Y-88352396D01*
X142904168Y-88335667D01*
X142689297Y-88295500D01*
X142470703Y-88295500D01*
X142255832Y-88335667D01*
X142255829Y-88335667D01*
X142255829Y-88335668D01*
X142052000Y-88414631D01*
X142051993Y-88414635D01*
X141957555Y-88473108D01*
X141890194Y-88491663D01*
X141823495Y-88470855D01*
X141804597Y-88455362D01*
X141439234Y-88089999D01*
X144235447Y-88089999D01*
X144235447Y-88090000D01*
X144255615Y-88307660D01*
X144255616Y-88307662D01*
X144315435Y-88517905D01*
X144315441Y-88517920D01*
X144412869Y-88713581D01*
X144412874Y-88713589D01*
X144516958Y-88851418D01*
X144544605Y-88888028D01*
X144706147Y-89035294D01*
X144706149Y-89035295D01*
X144706150Y-89035296D01*
X144891995Y-89150366D01*
X144892001Y-89150369D01*
X144935182Y-89167097D01*
X145095832Y-89229333D01*
X145310703Y-89269500D01*
X145310705Y-89269500D01*
X145529295Y-89269500D01*
X145529297Y-89269500D01*
X145744168Y-89229333D01*
X145948001Y-89150368D01*
X146133853Y-89035294D01*
X146295395Y-88888028D01*
X146427127Y-88713587D01*
X146524563Y-88517910D01*
X146584384Y-88307661D01*
X146604553Y-88090000D01*
X146584384Y-87872339D01*
X146524563Y-87662090D01*
X146524558Y-87662079D01*
X146427130Y-87466418D01*
X146427125Y-87466410D01*
X146295395Y-87291972D01*
X146257968Y-87257853D01*
X146133853Y-87144706D01*
X146133850Y-87144704D01*
X146133849Y-87144703D01*
X145948004Y-87029633D01*
X145947998Y-87029630D01*
X145787351Y-86967396D01*
X145744168Y-86950667D01*
X145529297Y-86910500D01*
X145310703Y-86910500D01*
X145095832Y-86950667D01*
X145095829Y-86950667D01*
X145095829Y-86950668D01*
X144892001Y-87029630D01*
X144891995Y-87029633D01*
X144706150Y-87144703D01*
X144544604Y-87291972D01*
X144412874Y-87466410D01*
X144412869Y-87466418D01*
X144315441Y-87662079D01*
X144315435Y-87662094D01*
X144255616Y-87872337D01*
X144255615Y-87872339D01*
X144235447Y-88089999D01*
X141439234Y-88089999D01*
X140987590Y-87638355D01*
X140987588Y-87638352D01*
X140868717Y-87519481D01*
X140868716Y-87519480D01*
X140781904Y-87469360D01*
X140781904Y-87469359D01*
X140781900Y-87469358D01*
X140731785Y-87440423D01*
X140579057Y-87399499D01*
X140420943Y-87399499D01*
X140413347Y-87399499D01*
X140413331Y-87399500D01*
X129315384Y-87399500D01*
X129248345Y-87379815D01*
X129202590Y-87327011D01*
X129192646Y-87257853D01*
X129221671Y-87194297D01*
X129239222Y-87177647D01*
X129296687Y-87132920D01*
X129352754Y-87089281D01*
X129518368Y-86909377D01*
X129652111Y-86704667D01*
X129750336Y-86480736D01*
X129810364Y-86243692D01*
X129810365Y-86243683D01*
X129830557Y-86000005D01*
X129830557Y-85999994D01*
X129810365Y-85756316D01*
X129810363Y-85756304D01*
X129757686Y-85548290D01*
X129750336Y-85519264D01*
X129652111Y-85295333D01*
X129650145Y-85292324D01*
X129649719Y-85290912D01*
X129649671Y-85290823D01*
X129649689Y-85290813D01*
X129629956Y-85225437D01*
X129649133Y-85158251D01*
X129701590Y-85112098D01*
X129753952Y-85100500D01*
X140074903Y-85100500D01*
X140141942Y-85120185D01*
X140162584Y-85136819D01*
X141385682Y-86359917D01*
X141419167Y-86421240D01*
X141417268Y-86481528D01*
X141415617Y-86487330D01*
X141415616Y-86487334D01*
X141395447Y-86704999D01*
X141395447Y-86705000D01*
X141415615Y-86922660D01*
X141415616Y-86922662D01*
X141475435Y-87132905D01*
X141475441Y-87132920D01*
X141572869Y-87328581D01*
X141572874Y-87328589D01*
X141704604Y-87503027D01*
X141704605Y-87503028D01*
X141866147Y-87650294D01*
X141866149Y-87650295D01*
X141866150Y-87650296D01*
X142051995Y-87765366D01*
X142052001Y-87765369D01*
X142095182Y-87782097D01*
X142255832Y-87844333D01*
X142470703Y-87884500D01*
X142470705Y-87884500D01*
X142689295Y-87884500D01*
X142689297Y-87884500D01*
X142904168Y-87844333D01*
X143108001Y-87765368D01*
X143293853Y-87650294D01*
X143455395Y-87503028D01*
X143587127Y-87328587D01*
X143684563Y-87132910D01*
X143744384Y-86922661D01*
X143764553Y-86705000D01*
X143744384Y-86487339D01*
X143684563Y-86277090D01*
X143667939Y-86243704D01*
X143587130Y-86081418D01*
X143587125Y-86081410D01*
X143455395Y-85906972D01*
X143293853Y-85759706D01*
X143293850Y-85759704D01*
X143293849Y-85759703D01*
X143108004Y-85644633D01*
X143107998Y-85644630D01*
X142947351Y-85582396D01*
X142904168Y-85565667D01*
X142689297Y-85525500D01*
X142470703Y-85525500D01*
X142454484Y-85528531D01*
X142348782Y-85548290D01*
X142279267Y-85541258D01*
X142238317Y-85514082D01*
X141317370Y-84593135D01*
X144240500Y-84593135D01*
X144240500Y-86046870D01*
X144240501Y-86046876D01*
X144246908Y-86106483D01*
X144297202Y-86241328D01*
X144297206Y-86241335D01*
X144383452Y-86356544D01*
X144383455Y-86356547D01*
X144498664Y-86442793D01*
X144498671Y-86442797D01*
X144633517Y-86493091D01*
X144633516Y-86493091D01*
X144640444Y-86493835D01*
X144693127Y-86499500D01*
X146146872Y-86499499D01*
X146206483Y-86493091D01*
X146341331Y-86442796D01*
X146456546Y-86356546D01*
X146542796Y-86241331D01*
X146593091Y-86106483D01*
X146599500Y-86046873D01*
X146599499Y-84593128D01*
X146593091Y-84533517D01*
X146542796Y-84398669D01*
X146542795Y-84398668D01*
X146542793Y-84398664D01*
X146456547Y-84283455D01*
X146456544Y-84283452D01*
X146341335Y-84197206D01*
X146341328Y-84197202D01*
X146206482Y-84146908D01*
X146206483Y-84146908D01*
X146146883Y-84140501D01*
X146146881Y-84140500D01*
X146146873Y-84140500D01*
X146146864Y-84140500D01*
X144693129Y-84140500D01*
X144693123Y-84140501D01*
X144633516Y-84146908D01*
X144498671Y-84197202D01*
X144498664Y-84197206D01*
X144383455Y-84283452D01*
X144383452Y-84283455D01*
X144297206Y-84398664D01*
X144297202Y-84398671D01*
X144246908Y-84533517D01*
X144243551Y-84564748D01*
X144240501Y-84593123D01*
X144240500Y-84593135D01*
X141317370Y-84593135D01*
X140862590Y-84138355D01*
X140862588Y-84138352D01*
X140743717Y-84019481D01*
X140743716Y-84019480D01*
X140656904Y-83969360D01*
X140656904Y-83969359D01*
X140656900Y-83969358D01*
X140606785Y-83940423D01*
X140454057Y-83899499D01*
X140295943Y-83899499D01*
X140288347Y-83899499D01*
X140288331Y-83899500D01*
X129315384Y-83899500D01*
X129248345Y-83879815D01*
X129202590Y-83827011D01*
X129192646Y-83757853D01*
X129221671Y-83694297D01*
X129239222Y-83677647D01*
X129272194Y-83651983D01*
X129352754Y-83589281D01*
X129518368Y-83409377D01*
X129652111Y-83204667D01*
X129750336Y-82980736D01*
X129810364Y-82743692D01*
X129830557Y-82500000D01*
X129810364Y-82256308D01*
X129750336Y-82019264D01*
X129652111Y-81795333D01*
X129518368Y-81590623D01*
X129518367Y-81590621D01*
X129352757Y-81410722D01*
X129352747Y-81410713D01*
X129159791Y-81260529D01*
X129159787Y-81260526D01*
X128944734Y-81144145D01*
X128944729Y-81144143D01*
X128713458Y-81064748D01*
X128532561Y-81034562D01*
X128472263Y-81024500D01*
X128227737Y-81024500D01*
X128179498Y-81032549D01*
X127986541Y-81064748D01*
X127755270Y-81144143D01*
X127755265Y-81144145D01*
X127540212Y-81260526D01*
X127540208Y-81260529D01*
X127347252Y-81410713D01*
X127347242Y-81410722D01*
X127181632Y-81590621D01*
X127047888Y-81795333D01*
X126949663Y-82019265D01*
X126889636Y-82256304D01*
X126889634Y-82256316D01*
X126869443Y-82499994D01*
X126869443Y-82500005D01*
X126889634Y-82743683D01*
X126889636Y-82743695D01*
X126949663Y-82980734D01*
X127047888Y-83204666D01*
X127181632Y-83409378D01*
X127347242Y-83589277D01*
X127347252Y-83589286D01*
X127460778Y-83677647D01*
X127501591Y-83734357D01*
X127505266Y-83804130D01*
X127470634Y-83864813D01*
X127408693Y-83897140D01*
X127384616Y-83899500D01*
X121300097Y-83899500D01*
X121233058Y-83879815D01*
X121212416Y-83863181D01*
X120435938Y-83086703D01*
X120402453Y-83025380D01*
X120403414Y-82968581D01*
X120460361Y-82743704D01*
X120460363Y-82743695D01*
X120460364Y-82743692D01*
X120480557Y-82500000D01*
X120460364Y-82256308D01*
X120400336Y-82019264D01*
X120302111Y-81795333D01*
X120168368Y-81590623D01*
X120168367Y-81590621D01*
X120002757Y-81410722D01*
X120002747Y-81410713D01*
X119809791Y-81260529D01*
X119809787Y-81260526D01*
X119594734Y-81144145D01*
X119594729Y-81144143D01*
X119363458Y-81064748D01*
X119182561Y-81034562D01*
X119122263Y-81024500D01*
X118877737Y-81024500D01*
X118829498Y-81032549D01*
X118636541Y-81064748D01*
X118405270Y-81144143D01*
X118405265Y-81144145D01*
X118190212Y-81260526D01*
X118190208Y-81260529D01*
X117997252Y-81410713D01*
X117997242Y-81410722D01*
X117831632Y-81590621D01*
X117697888Y-81795333D01*
X117599663Y-82019265D01*
X117539636Y-82256304D01*
X117539634Y-82256316D01*
X117519443Y-82499994D01*
X112551271Y-82499994D01*
X112553846Y-78999994D01*
X117519443Y-78999994D01*
X117519443Y-79000005D01*
X117539634Y-79243683D01*
X117539636Y-79243695D01*
X117599663Y-79480734D01*
X117697888Y-79704666D01*
X117831632Y-79909378D01*
X117997242Y-80089277D01*
X117997252Y-80089286D01*
X118190208Y-80239470D01*
X118190212Y-80239473D01*
X118405267Y-80355855D01*
X118405270Y-80355856D01*
X118636541Y-80435251D01*
X118636543Y-80435251D01*
X118636545Y-80435252D01*
X118877737Y-80475500D01*
X118877738Y-80475500D01*
X119122262Y-80475500D01*
X119122263Y-80475500D01*
X119363455Y-80435252D01*
X119594733Y-80355855D01*
X119809788Y-80239473D01*
X120002754Y-80089281D01*
X120168368Y-79909377D01*
X120302111Y-79704667D01*
X120400336Y-79480736D01*
X120460364Y-79243692D01*
X120470193Y-79125077D01*
X120480557Y-79000005D01*
X120480557Y-78999994D01*
X126869443Y-78999994D01*
X126869443Y-79000005D01*
X126889634Y-79243683D01*
X126889636Y-79243695D01*
X126949663Y-79480734D01*
X127047888Y-79704666D01*
X127181632Y-79909378D01*
X127347242Y-80089277D01*
X127347252Y-80089286D01*
X127540208Y-80239470D01*
X127540212Y-80239473D01*
X127755267Y-80355855D01*
X127755270Y-80355856D01*
X127986541Y-80435251D01*
X127986543Y-80435251D01*
X127986545Y-80435252D01*
X128227737Y-80475500D01*
X128227738Y-80475500D01*
X128472262Y-80475500D01*
X128472263Y-80475500D01*
X128713455Y-80435252D01*
X128944733Y-80355855D01*
X129159788Y-80239473D01*
X129352754Y-80089281D01*
X129518368Y-79909377D01*
X129652111Y-79704667D01*
X129750336Y-79480736D01*
X129810364Y-79243692D01*
X129820193Y-79125077D01*
X129830557Y-79000005D01*
X129830557Y-78999994D01*
X129810365Y-78756316D01*
X129810363Y-78756304D01*
X129750336Y-78519265D01*
X129741883Y-78499994D01*
X141486540Y-78499994D01*
X141486540Y-78500005D01*
X141506357Y-78815012D01*
X141506359Y-78815020D01*
X141565505Y-79125072D01*
X141565507Y-79125077D01*
X141663044Y-79425267D01*
X141663046Y-79425272D01*
X141797436Y-79710865D01*
X141797442Y-79710876D01*
X141966561Y-79977365D01*
X141966563Y-79977368D01*
X141966568Y-79977375D01*
X142167767Y-80220582D01*
X142167772Y-80220588D01*
X142397858Y-80436652D01*
X142397868Y-80436660D01*
X142653209Y-80622176D01*
X142653214Y-80622178D01*
X142653221Y-80622184D01*
X142929821Y-80774247D01*
X142929826Y-80774249D01*
X142929828Y-80774250D01*
X142929829Y-80774251D01*
X143223294Y-80890442D01*
X143223297Y-80890443D01*
X143529021Y-80968939D01*
X143529025Y-80968940D01*
X143594717Y-80977238D01*
X143842167Y-81008499D01*
X143842176Y-81008499D01*
X143842179Y-81008500D01*
X143842181Y-81008500D01*
X144157819Y-81008500D01*
X144157821Y-81008500D01*
X144157824Y-81008499D01*
X144157832Y-81008499D01*
X144344692Y-80984892D01*
X144470975Y-80968940D01*
X144776702Y-80890443D01*
X144776705Y-80890442D01*
X145070170Y-80774251D01*
X145070171Y-80774250D01*
X145070169Y-80774250D01*
X145070179Y-80774247D01*
X145346779Y-80622184D01*
X145602140Y-80436654D01*
X145812116Y-80239473D01*
X145832227Y-80220588D01*
X145832228Y-80220586D01*
X145832233Y-80220582D01*
X146033432Y-79977375D01*
X146202562Y-79710869D01*
X146336956Y-79425266D01*
X146434495Y-79125072D01*
X146493641Y-78815020D01*
X146497335Y-78756316D01*
X146513460Y-78500005D01*
X146513460Y-78499994D01*
X146493642Y-78184987D01*
X146475641Y-78090623D01*
X146434495Y-77874928D01*
X146336956Y-77574734D01*
X146202562Y-77289131D01*
X146033432Y-77022625D01*
X145832233Y-76779418D01*
X145832232Y-76779417D01*
X145832227Y-76779411D01*
X145602141Y-76563347D01*
X145602131Y-76563339D01*
X145346790Y-76377823D01*
X145346783Y-76377818D01*
X145346779Y-76377816D01*
X145070179Y-76225753D01*
X145070176Y-76225751D01*
X145070171Y-76225749D01*
X145070170Y-76225748D01*
X144776705Y-76109557D01*
X144776702Y-76109556D01*
X144470978Y-76031060D01*
X144470965Y-76031058D01*
X144157832Y-75991500D01*
X144157821Y-75991500D01*
X143842179Y-75991500D01*
X143842167Y-75991500D01*
X143529034Y-76031058D01*
X143529021Y-76031060D01*
X143223297Y-76109556D01*
X143223294Y-76109557D01*
X142929829Y-76225748D01*
X142929828Y-76225749D01*
X142653221Y-76377816D01*
X142653209Y-76377823D01*
X142397868Y-76563339D01*
X142397858Y-76563347D01*
X142167772Y-76779411D01*
X142052466Y-76918793D01*
X142005554Y-76975500D01*
X141966561Y-77022634D01*
X141797442Y-77289123D01*
X141797436Y-77289134D01*
X141663046Y-77574727D01*
X141663044Y-77574732D01*
X141572537Y-77853283D01*
X141565505Y-77874928D01*
X141532220Y-78049409D01*
X141506357Y-78184987D01*
X141486540Y-78499994D01*
X129741883Y-78499994D01*
X129652111Y-78295333D01*
X129518367Y-78090621D01*
X129352757Y-77910722D01*
X129352747Y-77910713D01*
X129159791Y-77760529D01*
X129159787Y-77760526D01*
X128944734Y-77644145D01*
X128944729Y-77644143D01*
X128713458Y-77564748D01*
X128532561Y-77534562D01*
X128472263Y-77524500D01*
X128227737Y-77524500D01*
X128179498Y-77532549D01*
X127986541Y-77564748D01*
X127755270Y-77644143D01*
X127755265Y-77644145D01*
X127540212Y-77760526D01*
X127540208Y-77760529D01*
X127347252Y-77910713D01*
X127347242Y-77910722D01*
X127181632Y-78090621D01*
X127047888Y-78295333D01*
X126949663Y-78519265D01*
X126889636Y-78756304D01*
X126889634Y-78756316D01*
X126869443Y-78999994D01*
X120480557Y-78999994D01*
X120460365Y-78756316D01*
X120460363Y-78756304D01*
X120400336Y-78519265D01*
X120302111Y-78295333D01*
X120168367Y-78090621D01*
X120002757Y-77910722D01*
X120002747Y-77910713D01*
X119809791Y-77760529D01*
X119809787Y-77760526D01*
X119594734Y-77644145D01*
X119594729Y-77644143D01*
X119363458Y-77564748D01*
X119182561Y-77534562D01*
X119122263Y-77524500D01*
X118877737Y-77524500D01*
X118829498Y-77532549D01*
X118636541Y-77564748D01*
X118405270Y-77644143D01*
X118405265Y-77644145D01*
X118190212Y-77760526D01*
X118190208Y-77760529D01*
X117997252Y-77910713D01*
X117997242Y-77910722D01*
X117831632Y-78090621D01*
X117697888Y-78295333D01*
X117599663Y-78519265D01*
X117539636Y-78756304D01*
X117539634Y-78756316D01*
X117519443Y-78999994D01*
X112553846Y-78999994D01*
X112557174Y-74477135D01*
X117524500Y-74477135D01*
X117524500Y-76522870D01*
X117524501Y-76522876D01*
X117530908Y-76582483D01*
X117581202Y-76717328D01*
X117581206Y-76717335D01*
X117667452Y-76832544D01*
X117667455Y-76832547D01*
X117782664Y-76918793D01*
X117782671Y-76918797D01*
X117917517Y-76969091D01*
X117917516Y-76969091D01*
X117924444Y-76969835D01*
X117977127Y-76975500D01*
X120022872Y-76975499D01*
X120082483Y-76969091D01*
X120217331Y-76918796D01*
X120332546Y-76832546D01*
X120418796Y-76717331D01*
X120469091Y-76582483D01*
X120475500Y-76522873D01*
X120475499Y-75499994D01*
X126869443Y-75499994D01*
X126869443Y-75500005D01*
X126889634Y-75743683D01*
X126889636Y-75743695D01*
X126949663Y-75980734D01*
X127047888Y-76204666D01*
X127181632Y-76409378D01*
X127347242Y-76589277D01*
X127347252Y-76589286D01*
X127540208Y-76739470D01*
X127540212Y-76739473D01*
X127712197Y-76832547D01*
X127755267Y-76855855D01*
X127755270Y-76855856D01*
X127986541Y-76935251D01*
X127986543Y-76935251D01*
X127986545Y-76935252D01*
X128227737Y-76975500D01*
X128227738Y-76975500D01*
X128472262Y-76975500D01*
X128472263Y-76975500D01*
X128713455Y-76935252D01*
X128944733Y-76855855D01*
X129159788Y-76739473D01*
X129352754Y-76589281D01*
X129518368Y-76409377D01*
X129652111Y-76204667D01*
X129750336Y-75980736D01*
X129810364Y-75743692D01*
X129830557Y-75500000D01*
X129810364Y-75256308D01*
X129750336Y-75019264D01*
X129652111Y-74795333D01*
X129518368Y-74590623D01*
X129518367Y-74590621D01*
X129352757Y-74410722D01*
X129352747Y-74410713D01*
X129159791Y-74260529D01*
X129159787Y-74260526D01*
X128944734Y-74144145D01*
X128944729Y-74144143D01*
X128713458Y-74064748D01*
X128510664Y-74030908D01*
X128472263Y-74024500D01*
X128227737Y-74024500D01*
X128189336Y-74030908D01*
X127986541Y-74064748D01*
X127755270Y-74144143D01*
X127755265Y-74144145D01*
X127540212Y-74260526D01*
X127540208Y-74260529D01*
X127347252Y-74410713D01*
X127347242Y-74410722D01*
X127181632Y-74590621D01*
X127047888Y-74795333D01*
X126949663Y-75019265D01*
X126889636Y-75256304D01*
X126889634Y-75256316D01*
X126869443Y-75499994D01*
X120475499Y-75499994D01*
X120475499Y-74477128D01*
X120469091Y-74417517D01*
X120466553Y-74410713D01*
X120418797Y-74282671D01*
X120418793Y-74282664D01*
X120332547Y-74167455D01*
X120332544Y-74167452D01*
X120217335Y-74081206D01*
X120217328Y-74081202D01*
X120082482Y-74030908D01*
X120082483Y-74030908D01*
X120022883Y-74024501D01*
X120022881Y-74024500D01*
X120022873Y-74024500D01*
X120022864Y-74024500D01*
X117977129Y-74024500D01*
X117977123Y-74024501D01*
X117917516Y-74030908D01*
X117782671Y-74081202D01*
X117782664Y-74081206D01*
X117667455Y-74167452D01*
X117667452Y-74167455D01*
X117581206Y-74282664D01*
X117581202Y-74282671D01*
X117530908Y-74417517D01*
X117524501Y-74477116D01*
X117524501Y-74477123D01*
X117524500Y-74477135D01*
X112557174Y-74477135D01*
X112559732Y-70999998D01*
X113494390Y-70999998D01*
X113494390Y-71000001D01*
X113514804Y-71285433D01*
X113575628Y-71565037D01*
X113675635Y-71833166D01*
X113812770Y-72084309D01*
X113812775Y-72084317D01*
X113984254Y-72313387D01*
X113984270Y-72313405D01*
X114186594Y-72515729D01*
X114186612Y-72515745D01*
X114415682Y-72687224D01*
X114415690Y-72687229D01*
X114666833Y-72824364D01*
X114666832Y-72824364D01*
X114666836Y-72824365D01*
X114666839Y-72824367D01*
X114934954Y-72924369D01*
X114934960Y-72924370D01*
X114934962Y-72924371D01*
X115214566Y-72985195D01*
X115214568Y-72985195D01*
X115214572Y-72985196D01*
X115468220Y-73003337D01*
X115499999Y-73005610D01*
X115500000Y-73005610D01*
X115500001Y-73005610D01*
X115528595Y-73003564D01*
X115785428Y-72985196D01*
X116065046Y-72924369D01*
X116333161Y-72824367D01*
X116584315Y-72687226D01*
X116813395Y-72515739D01*
X117015739Y-72313395D01*
X117187226Y-72084315D01*
X117324367Y-71833161D01*
X117424369Y-71565046D01*
X117485196Y-71285428D01*
X117505610Y-71000000D01*
X117505610Y-70999998D01*
X148994390Y-70999998D01*
X148994390Y-71000001D01*
X149014804Y-71285433D01*
X149075628Y-71565037D01*
X149175635Y-71833166D01*
X149312770Y-72084309D01*
X149312775Y-72084317D01*
X149484254Y-72313387D01*
X149484270Y-72313405D01*
X149686594Y-72515729D01*
X149686612Y-72515745D01*
X149915682Y-72687224D01*
X149915690Y-72687229D01*
X150166833Y-72824364D01*
X150166832Y-72824364D01*
X150166836Y-72824365D01*
X150166839Y-72824367D01*
X150434954Y-72924369D01*
X150434960Y-72924370D01*
X150434962Y-72924371D01*
X150714566Y-72985195D01*
X150714568Y-72985195D01*
X150714572Y-72985196D01*
X150968220Y-73003337D01*
X150999999Y-73005610D01*
X151000000Y-73005610D01*
X151000001Y-73005610D01*
X151028595Y-73003564D01*
X151285428Y-72985196D01*
X151565046Y-72924369D01*
X151833161Y-72824367D01*
X152084315Y-72687226D01*
X152313395Y-72515739D01*
X152515739Y-72313395D01*
X152687226Y-72084315D01*
X152824367Y-71833161D01*
X152924369Y-71565046D01*
X152985196Y-71285428D01*
X153005610Y-71000000D01*
X152985196Y-70714572D01*
X152924369Y-70434954D01*
X152824367Y-70166839D01*
X152744025Y-70019705D01*
X152687229Y-69915690D01*
X152687224Y-69915682D01*
X152515745Y-69686612D01*
X152515729Y-69686594D01*
X152313405Y-69484270D01*
X152313387Y-69484254D01*
X152084317Y-69312775D01*
X152084309Y-69312770D01*
X151833166Y-69175635D01*
X151833167Y-69175635D01*
X151701535Y-69126539D01*
X151565046Y-69075631D01*
X151565043Y-69075630D01*
X151565037Y-69075628D01*
X151285433Y-69014804D01*
X151000001Y-68994390D01*
X150999999Y-68994390D01*
X150714566Y-69014804D01*
X150434962Y-69075628D01*
X150166833Y-69175635D01*
X149915690Y-69312770D01*
X149915682Y-69312775D01*
X149686612Y-69484254D01*
X149686594Y-69484270D01*
X149484270Y-69686594D01*
X149484254Y-69686612D01*
X149312775Y-69915682D01*
X149312770Y-69915690D01*
X149175635Y-70166833D01*
X149075628Y-70434962D01*
X149014804Y-70714566D01*
X148994390Y-70999998D01*
X117505610Y-70999998D01*
X117485196Y-70714572D01*
X117424369Y-70434954D01*
X117324367Y-70166839D01*
X117244025Y-70019705D01*
X117187229Y-69915690D01*
X117187224Y-69915682D01*
X117015745Y-69686612D01*
X117015729Y-69686594D01*
X116813405Y-69484270D01*
X116813387Y-69484254D01*
X116584317Y-69312775D01*
X116584309Y-69312770D01*
X116333166Y-69175635D01*
X116333167Y-69175635D01*
X116201535Y-69126539D01*
X116065046Y-69075631D01*
X116065043Y-69075630D01*
X116065037Y-69075628D01*
X115785433Y-69014804D01*
X115500001Y-68994390D01*
X115499999Y-68994390D01*
X115214566Y-69014804D01*
X114934962Y-69075628D01*
X114666833Y-69175635D01*
X114415690Y-69312770D01*
X114415682Y-69312775D01*
X114186612Y-69484254D01*
X114186594Y-69484270D01*
X113984270Y-69686594D01*
X113984254Y-69686612D01*
X113812775Y-69915682D01*
X113812770Y-69915690D01*
X113675635Y-70166833D01*
X113575628Y-70434962D01*
X113514804Y-70714566D01*
X113494390Y-70999998D01*
X112559732Y-70999998D01*
X112561104Y-69135053D01*
X112561158Y-69134267D01*
X112561158Y-69119362D01*
X112561159Y-69066069D01*
X112561630Y-69055301D01*
X112575404Y-68897909D01*
X112579155Y-68876636D01*
X112618637Y-68729298D01*
X112626029Y-68708992D01*
X112674461Y-68605131D01*
X112687630Y-68583158D01*
X112855068Y-68359907D01*
X112866573Y-68346642D01*
X112910539Y-68302676D01*
X112927082Y-68288794D01*
X113052043Y-68201293D01*
X113070747Y-68190495D01*
X113208995Y-68126028D01*
X113229299Y-68118637D01*
X113376636Y-68079155D01*
X113397911Y-68075403D01*
X113555280Y-68061632D01*
X113566090Y-68061160D01*
X152933910Y-68061160D01*
X152944720Y-68061632D01*
G37*
%TD.AperFunction*%
%TD*%
M02*
