<?xml version="1.0" encoding="utf-8"?>
<!-- Generator: Fusion 360, Shaper Origin Export Add-In, Version 1.7.0  -->
<svg xmlns="http://www.w3.org/2000/svg" xmlns:xlink="http://www.w3.org/1999/xlink" xmlns:shaper="http://www.shapertools.com/namespaces/shaper" shaper:fusionaddin="version:1.7.0" width="5.15cm" height="4.2cm" version="1.1" x="0cm" y="0cm" viewBox="0 0 5.15 4.2" enable-background="new 0 0 5.15 4.2" xml:space="preserve"><path d="M1.1,-1.45 A2.828125,2.828125 210.8443226 0,0 1.1,1.45 L1.1,1.9 A0.2,0.2 0 0,1 0.9,2.1 L-1.95,2.1 A2.1,2.1 90 0,1 -1.95,-2.1 L0.9,-2.1 A0.2,0.2 270 0,1 1.1,-1.9 L1.1,-1.45z" transform="matrix(1,0,0,-1,4.05,2.1)" fill="rgb(0,0,0)" shaper:cutDepth="0.3cm" stroke-linecap="round" stroke-linejoin="round" /><path d="M-2.8,0 a0.85,0.85 0 1,1 1.7,0 a0.85,0.85 0 1,1 -1.7,0z" transform="matrix(1,0,0,-1,4.05,2.1)" fill="rgb(255,255,255)" stroke="rgb(0,0,0)" stroke-width="0.0010cm" stroke-linecap="round" stroke-linejoin="round" shaper:cutDepth="0.3cm" /><path d="M-2.15,1.45 a0.2,0.2 0 1,1 0.4,0 a0.2,0.2 0 1,1 -0.4,0z" transform="matrix(1,0,0,-1,4.05,2.1)" fill="rgb(255,255,255)" stroke="rgb(0,0,0)" stroke-width="0.0010cm" stroke-linecap="round" stroke-linejoin="round" shaper:cutDepth="0.3cm" /><path d="M-2.15,-1.45 a0.2,0.2 0 1,1 0.4,0 a0.2,0.2 0 1,1 -0.4,0z" transform="matrix(1,0,0,-1,4.05,2.1)" fill="rgb(255,255,255)" stroke="rgb(0,0,0)" stroke-width="0.0010cm" stroke-linecap="round" stroke-linejoin="round" shaper:cutDepth="0.3cm" /><path d="M0.525,1.55 L0.225,1.55 0.225,1.85 0.525,1.85 0.525,1.55z" transform="matrix(1,0,0,-1,4.05,2.1)" fill="rgb(255,255,255)" stroke="rgb(0,0,0)" stroke-width="0.0010cm" stroke-linecap="round" stroke-linejoin="round" shaper:cutDepth="0.3cm" /><path d="M0.525,-1.85 L0.225,-1.85 0.225,-1.55 0.525,-1.55 0.525,-1.85z" transform="matrix(1,0,0,-1,4.05,2.1)" fill="rgb(255,255,255)" stroke="rgb(0,0,0)" stroke-width="0.0010cm" stroke-linecap="round" stroke-linejoin="round" shaper:cutDepth="0.3cm" /><path d="M0.525,0.7 L0.225,0.7 0.225,1 0.525,1 0.525,0.7z" transform="matrix(1,0,0,-1,4.05,2.1)" fill="rgb(255,255,255)" stroke="rgb(0,0,0)" stroke-width="0.0010cm" stroke-linecap="round" stroke-linejoin="round" shaper:cutDepth="0.3cm" /><path d="M0.525,-1 L0.225,-1 0.225,-0.7 0.525,-0.7 0.525,-1z" transform="matrix(1,0,0,-1,4.05,2.1)" fill="rgb(255,255,255)" stroke="rgb(0,0,0)" stroke-width="0.0010cm" stroke-linecap="round" stroke-linejoin="round" shaper:cutDepth="0.3cm" /><path d="M0.525,-0.15 L0.225,-0.15 0.225,0.15 0.525,0.15 0.525,-0.15z" transform="matrix(1,0,0,-1,4.05,2.1)" fill="rgb(255,255,255)" stroke="rgb(0,0,0)" stroke-width="0.0010cm" stroke-linecap="round" stroke-linejoin="round" shaper:cutDepth="0.3cm" /></svg>