<?xml version="1.0" encoding="utf-8"?>
<!-- Generator: Fusion 360, Shaper Origin Export Add-In, Version 1.7.0  -->
<svg xmlns="http://www.w3.org/2000/svg" xmlns:xlink="http://www.w3.org/1999/xlink" xmlns:shaper="http://www.shapertools.com/namespaces/shaper" shaper:fusionaddin="version:1.7.0" width="3.05cm" height="4.2cm" version="1.1" x="0cm" y="0cm" viewBox="0 0 3.05 4.2" enable-background="new 0 0 3.05 4.2" xml:space="preserve"><path d="M1.525,1.9 A0.2,0.2 0 0,1 1.325,2.1 L-1.325,2.1 A0.2,0.2 90 0,1 -1.525,1.9 L-1.525,1.45 A1.45,1.45 90 0,0 -1.525,-1.45 L-1.525,-1.9 A0.2,0.2 180 0,1 -1.325,-2.1 L1.325,-2.1 A0.2,0.2 270 0,1 1.525,-1.9 L1.525,-1.45 A2.828125,2.828125 210.8443226 0,0 1.525,1.45 L1.525,1.9z" transform="matrix(1,0,0,-1,1.525,2.1)" fill="rgb(0,0,0)" shaper:cutDepth="0.3cm" stroke-linecap="round" stroke-linejoin="round" /><path d="M0.95,1.55 L0.65,1.55 0.65,1.85 0.95,1.85 0.95,1.55z" transform="matrix(1,0,0,-1,1.525,2.1)" fill="rgb(255,255,255)" stroke="rgb(0,0,0)" stroke-width="0.0010cm" stroke-linecap="round" stroke-linejoin="round" shaper:cutDepth="0.3cm" /><path d="M0.95,-1.85 L0.65,-1.85 0.65,-1.55 0.95,-1.55 0.95,-1.85z" transform="matrix(1,0,0,-1,1.525,2.1)" fill="rgb(255,255,255)" stroke="rgb(0,0,0)" stroke-width="0.0010cm" stroke-linecap="round" stroke-linejoin="round" shaper:cutDepth="0.3cm" /><path d="M0.95,0.7 L0.65,0.7 0.65,1 0.95,1 0.95,0.7z" transform="matrix(1,0,0,-1,1.525,2.1)" fill="rgb(255,255,255)" stroke="rgb(0,0,0)" stroke-width="0.0010cm" stroke-linecap="round" stroke-linejoin="round" shaper:cutDepth="0.3cm" /><path d="M0.95,-1 L0.65,-1 0.65,-0.7 0.95,-0.7 0.95,-1z" transform="matrix(1,0,0,-1,1.525,2.1)" fill="rgb(255,255,255)" stroke="rgb(0,0,0)" stroke-width="0.0010cm" stroke-linecap="round" stroke-linejoin="round" shaper:cutDepth="0.3cm" /><path d="M0.95,-0.15 L0.65,-0.15 0.65,0.15 0.95,0.15 0.95,-0.15z" transform="matrix(1,0,0,-1,1.525,2.1)" fill="rgb(255,255,255)" stroke="rgb(0,0,0)" stroke-width="0.0010cm" stroke-linecap="round" stroke-linejoin="round" shaper:cutDepth="0.3cm" /></svg>