<?xml version="1.0" encoding="utf-8"?>
<!-- Generator: Fusion 360, Shaper Origin Export Add-In, Version 1.7.0  -->
<svg xmlns="http://www.w3.org/2000/svg" xmlns:xlink="http://www.w3.org/1999/xlink" xmlns:shaper="http://www.shapertools.com/namespaces/shaper" shaper:fusionaddin="version:1.7.0" width="2.2334849cm" height="4.2cm" version="1.1" x="0cm" y="0cm" viewBox="0 0 2.2334849 4.2" enable-background="new 0 0 2.2334849 4.2" xml:space="preserve"><path d="M0.9125,1.9 A0.2,0.2 0 0,1 0.7125,2.1 L-1.2209849,2.1 A0.1,0.1 90 0,1 -1.2626446,1.9090909 A2.1,2.1 65.3800227 0,0 -1.2626446,-1.9090909 A0.1,0.1 114.6199773 0,1 -1.2209849,-2.1 L0.7125,-2.1 A0.2,0.2 270 0,1 0.9125,-1.9 L0.9125,-1.45 A2.828125,2.828125 210.8443226 0,0 0.9125,1.45 L0.9125,1.9z" transform="matrix(1,0,0,-1,1.3209849,2.1)" fill="rgb(0,0,0)" shaper:cutDepth="0.3cm" stroke-linecap="round" stroke-linejoin="round" /><path d="M0.3375,1.55 L0.0375,1.55 0.0375,1.85 0.3375,1.85 0.3375,1.55z" transform="matrix(1,0,0,-1,1.3209849,2.1)" fill="rgb(255,255,255)" stroke="rgb(0,0,0)" stroke-width="0.0010cm" stroke-linecap="round" stroke-linejoin="round" shaper:cutDepth="0.3cm" /><path d="M0.3375,-1.85 L0.0375,-1.85 0.0375,-1.55 0.3375,-1.55 0.3375,-1.85z" transform="matrix(1,0,0,-1,1.3209849,2.1)" fill="rgb(255,255,255)" stroke="rgb(0,0,0)" stroke-width="0.0010cm" stroke-linecap="round" stroke-linejoin="round" shaper:cutDepth="0.3cm" /><path d="M0.3375,0.7 L0.0375,0.7 0.0375,1 0.3375,1 0.3375,0.7z" transform="matrix(1,0,0,-1,1.3209849,2.1)" fill="rgb(255,255,255)" stroke="rgb(0,0,0)" stroke-width="0.0010cm" stroke-linecap="round" stroke-linejoin="round" shaper:cutDepth="0.3cm" /><path d="M0.3375,-1 L0.0375,-1 0.0375,-0.7 0.3375,-0.7 0.3375,-1z" transform="matrix(1,0,0,-1,1.3209849,2.1)" fill="rgb(255,255,255)" stroke="rgb(0,0,0)" stroke-width="0.0010cm" stroke-linecap="round" stroke-linejoin="round" shaper:cutDepth="0.3cm" /><path d="M0.3375,-0.15 L0.0375,-0.15 0.0375,0.15 0.3375,0.15 0.3375,-0.15z" transform="matrix(1,0,0,-1,1.3209849,2.1)" fill="rgb(255,255,255)" stroke="rgb(0,0,0)" stroke-width="0.0010cm" stroke-linecap="round" stroke-linejoin="round" shaper:cutDepth="0.3cm" /></svg>