%TF.GenerationSoftware,KiCad,Pcbnew,9.0.2*%
%TF.CreationDate,2025-07-02T07:21:28-06:00*%
%TF.ProjectId,Pico_H-bridge_complete,5069636f-5f48-42d6-9272-696467655f63,rev?*%
%TF.SameCoordinates,Original*%
%TF.FileFunction,Soldermask,Bot*%
%TF.FilePolarity,Negative*%
%FSLAX46Y46*%
G04 Gerber Fmt 4.6, Leading zero omitted, Abs format (unit mm)*
G04 Created by KiCad (PCBNEW 9.0.2) date 2025-07-02 07:21:28*
%MOMM*%
%LPD*%
G01*
G04 APERTURE LIST*
G04 Aperture macros list*
%AMRoundRect*
0 Rectangle with rounded corners*
0 $1 Rounding radius*
0 $2 $3 $4 $5 $6 $7 $8 $9 X,Y pos of 4 corners*
0 Add a 4 corners polygon primitive as box body*
4,1,4,$2,$3,$4,$5,$6,$7,$8,$9,$2,$3,0*
0 Add four circle primitives for the rounded corners*
1,1,$1+$1,$2,$3*
1,1,$1+$1,$4,$5*
1,1,$1+$1,$6,$7*
1,1,$1+$1,$8,$9*
0 Add four rect primitives between the rounded corners*
20,1,$1+$1,$2,$3,$4,$5,0*
20,1,$1+$1,$4,$5,$6,$7,0*
20,1,$1+$1,$6,$7,$8,$9,0*
20,1,$1+$1,$8,$9,$2,$3,0*%
%AMFreePoly0*
4,1,37,0.603843,0.796157,0.639018,0.796157,0.711114,0.766294,0.766294,0.711114,0.796157,0.639018,0.796157,0.603843,0.800000,0.600000,0.800000,-0.600000,0.796157,-0.603843,0.796157,-0.639018,0.766294,-0.711114,0.711114,-0.766294,0.639018,-0.796157,0.603843,-0.796157,0.600000,-0.800000,0.000000,-0.800000,0.000000,-0.796148,-0.078414,-0.796148,-0.232228,-0.765552,-0.377117,-0.705537,
-0.507515,-0.618408,-0.618408,-0.507515,-0.705537,-0.377117,-0.765552,-0.232228,-0.796148,-0.078414,-0.796148,0.078414,-0.765552,0.232228,-0.705537,0.377117,-0.618408,0.507515,-0.507515,0.618408,-0.377117,0.705537,-0.232228,0.765552,-0.078414,0.796148,0.000000,0.796148,0.000000,0.800000,0.600000,0.800000,0.603843,0.796157,0.603843,0.796157,$1*%
%AMFreePoly1*
4,1,37,0.000000,0.796148,0.078414,0.796148,0.232228,0.765552,0.377117,0.705537,0.507515,0.618408,0.618408,0.507515,0.705537,0.377117,0.765552,0.232228,0.796148,0.078414,0.796148,-0.078414,0.765552,-0.232228,0.705537,-0.377117,0.618408,-0.507515,0.507515,-0.618408,0.377117,-0.705537,0.232228,-0.765552,0.078414,-0.796148,0.000000,-0.796148,0.000000,-0.800000,-0.600000,-0.800000,
-0.603843,-0.796157,-0.639018,-0.796157,-0.711114,-0.766294,-0.766294,-0.711114,-0.796157,-0.639018,-0.796157,-0.603843,-0.800000,-0.600000,-0.800000,0.600000,-0.796157,0.603843,-0.796157,0.639018,-0.766294,0.711114,-0.711114,0.766294,-0.639018,0.796157,-0.603843,0.796157,-0.600000,0.800000,0.000000,0.800000,0.000000,0.796148,0.000000,0.796148,$1*%
G04 Aperture macros list end*
%ADD10RoundRect,0.200000X-0.600000X-0.600000X0.600000X-0.600000X0.600000X0.600000X-0.600000X0.600000X0*%
%ADD11C,1.600000*%
%ADD12FreePoly0,0.000000*%
%ADD13FreePoly1,0.000000*%
%ADD14RoundRect,0.250000X1.050000X-1.050000X1.050000X1.050000X-1.050000X1.050000X-1.050000X-1.050000X0*%
%ADD15C,2.600000*%
%ADD16C,3.000000*%
%ADD17C,1.700000*%
%ADD18R,1.700000X1.700000*%
%ADD19C,2.800000*%
%ADD20O,1.700000X1.950000*%
%ADD21RoundRect,0.250000X0.600000X0.725000X-0.600000X0.725000X-0.600000X-0.725000X0.600000X-0.725000X0*%
%ADD22RoundRect,0.250000X-1.050000X-1.050000X1.050000X-1.050000X1.050000X1.050000X-1.050000X1.050000X0*%
G04 APERTURE END LIST*
D10*
%TO.C,U1*%
X97400000Y-64300000D03*
D11*
X97400000Y-66840000D03*
D12*
X97400000Y-69380000D03*
D11*
X97400000Y-71920000D03*
X97400000Y-74460000D03*
X97400000Y-77000000D03*
X97400000Y-79540000D03*
D12*
X97400000Y-82080000D03*
D11*
X97400000Y-84620000D03*
X97400000Y-87160000D03*
X97400000Y-89700000D03*
X97400000Y-92240000D03*
D12*
X97400000Y-94780000D03*
D11*
X97400000Y-97320000D03*
X97400000Y-99860000D03*
X97400000Y-102400000D03*
X97400000Y-104940000D03*
D12*
X97400000Y-107480000D03*
D11*
X97400000Y-110020000D03*
X97400000Y-112560000D03*
X115180000Y-112560000D03*
X115180000Y-110020000D03*
D13*
X115180000Y-107480000D03*
D11*
X115180000Y-104940000D03*
X115180000Y-102400000D03*
X115180000Y-99860000D03*
X115180000Y-97320000D03*
D13*
X115180000Y-94780000D03*
D11*
X115180000Y-92240000D03*
X115180000Y-89700000D03*
X115180000Y-87160000D03*
X115180000Y-84620000D03*
D13*
X115180000Y-82080000D03*
D11*
X115180000Y-79540000D03*
X115180000Y-77000000D03*
X115180000Y-74460000D03*
X115180000Y-71920000D03*
D13*
X115180000Y-69380000D03*
D11*
X115180000Y-66840000D03*
X115180000Y-64300000D03*
%TD*%
D14*
%TO.C,J1*%
X160020000Y-105300000D03*
D15*
X160020000Y-100300000D03*
X160020000Y-95300000D03*
X160020000Y-90300000D03*
X160020000Y-85300000D03*
X160020000Y-80300000D03*
X160020000Y-75300000D03*
X160020000Y-70300000D03*
X160020000Y-65300000D03*
%TD*%
D16*
%TO.C,TP1*%
X126575000Y-58725000D03*
%TD*%
D17*
%TO.C,J4*%
X131865000Y-105995000D03*
D18*
X134405000Y-105995000D03*
%TD*%
D16*
%TO.C,TP2*%
X139572778Y-58725000D03*
%TD*%
D19*
%TO.C,TP6*%
X130907593Y-58725000D03*
%TD*%
D20*
%TO.C,J2*%
X141575000Y-117555000D03*
X144075000Y-117555000D03*
X146575000Y-117555000D03*
X149075000Y-117555000D03*
X151575000Y-117555000D03*
D21*
X154075000Y-117555000D03*
%TD*%
D16*
%TO.C,TP3*%
X135240185Y-58725000D03*
%TD*%
D15*
%TO.C,J3*%
X135425000Y-115100000D03*
D22*
X130425000Y-115100000D03*
%TD*%
D18*
%TO.C,JP1*%
X86550000Y-67485000D03*
D17*
X86550000Y-70025000D03*
X86550000Y-72565000D03*
%TD*%
M02*
