%TF.GenerationSoftware,KiCad,Pcbnew,9.0.2*%
%TF.CreationDate,2025-07-02T07:21:28-06:00*%
%TF.ProjectId,Pico_H-bridge_complete,5069636f-5f48-42d6-9272-696467655f63,rev?*%
%TF.SameCoordinates,Original*%
%TF.FileFunction,Paste,Top*%
%TF.FilePolarity,Positive*%
%FSLAX46Y46*%
G04 Gerber Fmt 4.6, Leading zero omitted, Abs format (unit mm)*
G04 Created by KiCad (PCBNEW 9.0.2) date 2025-07-02 07:21:28*
%MOMM*%
%LPD*%
G01*
G04 APERTURE LIST*
G04 Aperture macros list*
%AMRoundRect*
0 Rectangle with rounded corners*
0 $1 Rounding radius*
0 $2 $3 $4 $5 $6 $7 $8 $9 X,Y pos of 4 corners*
0 Add a 4 corners polygon primitive as box body*
4,1,4,$2,$3,$4,$5,$6,$7,$8,$9,$2,$3,0*
0 Add four circle primitives for the rounded corners*
1,1,$1+$1,$2,$3*
1,1,$1+$1,$4,$5*
1,1,$1+$1,$6,$7*
1,1,$1+$1,$8,$9*
0 Add four rect primitives between the rounded corners*
20,1,$1+$1,$2,$3,$4,$5,0*
20,1,$1+$1,$4,$5,$6,$7,0*
20,1,$1+$1,$6,$7,$8,$9,0*
20,1,$1+$1,$8,$9,$2,$3,0*%
%AMFreePoly0*
4,1,9,3.862500,-0.866500,0.737500,-0.866500,0.737500,-0.450000,-0.737500,-0.450000,-0.737500,0.450000,0.737500,0.450000,0.737500,0.866500,3.862500,0.866500,3.862500,-0.866500,3.862500,-0.866500,$1*%
G04 Aperture macros list end*
%ADD10RoundRect,0.250000X0.650000X-0.325000X0.650000X0.325000X-0.650000X0.325000X-0.650000X-0.325000X0*%
%ADD11RoundRect,0.250000X-0.450000X0.350000X-0.450000X-0.350000X0.450000X-0.350000X0.450000X0.350000X0*%
%ADD12R,0.600000X1.550000*%
%ADD13RoundRect,0.250000X0.450000X-0.350000X0.450000X0.350000X-0.450000X0.350000X-0.450000X-0.350000X0*%
%ADD14RoundRect,0.250000X-0.325000X-1.100000X0.325000X-1.100000X0.325000X1.100000X-0.325000X1.100000X0*%
%ADD15RoundRect,0.150000X0.150000X-0.587500X0.150000X0.587500X-0.150000X0.587500X-0.150000X-0.587500X0*%
%ADD16RoundRect,0.250000X0.325000X1.100000X-0.325000X1.100000X-0.325000X-1.100000X0.325000X-1.100000X0*%
%ADD17RoundRect,0.150000X0.587500X0.150000X-0.587500X0.150000X-0.587500X-0.150000X0.587500X-0.150000X0*%
%ADD18RoundRect,0.250000X0.350000X0.450000X-0.350000X0.450000X-0.350000X-0.450000X0.350000X-0.450000X0*%
%ADD19RoundRect,0.243750X0.413732X0.310490X-0.028093X0.516516X-0.413732X-0.310490X0.028093X-0.516516X0*%
%ADD20RoundRect,0.250000X-0.350000X-0.450000X0.350000X-0.450000X0.350000X0.450000X-0.350000X0.450000X0*%
%ADD21RoundRect,0.150000X-0.587500X-0.150000X0.587500X-0.150000X0.587500X0.150000X-0.587500X0.150000X0*%
%ADD22RoundRect,0.150000X0.512500X0.150000X-0.512500X0.150000X-0.512500X-0.150000X0.512500X-0.150000X0*%
%ADD23RoundRect,0.250000X-1.000000X-0.650000X1.000000X-0.650000X1.000000X0.650000X-1.000000X0.650000X0*%
%ADD24RoundRect,0.150000X-0.512500X-0.150000X0.512500X-0.150000X0.512500X0.150000X-0.512500X0.150000X0*%
%ADD25RoundRect,0.243750X-0.028093X-0.516516X0.413732X-0.310490X0.028093X0.516516X-0.413732X0.310490X0*%
%ADD26RoundRect,0.225000X-0.225000X-0.250000X0.225000X-0.250000X0.225000X0.250000X-0.225000X0.250000X0*%
%ADD27RoundRect,0.225000X0.225000X-0.425000X0.225000X0.425000X-0.225000X0.425000X-0.225000X-0.425000X0*%
%ADD28FreePoly0,90.000000*%
%ADD29RoundRect,0.112500X-0.187500X-0.112500X0.187500X-0.112500X0.187500X0.112500X-0.187500X0.112500X0*%
%ADD30RoundRect,0.243750X0.243750X0.456250X-0.243750X0.456250X-0.243750X-0.456250X0.243750X-0.456250X0*%
%ADD31RoundRect,0.243750X-0.243750X-0.456250X0.243750X-0.456250X0.243750X0.456250X-0.243750X0.456250X0*%
%ADD32R,1.100000X1.500000*%
%ADD33RoundRect,0.250000X-0.750000X0.400000X-0.750000X-0.400000X0.750000X-0.400000X0.750000X0.400000X0*%
%ADD34RoundRect,0.250000X-0.750000X0.750000X-0.750000X-0.750000X0.750000X-0.750000X0.750000X0.750000X0*%
G04 APERTURE END LIST*
D10*
%TO.C,C1*%
X100610000Y-91755000D03*
X100610000Y-94705000D03*
%TD*%
D11*
%TO.C,R13*%
X104645000Y-102370000D03*
X104645000Y-100370000D03*
%TD*%
D12*
%TO.C,U5*%
X102425000Y-92415000D03*
X103695000Y-92415000D03*
X104965000Y-92415000D03*
X106235000Y-92415000D03*
X107505000Y-92415000D03*
X108775000Y-92415000D03*
X110045000Y-92415000D03*
X110045000Y-97815000D03*
X108775000Y-97815000D03*
X107505000Y-97815000D03*
X106235000Y-97815000D03*
X104965000Y-97815000D03*
X103695000Y-97815000D03*
X102425000Y-97815000D03*
%TD*%
D13*
%TO.C,R14*%
X112050000Y-96900000D03*
X112050000Y-98900000D03*
%TD*%
D11*
%TO.C,R16*%
X109555000Y-102330000D03*
X109555000Y-100330000D03*
%TD*%
D14*
%TO.C,C8*%
X144000000Y-69090000D03*
X141050000Y-69090000D03*
%TD*%
D15*
%TO.C,Q6*%
X143840000Y-89202500D03*
X144790000Y-91077500D03*
X142890000Y-91077500D03*
%TD*%
D16*
%TO.C,C4*%
X146295000Y-59905000D03*
X149245000Y-59905000D03*
%TD*%
D17*
%TO.C,Q2*%
X137587500Y-98210000D03*
X139462500Y-97260000D03*
X139462500Y-99160000D03*
%TD*%
D18*
%TO.C,R4*%
X151270000Y-100281429D03*
X149270000Y-100281429D03*
%TD*%
%TO.C,R2*%
X128225000Y-80746000D03*
X130225000Y-80746000D03*
%TD*%
D19*
%TO.C,D3*%
X129265337Y-91223796D03*
X130964663Y-92016204D03*
%TD*%
D20*
%TO.C,R1*%
X137989000Y-80746000D03*
X135989000Y-80746000D03*
%TD*%
D21*
%TO.C,Q8*%
X144657500Y-99000000D03*
X142782500Y-99950000D03*
X142782500Y-98050000D03*
%TD*%
D22*
%TO.C,U8*%
X126832500Y-69955000D03*
X126832500Y-68055000D03*
X129107500Y-68055000D03*
X129107500Y-69005000D03*
X129107500Y-69955000D03*
%TD*%
D21*
%TO.C,Q1*%
X128931238Y-98166260D03*
X127056238Y-99116260D03*
X127056238Y-97216260D03*
%TD*%
D20*
%TO.C,R30*%
X122990000Y-83900000D03*
X120990000Y-83900000D03*
%TD*%
%TO.C,R25*%
X149270000Y-102233571D03*
X151270000Y-102233571D03*
%TD*%
D23*
%TO.C,D5*%
X155820000Y-59960000D03*
X151820000Y-59960000D03*
%TD*%
D22*
%TO.C,U10*%
X131327500Y-69945000D03*
X131327500Y-68045000D03*
X133602500Y-68045000D03*
X133602500Y-68995000D03*
X133602500Y-69945000D03*
%TD*%
D13*
%TO.C,R28*%
X145620000Y-100400000D03*
X145620000Y-102400000D03*
%TD*%
D20*
%TO.C,R22*%
X144920000Y-87180000D03*
X142920000Y-87180000D03*
%TD*%
D24*
%TO.C,U11*%
X110127500Y-83550000D03*
X110127500Y-84500000D03*
X110127500Y-85450000D03*
X112402500Y-85450000D03*
X112402500Y-83550000D03*
%TD*%
D25*
%TO.C,D4*%
X136989664Y-91253795D03*
X135290336Y-92046205D03*
%TD*%
D18*
%TO.C,R6*%
X151270000Y-96377143D03*
X149270000Y-96377143D03*
%TD*%
D20*
%TO.C,R29*%
X122990000Y-85813333D03*
X120990000Y-85813333D03*
%TD*%
%TO.C,R26*%
X123167400Y-99700000D03*
X121167400Y-99700000D03*
%TD*%
D13*
%TO.C,R9*%
X136595000Y-82920000D03*
X136595000Y-84920000D03*
%TD*%
D20*
%TO.C,R31*%
X123040000Y-91600000D03*
X121040000Y-91600000D03*
%TD*%
D18*
%TO.C,R24*%
X151270000Y-104185714D03*
X149270000Y-104185714D03*
%TD*%
%TO.C,R27*%
X142620000Y-96300000D03*
X144620000Y-96300000D03*
%TD*%
D26*
%TO.C,C5*%
X133900000Y-108600000D03*
X132350000Y-108600000D03*
%TD*%
D14*
%TO.C,C12*%
X138885000Y-69100000D03*
X135935000Y-69100000D03*
%TD*%
D21*
%TO.C,Q3*%
X128612500Y-86410000D03*
X126737500Y-87360000D03*
X126737500Y-85460000D03*
%TD*%
D27*
%TO.C,U7*%
X139155000Y-66525000D03*
D28*
X137655000Y-66437500D03*
D27*
X136155000Y-66525000D03*
%TD*%
D15*
%TO.C,Q5*%
X122040000Y-87769167D03*
X122990000Y-89644167D03*
X121090000Y-89644167D03*
%TD*%
D29*
%TO.C,D7*%
X149470000Y-94425000D03*
X151570000Y-94425000D03*
%TD*%
D30*
%TO.C,D1*%
X139640500Y-80791000D03*
X141515500Y-80791000D03*
%TD*%
D29*
%TO.C,D14*%
X149470000Y-106137857D03*
X151570000Y-106137857D03*
%TD*%
D27*
%TO.C,U6*%
X144255000Y-66525000D03*
D28*
X142755000Y-66437500D03*
D27*
X141255000Y-66525000D03*
%TD*%
D11*
%TO.C,R7*%
X129695000Y-84920000D03*
X129695000Y-82920000D03*
%TD*%
%TO.C,R35*%
X120267400Y-95602500D03*
X120267400Y-93602500D03*
%TD*%
D20*
%TO.C,R8*%
X145120000Y-93100000D03*
X143120000Y-93100000D03*
%TD*%
D29*
%TO.C,D6*%
X149470000Y-98329286D03*
X151570000Y-98329286D03*
%TD*%
D17*
%TO.C,Q4*%
X137587500Y-86435000D03*
X139462500Y-85485000D03*
X139462500Y-87385000D03*
%TD*%
D22*
%TO.C,U9*%
X126832500Y-66120000D03*
X126832500Y-64220000D03*
X129107500Y-64220000D03*
X129107500Y-65170000D03*
X129107500Y-66120000D03*
%TD*%
D31*
%TO.C,D2*%
X126597500Y-80791000D03*
X124722500Y-80791000D03*
%TD*%
D18*
%TO.C,R10*%
X151270000Y-108090000D03*
X149270000Y-108090000D03*
%TD*%
D17*
%TO.C,Q7*%
X121182500Y-97000000D03*
X123057500Y-96050000D03*
X123057500Y-97950000D03*
%TD*%
D18*
%TO.C,R23*%
X142920000Y-85200000D03*
X144920000Y-85200000D03*
%TD*%
%TO.C,R5*%
X125380000Y-116790000D03*
X123380000Y-116790000D03*
%TD*%
D13*
%TO.C,R12*%
X102665000Y-102360000D03*
X102665000Y-100360000D03*
%TD*%
%TO.C,R17*%
X109670000Y-90410000D03*
X109670000Y-88410000D03*
%TD*%
%TO.C,R19*%
X105685000Y-90400000D03*
X105685000Y-88400000D03*
%TD*%
D18*
%TO.C,R3*%
X125380000Y-112890000D03*
X123380000Y-112890000D03*
%TD*%
D10*
%TO.C,C2*%
X111970000Y-95185000D03*
X111970000Y-92235000D03*
%TD*%
D20*
%TO.C,R20*%
X123360000Y-118750000D03*
X125360000Y-118750000D03*
%TD*%
D10*
%TO.C,C3*%
X111970000Y-90545000D03*
X111970000Y-87595000D03*
%TD*%
D20*
%TO.C,R21*%
X123365000Y-114850000D03*
X125365000Y-114850000D03*
%TD*%
D11*
%TO.C,R18*%
X107677500Y-88400000D03*
X107677500Y-90400000D03*
%TD*%
D32*
%TO.C,SW1*%
X86620000Y-93120000D03*
X86620000Y-84220000D03*
%TD*%
D33*
%TO.C,RV1*%
X89520000Y-106125000D03*
D34*
X85520000Y-104975000D03*
D33*
X89520000Y-103825000D03*
%TD*%
D13*
%TO.C,R15*%
X107575000Y-102340000D03*
X107575000Y-100340000D03*
%TD*%
%TO.C,R11*%
X100630000Y-98460000D03*
X100630000Y-96460000D03*
%TD*%
M02*
