M48
; DRILL file {KiCad 9.0.2} date 2025-07-02T07:21:57-0600
; FORMAT={-:-/ absolute / metric / decimal}
; #@! TF.CreationDate,2025-07-02T07:21:57-06:00
; #@! TF.GenerationSoftware,Kicad,Pcbnew,9.0.2
; #@! TF.FileFunction,Plated,1,4,PTH
FMAT,2
METRIC
; #@! TA.AperFunction,Plated,PTH,ViaDrill
T1C0.300
; #@! TA.AperFunction,Plated,PTH,ViaDrill
T2C0.500
; #@! TA.AperFunction,Plated,PTH,ComponentDrill
T3C0.950
; #@! TA.AperFunction,Plated,PTH,ComponentDrill
T4C1.000
; #@! TA.AperFunction,Plated,PTH,ComponentDrill
T5C1.300
; #@! TA.AperFunction,Plated,PTH,ComponentDrill
T6C1.400
; #@! TA.AperFunction,Plated,PTH,ComponentDrill
T7C2.000
%
G90
G05
T1
X86.62Y-84.22
X86.62Y-93.12
X89.52Y-103.825
X89.52Y-106.125
X100.61Y-91.755
X100.62Y-94.7
X102.665Y-102.36
X104.645Y-102.37
X105.685Y-88.4
X106.235Y-92.415
X106.235Y-97.815
X107.575Y-102.34
X107.677Y-88.4
X109.555Y-102.33
X110.127Y-84.5
X111.87Y-92.235
X111.87Y-95.185
X111.97Y-87.595
X111.97Y-90.545
X112.402Y-83.55
X117.12Y-95.6
X120.267Y-93.602
X121.167Y-99.7
X122.99Y-83.9
X122.99Y-89.644
X123.057Y-96.05
X123.36Y-118.75
X123.365Y-114.85
X124.722Y-80.791
X125.12Y-98.1
X125.12Y-99.1
X125.122Y-89.12
X125.122Y-90.12
X125.122Y-91.12
X125.122Y-92.12
X125.122Y-93.12
X125.122Y-94.12
X125.122Y-95.12
X125.122Y-96.12
X125.122Y-100.12
X125.122Y-101.12
X125.36Y-118.75
X125.365Y-114.85
X125.92Y-87.36
X126.12Y-98.2
X126.122Y-84.12
X126.122Y-89.12
X126.122Y-90.12
X126.122Y-91.12
X126.122Y-92.12
X126.122Y-93.12
X126.122Y-94.12
X126.122Y-95.12
X126.122Y-96.12
X126.122Y-100.12
X126.122Y-101.12
X126.22Y-99.1
X126.737Y-87.36
X126.832Y-66.12
X126.832Y-68.055
X126.832Y-69.955
X127.056Y-99.116
X127.115Y-91.12
X127.115Y-92.12
X127.115Y-93.12
X127.115Y-94.12
X127.115Y-95.12
X127.115Y-96.12
X127.12Y-98.2
X127.122Y-84.12
X127.122Y-89.12
X127.122Y-90.12
X127.122Y-100.12
X127.122Y-101.12
X127.62Y-87.4
X127.82Y-99.1
X128.115Y-91.12
X128.115Y-92.12
X128.115Y-93.12
X128.115Y-94.12
X128.115Y-95.12
X128.115Y-96.12
X128.12Y-100.1
X128.12Y-101.1
X128.122Y-84.12
X128.122Y-89.12
X128.122Y-90.12
X129.107Y-64.22
X129.107Y-68.055
X129.113Y-91.1
X129.113Y-92.1
X129.118Y-89.08
X129.118Y-98.08
X129.12Y-66.1
X129.12Y-69.0
X129.12Y-84.2
X129.12Y-85.1
X129.12Y-86.1
X129.12Y-87.1
X129.12Y-88.1
X129.12Y-90.1
X129.12Y-93.1
X129.12Y-94.1
X129.12Y-95.1
X129.12Y-96.1
X129.12Y-97.1
X129.12Y-100.1
X129.12Y-101.1
X130.115Y-91.1
X130.118Y-89.1
X130.118Y-98.08
X130.12Y-84.2
X130.12Y-85.12
X130.12Y-86.12
X130.12Y-87.12
X130.12Y-88.12
X130.12Y-90.1
X130.12Y-93.1
X130.12Y-94.1
X130.12Y-95.1
X130.12Y-96.1
X130.12Y-97.1
X130.12Y-99.1
X130.122Y-100.12
X130.122Y-101.12
X130.225Y-80.746
X131.12Y-89.1
X131.12Y-94.1
X131.12Y-95.1
X131.12Y-99.1
X131.122Y-84.12
X131.122Y-85.12
X131.122Y-86.12
X131.122Y-87.12
X131.122Y-88.12
X131.122Y-90.1
X131.122Y-96.12
X131.122Y-97.12
X131.122Y-98.12
X131.122Y-100.12
X131.122Y-101.12
X131.327Y-69.945
X132.115Y-92.2
X132.115Y-96.12
X132.115Y-97.12
X132.115Y-98.12
X132.115Y-99.12
X132.12Y-89.1
X132.12Y-90.1
X132.12Y-93.1
X132.12Y-94.1
X132.12Y-95.1
X132.122Y-84.12
X132.122Y-85.12
X132.122Y-86.12
X132.122Y-87.12
X132.122Y-88.12
X132.122Y-100.12
X132.122Y-101.12
X132.35Y-108.6
X132.62Y-83.1
X133.602Y-68.045
X133.9Y-108.6
X134.113Y-94.1
X134.113Y-95.1
X134.115Y-92.12
X134.115Y-96.12
X134.115Y-97.12
X134.115Y-98.12
X134.115Y-99.12
X134.12Y-89.1
X134.12Y-90.1
X134.12Y-93.1
X134.122Y-84.12
X134.122Y-85.12
X134.122Y-86.12
X134.122Y-87.12
X134.122Y-88.12
X134.122Y-100.12
X134.122Y-101.12
X135.113Y-94.1
X135.113Y-95.1
X135.115Y-96.12
X135.115Y-97.12
X135.115Y-98.12
X135.115Y-99.12
X135.12Y-89.1
X135.12Y-90.1
X135.122Y-84.12
X135.122Y-85.12
X135.122Y-86.12
X135.122Y-87.12
X135.122Y-88.12
X135.122Y-100.12
X135.122Y-101.12
X135.32Y-92.0
X135.96Y-69.15
X135.993Y-90.08
X135.995Y-85.1
X135.995Y-86.1
X135.995Y-87.1
X135.995Y-88.1
X135.995Y-89.1
X136.02Y-80.8
X136.02Y-93.2
X136.02Y-94.1
X136.022Y-95.12
X136.022Y-96.12
X136.022Y-97.12
X136.022Y-98.12
X136.115Y-99.12
X136.12Y-91.1
X136.122Y-100.12
X136.122Y-101.12
X136.155Y-66.525
X136.595Y-84.2
X137.118Y-90.08
X137.12Y-85.1
X137.12Y-86.1
X137.12Y-87.1
X137.12Y-88.1
X137.12Y-89.1
X137.12Y-91.1
X137.12Y-92.1
X137.12Y-93.1
X137.12Y-94.1
X137.12Y-99.1
X137.12Y-100.1
X137.12Y-101.1
X137.122Y-95.12
X137.122Y-96.12
X137.122Y-97.12
X137.122Y-98.12
X137.655Y-66.438
X138.115Y-91.12
X138.115Y-92.12
X138.115Y-93.12
X138.115Y-94.12
X138.115Y-95.12
X138.115Y-96.12
X138.12Y-100.1
X138.12Y-101.1
X138.122Y-84.12
X138.122Y-89.12
X138.122Y-90.12
X138.72Y-85.5
X138.72Y-97.2
X138.885Y-69.1
X139.12Y-98.2
X139.122Y-84.12
X139.122Y-89.12
X139.122Y-90.12
X139.122Y-91.12
X139.122Y-92.12
X139.122Y-93.12
X139.122Y-94.12
X139.122Y-95.12
X139.122Y-96.12
X139.122Y-100.12
X139.122Y-101.12
X139.463Y-85.485
X139.463Y-97.26
X140.122Y-84.12
X140.122Y-89.12
X140.122Y-90.12
X140.122Y-91.12
X140.122Y-92.12
X140.122Y-93.12
X140.122Y-94.12
X140.122Y-95.12
X140.122Y-96.12
X140.122Y-98.22
X140.122Y-100.12
X140.122Y-101.12
X140.22Y-85.5
X140.22Y-97.2
X141.05Y-69.09
X141.115Y-84.12
X141.115Y-89.12
X141.115Y-90.12
X141.115Y-91.12
X141.115Y-92.12
X141.115Y-93.12
X141.115Y-94.12
X141.115Y-95.12
X141.115Y-96.12
X141.115Y-98.12
X141.115Y-100.12
X141.115Y-101.1
X141.12Y-97.2
X141.516Y-80.791
X142.755Y-66.438
X142.782Y-99.95
X142.92Y-85.2
X144.0Y-69.09
X144.255Y-66.525
X144.79Y-91.078
X145.12Y-93.1
X145.62Y-102.4
X146.295Y-59.905
X149.27Y-96.377
X149.27Y-100.281
X149.3Y-59.96
X151.27Y-104.186
X151.57Y-94.425
X151.57Y-98.329
X151.57Y-106.138
T2
X151.82Y-59.96
T3
X141.575Y-117.555
X144.075Y-117.555
X146.575Y-117.555
X149.075Y-117.555
X151.575Y-117.555
X154.075Y-117.555
T4
X86.55Y-67.485
X86.55Y-70.025
X86.55Y-72.565
X97.4Y-64.3
X97.4Y-66.84
X97.4Y-69.38
X97.4Y-71.92
X97.4Y-74.46
X97.4Y-77.0
X97.4Y-79.54
X97.4Y-82.08
X97.4Y-84.62
X97.4Y-87.16
X97.4Y-89.7
X97.4Y-92.24
X97.4Y-94.78
X97.4Y-97.32
X97.4Y-99.86
X97.4Y-102.4
X97.4Y-104.94
X97.4Y-107.48
X97.4Y-110.02
X97.4Y-112.56
X115.18Y-64.3
X115.18Y-66.84
X115.18Y-69.38
X115.18Y-71.92
X115.18Y-74.46
X115.18Y-77.0
X115.18Y-79.54
X115.18Y-82.08
X115.18Y-84.62
X115.18Y-87.16
X115.18Y-89.7
X115.18Y-92.24
X115.18Y-94.78
X115.18Y-97.32
X115.18Y-99.86
X115.18Y-102.4
X115.18Y-104.94
X115.18Y-107.48
X115.18Y-110.02
X115.18Y-112.56
X131.865Y-105.995
X134.405Y-105.995
T5
X130.425Y-115.1
X135.425Y-115.1
X160.02Y-65.3
X160.02Y-70.3
X160.02Y-75.3
X160.02Y-80.3
X160.02Y-85.3
X160.02Y-90.3
X160.02Y-95.3
X160.02Y-100.3
X160.02Y-105.3
T6
X130.908Y-58.725
T7
X126.575Y-58.725
X135.24Y-58.725
X139.573Y-58.725
M30
