M48
; DRILL file {KiCad 8.0.2} date 2024-07-03T09:30:28-0600
; FORMAT={-:-/ absolute / inch / decimal}
; #@! TF.CreationDate,2024-07-03T09:30:28-06:00
; #@! TF.GenerationSoftware,Kicad,Pcbnew,8.0.2
; #@! TF.FileFunction,Plated,1,2,PTH
FMAT,2
INCH
; #@! TA.AperFunction,Plated,PTH,ViaDrill
T1C0.0118
; #@! TA.AperFunction,Plated,PTH,ComponentDrill
T2C0.0295
; #@! TA.AperFunction,Plated,PTH,ComponentDrill
T3C0.0300
; #@! TA.AperFunction,Plated,PTH,ComponentDrill
T4C0.0315
; #@! TA.AperFunction,Plated,PTH,ComponentDrill
T5C0.0320
; #@! TA.AperFunction,Plated,PTH,ComponentDrill
T6C0.0354
; #@! TA.AperFunction,Plated,PTH,ComponentDrill
T7C0.0374
; #@! TA.AperFunction,Plated,PTH,ComponentDrill
T8C0.0402
; #@! TA.AperFunction,Plated,PTH,ComponentDrill
T9C0.0433
; #@! TA.AperFunction,Plated,PTH,ComponentDrill
T10C0.0512
%
G90
G05
T1
X6.1319Y-4.0059
X6.2402Y-3.8976
X6.6437Y-3.9075
T2
X5.8953Y-2.874
X5.9453Y-2.874
X5.9953Y-2.874
T3
X5.326Y-2.4803
X5.326Y-4.3602
X5.4047Y-2.4803
X5.4047Y-4.3602
X5.9165Y-2.4803
X5.9165Y-4.3406
X5.9953Y-2.4803
X5.9953Y-4.3406
X6.5071Y-2.4803
X6.5071Y-4.3504
X6.5858Y-2.4803
X6.5858Y-4.3504
X7.0976Y-2.4803
X7.0976Y-4.3504
X7.1764Y-2.4803
X7.1764Y-4.3504
T4
X5.1047Y-2.874
X5.1047Y-3.002
X5.1047Y-3.1988
X5.1047Y-3.3268
X5.1047Y-3.5138
X5.1047Y-3.6417
X5.1047Y-3.8287
X5.1047Y-3.9567
X5.4047Y-2.874
X5.4047Y-3.002
X5.4047Y-3.1988
X5.4047Y-3.3268
X5.4047Y-3.5138
X5.4047Y-3.6417
X5.4047Y-3.8287
X5.4047Y-3.9567
X5.6953Y-3.1988
X5.6953Y-3.3268
X5.6953Y-3.5138
X5.6953Y-3.6417
X5.6953Y-3.8287
X5.6953Y-3.9567
X5.9953Y-3.1988
X5.9953Y-3.3268
X5.9953Y-3.5138
X5.9953Y-3.6417
X5.9953Y-3.8287
X5.9953Y-3.9567
X6.8764Y-3.189
X6.8764Y-3.5039
X6.8764Y-3.8189
X7.1764Y-3.189
X7.1764Y-3.5039
X7.1764Y-3.8189
T5
X5.2079Y-2.6772
X5.2079Y-4.1535
X5.4047Y-2.6772
X5.4047Y-4.1535
X5.7984Y-2.6772
X5.7984Y-4.1535
X5.9953Y-2.6772
X5.9953Y-4.1535
X6.389Y-2.6772
X6.389Y-4.1535
X6.5858Y-2.6772
X6.5858Y-4.1535
X6.9795Y-2.6772
X6.9795Y-3.3268
X6.9795Y-3.6417
X6.9795Y-3.9567
X6.9795Y-4.1535
X7.1764Y-2.6772
X7.1764Y-3.3268
X7.1764Y-3.6417
X7.1764Y-3.9567
X7.1764Y-4.1535
T6
X4.7354Y-2.874
X4.7354Y-2.9764
X4.7354Y-3.0787
X4.7354Y-3.1988
X4.7354Y-3.3012
X4.7354Y-3.4035
X4.7354Y-3.5138
X4.7354Y-3.6161
X4.7354Y-3.7185
X7.8457Y-2.6378
X7.8457Y-2.7378
X7.8457Y-2.874
X7.8457Y-2.974
T7
X7.6094Y-2.4803
X7.6094Y-2.5787
X7.6094Y-2.6772
X7.6094Y-2.7756
X7.6094Y-2.874
X7.6094Y-2.9724
T8
X3.5827Y-2.4803
X3.5827Y-2.5803
X3.5827Y-2.6803
X3.5827Y-2.7803
X3.5827Y-2.8803
X3.5827Y-2.9803
X3.5827Y-3.0803
X3.5827Y-3.1803
X3.5827Y-3.2803
X3.5827Y-3.3803
X3.5827Y-3.4803
X3.5827Y-3.5803
X3.5827Y-3.6803
X3.5827Y-3.7803
X3.5827Y-3.8803
X3.5827Y-3.9803
X3.5827Y-4.0803
X3.5827Y-4.1803
X3.5827Y-4.2803
X3.5827Y-4.3803
X3.8327Y-4.3713
X3.9327Y-4.3713
X4.0327Y-4.3713
X4.2827Y-2.4803
X4.2827Y-2.5803
X4.2827Y-2.6803
X4.2827Y-2.7803
X4.2827Y-2.8803
X4.2827Y-2.9803
X4.2827Y-3.0803
X4.2827Y-3.1803
X4.2827Y-3.2803
X4.2827Y-3.3803
X4.2827Y-3.4803
X4.2827Y-3.5803
X4.2827Y-3.6803
X4.2827Y-3.7803
X4.2827Y-3.8803
X4.2827Y-3.9803
X4.2827Y-4.0803
X4.2827Y-4.1803
X4.2827Y-4.2803
X4.2827Y-4.3803
T9
X6.389Y-2.874
X6.489Y-2.874
X6.589Y-2.874
T10
X7.6094Y-3.3661
X7.6094Y-3.563
X7.6094Y-3.7598
X7.6094Y-3.9567
X7.6094Y-4.1535
X7.6094Y-4.3504
M30
