%TF.GenerationSoftware,KiCad,Pcbnew,9.0.2*%
%TF.CreationDate,2025-07-21T22:11:43-06:00*%
%TF.ProjectId,Pico_H-bridge_complete,5069636f-5f48-42d6-9272-696467655f63,rev?*%
%TF.SameCoordinates,Original*%
%TF.FileFunction,Other,User*%
%FSLAX46Y46*%
G04 Gerber Fmt 4.6, Leading zero omitted, Abs format (unit mm)*
G04 Created by KiCad (PCBNEW 9.0.2) date 2025-07-21 22:11:43*
%MOMM*%
%LPD*%
G01*
G04 APERTURE LIST*
%ADD10C,0.050000*%
G04 APERTURE END LIST*
D10*
%TO.C,Q6*%
X147540000Y-71440000D02*
X147740000Y-71440000D01*
X147540000Y-73240000D02*
X147540000Y-71440000D01*
X147740000Y-70410000D02*
X150740000Y-70410000D01*
X147740000Y-71440000D02*
X147740000Y-70410000D01*
X148690000Y-73240000D02*
X147540000Y-73240000D01*
X148690000Y-74270000D02*
X148690000Y-73240000D01*
X149790000Y-73240000D02*
X149790000Y-74270000D01*
X149790000Y-74270000D02*
X148690000Y-74270000D01*
X150740000Y-70410000D02*
X150740000Y-71440000D01*
X150740000Y-71440000D02*
X150940000Y-71440000D01*
X150940000Y-71440000D02*
X150940000Y-73240000D01*
X150940000Y-73240000D02*
X149790000Y-73240000D01*
%TO.C,R34*%
X148420000Y-107175000D02*
X152120000Y-107175000D01*
X148420000Y-109075000D02*
X148420000Y-107175000D01*
X152120000Y-107175000D02*
X152120000Y-109075000D01*
X152120000Y-109075000D02*
X148420000Y-109075000D01*
%TO.C,C4*%
X145470000Y-58305000D02*
X150070000Y-58305000D01*
X145470000Y-61505000D02*
X145470000Y-58305000D01*
X150070000Y-58305000D02*
X150070000Y-61505000D01*
X150070000Y-61505000D02*
X145470000Y-61505000D01*
%TO.C,R5*%
X122530000Y-115840000D02*
X126230000Y-115840000D01*
X122530000Y-117740000D02*
X122530000Y-115840000D01*
X126230000Y-115840000D02*
X126230000Y-117740000D01*
X126230000Y-117740000D02*
X122530000Y-117740000D01*
%TO.C,R4*%
X149720000Y-95231429D02*
X153420000Y-95231429D01*
X149720000Y-97131429D02*
X149720000Y-95231429D01*
X153420000Y-95231429D02*
X153420000Y-97131429D01*
X153420000Y-97131429D02*
X149720000Y-97131429D01*
%TO.C,R2*%
X127475000Y-73841000D02*
X131175000Y-73841000D01*
X127475000Y-75741000D02*
X127475000Y-73841000D01*
X131175000Y-73841000D02*
X131175000Y-75741000D01*
X131175000Y-75741000D02*
X127475000Y-75741000D01*
%TO.C,TP2*%
X141372778Y-58725000D02*
G75*
G02*
X137772778Y-58725000I-1800000J0D01*
G01*
X137772778Y-58725000D02*
G75*
G02*
X141372778Y-58725000I1800000J0D01*
G01*
%TO.C,J4*%
X130085000Y-104225000D02*
X130085000Y-107765000D01*
X130085000Y-107765000D02*
X136175000Y-107765000D01*
X136175000Y-104225000D02*
X130085000Y-104225000D01*
X136175000Y-107765000D02*
X136175000Y-104225000D01*
%TO.C,R31*%
X119890000Y-67763334D02*
X123590000Y-67763334D01*
X119890000Y-69663334D02*
X119890000Y-67763334D01*
X123590000Y-67763334D02*
X123590000Y-69663334D01*
X123590000Y-69663334D02*
X119890000Y-69663334D01*
%TO.C,R24*%
X148520000Y-98235714D02*
X152220000Y-98235714D01*
X148520000Y-100135714D02*
X148520000Y-98235714D01*
X152220000Y-98235714D02*
X152220000Y-100135714D01*
X152220000Y-100135714D02*
X148520000Y-100135714D01*
%TO.C,R27*%
X144870000Y-80950000D02*
X146770000Y-80950000D01*
X144870000Y-84650000D02*
X144870000Y-80950000D01*
X146770000Y-80950000D02*
X146770000Y-84650000D01*
X146770000Y-84650000D02*
X144870000Y-84650000D01*
%TO.C,R12*%
X101715000Y-99510000D02*
X103615000Y-99510000D01*
X101715000Y-103210000D02*
X101715000Y-99510000D01*
X103615000Y-99510000D02*
X103615000Y-103210000D01*
X103615000Y-103210000D02*
X101715000Y-103210000D01*
%TO.C,TP6*%
X132907593Y-58725000D02*
G75*
G02*
X128907593Y-58725000I-2000000J0D01*
G01*
X128907593Y-58725000D02*
G75*
G02*
X132907593Y-58725000I2000000J0D01*
G01*
%TO.C,J2*%
X138625000Y-113655000D02*
X138625000Y-120405000D01*
X138625000Y-120405000D02*
X157025000Y-120405000D01*
X157025000Y-113655000D02*
X138625000Y-113655000D01*
X157025000Y-120405000D02*
X157025000Y-113655000D01*
%TO.C,J1*%
X155720000Y-62300000D02*
X155720000Y-113300000D01*
X155720000Y-113300000D02*
X165720000Y-113300000D01*
X165720000Y-62300000D02*
X155720000Y-62300000D01*
X165720000Y-113300000D02*
X165720000Y-62300000D01*
%TO.C,TP3*%
X137040185Y-58725000D02*
G75*
G02*
X133440185Y-58725000I-1800000J0D01*
G01*
X133440185Y-58725000D02*
G75*
G02*
X137040185Y-58725000I1800000J0D01*
G01*
%TO.C,C5*%
X131645000Y-107870000D02*
X134605000Y-107870000D01*
X131645000Y-109330000D02*
X131645000Y-107870000D01*
X134605000Y-107870000D02*
X134605000Y-109330000D01*
X134605000Y-109330000D02*
X131645000Y-109330000D01*
%TO.C,C12*%
X135110000Y-67500000D02*
X139710000Y-67500000D01*
X135110000Y-70700000D02*
X135110000Y-67500000D01*
X139710000Y-67500000D02*
X139710000Y-70700000D01*
X139710000Y-70700000D02*
X135110000Y-70700000D01*
%TO.C,Q3*%
X123610000Y-78255000D02*
X123810000Y-78255000D01*
X123610000Y-80055000D02*
X123610000Y-78255000D01*
X123810000Y-77225000D02*
X126810000Y-77225000D01*
X123810000Y-78255000D02*
X123810000Y-77225000D01*
X124760000Y-80055000D02*
X123610000Y-80055000D01*
X124760000Y-81085000D02*
X124760000Y-80055000D01*
X125860000Y-80055000D02*
X125860000Y-81085000D01*
X125860000Y-81085000D02*
X124760000Y-81085000D01*
X126810000Y-77225000D02*
X126810000Y-78255000D01*
X126810000Y-78255000D02*
X127010000Y-78255000D01*
X127010000Y-78255000D02*
X127010000Y-80055000D01*
X127010000Y-80055000D02*
X125860000Y-80055000D01*
%TO.C,U7*%
X135155000Y-62325000D02*
X135155000Y-67425000D01*
X135155000Y-62325000D02*
X140155000Y-62325000D01*
X140155000Y-67425000D02*
X135155000Y-67425000D01*
X140155000Y-67425000D02*
X140155000Y-62325000D01*
%TO.C,Q5*%
X120040000Y-70706667D02*
X120240000Y-70706667D01*
X120040000Y-72506667D02*
X120040000Y-70706667D01*
X120240000Y-69676667D02*
X123240000Y-69676667D01*
X120240000Y-70706667D02*
X120240000Y-69676667D01*
X121190000Y-72506667D02*
X120040000Y-72506667D01*
X121190000Y-73536667D02*
X121190000Y-72506667D01*
X122290000Y-72506667D02*
X122290000Y-73536667D01*
X122290000Y-73536667D02*
X121190000Y-73536667D01*
X123240000Y-69676667D02*
X123240000Y-70706667D01*
X123240000Y-70706667D02*
X123440000Y-70706667D01*
X123440000Y-70706667D02*
X123440000Y-72506667D01*
X123440000Y-72506667D02*
X122290000Y-72506667D01*
%TO.C,D7*%
X150320000Y-88875000D02*
X150320000Y-90775000D01*
X150320000Y-88875000D02*
X153520000Y-88875000D01*
X150320000Y-90775000D02*
X153520000Y-90775000D01*
X153520000Y-88875000D02*
X153520000Y-90775000D01*
%TO.C,D1*%
X138998000Y-73841000D02*
X142358000Y-73841000D01*
X138998000Y-75741000D02*
X138998000Y-73841000D01*
X142358000Y-73841000D02*
X142358000Y-75741000D01*
X142358000Y-75741000D02*
X138998000Y-75741000D01*
%TO.C,J3*%
X127425000Y-109390000D02*
X127425000Y-120200000D01*
X127425000Y-120200000D02*
X138425000Y-120200000D01*
X138425000Y-109390000D02*
X127425000Y-109390000D01*
X138425000Y-120200000D02*
X138425000Y-109390000D01*
%TO.C,R16*%
X108605000Y-99480000D02*
X110505000Y-99480000D01*
X108605000Y-103180000D02*
X108605000Y-99480000D01*
X110505000Y-99480000D02*
X110505000Y-103180000D01*
X110505000Y-103180000D02*
X108605000Y-103180000D01*
%TO.C,R17*%
X108720000Y-87560000D02*
X110620000Y-87560000D01*
X108720000Y-91260000D02*
X108720000Y-87560000D01*
X110620000Y-87560000D02*
X110620000Y-91260000D01*
X110620000Y-91260000D02*
X108720000Y-91260000D01*
%TO.C,R19*%
X104735000Y-87550000D02*
X106635000Y-87550000D01*
X104735000Y-91250000D02*
X104735000Y-87550000D01*
X106635000Y-87550000D02*
X106635000Y-91250000D01*
X106635000Y-91250000D02*
X104735000Y-91250000D01*
%TO.C,U6*%
X140255000Y-62325000D02*
X140255000Y-67425000D01*
X140255000Y-62325000D02*
X145255000Y-62325000D01*
X145255000Y-67425000D02*
X140255000Y-67425000D01*
X145255000Y-67425000D02*
X145255000Y-62325000D01*
%TO.C,R7*%
X127045000Y-77370000D02*
X128945000Y-77370000D01*
X127045000Y-81070000D02*
X127045000Y-77370000D01*
X128945000Y-77370000D02*
X128945000Y-81070000D01*
X128945000Y-81070000D02*
X127045000Y-81070000D01*
%TO.C,JP1*%
X84780000Y-65715000D02*
X84780000Y-74335000D01*
X84780000Y-74335000D02*
X88320000Y-74335000D01*
X88320000Y-65715000D02*
X84780000Y-65715000D01*
X88320000Y-74335000D02*
X88320000Y-65715000D01*
%TO.C,R35*%
X120417400Y-81047500D02*
X122317400Y-81047500D01*
X120417400Y-84747500D02*
X120417400Y-81047500D01*
X122317400Y-81047500D02*
X122317400Y-84747500D01*
X122317400Y-84747500D02*
X120417400Y-84747500D01*
%TO.C,R8*%
X147110000Y-68430000D02*
X150810000Y-68430000D01*
X147110000Y-70330000D02*
X147110000Y-68430000D01*
X150810000Y-68430000D02*
X150810000Y-70330000D01*
X150810000Y-70330000D02*
X147110000Y-70330000D01*
%TO.C,C8*%
X140225000Y-67490000D02*
X144825000Y-67490000D01*
X140225000Y-70690000D02*
X140225000Y-67490000D01*
X144825000Y-67490000D02*
X144825000Y-70690000D01*
X144825000Y-70690000D02*
X140225000Y-70690000D01*
%TO.C,D6*%
X150220000Y-93279286D02*
X150220000Y-95179286D01*
X150220000Y-93279286D02*
X153420000Y-93279286D01*
X150220000Y-95179286D02*
X153420000Y-95179286D01*
X153420000Y-93279286D02*
X153420000Y-95179286D01*
%TO.C,Q4*%
X139655000Y-78495000D02*
X139855000Y-78495000D01*
X139655000Y-80295000D02*
X139655000Y-78495000D01*
X139855000Y-77465000D02*
X142855000Y-77465000D01*
X139855000Y-78495000D02*
X139855000Y-77465000D01*
X140805000Y-80295000D02*
X139655000Y-80295000D01*
X140805000Y-81325000D02*
X140805000Y-80295000D01*
X141905000Y-80295000D02*
X141905000Y-81325000D01*
X141905000Y-81325000D02*
X140805000Y-81325000D01*
X142855000Y-77465000D02*
X142855000Y-78495000D01*
X142855000Y-78495000D02*
X143055000Y-78495000D01*
X143055000Y-78495000D02*
X143055000Y-80295000D01*
X143055000Y-80295000D02*
X141905000Y-80295000D01*
%TO.C,R13*%
X103695000Y-99520000D02*
X105595000Y-99520000D01*
X103695000Y-103220000D02*
X103695000Y-99520000D01*
X105595000Y-99520000D02*
X105595000Y-103220000D01*
X105595000Y-103220000D02*
X103695000Y-103220000D01*
%TO.C,U9*%
X125920000Y-63670000D02*
X126920000Y-63670000D01*
X125920000Y-66670000D02*
X125920000Y-63670000D01*
X126920000Y-63470000D02*
X129020000Y-63470000D01*
X126920000Y-63670000D02*
X126920000Y-63470000D01*
X126920000Y-66670000D02*
X125920000Y-66670000D01*
X126920000Y-66870000D02*
X126920000Y-66670000D01*
X129020000Y-63470000D02*
X129020000Y-63670000D01*
X129020000Y-63670000D02*
X130020000Y-63670000D01*
X129020000Y-66670000D02*
X129020000Y-66870000D01*
X129020000Y-66870000D02*
X126920000Y-66870000D01*
X130020000Y-63670000D02*
X130020000Y-66670000D01*
X130020000Y-66670000D02*
X129020000Y-66670000D01*
%TO.C,R3*%
X122530000Y-111940000D02*
X126230000Y-111940000D01*
X122530000Y-113840000D02*
X122530000Y-111940000D01*
X126230000Y-111940000D02*
X126230000Y-113840000D01*
X126230000Y-113840000D02*
X122530000Y-113840000D01*
%TO.C,D2*%
X124080000Y-73841000D02*
X127440000Y-73841000D01*
X124080000Y-75741000D02*
X124080000Y-73841000D01*
X127440000Y-73841000D02*
X127440000Y-75741000D01*
X127440000Y-75741000D02*
X124080000Y-75741000D01*
%TO.C,R33*%
X148420000Y-103325000D02*
X152120000Y-103325000D01*
X148420000Y-105225000D02*
X148420000Y-103325000D01*
X152120000Y-103325000D02*
X152120000Y-105225000D01*
X152120000Y-105225000D02*
X148420000Y-105225000D01*
%TO.C,C2*%
X110820000Y-91410000D02*
X113120000Y-91410000D01*
X110820000Y-96010000D02*
X110820000Y-91410000D01*
X113120000Y-91410000D02*
X113120000Y-96010000D01*
X113120000Y-96010000D02*
X110820000Y-96010000D01*
%TO.C,R10*%
X148420000Y-109140000D02*
X152120000Y-109140000D01*
X148420000Y-111040000D02*
X148420000Y-109140000D01*
X152120000Y-109140000D02*
X152120000Y-111040000D01*
X152120000Y-111040000D02*
X148420000Y-111040000D01*
%TO.C,Q7*%
X118384800Y-85100000D02*
X119414800Y-85100000D01*
X118384800Y-88100000D02*
X118384800Y-85100000D01*
X119414800Y-84900000D02*
X121214800Y-84900000D01*
X119414800Y-85100000D02*
X119414800Y-84900000D01*
X119414800Y-88100000D02*
X118384800Y-88100000D01*
X119414800Y-88300000D02*
X119414800Y-88100000D01*
X121214800Y-84900000D02*
X121214800Y-86050000D01*
X121214800Y-86050000D02*
X122244800Y-86050000D01*
X121214800Y-87150000D02*
X121214800Y-88300000D01*
X121214800Y-88300000D02*
X119414800Y-88300000D01*
X122244800Y-86050000D02*
X122244800Y-87150000D01*
X122244800Y-87150000D02*
X121214800Y-87150000D01*
%TO.C,R20*%
X122510000Y-117800000D02*
X126210000Y-117800000D01*
X122510000Y-119700000D02*
X122510000Y-117800000D01*
X126210000Y-117800000D02*
X126210000Y-119700000D01*
X126210000Y-119700000D02*
X122510000Y-119700000D01*
%TO.C,R23*%
X147310000Y-76330000D02*
X151010000Y-76330000D01*
X147310000Y-78230000D02*
X147310000Y-76330000D01*
X151010000Y-76330000D02*
X151010000Y-78230000D01*
X151010000Y-78230000D02*
X147310000Y-78230000D01*
%TO.C,D3*%
X128390916Y-88270994D02*
X129193890Y-86549008D01*
X129193890Y-86549008D02*
X132239084Y-87969006D01*
X131436110Y-89690992D02*
X128390916Y-88270994D01*
X132239084Y-87969006D02*
X131436110Y-89690992D01*
%TO.C,R1*%
X135239000Y-73841000D02*
X138939000Y-73841000D01*
X135239000Y-75741000D02*
X135239000Y-73841000D01*
X138939000Y-73841000D02*
X138939000Y-75741000D01*
X138939000Y-75741000D02*
X135239000Y-75741000D01*
%TO.C,Q2*%
X137395000Y-101860000D02*
X138425000Y-101860000D01*
X137395000Y-102960000D02*
X137395000Y-101860000D01*
X138425000Y-100710000D02*
X140225000Y-100710000D01*
X138425000Y-101860000D02*
X138425000Y-100710000D01*
X138425000Y-102960000D02*
X137395000Y-102960000D01*
X138425000Y-104110000D02*
X138425000Y-102960000D01*
X140225000Y-100710000D02*
X140225000Y-100910000D01*
X140225000Y-100910000D02*
X141255000Y-100910000D01*
X140225000Y-103910000D02*
X140225000Y-104110000D01*
X140225000Y-104110000D02*
X138425000Y-104110000D01*
X141255000Y-100910000D02*
X141255000Y-103910000D01*
X141255000Y-103910000D02*
X140225000Y-103910000D01*
%TO.C,Q8*%
X144890000Y-85100000D02*
X145920000Y-85100000D01*
X144890000Y-88100000D02*
X144890000Y-85100000D01*
X145920000Y-84900000D02*
X147720000Y-84900000D01*
X145920000Y-85100000D02*
X145920000Y-84900000D01*
X145920000Y-88100000D02*
X144890000Y-88100000D01*
X145920000Y-88300000D02*
X145920000Y-88100000D01*
X147720000Y-84900000D02*
X147720000Y-86050000D01*
X147720000Y-86050000D02*
X148750000Y-86050000D01*
X147720000Y-87150000D02*
X147720000Y-88300000D01*
X147720000Y-88300000D02*
X145920000Y-88300000D01*
X148750000Y-86050000D02*
X148750000Y-87150000D01*
X148750000Y-87150000D02*
X147720000Y-87150000D01*
%TO.C,C1*%
X99460000Y-90930000D02*
X101760000Y-90930000D01*
X99460000Y-95530000D02*
X99460000Y-90930000D01*
X101760000Y-90930000D02*
X101760000Y-95530000D01*
X101760000Y-95530000D02*
X99460000Y-95530000D01*
%TO.C,U8*%
X125920000Y-67505000D02*
X126920000Y-67505000D01*
X125920000Y-70505000D02*
X125920000Y-67505000D01*
X126920000Y-67305000D02*
X129020000Y-67305000D01*
X126920000Y-67505000D02*
X126920000Y-67305000D01*
X126920000Y-70505000D02*
X125920000Y-70505000D01*
X126920000Y-70705000D02*
X126920000Y-70505000D01*
X129020000Y-67305000D02*
X129020000Y-67505000D01*
X129020000Y-67505000D02*
X130020000Y-67505000D01*
X129020000Y-70505000D02*
X129020000Y-70705000D01*
X129020000Y-70705000D02*
X126920000Y-70705000D01*
X130020000Y-67505000D02*
X130020000Y-70505000D01*
X130020000Y-70505000D02*
X129020000Y-70505000D01*
%TO.C,C3*%
X110820000Y-86770000D02*
X113120000Y-86770000D01*
X110820000Y-91370000D02*
X110820000Y-86770000D01*
X113120000Y-86770000D02*
X113120000Y-91370000D01*
X113120000Y-91370000D02*
X110820000Y-91370000D01*
%TO.C,R21*%
X122515000Y-113900000D02*
X126215000Y-113900000D01*
X122515000Y-115800000D02*
X122515000Y-113900000D01*
X126215000Y-113900000D02*
X126215000Y-115800000D01*
X126215000Y-115800000D02*
X122515000Y-115800000D01*
%TO.C,U5*%
X101875000Y-91395000D02*
X110595000Y-91395000D01*
X101875000Y-98835000D02*
X101875000Y-91395000D01*
X110595000Y-91395000D02*
X110595000Y-98835000D01*
X110595000Y-98835000D02*
X101875000Y-98835000D01*
%TO.C,Q1*%
X125263738Y-100866260D02*
X126293738Y-100866260D01*
X125263738Y-103866260D02*
X125263738Y-100866260D01*
X126293738Y-100666260D02*
X128093738Y-100666260D01*
X126293738Y-100866260D02*
X126293738Y-100666260D01*
X126293738Y-103866260D02*
X125263738Y-103866260D01*
X126293738Y-104066260D02*
X126293738Y-103866260D01*
X128093738Y-100666260D02*
X128093738Y-101816260D01*
X128093738Y-101816260D02*
X129123738Y-101816260D01*
X128093738Y-102916260D02*
X128093738Y-104066260D01*
X128093738Y-104066260D02*
X126293738Y-104066260D01*
X129123738Y-101816260D02*
X129123738Y-102916260D01*
X129123738Y-102916260D02*
X128093738Y-102916260D01*
%TO.C,R18*%
X106727500Y-87550000D02*
X108627500Y-87550000D01*
X106727500Y-91250000D02*
X106727500Y-87550000D01*
X108627500Y-87550000D02*
X108627500Y-91250000D01*
X108627500Y-91250000D02*
X106727500Y-91250000D01*
%TO.C,SW1*%
X85820000Y-83220000D02*
X87420000Y-83220000D01*
X85820000Y-94120000D02*
X85820000Y-83220000D01*
X87420000Y-83220000D02*
X87420000Y-94120000D01*
X87420000Y-94120000D02*
X85820000Y-94120000D01*
%TO.C,R30*%
X119940000Y-75463334D02*
X123640000Y-75463334D01*
X119940000Y-77363334D02*
X119940000Y-75463334D01*
X123640000Y-75463334D02*
X123640000Y-77363334D01*
X123640000Y-77363334D02*
X119940000Y-77363334D01*
%TO.C,RV1*%
X90770000Y-102475000D02*
X84270000Y-102475000D01*
X84270000Y-107475000D01*
X90770000Y-107475000D01*
X90770000Y-102475000D01*
%TO.C,R14*%
X111100000Y-96050000D02*
X113000000Y-96050000D01*
X111100000Y-99750000D02*
X111100000Y-96050000D01*
X113000000Y-96050000D02*
X113000000Y-99750000D01*
X113000000Y-99750000D02*
X111100000Y-99750000D01*
%TO.C,R15*%
X106625000Y-99490000D02*
X108525000Y-99490000D01*
X106625000Y-103190000D02*
X106625000Y-99490000D01*
X108525000Y-99490000D02*
X108525000Y-103190000D01*
X108525000Y-103190000D02*
X106625000Y-103190000D01*
%TO.C,R25*%
X148520000Y-100183571D02*
X152220000Y-100183571D01*
X148520000Y-102083571D02*
X148520000Y-100183571D01*
X152220000Y-100183571D02*
X152220000Y-102083571D01*
X152220000Y-102083571D02*
X148520000Y-102083571D01*
%TO.C,D5*%
X150320000Y-58210000D02*
X157320000Y-58210000D01*
X150320000Y-61710000D02*
X150320000Y-58210000D01*
X157320000Y-58210000D02*
X157320000Y-61710000D01*
X157320000Y-61710000D02*
X150320000Y-61710000D01*
%TO.C,U10*%
X130415000Y-67495000D02*
X131415000Y-67495000D01*
X130415000Y-70495000D02*
X130415000Y-67495000D01*
X131415000Y-67295000D02*
X133515000Y-67295000D01*
X131415000Y-67495000D02*
X131415000Y-67295000D01*
X131415000Y-70495000D02*
X130415000Y-70495000D01*
X131415000Y-70695000D02*
X131415000Y-70495000D01*
X133515000Y-67295000D02*
X133515000Y-67495000D01*
X133515000Y-67495000D02*
X134515000Y-67495000D01*
X133515000Y-70495000D02*
X133515000Y-70695000D01*
X133515000Y-70695000D02*
X131415000Y-70695000D01*
X134515000Y-67495000D02*
X134515000Y-70495000D01*
X134515000Y-70495000D02*
X133515000Y-70495000D01*
%TO.C,R28*%
X146870000Y-80950000D02*
X148770000Y-80950000D01*
X146870000Y-84650000D02*
X146870000Y-80950000D01*
X148770000Y-80950000D02*
X148770000Y-84650000D01*
X148770000Y-84650000D02*
X146870000Y-84650000D01*
%TO.C,TP1*%
X128375000Y-58725000D02*
G75*
G02*
X124775000Y-58725000I-1800000J0D01*
G01*
X124775000Y-58725000D02*
G75*
G02*
X128375000Y-58725000I1800000J0D01*
G01*
%TO.C,R22*%
X147310000Y-74350000D02*
X151010000Y-74350000D01*
X147310000Y-76250000D02*
X147310000Y-74350000D01*
X151010000Y-74350000D02*
X151010000Y-76250000D01*
X151010000Y-76250000D02*
X147310000Y-76250000D01*
%TO.C,R11*%
X99680000Y-95610000D02*
X101580000Y-95610000D01*
X99680000Y-99310000D02*
X99680000Y-95610000D01*
X101580000Y-95610000D02*
X101580000Y-99310000D01*
X101580000Y-99310000D02*
X99680000Y-99310000D01*
%TO.C,U11*%
X109215000Y-83000000D02*
X110215000Y-83000000D01*
X109215000Y-86000000D02*
X109215000Y-83000000D01*
X110215000Y-82800000D02*
X112315000Y-82800000D01*
X110215000Y-83000000D02*
X110215000Y-82800000D01*
X110215000Y-86000000D02*
X109215000Y-86000000D01*
X110215000Y-86200000D02*
X110215000Y-86000000D01*
X112315000Y-82800000D02*
X112315000Y-83000000D01*
X112315000Y-83000000D02*
X113315000Y-83000000D01*
X112315000Y-86000000D02*
X112315000Y-86200000D01*
X112315000Y-86200000D02*
X110215000Y-86200000D01*
X113315000Y-83000000D02*
X113315000Y-86000000D01*
X113315000Y-86000000D02*
X112315000Y-86000000D01*
%TO.C,D4*%
X134415915Y-87999007D02*
X137461108Y-86579008D01*
X135218892Y-89720992D02*
X134415915Y-87999007D01*
X137461108Y-86579008D02*
X138264085Y-88300993D01*
X138264085Y-88300993D02*
X135218892Y-89720992D01*
%TO.C,R6*%
X149820000Y-90827143D02*
X153520000Y-90827143D01*
X149820000Y-92727143D02*
X149820000Y-90827143D01*
X153520000Y-90827143D02*
X153520000Y-92727143D01*
X153520000Y-92727143D02*
X149820000Y-92727143D01*
%TO.C,R29*%
X119940000Y-73550001D02*
X123640000Y-73550001D01*
X119940000Y-75450001D02*
X119940000Y-73550001D01*
X123640000Y-73550001D02*
X123640000Y-75450001D01*
X123640000Y-75450001D02*
X119940000Y-75450001D01*
%TO.C,R26*%
X118417400Y-81050000D02*
X120317400Y-81050000D01*
X118417400Y-84750000D02*
X118417400Y-81050000D01*
X120317400Y-81050000D02*
X120317400Y-84750000D01*
X120317400Y-84750000D02*
X118417400Y-84750000D01*
%TO.C,R9*%
X137645000Y-77470000D02*
X139545000Y-77470000D01*
X137645000Y-81170000D02*
X137645000Y-77470000D01*
X139545000Y-77470000D02*
X139545000Y-81170000D01*
X139545000Y-81170000D02*
X137645000Y-81170000D01*
%TO.C,R32*%
X148420000Y-105225000D02*
X152120000Y-105225000D01*
X148420000Y-107125000D02*
X148420000Y-105225000D01*
X152120000Y-105225000D02*
X152120000Y-107125000D01*
X152120000Y-107125000D02*
X148420000Y-107125000D01*
%TD*%
M02*
