%TF.GenerationSoftware,KiCad,Pcbnew,9.0.2*%
%TF.CreationDate,2025-07-21T22:11:42-06:00*%
%TF.ProjectId,Pico_H-bridge_complete,5069636f-5f48-42d6-9272-696467655f63,rev?*%
%TF.SameCoordinates,Original*%
%TF.FileFunction,Soldermask,Top*%
%TF.FilePolarity,Negative*%
%FSLAX46Y46*%
G04 Gerber Fmt 4.6, Leading zero omitted, Abs format (unit mm)*
G04 Created by KiCad (PCBNEW 9.0.2) date 2025-07-21 22:11:42*
%MOMM*%
%LPD*%
G01*
G04 APERTURE LIST*
G04 Aperture macros list*
%AMRoundRect*
0 Rectangle with rounded corners*
0 $1 Rounding radius*
0 $2 $3 $4 $5 $6 $7 $8 $9 X,Y pos of 4 corners*
0 Add a 4 corners polygon primitive as box body*
4,1,4,$2,$3,$4,$5,$6,$7,$8,$9,$2,$3,0*
0 Add four circle primitives for the rounded corners*
1,1,$1+$1,$2,$3*
1,1,$1+$1,$4,$5*
1,1,$1+$1,$6,$7*
1,1,$1+$1,$8,$9*
0 Add four rect primitives between the rounded corners*
20,1,$1+$1,$2,$3,$4,$5,0*
20,1,$1+$1,$4,$5,$6,$7,0*
20,1,$1+$1,$6,$7,$8,$9,0*
20,1,$1+$1,$8,$9,$2,$3,0*%
%AMFreePoly0*
4,1,37,0.800000,0.796148,0.878414,0.796148,1.032228,0.765552,1.177117,0.705537,1.307515,0.618408,1.418408,0.507515,1.505537,0.377117,1.565552,0.232228,1.596148,0.078414,1.596148,-0.078414,1.565552,-0.232228,1.505537,-0.377117,1.418408,-0.507515,1.307515,-0.618408,1.177117,-0.705537,1.032228,-0.765552,0.878414,-0.796148,0.800000,-0.796148,0.800000,-0.800000,-1.400000,-0.800000,
-1.403843,-0.796157,-1.439018,-0.796157,-1.511114,-0.766294,-1.566294,-0.711114,-1.596157,-0.639018,-1.596157,-0.603843,-1.600000,-0.600000,-1.600000,0.600000,-1.596157,0.603843,-1.596157,0.639018,-1.566294,0.711114,-1.511114,0.766294,-1.439018,0.796157,-1.403843,0.796157,-1.400000,0.800000,0.800000,0.800000,0.800000,0.796148,0.800000,0.796148,$1*%
%AMFreePoly1*
4,1,37,1.403843,0.796157,1.439018,0.796157,1.511114,0.766294,1.566294,0.711114,1.596157,0.639018,1.596157,0.603843,1.600000,0.600000,1.600000,-0.600000,1.596157,-0.603843,1.596157,-0.639018,1.566294,-0.711114,1.511114,-0.766294,1.439018,-0.796157,1.403843,-0.796157,1.400000,-0.800000,-0.800000,-0.800000,-0.800000,-0.796148,-0.878414,-0.796148,-1.032228,-0.765552,-1.177117,-0.705537,
-1.307515,-0.618408,-1.418408,-0.507515,-1.505537,-0.377117,-1.565552,-0.232228,-1.596148,-0.078414,-1.596148,0.078414,-1.565552,0.232228,-1.505537,0.377117,-1.418408,0.507515,-1.307515,0.618408,-1.177117,0.705537,-1.032228,0.765552,-0.878414,0.796148,-0.800000,0.796148,-0.800000,0.800000,1.400000,0.800000,1.403843,0.796157,1.403843,0.796157,$1*%
%AMFreePoly2*
4,1,37,0.603843,0.796157,0.639018,0.796157,0.711114,0.766294,0.766294,0.711114,0.796157,0.639018,0.796157,0.603843,0.800000,0.600000,0.800000,-0.600000,0.796157,-0.603843,0.796157,-0.639018,0.766294,-0.711114,0.711114,-0.766294,0.639018,-0.796157,0.603843,-0.796157,0.600000,-0.800000,0.000000,-0.800000,0.000000,-0.796148,-0.078414,-0.796148,-0.232228,-0.765552,-0.377117,-0.705537,
-0.507515,-0.618408,-0.618408,-0.507515,-0.705537,-0.377117,-0.765552,-0.232228,-0.796148,-0.078414,-0.796148,0.078414,-0.765552,0.232228,-0.705537,0.377117,-0.618408,0.507515,-0.507515,0.618408,-0.377117,0.705537,-0.232228,0.765552,-0.078414,0.796148,0.000000,0.796148,0.000000,0.800000,0.600000,0.800000,0.603843,0.796157,0.603843,0.796157,$1*%
%AMFreePoly3*
4,1,37,0.000000,0.796148,0.078414,0.796148,0.232228,0.765552,0.377117,0.705537,0.507515,0.618408,0.618408,0.507515,0.705537,0.377117,0.765552,0.232228,0.796148,0.078414,0.796148,-0.078414,0.765552,-0.232228,0.705537,-0.377117,0.618408,-0.507515,0.507515,-0.618408,0.377117,-0.705537,0.232228,-0.765552,0.078414,-0.796148,0.000000,-0.796148,0.000000,-0.800000,-0.600000,-0.800000,
-0.603843,-0.796157,-0.639018,-0.796157,-0.711114,-0.766294,-0.766294,-0.711114,-0.796157,-0.639018,-0.796157,-0.603843,-0.800000,-0.600000,-0.800000,0.600000,-0.796157,0.603843,-0.796157,0.639018,-0.766294,0.711114,-0.711114,0.766294,-0.639018,0.796157,-0.603843,0.796157,-0.600000,0.800000,0.000000,0.800000,0.000000,0.796148,0.000000,0.796148,$1*%
%AMFreePoly4*
4,1,9,3.862500,-0.866500,0.737500,-0.866500,0.737500,-0.450000,-0.737500,-0.450000,-0.737500,0.450000,0.737500,0.450000,0.737500,0.866500,3.862500,0.866500,3.862500,-0.866500,3.862500,-0.866500,$1*%
G04 Aperture macros list end*
%ADD10RoundRect,0.150000X-0.150000X0.587500X-0.150000X-0.587500X0.150000X-0.587500X0.150000X0.587500X0*%
%ADD11RoundRect,0.250000X0.350000X0.450000X-0.350000X0.450000X-0.350000X-0.450000X0.350000X-0.450000X0*%
%ADD12FreePoly0,0.000000*%
%ADD13RoundRect,0.200000X-0.600000X-0.600000X0.600000X-0.600000X0.600000X0.600000X-0.600000X0.600000X0*%
%ADD14RoundRect,0.800000X-0.800000X-0.000010X0.800000X-0.000010X0.800000X0.000010X-0.800000X0.000010X0*%
%ADD15C,1.600000*%
%ADD16FreePoly1,0.000000*%
%ADD17FreePoly2,0.000000*%
%ADD18FreePoly3,0.000000*%
%ADD19RoundRect,0.250000X0.325000X1.100000X-0.325000X1.100000X-0.325000X-1.100000X0.325000X-1.100000X0*%
%ADD20C,3.000000*%
%ADD21R,1.700000X1.700000*%
%ADD22C,1.700000*%
%ADD23RoundRect,0.250000X-0.450000X0.350000X-0.450000X-0.350000X0.450000X-0.350000X0.450000X0.350000X0*%
%ADD24RoundRect,0.250000X0.450000X-0.350000X0.450000X0.350000X-0.450000X0.350000X-0.450000X-0.350000X0*%
%ADD25C,2.800000*%
%ADD26RoundRect,0.250000X0.600000X0.725000X-0.600000X0.725000X-0.600000X-0.725000X0.600000X-0.725000X0*%
%ADD27O,1.700000X1.950000*%
%ADD28RoundRect,0.250000X1.050000X-1.050000X1.050000X1.050000X-1.050000X1.050000X-1.050000X-1.050000X0*%
%ADD29C,2.600000*%
%ADD30RoundRect,0.225000X-0.225000X-0.250000X0.225000X-0.250000X0.225000X0.250000X-0.225000X0.250000X0*%
%ADD31RoundRect,0.250000X-0.325000X-1.100000X0.325000X-1.100000X0.325000X1.100000X-0.325000X1.100000X0*%
%ADD32RoundRect,0.225000X0.225000X-0.425000X0.225000X0.425000X-0.225000X0.425000X-0.225000X-0.425000X0*%
%ADD33FreePoly4,90.000000*%
%ADD34RoundRect,0.112500X-0.187500X-0.112500X0.187500X-0.112500X0.187500X0.112500X-0.187500X0.112500X0*%
%ADD35RoundRect,0.243750X0.243750X0.456250X-0.243750X0.456250X-0.243750X-0.456250X0.243750X-0.456250X0*%
%ADD36RoundRect,0.250000X-1.050000X-1.050000X1.050000X-1.050000X1.050000X1.050000X-1.050000X1.050000X0*%
%ADD37RoundRect,0.150000X0.512500X0.150000X-0.512500X0.150000X-0.512500X-0.150000X0.512500X-0.150000X0*%
%ADD38RoundRect,0.243750X-0.243750X-0.456250X0.243750X-0.456250X0.243750X0.456250X-0.243750X0.456250X0*%
%ADD39RoundRect,0.250000X0.650000X-0.325000X0.650000X0.325000X-0.650000X0.325000X-0.650000X-0.325000X0*%
%ADD40RoundRect,0.150000X-0.587500X-0.150000X0.587500X-0.150000X0.587500X0.150000X-0.587500X0.150000X0*%
%ADD41RoundRect,0.250000X-0.350000X-0.450000X0.350000X-0.450000X0.350000X0.450000X-0.350000X0.450000X0*%
%ADD42RoundRect,0.243750X0.413732X0.310490X-0.028093X0.516516X-0.413732X-0.310490X0.028093X-0.516516X0*%
%ADD43RoundRect,0.150000X0.587500X0.150000X-0.587500X0.150000X-0.587500X-0.150000X0.587500X-0.150000X0*%
%ADD44R,0.600000X1.550000*%
%ADD45R,1.100000X1.500000*%
%ADD46RoundRect,0.250000X-0.750000X0.400000X-0.750000X-0.400000X0.750000X-0.400000X0.750000X0.400000X0*%
%ADD47RoundRect,0.250000X-0.750000X0.750000X-0.750000X-0.750000X0.750000X-0.750000X0.750000X0.750000X0*%
%ADD48RoundRect,0.250000X-1.000000X-0.650000X1.000000X-0.650000X1.000000X0.650000X-1.000000X0.650000X0*%
%ADD49RoundRect,0.150000X-0.512500X-0.150000X0.512500X-0.150000X0.512500X0.150000X-0.512500X0.150000X0*%
%ADD50RoundRect,0.243750X-0.028093X-0.516516X0.413732X-0.310490X0.028093X0.516516X-0.413732X0.310490X0*%
G04 APERTURE END LIST*
D10*
%TO.C,Q6*%
X150190000Y-71402500D03*
X148290000Y-71402500D03*
X149240000Y-73277500D03*
%TD*%
D11*
%TO.C,R34*%
X151270000Y-108125000D03*
X149270000Y-108125000D03*
%TD*%
D12*
%TO.C,U1*%
X96600000Y-64300000D03*
D13*
X97400000Y-64300000D03*
D14*
X96600000Y-66840000D03*
D15*
X97400000Y-66840000D03*
D16*
X96600000Y-69380000D03*
D17*
X97400000Y-69380000D03*
D14*
X96600000Y-71920000D03*
D15*
X97400000Y-71920000D03*
D14*
X96600000Y-74460000D03*
D15*
X97400000Y-74460000D03*
D14*
X96600000Y-77000000D03*
D15*
X97400000Y-77000000D03*
D14*
X96600000Y-79540000D03*
D15*
X97400000Y-79540000D03*
D16*
X96600000Y-82080000D03*
D17*
X97400000Y-82080000D03*
D14*
X96600000Y-84620000D03*
D15*
X97400000Y-84620000D03*
D14*
X96600000Y-87160000D03*
D15*
X97400000Y-87160000D03*
D14*
X96600000Y-89700000D03*
D15*
X97400000Y-89700000D03*
D14*
X96600000Y-92240000D03*
D15*
X97400000Y-92240000D03*
D16*
X96600000Y-94780000D03*
D17*
X97400000Y-94780000D03*
D14*
X96600000Y-97320000D03*
D15*
X97400000Y-97320000D03*
D14*
X96600000Y-99860000D03*
D15*
X97400000Y-99860000D03*
D14*
X96600000Y-102400000D03*
D15*
X97400000Y-102400000D03*
D14*
X96600000Y-104940000D03*
D15*
X97400000Y-104940000D03*
D16*
X96600000Y-107480000D03*
D17*
X97400000Y-107480000D03*
D14*
X96600000Y-110020000D03*
D15*
X97400000Y-110020000D03*
D14*
X96600000Y-112560000D03*
D15*
X97400000Y-112560000D03*
X115180000Y-112560000D03*
D14*
X115980000Y-112560000D03*
D15*
X115180000Y-110020000D03*
D14*
X115980000Y-110020000D03*
D18*
X115180000Y-107480000D03*
D12*
X115980000Y-107480000D03*
D15*
X115180000Y-104940000D03*
D14*
X115980000Y-104940000D03*
D15*
X115180000Y-102400000D03*
D14*
X115980000Y-102400000D03*
D15*
X115180000Y-99860000D03*
D14*
X115980000Y-99860000D03*
D15*
X115180000Y-97320000D03*
D14*
X115980000Y-97320000D03*
D18*
X115180000Y-94780000D03*
D12*
X115980000Y-94780000D03*
D15*
X115180000Y-92240000D03*
D14*
X115980000Y-92240000D03*
D15*
X115180000Y-89700000D03*
D14*
X115980000Y-89700000D03*
D15*
X115180000Y-87160000D03*
D14*
X115980000Y-87160000D03*
D15*
X115180000Y-84620000D03*
D14*
X115980000Y-84620000D03*
D18*
X115180000Y-82080000D03*
D12*
X115980000Y-82080000D03*
D15*
X115180000Y-79540000D03*
D14*
X115980000Y-79540000D03*
D15*
X115180000Y-77000000D03*
D14*
X115980000Y-77000000D03*
D15*
X115180000Y-74460000D03*
D14*
X115980000Y-74460000D03*
D15*
X115180000Y-71920000D03*
D14*
X115980000Y-71920000D03*
D18*
X115180000Y-69380000D03*
D12*
X115980000Y-69380000D03*
D15*
X115180000Y-66840000D03*
D14*
X115980000Y-66840000D03*
D15*
X115180000Y-64300000D03*
D14*
X115980000Y-64300000D03*
%TD*%
D19*
%TO.C,C4*%
X149245000Y-59905000D03*
X146295000Y-59905000D03*
%TD*%
D11*
%TO.C,R5*%
X125380000Y-116790000D03*
X123380000Y-116790000D03*
%TD*%
%TO.C,R4*%
X152570000Y-96181429D03*
X150570000Y-96181429D03*
%TD*%
%TO.C,R2*%
X130325000Y-74791000D03*
X128325000Y-74791000D03*
%TD*%
D20*
%TO.C,TP2*%
X139572778Y-58725000D03*
%TD*%
D21*
%TO.C,J4*%
X134405000Y-105995000D03*
D22*
X131865000Y-105995000D03*
%TD*%
D11*
%TO.C,R31*%
X122740000Y-68713334D03*
X120740000Y-68713334D03*
%TD*%
%TO.C,R24*%
X151370000Y-99185714D03*
X149370000Y-99185714D03*
%TD*%
D23*
%TO.C,R27*%
X145820000Y-81800000D03*
X145820000Y-83800000D03*
%TD*%
D24*
%TO.C,R12*%
X102665000Y-102360000D03*
X102665000Y-100360000D03*
%TD*%
D25*
%TO.C,TP6*%
X130907593Y-58725000D03*
%TD*%
D26*
%TO.C,J2*%
X154075000Y-117555000D03*
D27*
X151575000Y-117555000D03*
X149075000Y-117555000D03*
X146575000Y-117555000D03*
X144075000Y-117555000D03*
X141575000Y-117555000D03*
%TD*%
D28*
%TO.C,J1*%
X160220000Y-110300000D03*
D29*
X160220000Y-105300000D03*
X160220000Y-100300000D03*
X160220000Y-95300000D03*
X160220000Y-90300000D03*
X160220000Y-85300000D03*
X160220000Y-80300000D03*
X160220000Y-75300000D03*
X160220000Y-70300000D03*
X160220000Y-65300000D03*
%TD*%
D20*
%TO.C,TP3*%
X135240185Y-58725000D03*
%TD*%
D30*
%TO.C,C5*%
X132350000Y-108600000D03*
X133900000Y-108600000D03*
%TD*%
D31*
%TO.C,C12*%
X135935000Y-69100000D03*
X138885000Y-69100000D03*
%TD*%
D10*
%TO.C,Q3*%
X126260000Y-78217500D03*
X124360000Y-78217500D03*
X125310000Y-80092500D03*
%TD*%
D32*
%TO.C,U7*%
X136155000Y-66525000D03*
D33*
X137655000Y-66437500D03*
D32*
X139155000Y-66525000D03*
%TD*%
D10*
%TO.C,Q5*%
X122690000Y-70669167D03*
X120790000Y-70669167D03*
X121740000Y-72544167D03*
%TD*%
D34*
%TO.C,D7*%
X150870000Y-89825000D03*
X152970000Y-89825000D03*
%TD*%
D35*
%TO.C,D1*%
X141615500Y-74791000D03*
X139740500Y-74791000D03*
%TD*%
D36*
%TO.C,J3*%
X130425000Y-115100000D03*
D29*
X135425000Y-115100000D03*
%TD*%
D23*
%TO.C,R16*%
X109555000Y-100330000D03*
X109555000Y-102330000D03*
%TD*%
D24*
%TO.C,R17*%
X109670000Y-90410000D03*
X109670000Y-88410000D03*
%TD*%
%TO.C,R19*%
X105685000Y-90400000D03*
X105685000Y-88400000D03*
%TD*%
D32*
%TO.C,U6*%
X141255000Y-66525000D03*
D33*
X142755000Y-66437500D03*
D32*
X144255000Y-66525000D03*
%TD*%
D23*
%TO.C,R7*%
X127995000Y-78220000D03*
X127995000Y-80220000D03*
%TD*%
D21*
%TO.C,JP1*%
X86550000Y-67485000D03*
D22*
X86550000Y-70025000D03*
X86550000Y-72565000D03*
%TD*%
D23*
%TO.C,R35*%
X121367400Y-81897500D03*
X121367400Y-83897500D03*
%TD*%
D11*
%TO.C,R8*%
X149960000Y-69380000D03*
X147960000Y-69380000D03*
%TD*%
D31*
%TO.C,C8*%
X141050000Y-69090000D03*
X144000000Y-69090000D03*
%TD*%
D34*
%TO.C,D6*%
X150770000Y-94229286D03*
X152870000Y-94229286D03*
%TD*%
D10*
%TO.C,Q4*%
X142305000Y-78457500D03*
X140405000Y-78457500D03*
X141355000Y-80332500D03*
%TD*%
D23*
%TO.C,R13*%
X104645000Y-100370000D03*
X104645000Y-102370000D03*
%TD*%
D37*
%TO.C,U9*%
X129107500Y-66120000D03*
X129107500Y-65170000D03*
X129107500Y-64220000D03*
X126832500Y-64220000D03*
X126832500Y-66120000D03*
%TD*%
D11*
%TO.C,R3*%
X125380000Y-112890000D03*
X123380000Y-112890000D03*
%TD*%
D38*
%TO.C,D2*%
X124822500Y-74791000D03*
X126697500Y-74791000D03*
%TD*%
D11*
%TO.C,R33*%
X151270000Y-104275000D03*
X149270000Y-104275000D03*
%TD*%
D39*
%TO.C,C2*%
X111970000Y-95185000D03*
X111970000Y-92235000D03*
%TD*%
D11*
%TO.C,R10*%
X151270000Y-110090000D03*
X149270000Y-110090000D03*
%TD*%
D40*
%TO.C,Q7*%
X119377300Y-85650000D03*
X119377300Y-87550000D03*
X121252300Y-86600000D03*
%TD*%
D41*
%TO.C,R20*%
X123360000Y-118750000D03*
X125360000Y-118750000D03*
%TD*%
%TO.C,R23*%
X148160000Y-77280000D03*
X150160000Y-77280000D03*
%TD*%
D42*
%TO.C,D3*%
X131164663Y-88516204D03*
X129465337Y-87723796D03*
%TD*%
D41*
%TO.C,R1*%
X136089000Y-74791000D03*
X138089000Y-74791000D03*
%TD*%
D43*
%TO.C,Q2*%
X140262500Y-103360000D03*
X140262500Y-101460000D03*
X138387500Y-102410000D03*
%TD*%
D40*
%TO.C,Q8*%
X145882500Y-85650000D03*
X145882500Y-87550000D03*
X147757500Y-86600000D03*
%TD*%
D39*
%TO.C,C1*%
X100610000Y-94705000D03*
X100610000Y-91755000D03*
%TD*%
D37*
%TO.C,U8*%
X129107500Y-69955000D03*
X129107500Y-69005000D03*
X129107500Y-68055000D03*
X126832500Y-68055000D03*
X126832500Y-69955000D03*
%TD*%
D39*
%TO.C,C3*%
X111970000Y-90545000D03*
X111970000Y-87595000D03*
%TD*%
D41*
%TO.C,R21*%
X123365000Y-114850000D03*
X125365000Y-114850000D03*
%TD*%
D44*
%TO.C,U5*%
X102425000Y-97815000D03*
X103695000Y-97815000D03*
X104965000Y-97815000D03*
X106235000Y-97815000D03*
X107505000Y-97815000D03*
X108775000Y-97815000D03*
X110045000Y-97815000D03*
X110045000Y-92415000D03*
X108775000Y-92415000D03*
X107505000Y-92415000D03*
X106235000Y-92415000D03*
X104965000Y-92415000D03*
X103695000Y-92415000D03*
X102425000Y-92415000D03*
%TD*%
D40*
%TO.C,Q1*%
X126256238Y-101416260D03*
X126256238Y-103316260D03*
X128131238Y-102366260D03*
%TD*%
D23*
%TO.C,R18*%
X107677500Y-88400000D03*
X107677500Y-90400000D03*
%TD*%
D45*
%TO.C,SW1*%
X86620000Y-93120000D03*
X86620000Y-84220000D03*
%TD*%
D11*
%TO.C,R30*%
X122790000Y-76413334D03*
X120790000Y-76413334D03*
%TD*%
D46*
%TO.C,RV1*%
X89520000Y-106125000D03*
D47*
X85520000Y-104975000D03*
D46*
X89520000Y-103825000D03*
%TD*%
D24*
%TO.C,R14*%
X112050000Y-98900000D03*
X112050000Y-96900000D03*
%TD*%
%TO.C,R15*%
X107575000Y-102340000D03*
X107575000Y-100340000D03*
%TD*%
D41*
%TO.C,R25*%
X149370000Y-101133571D03*
X151370000Y-101133571D03*
%TD*%
D48*
%TO.C,D5*%
X151820000Y-59960000D03*
X155820000Y-59960000D03*
%TD*%
D37*
%TO.C,U10*%
X133602500Y-69945000D03*
X133602500Y-68995000D03*
X133602500Y-68045000D03*
X131327500Y-68045000D03*
X131327500Y-69945000D03*
%TD*%
D23*
%TO.C,R28*%
X147820000Y-81800000D03*
X147820000Y-83800000D03*
%TD*%
D20*
%TO.C,TP1*%
X126575000Y-58725000D03*
%TD*%
D11*
%TO.C,R22*%
X150160000Y-75300000D03*
X148160000Y-75300000D03*
%TD*%
D24*
%TO.C,R11*%
X100630000Y-98460000D03*
X100630000Y-96460000D03*
%TD*%
D49*
%TO.C,U11*%
X110127500Y-83550000D03*
X110127500Y-84500000D03*
X110127500Y-85450000D03*
X112402500Y-85450000D03*
X112402500Y-83550000D03*
%TD*%
D50*
%TO.C,D4*%
X135490336Y-88546205D03*
X137189664Y-87753795D03*
%TD*%
D11*
%TO.C,R6*%
X152670000Y-91777143D03*
X150670000Y-91777143D03*
%TD*%
%TO.C,R29*%
X122790000Y-74500001D03*
X120790000Y-74500001D03*
%TD*%
D23*
%TO.C,R26*%
X119367400Y-81900000D03*
X119367400Y-83900000D03*
%TD*%
D24*
%TO.C,R9*%
X138595000Y-80320000D03*
X138595000Y-78320000D03*
%TD*%
D11*
%TO.C,R32*%
X151270000Y-106175000D03*
X149270000Y-106175000D03*
%TD*%
M02*
