%TF.GenerationSoftware,KiCad,Pcbnew,9.0.2*%
%TF.CreationDate,2025-07-21T22:11:43-06:00*%
%TF.ProjectId,Pico_H-bridge_complete,5069636f-5f48-42d6-9272-696467655f63,rev?*%
%TF.SameCoordinates,Original*%
%TF.FileFunction,AssemblyDrawing,Top*%
%FSLAX46Y46*%
G04 Gerber Fmt 4.6, Leading zero omitted, Abs format (unit mm)*
G04 Created by KiCad (PCBNEW 9.0.2) date 2025-07-21 22:11:43*
%MOMM*%
%LPD*%
G01*
G04 APERTURE LIST*
%ADD10C,0.050000*%
%ADD11C,0.080000*%
%ADD12C,0.120000*%
%ADD13C,0.150000*%
%ADD14C,0.060000*%
%ADD15C,0.062500*%
%ADD16C,0.090000*%
%ADD17C,0.100000*%
G04 APERTURE END LIST*
D10*
X149415914Y-72370476D02*
X149400676Y-72400952D01*
X149400676Y-72400952D02*
X149370200Y-72431428D01*
X149370200Y-72431428D02*
X149324485Y-72477142D01*
X149324485Y-72477142D02*
X149309247Y-72507619D01*
X149309247Y-72507619D02*
X149309247Y-72538095D01*
X149385438Y-72522857D02*
X149370200Y-72553333D01*
X149370200Y-72553333D02*
X149339723Y-72583809D01*
X149339723Y-72583809D02*
X149278771Y-72599047D01*
X149278771Y-72599047D02*
X149172104Y-72599047D01*
X149172104Y-72599047D02*
X149111152Y-72583809D01*
X149111152Y-72583809D02*
X149080676Y-72553333D01*
X149080676Y-72553333D02*
X149065438Y-72522857D01*
X149065438Y-72522857D02*
X149065438Y-72461904D01*
X149065438Y-72461904D02*
X149080676Y-72431428D01*
X149080676Y-72431428D02*
X149111152Y-72400952D01*
X149111152Y-72400952D02*
X149172104Y-72385714D01*
X149172104Y-72385714D02*
X149278771Y-72385714D01*
X149278771Y-72385714D02*
X149339723Y-72400952D01*
X149339723Y-72400952D02*
X149370200Y-72431428D01*
X149370200Y-72431428D02*
X149385438Y-72461904D01*
X149385438Y-72461904D02*
X149385438Y-72522857D01*
X149065438Y-72111428D02*
X149065438Y-72172381D01*
X149065438Y-72172381D02*
X149080676Y-72202857D01*
X149080676Y-72202857D02*
X149095914Y-72218095D01*
X149095914Y-72218095D02*
X149141628Y-72248571D01*
X149141628Y-72248571D02*
X149202580Y-72263809D01*
X149202580Y-72263809D02*
X149324485Y-72263809D01*
X149324485Y-72263809D02*
X149354961Y-72248571D01*
X149354961Y-72248571D02*
X149370200Y-72233333D01*
X149370200Y-72233333D02*
X149385438Y-72202857D01*
X149385438Y-72202857D02*
X149385438Y-72141904D01*
X149385438Y-72141904D02*
X149370200Y-72111428D01*
X149370200Y-72111428D02*
X149354961Y-72096190D01*
X149354961Y-72096190D02*
X149324485Y-72080952D01*
X149324485Y-72080952D02*
X149248295Y-72080952D01*
X149248295Y-72080952D02*
X149217819Y-72096190D01*
X149217819Y-72096190D02*
X149202580Y-72111428D01*
X149202580Y-72111428D02*
X149187342Y-72141904D01*
X149187342Y-72141904D02*
X149187342Y-72202857D01*
X149187342Y-72202857D02*
X149202580Y-72233333D01*
X149202580Y-72233333D02*
X149217819Y-72248571D01*
X149217819Y-72248571D02*
X149248295Y-72263809D01*
D11*
X149948571Y-108352149D02*
X149781905Y-108114054D01*
X149662857Y-108352149D02*
X149662857Y-107852149D01*
X149662857Y-107852149D02*
X149853333Y-107852149D01*
X149853333Y-107852149D02*
X149900952Y-107875959D01*
X149900952Y-107875959D02*
X149924762Y-107899768D01*
X149924762Y-107899768D02*
X149948571Y-107947387D01*
X149948571Y-107947387D02*
X149948571Y-108018816D01*
X149948571Y-108018816D02*
X149924762Y-108066435D01*
X149924762Y-108066435D02*
X149900952Y-108090244D01*
X149900952Y-108090244D02*
X149853333Y-108114054D01*
X149853333Y-108114054D02*
X149662857Y-108114054D01*
X150115238Y-107852149D02*
X150424762Y-107852149D01*
X150424762Y-107852149D02*
X150258095Y-108042625D01*
X150258095Y-108042625D02*
X150329524Y-108042625D01*
X150329524Y-108042625D02*
X150377143Y-108066435D01*
X150377143Y-108066435D02*
X150400952Y-108090244D01*
X150400952Y-108090244D02*
X150424762Y-108137863D01*
X150424762Y-108137863D02*
X150424762Y-108256911D01*
X150424762Y-108256911D02*
X150400952Y-108304530D01*
X150400952Y-108304530D02*
X150377143Y-108328340D01*
X150377143Y-108328340D02*
X150329524Y-108352149D01*
X150329524Y-108352149D02*
X150186667Y-108352149D01*
X150186667Y-108352149D02*
X150139048Y-108328340D01*
X150139048Y-108328340D02*
X150115238Y-108304530D01*
X150853333Y-108018816D02*
X150853333Y-108352149D01*
X150734285Y-107828340D02*
X150615238Y-108185482D01*
X150615238Y-108185482D02*
X150924761Y-108185482D01*
D12*
X147636667Y-60192664D02*
X147598571Y-60230760D01*
X147598571Y-60230760D02*
X147484286Y-60268855D01*
X147484286Y-60268855D02*
X147408095Y-60268855D01*
X147408095Y-60268855D02*
X147293809Y-60230760D01*
X147293809Y-60230760D02*
X147217619Y-60154569D01*
X147217619Y-60154569D02*
X147179524Y-60078379D01*
X147179524Y-60078379D02*
X147141428Y-59925998D01*
X147141428Y-59925998D02*
X147141428Y-59811712D01*
X147141428Y-59811712D02*
X147179524Y-59659331D01*
X147179524Y-59659331D02*
X147217619Y-59583140D01*
X147217619Y-59583140D02*
X147293809Y-59506950D01*
X147293809Y-59506950D02*
X147408095Y-59468855D01*
X147408095Y-59468855D02*
X147484286Y-59468855D01*
X147484286Y-59468855D02*
X147598571Y-59506950D01*
X147598571Y-59506950D02*
X147636667Y-59545045D01*
X148322381Y-59735521D02*
X148322381Y-60268855D01*
X148131905Y-59430760D02*
X147941428Y-60002188D01*
X147941428Y-60002188D02*
X148436667Y-60002188D01*
D11*
X123296666Y-117017149D02*
X123130000Y-116779054D01*
X123010952Y-117017149D02*
X123010952Y-116517149D01*
X123010952Y-116517149D02*
X123201428Y-116517149D01*
X123201428Y-116517149D02*
X123249047Y-116540959D01*
X123249047Y-116540959D02*
X123272857Y-116564768D01*
X123272857Y-116564768D02*
X123296666Y-116612387D01*
X123296666Y-116612387D02*
X123296666Y-116683816D01*
X123296666Y-116683816D02*
X123272857Y-116731435D01*
X123272857Y-116731435D02*
X123249047Y-116755244D01*
X123249047Y-116755244D02*
X123201428Y-116779054D01*
X123201428Y-116779054D02*
X123010952Y-116779054D01*
X123749047Y-116517149D02*
X123510952Y-116517149D01*
X123510952Y-116517149D02*
X123487143Y-116755244D01*
X123487143Y-116755244D02*
X123510952Y-116731435D01*
X123510952Y-116731435D02*
X123558571Y-116707625D01*
X123558571Y-116707625D02*
X123677619Y-116707625D01*
X123677619Y-116707625D02*
X123725238Y-116731435D01*
X123725238Y-116731435D02*
X123749047Y-116755244D01*
X123749047Y-116755244D02*
X123772857Y-116802863D01*
X123772857Y-116802863D02*
X123772857Y-116921911D01*
X123772857Y-116921911D02*
X123749047Y-116969530D01*
X123749047Y-116969530D02*
X123725238Y-116993340D01*
X123725238Y-116993340D02*
X123677619Y-117017149D01*
X123677619Y-117017149D02*
X123558571Y-117017149D01*
X123558571Y-117017149D02*
X123510952Y-116993340D01*
X123510952Y-116993340D02*
X123487143Y-116969530D01*
X151486666Y-96408578D02*
X151320000Y-96170483D01*
X151200952Y-96408578D02*
X151200952Y-95908578D01*
X151200952Y-95908578D02*
X151391428Y-95908578D01*
X151391428Y-95908578D02*
X151439047Y-95932388D01*
X151439047Y-95932388D02*
X151462857Y-95956197D01*
X151462857Y-95956197D02*
X151486666Y-96003816D01*
X151486666Y-96003816D02*
X151486666Y-96075245D01*
X151486666Y-96075245D02*
X151462857Y-96122864D01*
X151462857Y-96122864D02*
X151439047Y-96146673D01*
X151439047Y-96146673D02*
X151391428Y-96170483D01*
X151391428Y-96170483D02*
X151200952Y-96170483D01*
X151915238Y-96075245D02*
X151915238Y-96408578D01*
X151796190Y-95884769D02*
X151677143Y-96241911D01*
X151677143Y-96241911D02*
X151986666Y-96241911D01*
X129241666Y-75018149D02*
X129075000Y-74780054D01*
X128955952Y-75018149D02*
X128955952Y-74518149D01*
X128955952Y-74518149D02*
X129146428Y-74518149D01*
X129146428Y-74518149D02*
X129194047Y-74541959D01*
X129194047Y-74541959D02*
X129217857Y-74565768D01*
X129217857Y-74565768D02*
X129241666Y-74613387D01*
X129241666Y-74613387D02*
X129241666Y-74684816D01*
X129241666Y-74684816D02*
X129217857Y-74732435D01*
X129217857Y-74732435D02*
X129194047Y-74756244D01*
X129194047Y-74756244D02*
X129146428Y-74780054D01*
X129146428Y-74780054D02*
X128955952Y-74780054D01*
X129432143Y-74565768D02*
X129455952Y-74541959D01*
X129455952Y-74541959D02*
X129503571Y-74518149D01*
X129503571Y-74518149D02*
X129622619Y-74518149D01*
X129622619Y-74518149D02*
X129670238Y-74541959D01*
X129670238Y-74541959D02*
X129694047Y-74565768D01*
X129694047Y-74565768D02*
X129717857Y-74613387D01*
X129717857Y-74613387D02*
X129717857Y-74661006D01*
X129717857Y-74661006D02*
X129694047Y-74732435D01*
X129694047Y-74732435D02*
X129408333Y-75018149D01*
X129408333Y-75018149D02*
X129717857Y-75018149D01*
D13*
X138310873Y-55679819D02*
X138882301Y-55679819D01*
X138596587Y-56679819D02*
X138596587Y-55679819D01*
X139215635Y-56679819D02*
X139215635Y-55679819D01*
X139215635Y-55679819D02*
X139596587Y-55679819D01*
X139596587Y-55679819D02*
X139691825Y-55727438D01*
X139691825Y-55727438D02*
X139739444Y-55775057D01*
X139739444Y-55775057D02*
X139787063Y-55870295D01*
X139787063Y-55870295D02*
X139787063Y-56013152D01*
X139787063Y-56013152D02*
X139739444Y-56108390D01*
X139739444Y-56108390D02*
X139691825Y-56156009D01*
X139691825Y-56156009D02*
X139596587Y-56203628D01*
X139596587Y-56203628D02*
X139215635Y-56203628D01*
X140168016Y-55775057D02*
X140215635Y-55727438D01*
X140215635Y-55727438D02*
X140310873Y-55679819D01*
X140310873Y-55679819D02*
X140548968Y-55679819D01*
X140548968Y-55679819D02*
X140644206Y-55727438D01*
X140644206Y-55727438D02*
X140691825Y-55775057D01*
X140691825Y-55775057D02*
X140739444Y-55870295D01*
X140739444Y-55870295D02*
X140739444Y-55965533D01*
X140739444Y-55965533D02*
X140691825Y-56108390D01*
X140691825Y-56108390D02*
X140120397Y-56679819D01*
X140120397Y-56679819D02*
X140739444Y-56679819D01*
X133001666Y-101949819D02*
X133001666Y-102664104D01*
X133001666Y-102664104D02*
X132954047Y-102806961D01*
X132954047Y-102806961D02*
X132858809Y-102902200D01*
X132858809Y-102902200D02*
X132715952Y-102949819D01*
X132715952Y-102949819D02*
X132620714Y-102949819D01*
X133906428Y-102283152D02*
X133906428Y-102949819D01*
X133668333Y-101902200D02*
X133430238Y-102616485D01*
X133430238Y-102616485D02*
X134049285Y-102616485D01*
D11*
X121418571Y-68940483D02*
X121251905Y-68702388D01*
X121132857Y-68940483D02*
X121132857Y-68440483D01*
X121132857Y-68440483D02*
X121323333Y-68440483D01*
X121323333Y-68440483D02*
X121370952Y-68464293D01*
X121370952Y-68464293D02*
X121394762Y-68488102D01*
X121394762Y-68488102D02*
X121418571Y-68535721D01*
X121418571Y-68535721D02*
X121418571Y-68607150D01*
X121418571Y-68607150D02*
X121394762Y-68654769D01*
X121394762Y-68654769D02*
X121370952Y-68678578D01*
X121370952Y-68678578D02*
X121323333Y-68702388D01*
X121323333Y-68702388D02*
X121132857Y-68702388D01*
X121585238Y-68440483D02*
X121894762Y-68440483D01*
X121894762Y-68440483D02*
X121728095Y-68630959D01*
X121728095Y-68630959D02*
X121799524Y-68630959D01*
X121799524Y-68630959D02*
X121847143Y-68654769D01*
X121847143Y-68654769D02*
X121870952Y-68678578D01*
X121870952Y-68678578D02*
X121894762Y-68726197D01*
X121894762Y-68726197D02*
X121894762Y-68845245D01*
X121894762Y-68845245D02*
X121870952Y-68892864D01*
X121870952Y-68892864D02*
X121847143Y-68916674D01*
X121847143Y-68916674D02*
X121799524Y-68940483D01*
X121799524Y-68940483D02*
X121656667Y-68940483D01*
X121656667Y-68940483D02*
X121609048Y-68916674D01*
X121609048Y-68916674D02*
X121585238Y-68892864D01*
X122370952Y-68940483D02*
X122085238Y-68940483D01*
X122228095Y-68940483D02*
X122228095Y-68440483D01*
X122228095Y-68440483D02*
X122180476Y-68511912D01*
X122180476Y-68511912D02*
X122132857Y-68559531D01*
X122132857Y-68559531D02*
X122085238Y-68583340D01*
X150048571Y-99412863D02*
X149881905Y-99174768D01*
X149762857Y-99412863D02*
X149762857Y-98912863D01*
X149762857Y-98912863D02*
X149953333Y-98912863D01*
X149953333Y-98912863D02*
X150000952Y-98936673D01*
X150000952Y-98936673D02*
X150024762Y-98960482D01*
X150024762Y-98960482D02*
X150048571Y-99008101D01*
X150048571Y-99008101D02*
X150048571Y-99079530D01*
X150048571Y-99079530D02*
X150024762Y-99127149D01*
X150024762Y-99127149D02*
X150000952Y-99150958D01*
X150000952Y-99150958D02*
X149953333Y-99174768D01*
X149953333Y-99174768D02*
X149762857Y-99174768D01*
X150239048Y-98960482D02*
X150262857Y-98936673D01*
X150262857Y-98936673D02*
X150310476Y-98912863D01*
X150310476Y-98912863D02*
X150429524Y-98912863D01*
X150429524Y-98912863D02*
X150477143Y-98936673D01*
X150477143Y-98936673D02*
X150500952Y-98960482D01*
X150500952Y-98960482D02*
X150524762Y-99008101D01*
X150524762Y-99008101D02*
X150524762Y-99055720D01*
X150524762Y-99055720D02*
X150500952Y-99127149D01*
X150500952Y-99127149D02*
X150215238Y-99412863D01*
X150215238Y-99412863D02*
X150524762Y-99412863D01*
X150953333Y-99079530D02*
X150953333Y-99412863D01*
X150834285Y-98889054D02*
X150715238Y-99246196D01*
X150715238Y-99246196D02*
X151024761Y-99246196D01*
X146047149Y-83121428D02*
X145809054Y-83288094D01*
X146047149Y-83407142D02*
X145547149Y-83407142D01*
X145547149Y-83407142D02*
X145547149Y-83216666D01*
X145547149Y-83216666D02*
X145570959Y-83169047D01*
X145570959Y-83169047D02*
X145594768Y-83145237D01*
X145594768Y-83145237D02*
X145642387Y-83121428D01*
X145642387Y-83121428D02*
X145713816Y-83121428D01*
X145713816Y-83121428D02*
X145761435Y-83145237D01*
X145761435Y-83145237D02*
X145785244Y-83169047D01*
X145785244Y-83169047D02*
X145809054Y-83216666D01*
X145809054Y-83216666D02*
X145809054Y-83407142D01*
X145594768Y-82930951D02*
X145570959Y-82907142D01*
X145570959Y-82907142D02*
X145547149Y-82859523D01*
X145547149Y-82859523D02*
X145547149Y-82740475D01*
X145547149Y-82740475D02*
X145570959Y-82692856D01*
X145570959Y-82692856D02*
X145594768Y-82669047D01*
X145594768Y-82669047D02*
X145642387Y-82645237D01*
X145642387Y-82645237D02*
X145690006Y-82645237D01*
X145690006Y-82645237D02*
X145761435Y-82669047D01*
X145761435Y-82669047D02*
X146047149Y-82954761D01*
X146047149Y-82954761D02*
X146047149Y-82645237D01*
X145547149Y-82478571D02*
X145547149Y-82145238D01*
X145547149Y-82145238D02*
X146047149Y-82359523D01*
X102892149Y-101681428D02*
X102654054Y-101848094D01*
X102892149Y-101967142D02*
X102392149Y-101967142D01*
X102392149Y-101967142D02*
X102392149Y-101776666D01*
X102392149Y-101776666D02*
X102415959Y-101729047D01*
X102415959Y-101729047D02*
X102439768Y-101705237D01*
X102439768Y-101705237D02*
X102487387Y-101681428D01*
X102487387Y-101681428D02*
X102558816Y-101681428D01*
X102558816Y-101681428D02*
X102606435Y-101705237D01*
X102606435Y-101705237D02*
X102630244Y-101729047D01*
X102630244Y-101729047D02*
X102654054Y-101776666D01*
X102654054Y-101776666D02*
X102654054Y-101967142D01*
X102892149Y-101205237D02*
X102892149Y-101490951D01*
X102892149Y-101348094D02*
X102392149Y-101348094D01*
X102392149Y-101348094D02*
X102463578Y-101395713D01*
X102463578Y-101395713D02*
X102511197Y-101443332D01*
X102511197Y-101443332D02*
X102535006Y-101490951D01*
X102439768Y-101014761D02*
X102415959Y-100990952D01*
X102415959Y-100990952D02*
X102392149Y-100943333D01*
X102392149Y-100943333D02*
X102392149Y-100824285D01*
X102392149Y-100824285D02*
X102415959Y-100776666D01*
X102415959Y-100776666D02*
X102439768Y-100752857D01*
X102439768Y-100752857D02*
X102487387Y-100729047D01*
X102487387Y-100729047D02*
X102535006Y-100729047D01*
X102535006Y-100729047D02*
X102606435Y-100752857D01*
X102606435Y-100752857D02*
X102892149Y-101038571D01*
X102892149Y-101038571D02*
X102892149Y-100729047D01*
D13*
X129595688Y-55679819D02*
X130167116Y-55679819D01*
X129881402Y-56679819D02*
X129881402Y-55679819D01*
X130500450Y-56679819D02*
X130500450Y-55679819D01*
X130500450Y-55679819D02*
X130881402Y-55679819D01*
X130881402Y-55679819D02*
X130976640Y-55727438D01*
X130976640Y-55727438D02*
X131024259Y-55775057D01*
X131024259Y-55775057D02*
X131071878Y-55870295D01*
X131071878Y-55870295D02*
X131071878Y-56013152D01*
X131071878Y-56013152D02*
X131024259Y-56108390D01*
X131024259Y-56108390D02*
X130976640Y-56156009D01*
X130976640Y-56156009D02*
X130881402Y-56203628D01*
X130881402Y-56203628D02*
X130500450Y-56203628D01*
X131929021Y-55679819D02*
X131738545Y-55679819D01*
X131738545Y-55679819D02*
X131643307Y-55727438D01*
X131643307Y-55727438D02*
X131595688Y-55775057D01*
X131595688Y-55775057D02*
X131500450Y-55917914D01*
X131500450Y-55917914D02*
X131452831Y-56108390D01*
X131452831Y-56108390D02*
X131452831Y-56489342D01*
X131452831Y-56489342D02*
X131500450Y-56584580D01*
X131500450Y-56584580D02*
X131548069Y-56632200D01*
X131548069Y-56632200D02*
X131643307Y-56679819D01*
X131643307Y-56679819D02*
X131833783Y-56679819D01*
X131833783Y-56679819D02*
X131929021Y-56632200D01*
X131929021Y-56632200D02*
X131976640Y-56584580D01*
X131976640Y-56584580D02*
X132024259Y-56489342D01*
X132024259Y-56489342D02*
X132024259Y-56251247D01*
X132024259Y-56251247D02*
X131976640Y-56156009D01*
X131976640Y-56156009D02*
X131929021Y-56108390D01*
X131929021Y-56108390D02*
X131833783Y-56060771D01*
X131833783Y-56060771D02*
X131643307Y-56060771D01*
X131643307Y-56060771D02*
X131548069Y-56108390D01*
X131548069Y-56108390D02*
X131500450Y-56156009D01*
X131500450Y-56156009D02*
X131452831Y-56251247D01*
X147491666Y-114309819D02*
X147491666Y-115024104D01*
X147491666Y-115024104D02*
X147444047Y-115166961D01*
X147444047Y-115166961D02*
X147348809Y-115262200D01*
X147348809Y-115262200D02*
X147205952Y-115309819D01*
X147205952Y-115309819D02*
X147110714Y-115309819D01*
X147920238Y-114405057D02*
X147967857Y-114357438D01*
X147967857Y-114357438D02*
X148063095Y-114309819D01*
X148063095Y-114309819D02*
X148301190Y-114309819D01*
X148301190Y-114309819D02*
X148396428Y-114357438D01*
X148396428Y-114357438D02*
X148444047Y-114405057D01*
X148444047Y-114405057D02*
X148491666Y-114500295D01*
X148491666Y-114500295D02*
X148491666Y-114595533D01*
X148491666Y-114595533D02*
X148444047Y-114738390D01*
X148444047Y-114738390D02*
X147872619Y-115309819D01*
X147872619Y-115309819D02*
X148491666Y-115309819D01*
X166747200Y-95561905D02*
X166794819Y-95419048D01*
X166794819Y-95419048D02*
X166794819Y-95180953D01*
X166794819Y-95180953D02*
X166747200Y-95085715D01*
X166747200Y-95085715D02*
X166699580Y-95038096D01*
X166699580Y-95038096D02*
X166604342Y-94990477D01*
X166604342Y-94990477D02*
X166509104Y-94990477D01*
X166509104Y-94990477D02*
X166413866Y-95038096D01*
X166413866Y-95038096D02*
X166366247Y-95085715D01*
X166366247Y-95085715D02*
X166318628Y-95180953D01*
X166318628Y-95180953D02*
X166271009Y-95371429D01*
X166271009Y-95371429D02*
X166223390Y-95466667D01*
X166223390Y-95466667D02*
X166175771Y-95514286D01*
X166175771Y-95514286D02*
X166080533Y-95561905D01*
X166080533Y-95561905D02*
X165985295Y-95561905D01*
X165985295Y-95561905D02*
X165890057Y-95514286D01*
X165890057Y-95514286D02*
X165842438Y-95466667D01*
X165842438Y-95466667D02*
X165794819Y-95371429D01*
X165794819Y-95371429D02*
X165794819Y-95133334D01*
X165794819Y-95133334D02*
X165842438Y-94990477D01*
X166747200Y-94133334D02*
X166794819Y-94228572D01*
X166794819Y-94228572D02*
X166794819Y-94419048D01*
X166794819Y-94419048D02*
X166747200Y-94514286D01*
X166747200Y-94514286D02*
X166699580Y-94561905D01*
X166699580Y-94561905D02*
X166604342Y-94609524D01*
X166604342Y-94609524D02*
X166318628Y-94609524D01*
X166318628Y-94609524D02*
X166223390Y-94561905D01*
X166223390Y-94561905D02*
X166175771Y-94514286D01*
X166175771Y-94514286D02*
X166128152Y-94419048D01*
X166128152Y-94419048D02*
X166128152Y-94228572D01*
X166128152Y-94228572D02*
X166175771Y-94133334D01*
X166794819Y-93704762D02*
X166128152Y-93704762D01*
X166318628Y-93704762D02*
X166223390Y-93657143D01*
X166223390Y-93657143D02*
X166175771Y-93609524D01*
X166175771Y-93609524D02*
X166128152Y-93514286D01*
X166128152Y-93514286D02*
X166128152Y-93419048D01*
X166747200Y-92704762D02*
X166794819Y-92800000D01*
X166794819Y-92800000D02*
X166794819Y-92990476D01*
X166794819Y-92990476D02*
X166747200Y-93085714D01*
X166747200Y-93085714D02*
X166651961Y-93133333D01*
X166651961Y-93133333D02*
X166271009Y-93133333D01*
X166271009Y-93133333D02*
X166175771Y-93085714D01*
X166175771Y-93085714D02*
X166128152Y-92990476D01*
X166128152Y-92990476D02*
X166128152Y-92800000D01*
X166128152Y-92800000D02*
X166175771Y-92704762D01*
X166175771Y-92704762D02*
X166271009Y-92657143D01*
X166271009Y-92657143D02*
X166366247Y-92657143D01*
X166366247Y-92657143D02*
X166461485Y-93133333D01*
X166128152Y-92323809D02*
X166794819Y-92133333D01*
X166794819Y-92133333D02*
X166318628Y-91942857D01*
X166318628Y-91942857D02*
X166794819Y-91752381D01*
X166794819Y-91752381D02*
X166128152Y-91561905D01*
X166890057Y-91419048D02*
X166890057Y-90657143D01*
X165794819Y-90561904D02*
X165794819Y-89990476D01*
X166794819Y-90276190D02*
X165794819Y-90276190D01*
X166747200Y-89276190D02*
X166794819Y-89371428D01*
X166794819Y-89371428D02*
X166794819Y-89561904D01*
X166794819Y-89561904D02*
X166747200Y-89657142D01*
X166747200Y-89657142D02*
X166651961Y-89704761D01*
X166651961Y-89704761D02*
X166271009Y-89704761D01*
X166271009Y-89704761D02*
X166175771Y-89657142D01*
X166175771Y-89657142D02*
X166128152Y-89561904D01*
X166128152Y-89561904D02*
X166128152Y-89371428D01*
X166128152Y-89371428D02*
X166175771Y-89276190D01*
X166175771Y-89276190D02*
X166271009Y-89228571D01*
X166271009Y-89228571D02*
X166366247Y-89228571D01*
X166366247Y-89228571D02*
X166461485Y-89704761D01*
X166794819Y-88799999D02*
X166128152Y-88799999D01*
X166318628Y-88799999D02*
X166223390Y-88752380D01*
X166223390Y-88752380D02*
X166175771Y-88704761D01*
X166175771Y-88704761D02*
X166128152Y-88609523D01*
X166128152Y-88609523D02*
X166128152Y-88514285D01*
X166794819Y-88180951D02*
X166128152Y-88180951D01*
X166223390Y-88180951D02*
X166175771Y-88133332D01*
X166175771Y-88133332D02*
X166128152Y-88038094D01*
X166128152Y-88038094D02*
X166128152Y-87895237D01*
X166128152Y-87895237D02*
X166175771Y-87799999D01*
X166175771Y-87799999D02*
X166271009Y-87752380D01*
X166271009Y-87752380D02*
X166794819Y-87752380D01*
X166271009Y-87752380D02*
X166175771Y-87704761D01*
X166175771Y-87704761D02*
X166128152Y-87609523D01*
X166128152Y-87609523D02*
X166128152Y-87466666D01*
X166128152Y-87466666D02*
X166175771Y-87371427D01*
X166175771Y-87371427D02*
X166271009Y-87323808D01*
X166271009Y-87323808D02*
X166794819Y-87323808D01*
X166794819Y-86847618D02*
X166128152Y-86847618D01*
X165794819Y-86847618D02*
X165842438Y-86895237D01*
X165842438Y-86895237D02*
X165890057Y-86847618D01*
X165890057Y-86847618D02*
X165842438Y-86799999D01*
X165842438Y-86799999D02*
X165794819Y-86847618D01*
X165794819Y-86847618D02*
X165890057Y-86847618D01*
X166128152Y-86371428D02*
X166794819Y-86371428D01*
X166223390Y-86371428D02*
X166175771Y-86323809D01*
X166175771Y-86323809D02*
X166128152Y-86228571D01*
X166128152Y-86228571D02*
X166128152Y-86085714D01*
X166128152Y-86085714D02*
X166175771Y-85990476D01*
X166175771Y-85990476D02*
X166271009Y-85942857D01*
X166271009Y-85942857D02*
X166794819Y-85942857D01*
X166794819Y-85038095D02*
X166271009Y-85038095D01*
X166271009Y-85038095D02*
X166175771Y-85085714D01*
X166175771Y-85085714D02*
X166128152Y-85180952D01*
X166128152Y-85180952D02*
X166128152Y-85371428D01*
X166128152Y-85371428D02*
X166175771Y-85466666D01*
X166747200Y-85038095D02*
X166794819Y-85133333D01*
X166794819Y-85133333D02*
X166794819Y-85371428D01*
X166794819Y-85371428D02*
X166747200Y-85466666D01*
X166747200Y-85466666D02*
X166651961Y-85514285D01*
X166651961Y-85514285D02*
X166556723Y-85514285D01*
X166556723Y-85514285D02*
X166461485Y-85466666D01*
X166461485Y-85466666D02*
X166413866Y-85371428D01*
X166413866Y-85371428D02*
X166413866Y-85133333D01*
X166413866Y-85133333D02*
X166366247Y-85038095D01*
X166794819Y-84419047D02*
X166747200Y-84514285D01*
X166747200Y-84514285D02*
X166651961Y-84561904D01*
X166651961Y-84561904D02*
X165794819Y-84561904D01*
X166890057Y-84276190D02*
X166890057Y-83514285D01*
X165794819Y-83085713D02*
X165794819Y-82990475D01*
X165794819Y-82990475D02*
X165842438Y-82895237D01*
X165842438Y-82895237D02*
X165890057Y-82847618D01*
X165890057Y-82847618D02*
X165985295Y-82799999D01*
X165985295Y-82799999D02*
X166175771Y-82752380D01*
X166175771Y-82752380D02*
X166413866Y-82752380D01*
X166413866Y-82752380D02*
X166604342Y-82799999D01*
X166604342Y-82799999D02*
X166699580Y-82847618D01*
X166699580Y-82847618D02*
X166747200Y-82895237D01*
X166747200Y-82895237D02*
X166794819Y-82990475D01*
X166794819Y-82990475D02*
X166794819Y-83085713D01*
X166794819Y-83085713D02*
X166747200Y-83180951D01*
X166747200Y-83180951D02*
X166699580Y-83228570D01*
X166699580Y-83228570D02*
X166604342Y-83276189D01*
X166604342Y-83276189D02*
X166413866Y-83323808D01*
X166413866Y-83323808D02*
X166175771Y-83323808D01*
X166175771Y-83323808D02*
X165985295Y-83276189D01*
X165985295Y-83276189D02*
X165890057Y-83228570D01*
X165890057Y-83228570D02*
X165842438Y-83180951D01*
X165842438Y-83180951D02*
X165794819Y-83085713D01*
X166794819Y-81799999D02*
X166794819Y-82371427D01*
X166794819Y-82085713D02*
X165794819Y-82085713D01*
X165794819Y-82085713D02*
X165937676Y-82180951D01*
X165937676Y-82180951D02*
X166032914Y-82276189D01*
X166032914Y-82276189D02*
X166080533Y-82371427D01*
X166794819Y-81466665D02*
X166128152Y-80942856D01*
X166128152Y-81466665D02*
X166794819Y-80942856D01*
X166794819Y-80514284D02*
X166794819Y-80323808D01*
X166794819Y-80323808D02*
X166747200Y-80228570D01*
X166747200Y-80228570D02*
X166699580Y-80180951D01*
X166699580Y-80180951D02*
X166556723Y-80085713D01*
X166556723Y-80085713D02*
X166366247Y-80038094D01*
X166366247Y-80038094D02*
X165985295Y-80038094D01*
X165985295Y-80038094D02*
X165890057Y-80085713D01*
X165890057Y-80085713D02*
X165842438Y-80133332D01*
X165842438Y-80133332D02*
X165794819Y-80228570D01*
X165794819Y-80228570D02*
X165794819Y-80419046D01*
X165794819Y-80419046D02*
X165842438Y-80514284D01*
X165842438Y-80514284D02*
X165890057Y-80561903D01*
X165890057Y-80561903D02*
X165985295Y-80609522D01*
X165985295Y-80609522D02*
X166223390Y-80609522D01*
X166223390Y-80609522D02*
X166318628Y-80561903D01*
X166318628Y-80561903D02*
X166366247Y-80514284D01*
X166366247Y-80514284D02*
X166413866Y-80419046D01*
X166413866Y-80419046D02*
X166413866Y-80228570D01*
X166413866Y-80228570D02*
X166366247Y-80133332D01*
X166366247Y-80133332D02*
X166318628Y-80085713D01*
X166318628Y-80085713D02*
X166223390Y-80038094D01*
X162574819Y-88133333D02*
X163289104Y-88133333D01*
X163289104Y-88133333D02*
X163431961Y-88180952D01*
X163431961Y-88180952D02*
X163527200Y-88276190D01*
X163527200Y-88276190D02*
X163574819Y-88419047D01*
X163574819Y-88419047D02*
X163574819Y-88514285D01*
X163574819Y-87133333D02*
X163574819Y-87704761D01*
X163574819Y-87419047D02*
X162574819Y-87419047D01*
X162574819Y-87419047D02*
X162717676Y-87514285D01*
X162717676Y-87514285D02*
X162812914Y-87609523D01*
X162812914Y-87609523D02*
X162860533Y-87704761D01*
X133978280Y-55679819D02*
X134549708Y-55679819D01*
X134263994Y-56679819D02*
X134263994Y-55679819D01*
X134883042Y-56679819D02*
X134883042Y-55679819D01*
X134883042Y-55679819D02*
X135263994Y-55679819D01*
X135263994Y-55679819D02*
X135359232Y-55727438D01*
X135359232Y-55727438D02*
X135406851Y-55775057D01*
X135406851Y-55775057D02*
X135454470Y-55870295D01*
X135454470Y-55870295D02*
X135454470Y-56013152D01*
X135454470Y-56013152D02*
X135406851Y-56108390D01*
X135406851Y-56108390D02*
X135359232Y-56156009D01*
X135359232Y-56156009D02*
X135263994Y-56203628D01*
X135263994Y-56203628D02*
X134883042Y-56203628D01*
X135787804Y-55679819D02*
X136406851Y-55679819D01*
X136406851Y-55679819D02*
X136073518Y-56060771D01*
X136073518Y-56060771D02*
X136216375Y-56060771D01*
X136216375Y-56060771D02*
X136311613Y-56108390D01*
X136311613Y-56108390D02*
X136359232Y-56156009D01*
X136359232Y-56156009D02*
X136406851Y-56251247D01*
X136406851Y-56251247D02*
X136406851Y-56489342D01*
X136406851Y-56489342D02*
X136359232Y-56584580D01*
X136359232Y-56584580D02*
X136311613Y-56632200D01*
X136311613Y-56632200D02*
X136216375Y-56679819D01*
X136216375Y-56679819D02*
X135930661Y-56679819D01*
X135930661Y-56679819D02*
X135835423Y-56632200D01*
X135835423Y-56632200D02*
X135787804Y-56584580D01*
D14*
X133058333Y-108743832D02*
X133039285Y-108762880D01*
X133039285Y-108762880D02*
X132982143Y-108781927D01*
X132982143Y-108781927D02*
X132944047Y-108781927D01*
X132944047Y-108781927D02*
X132886904Y-108762880D01*
X132886904Y-108762880D02*
X132848809Y-108724784D01*
X132848809Y-108724784D02*
X132829762Y-108686689D01*
X132829762Y-108686689D02*
X132810714Y-108610499D01*
X132810714Y-108610499D02*
X132810714Y-108553356D01*
X132810714Y-108553356D02*
X132829762Y-108477165D01*
X132829762Y-108477165D02*
X132848809Y-108439070D01*
X132848809Y-108439070D02*
X132886904Y-108400975D01*
X132886904Y-108400975D02*
X132944047Y-108381927D01*
X132944047Y-108381927D02*
X132982143Y-108381927D01*
X132982143Y-108381927D02*
X133039285Y-108400975D01*
X133039285Y-108400975D02*
X133058333Y-108420022D01*
X133420238Y-108381927D02*
X133229762Y-108381927D01*
X133229762Y-108381927D02*
X133210714Y-108572403D01*
X133210714Y-108572403D02*
X133229762Y-108553356D01*
X133229762Y-108553356D02*
X133267857Y-108534308D01*
X133267857Y-108534308D02*
X133363095Y-108534308D01*
X133363095Y-108534308D02*
X133401190Y-108553356D01*
X133401190Y-108553356D02*
X133420238Y-108572403D01*
X133420238Y-108572403D02*
X133439285Y-108610499D01*
X133439285Y-108610499D02*
X133439285Y-108705737D01*
X133439285Y-108705737D02*
X133420238Y-108743832D01*
X133420238Y-108743832D02*
X133401190Y-108762880D01*
X133401190Y-108762880D02*
X133363095Y-108781927D01*
X133363095Y-108781927D02*
X133267857Y-108781927D01*
X133267857Y-108781927D02*
X133229762Y-108762880D01*
X133229762Y-108762880D02*
X133210714Y-108743832D01*
D12*
X136895714Y-69387664D02*
X136857618Y-69425760D01*
X136857618Y-69425760D02*
X136743333Y-69463855D01*
X136743333Y-69463855D02*
X136667142Y-69463855D01*
X136667142Y-69463855D02*
X136552856Y-69425760D01*
X136552856Y-69425760D02*
X136476666Y-69349569D01*
X136476666Y-69349569D02*
X136438571Y-69273379D01*
X136438571Y-69273379D02*
X136400475Y-69120998D01*
X136400475Y-69120998D02*
X136400475Y-69006712D01*
X136400475Y-69006712D02*
X136438571Y-68854331D01*
X136438571Y-68854331D02*
X136476666Y-68778140D01*
X136476666Y-68778140D02*
X136552856Y-68701950D01*
X136552856Y-68701950D02*
X136667142Y-68663855D01*
X136667142Y-68663855D02*
X136743333Y-68663855D01*
X136743333Y-68663855D02*
X136857618Y-68701950D01*
X136857618Y-68701950D02*
X136895714Y-68740045D01*
X137657618Y-69463855D02*
X137200475Y-69463855D01*
X137429047Y-69463855D02*
X137429047Y-68663855D01*
X137429047Y-68663855D02*
X137352856Y-68778140D01*
X137352856Y-68778140D02*
X137276666Y-68854331D01*
X137276666Y-68854331D02*
X137200475Y-68892426D01*
X137962380Y-68740045D02*
X138000476Y-68701950D01*
X138000476Y-68701950D02*
X138076666Y-68663855D01*
X138076666Y-68663855D02*
X138267142Y-68663855D01*
X138267142Y-68663855D02*
X138343333Y-68701950D01*
X138343333Y-68701950D02*
X138381428Y-68740045D01*
X138381428Y-68740045D02*
X138419523Y-68816236D01*
X138419523Y-68816236D02*
X138419523Y-68892426D01*
X138419523Y-68892426D02*
X138381428Y-69006712D01*
X138381428Y-69006712D02*
X137924285Y-69463855D01*
X137924285Y-69463855D02*
X138419523Y-69463855D01*
D10*
X125555914Y-79400476D02*
X125540676Y-79430952D01*
X125540676Y-79430952D02*
X125510200Y-79461428D01*
X125510200Y-79461428D02*
X125464485Y-79507142D01*
X125464485Y-79507142D02*
X125449247Y-79537619D01*
X125449247Y-79537619D02*
X125449247Y-79568095D01*
X125525438Y-79552857D02*
X125510200Y-79583333D01*
X125510200Y-79583333D02*
X125479723Y-79613809D01*
X125479723Y-79613809D02*
X125418771Y-79629047D01*
X125418771Y-79629047D02*
X125312104Y-79629047D01*
X125312104Y-79629047D02*
X125251152Y-79613809D01*
X125251152Y-79613809D02*
X125220676Y-79583333D01*
X125220676Y-79583333D02*
X125205438Y-79552857D01*
X125205438Y-79552857D02*
X125205438Y-79491904D01*
X125205438Y-79491904D02*
X125220676Y-79461428D01*
X125220676Y-79461428D02*
X125251152Y-79430952D01*
X125251152Y-79430952D02*
X125312104Y-79415714D01*
X125312104Y-79415714D02*
X125418771Y-79415714D01*
X125418771Y-79415714D02*
X125479723Y-79430952D01*
X125479723Y-79430952D02*
X125510200Y-79461428D01*
X125510200Y-79461428D02*
X125525438Y-79491904D01*
X125525438Y-79491904D02*
X125525438Y-79552857D01*
X125205438Y-79309047D02*
X125205438Y-79110952D01*
X125205438Y-79110952D02*
X125327342Y-79217619D01*
X125327342Y-79217619D02*
X125327342Y-79171904D01*
X125327342Y-79171904D02*
X125342580Y-79141428D01*
X125342580Y-79141428D02*
X125357819Y-79126190D01*
X125357819Y-79126190D02*
X125388295Y-79110952D01*
X125388295Y-79110952D02*
X125464485Y-79110952D01*
X125464485Y-79110952D02*
X125494961Y-79126190D01*
X125494961Y-79126190D02*
X125510200Y-79141428D01*
X125510200Y-79141428D02*
X125525438Y-79171904D01*
X125525438Y-79171904D02*
X125525438Y-79263333D01*
X125525438Y-79263333D02*
X125510200Y-79293809D01*
X125510200Y-79293809D02*
X125494961Y-79309047D01*
D13*
X136893095Y-63829819D02*
X136893095Y-64639342D01*
X136893095Y-64639342D02*
X136940714Y-64734580D01*
X136940714Y-64734580D02*
X136988333Y-64782200D01*
X136988333Y-64782200D02*
X137083571Y-64829819D01*
X137083571Y-64829819D02*
X137274047Y-64829819D01*
X137274047Y-64829819D02*
X137369285Y-64782200D01*
X137369285Y-64782200D02*
X137416904Y-64734580D01*
X137416904Y-64734580D02*
X137464523Y-64639342D01*
X137464523Y-64639342D02*
X137464523Y-63829819D01*
X137845476Y-63829819D02*
X138512142Y-63829819D01*
X138512142Y-63829819D02*
X138083571Y-64829819D01*
D10*
X121915914Y-71637143D02*
X121900676Y-71667619D01*
X121900676Y-71667619D02*
X121870200Y-71698095D01*
X121870200Y-71698095D02*
X121824485Y-71743809D01*
X121824485Y-71743809D02*
X121809247Y-71774286D01*
X121809247Y-71774286D02*
X121809247Y-71804762D01*
X121885438Y-71789524D02*
X121870200Y-71820000D01*
X121870200Y-71820000D02*
X121839723Y-71850476D01*
X121839723Y-71850476D02*
X121778771Y-71865714D01*
X121778771Y-71865714D02*
X121672104Y-71865714D01*
X121672104Y-71865714D02*
X121611152Y-71850476D01*
X121611152Y-71850476D02*
X121580676Y-71820000D01*
X121580676Y-71820000D02*
X121565438Y-71789524D01*
X121565438Y-71789524D02*
X121565438Y-71728571D01*
X121565438Y-71728571D02*
X121580676Y-71698095D01*
X121580676Y-71698095D02*
X121611152Y-71667619D01*
X121611152Y-71667619D02*
X121672104Y-71652381D01*
X121672104Y-71652381D02*
X121778771Y-71652381D01*
X121778771Y-71652381D02*
X121839723Y-71667619D01*
X121839723Y-71667619D02*
X121870200Y-71698095D01*
X121870200Y-71698095D02*
X121885438Y-71728571D01*
X121885438Y-71728571D02*
X121885438Y-71789524D01*
X121565438Y-71362857D02*
X121565438Y-71515238D01*
X121565438Y-71515238D02*
X121717819Y-71530476D01*
X121717819Y-71530476D02*
X121702580Y-71515238D01*
X121702580Y-71515238D02*
X121687342Y-71484762D01*
X121687342Y-71484762D02*
X121687342Y-71408571D01*
X121687342Y-71408571D02*
X121702580Y-71378095D01*
X121702580Y-71378095D02*
X121717819Y-71362857D01*
X121717819Y-71362857D02*
X121748295Y-71347619D01*
X121748295Y-71347619D02*
X121824485Y-71347619D01*
X121824485Y-71347619D02*
X121854961Y-71362857D01*
X121854961Y-71362857D02*
X121870200Y-71378095D01*
X121870200Y-71378095D02*
X121885438Y-71408571D01*
X121885438Y-71408571D02*
X121885438Y-71484762D01*
X121885438Y-71484762D02*
X121870200Y-71515238D01*
X121870200Y-71515238D02*
X121854961Y-71530476D01*
D15*
X151550952Y-89603059D02*
X151550952Y-89103059D01*
X151550952Y-89103059D02*
X151670000Y-89103059D01*
X151670000Y-89103059D02*
X151741428Y-89126869D01*
X151741428Y-89126869D02*
X151789047Y-89174488D01*
X151789047Y-89174488D02*
X151812857Y-89222107D01*
X151812857Y-89222107D02*
X151836666Y-89317345D01*
X151836666Y-89317345D02*
X151836666Y-89388773D01*
X151836666Y-89388773D02*
X151812857Y-89484011D01*
X151812857Y-89484011D02*
X151789047Y-89531630D01*
X151789047Y-89531630D02*
X151741428Y-89579250D01*
X151741428Y-89579250D02*
X151670000Y-89603059D01*
X151670000Y-89603059D02*
X151550952Y-89603059D01*
X152003333Y-89103059D02*
X152336666Y-89103059D01*
X152336666Y-89103059D02*
X152122381Y-89603059D01*
D11*
X140308952Y-75018149D02*
X140308952Y-74518149D01*
X140308952Y-74518149D02*
X140428000Y-74518149D01*
X140428000Y-74518149D02*
X140499428Y-74541959D01*
X140499428Y-74541959D02*
X140547047Y-74589578D01*
X140547047Y-74589578D02*
X140570857Y-74637197D01*
X140570857Y-74637197D02*
X140594666Y-74732435D01*
X140594666Y-74732435D02*
X140594666Y-74803863D01*
X140594666Y-74803863D02*
X140570857Y-74899101D01*
X140570857Y-74899101D02*
X140547047Y-74946720D01*
X140547047Y-74946720D02*
X140499428Y-74994340D01*
X140499428Y-74994340D02*
X140428000Y-75018149D01*
X140428000Y-75018149D02*
X140308952Y-75018149D01*
X141070857Y-75018149D02*
X140785143Y-75018149D01*
X140928000Y-75018149D02*
X140928000Y-74518149D01*
X140928000Y-74518149D02*
X140880381Y-74589578D01*
X140880381Y-74589578D02*
X140832762Y-74637197D01*
X140832762Y-74637197D02*
X140785143Y-74661006D01*
D13*
X132591666Y-117754819D02*
X132591666Y-118469104D01*
X132591666Y-118469104D02*
X132544047Y-118611961D01*
X132544047Y-118611961D02*
X132448809Y-118707200D01*
X132448809Y-118707200D02*
X132305952Y-118754819D01*
X132305952Y-118754819D02*
X132210714Y-118754819D01*
X132972619Y-117754819D02*
X133591666Y-117754819D01*
X133591666Y-117754819D02*
X133258333Y-118135771D01*
X133258333Y-118135771D02*
X133401190Y-118135771D01*
X133401190Y-118135771D02*
X133496428Y-118183390D01*
X133496428Y-118183390D02*
X133544047Y-118231009D01*
X133544047Y-118231009D02*
X133591666Y-118326247D01*
X133591666Y-118326247D02*
X133591666Y-118564342D01*
X133591666Y-118564342D02*
X133544047Y-118659580D01*
X133544047Y-118659580D02*
X133496428Y-118707200D01*
X133496428Y-118707200D02*
X133401190Y-118754819D01*
X133401190Y-118754819D02*
X133115476Y-118754819D01*
X133115476Y-118754819D02*
X133020238Y-118707200D01*
X133020238Y-118707200D02*
X132972619Y-118659580D01*
D11*
X109782149Y-101651428D02*
X109544054Y-101818094D01*
X109782149Y-101937142D02*
X109282149Y-101937142D01*
X109282149Y-101937142D02*
X109282149Y-101746666D01*
X109282149Y-101746666D02*
X109305959Y-101699047D01*
X109305959Y-101699047D02*
X109329768Y-101675237D01*
X109329768Y-101675237D02*
X109377387Y-101651428D01*
X109377387Y-101651428D02*
X109448816Y-101651428D01*
X109448816Y-101651428D02*
X109496435Y-101675237D01*
X109496435Y-101675237D02*
X109520244Y-101699047D01*
X109520244Y-101699047D02*
X109544054Y-101746666D01*
X109544054Y-101746666D02*
X109544054Y-101937142D01*
X109782149Y-101175237D02*
X109782149Y-101460951D01*
X109782149Y-101318094D02*
X109282149Y-101318094D01*
X109282149Y-101318094D02*
X109353578Y-101365713D01*
X109353578Y-101365713D02*
X109401197Y-101413332D01*
X109401197Y-101413332D02*
X109425006Y-101460951D01*
X109282149Y-100746666D02*
X109282149Y-100841904D01*
X109282149Y-100841904D02*
X109305959Y-100889523D01*
X109305959Y-100889523D02*
X109329768Y-100913333D01*
X109329768Y-100913333D02*
X109401197Y-100960952D01*
X109401197Y-100960952D02*
X109496435Y-100984761D01*
X109496435Y-100984761D02*
X109686911Y-100984761D01*
X109686911Y-100984761D02*
X109734530Y-100960952D01*
X109734530Y-100960952D02*
X109758340Y-100937142D01*
X109758340Y-100937142D02*
X109782149Y-100889523D01*
X109782149Y-100889523D02*
X109782149Y-100794285D01*
X109782149Y-100794285D02*
X109758340Y-100746666D01*
X109758340Y-100746666D02*
X109734530Y-100722857D01*
X109734530Y-100722857D02*
X109686911Y-100699047D01*
X109686911Y-100699047D02*
X109567863Y-100699047D01*
X109567863Y-100699047D02*
X109520244Y-100722857D01*
X109520244Y-100722857D02*
X109496435Y-100746666D01*
X109496435Y-100746666D02*
X109472625Y-100794285D01*
X109472625Y-100794285D02*
X109472625Y-100889523D01*
X109472625Y-100889523D02*
X109496435Y-100937142D01*
X109496435Y-100937142D02*
X109520244Y-100960952D01*
X109520244Y-100960952D02*
X109567863Y-100984761D01*
X109897149Y-89731428D02*
X109659054Y-89898094D01*
X109897149Y-90017142D02*
X109397149Y-90017142D01*
X109397149Y-90017142D02*
X109397149Y-89826666D01*
X109397149Y-89826666D02*
X109420959Y-89779047D01*
X109420959Y-89779047D02*
X109444768Y-89755237D01*
X109444768Y-89755237D02*
X109492387Y-89731428D01*
X109492387Y-89731428D02*
X109563816Y-89731428D01*
X109563816Y-89731428D02*
X109611435Y-89755237D01*
X109611435Y-89755237D02*
X109635244Y-89779047D01*
X109635244Y-89779047D02*
X109659054Y-89826666D01*
X109659054Y-89826666D02*
X109659054Y-90017142D01*
X109897149Y-89255237D02*
X109897149Y-89540951D01*
X109897149Y-89398094D02*
X109397149Y-89398094D01*
X109397149Y-89398094D02*
X109468578Y-89445713D01*
X109468578Y-89445713D02*
X109516197Y-89493332D01*
X109516197Y-89493332D02*
X109540006Y-89540951D01*
X109397149Y-89088571D02*
X109397149Y-88755238D01*
X109397149Y-88755238D02*
X109897149Y-88969523D01*
X105912149Y-89721428D02*
X105674054Y-89888094D01*
X105912149Y-90007142D02*
X105412149Y-90007142D01*
X105412149Y-90007142D02*
X105412149Y-89816666D01*
X105412149Y-89816666D02*
X105435959Y-89769047D01*
X105435959Y-89769047D02*
X105459768Y-89745237D01*
X105459768Y-89745237D02*
X105507387Y-89721428D01*
X105507387Y-89721428D02*
X105578816Y-89721428D01*
X105578816Y-89721428D02*
X105626435Y-89745237D01*
X105626435Y-89745237D02*
X105650244Y-89769047D01*
X105650244Y-89769047D02*
X105674054Y-89816666D01*
X105674054Y-89816666D02*
X105674054Y-90007142D01*
X105912149Y-89245237D02*
X105912149Y-89530951D01*
X105912149Y-89388094D02*
X105412149Y-89388094D01*
X105412149Y-89388094D02*
X105483578Y-89435713D01*
X105483578Y-89435713D02*
X105531197Y-89483332D01*
X105531197Y-89483332D02*
X105555006Y-89530951D01*
X105912149Y-89007142D02*
X105912149Y-88911904D01*
X105912149Y-88911904D02*
X105888340Y-88864285D01*
X105888340Y-88864285D02*
X105864530Y-88840476D01*
X105864530Y-88840476D02*
X105793101Y-88792857D01*
X105793101Y-88792857D02*
X105697863Y-88769047D01*
X105697863Y-88769047D02*
X105507387Y-88769047D01*
X105507387Y-88769047D02*
X105459768Y-88792857D01*
X105459768Y-88792857D02*
X105435959Y-88816666D01*
X105435959Y-88816666D02*
X105412149Y-88864285D01*
X105412149Y-88864285D02*
X105412149Y-88959523D01*
X105412149Y-88959523D02*
X105435959Y-89007142D01*
X105435959Y-89007142D02*
X105459768Y-89030952D01*
X105459768Y-89030952D02*
X105507387Y-89054761D01*
X105507387Y-89054761D02*
X105626435Y-89054761D01*
X105626435Y-89054761D02*
X105674054Y-89030952D01*
X105674054Y-89030952D02*
X105697863Y-89007142D01*
X105697863Y-89007142D02*
X105721673Y-88959523D01*
X105721673Y-88959523D02*
X105721673Y-88864285D01*
X105721673Y-88864285D02*
X105697863Y-88816666D01*
X105697863Y-88816666D02*
X105674054Y-88792857D01*
X105674054Y-88792857D02*
X105626435Y-88769047D01*
D13*
X141993095Y-63829819D02*
X141993095Y-64639342D01*
X141993095Y-64639342D02*
X142040714Y-64734580D01*
X142040714Y-64734580D02*
X142088333Y-64782200D01*
X142088333Y-64782200D02*
X142183571Y-64829819D01*
X142183571Y-64829819D02*
X142374047Y-64829819D01*
X142374047Y-64829819D02*
X142469285Y-64782200D01*
X142469285Y-64782200D02*
X142516904Y-64734580D01*
X142516904Y-64734580D02*
X142564523Y-64639342D01*
X142564523Y-64639342D02*
X142564523Y-63829819D01*
X143469285Y-63829819D02*
X143278809Y-63829819D01*
X143278809Y-63829819D02*
X143183571Y-63877438D01*
X143183571Y-63877438D02*
X143135952Y-63925057D01*
X143135952Y-63925057D02*
X143040714Y-64067914D01*
X143040714Y-64067914D02*
X142993095Y-64258390D01*
X142993095Y-64258390D02*
X142993095Y-64639342D01*
X142993095Y-64639342D02*
X143040714Y-64734580D01*
X143040714Y-64734580D02*
X143088333Y-64782200D01*
X143088333Y-64782200D02*
X143183571Y-64829819D01*
X143183571Y-64829819D02*
X143374047Y-64829819D01*
X143374047Y-64829819D02*
X143469285Y-64782200D01*
X143469285Y-64782200D02*
X143516904Y-64734580D01*
X143516904Y-64734580D02*
X143564523Y-64639342D01*
X143564523Y-64639342D02*
X143564523Y-64401247D01*
X143564523Y-64401247D02*
X143516904Y-64306009D01*
X143516904Y-64306009D02*
X143469285Y-64258390D01*
X143469285Y-64258390D02*
X143374047Y-64210771D01*
X143374047Y-64210771D02*
X143183571Y-64210771D01*
X143183571Y-64210771D02*
X143088333Y-64258390D01*
X143088333Y-64258390D02*
X143040714Y-64306009D01*
X143040714Y-64306009D02*
X142993095Y-64401247D01*
D11*
X128222149Y-79303333D02*
X127984054Y-79469999D01*
X128222149Y-79589047D02*
X127722149Y-79589047D01*
X127722149Y-79589047D02*
X127722149Y-79398571D01*
X127722149Y-79398571D02*
X127745959Y-79350952D01*
X127745959Y-79350952D02*
X127769768Y-79327142D01*
X127769768Y-79327142D02*
X127817387Y-79303333D01*
X127817387Y-79303333D02*
X127888816Y-79303333D01*
X127888816Y-79303333D02*
X127936435Y-79327142D01*
X127936435Y-79327142D02*
X127960244Y-79350952D01*
X127960244Y-79350952D02*
X127984054Y-79398571D01*
X127984054Y-79398571D02*
X127984054Y-79589047D01*
X127722149Y-79136666D02*
X127722149Y-78803333D01*
X127722149Y-78803333D02*
X128222149Y-79017618D01*
D13*
X86004819Y-70858333D02*
X86719104Y-70858333D01*
X86719104Y-70858333D02*
X86861961Y-70905952D01*
X86861961Y-70905952D02*
X86957200Y-71001190D01*
X86957200Y-71001190D02*
X87004819Y-71144047D01*
X87004819Y-71144047D02*
X87004819Y-71239285D01*
X87004819Y-70382142D02*
X86004819Y-70382142D01*
X86004819Y-70382142D02*
X86004819Y-70001190D01*
X86004819Y-70001190D02*
X86052438Y-69905952D01*
X86052438Y-69905952D02*
X86100057Y-69858333D01*
X86100057Y-69858333D02*
X86195295Y-69810714D01*
X86195295Y-69810714D02*
X86338152Y-69810714D01*
X86338152Y-69810714D02*
X86433390Y-69858333D01*
X86433390Y-69858333D02*
X86481009Y-69905952D01*
X86481009Y-69905952D02*
X86528628Y-70001190D01*
X86528628Y-70001190D02*
X86528628Y-70382142D01*
X87004819Y-68858333D02*
X87004819Y-69429761D01*
X87004819Y-69144047D02*
X86004819Y-69144047D01*
X86004819Y-69144047D02*
X86147676Y-69239285D01*
X86147676Y-69239285D02*
X86242914Y-69334523D01*
X86242914Y-69334523D02*
X86290533Y-69429761D01*
D11*
X121594549Y-83218928D02*
X121356454Y-83385594D01*
X121594549Y-83504642D02*
X121094549Y-83504642D01*
X121094549Y-83504642D02*
X121094549Y-83314166D01*
X121094549Y-83314166D02*
X121118359Y-83266547D01*
X121118359Y-83266547D02*
X121142168Y-83242737D01*
X121142168Y-83242737D02*
X121189787Y-83218928D01*
X121189787Y-83218928D02*
X121261216Y-83218928D01*
X121261216Y-83218928D02*
X121308835Y-83242737D01*
X121308835Y-83242737D02*
X121332644Y-83266547D01*
X121332644Y-83266547D02*
X121356454Y-83314166D01*
X121356454Y-83314166D02*
X121356454Y-83504642D01*
X121094549Y-83052261D02*
X121094549Y-82742737D01*
X121094549Y-82742737D02*
X121285025Y-82909404D01*
X121285025Y-82909404D02*
X121285025Y-82837975D01*
X121285025Y-82837975D02*
X121308835Y-82790356D01*
X121308835Y-82790356D02*
X121332644Y-82766547D01*
X121332644Y-82766547D02*
X121380263Y-82742737D01*
X121380263Y-82742737D02*
X121499311Y-82742737D01*
X121499311Y-82742737D02*
X121546930Y-82766547D01*
X121546930Y-82766547D02*
X121570740Y-82790356D01*
X121570740Y-82790356D02*
X121594549Y-82837975D01*
X121594549Y-82837975D02*
X121594549Y-82980832D01*
X121594549Y-82980832D02*
X121570740Y-83028451D01*
X121570740Y-83028451D02*
X121546930Y-83052261D01*
X121094549Y-82290357D02*
X121094549Y-82528452D01*
X121094549Y-82528452D02*
X121332644Y-82552261D01*
X121332644Y-82552261D02*
X121308835Y-82528452D01*
X121308835Y-82528452D02*
X121285025Y-82480833D01*
X121285025Y-82480833D02*
X121285025Y-82361785D01*
X121285025Y-82361785D02*
X121308835Y-82314166D01*
X121308835Y-82314166D02*
X121332644Y-82290357D01*
X121332644Y-82290357D02*
X121380263Y-82266547D01*
X121380263Y-82266547D02*
X121499311Y-82266547D01*
X121499311Y-82266547D02*
X121546930Y-82290357D01*
X121546930Y-82290357D02*
X121570740Y-82314166D01*
X121570740Y-82314166D02*
X121594549Y-82361785D01*
X121594549Y-82361785D02*
X121594549Y-82480833D01*
X121594549Y-82480833D02*
X121570740Y-82528452D01*
X121570740Y-82528452D02*
X121546930Y-82552261D01*
X148876666Y-69607149D02*
X148710000Y-69369054D01*
X148590952Y-69607149D02*
X148590952Y-69107149D01*
X148590952Y-69107149D02*
X148781428Y-69107149D01*
X148781428Y-69107149D02*
X148829047Y-69130959D01*
X148829047Y-69130959D02*
X148852857Y-69154768D01*
X148852857Y-69154768D02*
X148876666Y-69202387D01*
X148876666Y-69202387D02*
X148876666Y-69273816D01*
X148876666Y-69273816D02*
X148852857Y-69321435D01*
X148852857Y-69321435D02*
X148829047Y-69345244D01*
X148829047Y-69345244D02*
X148781428Y-69369054D01*
X148781428Y-69369054D02*
X148590952Y-69369054D01*
X149162381Y-69321435D02*
X149114762Y-69297625D01*
X149114762Y-69297625D02*
X149090952Y-69273816D01*
X149090952Y-69273816D02*
X149067143Y-69226197D01*
X149067143Y-69226197D02*
X149067143Y-69202387D01*
X149067143Y-69202387D02*
X149090952Y-69154768D01*
X149090952Y-69154768D02*
X149114762Y-69130959D01*
X149114762Y-69130959D02*
X149162381Y-69107149D01*
X149162381Y-69107149D02*
X149257619Y-69107149D01*
X149257619Y-69107149D02*
X149305238Y-69130959D01*
X149305238Y-69130959D02*
X149329047Y-69154768D01*
X149329047Y-69154768D02*
X149352857Y-69202387D01*
X149352857Y-69202387D02*
X149352857Y-69226197D01*
X149352857Y-69226197D02*
X149329047Y-69273816D01*
X149329047Y-69273816D02*
X149305238Y-69297625D01*
X149305238Y-69297625D02*
X149257619Y-69321435D01*
X149257619Y-69321435D02*
X149162381Y-69321435D01*
X149162381Y-69321435D02*
X149114762Y-69345244D01*
X149114762Y-69345244D02*
X149090952Y-69369054D01*
X149090952Y-69369054D02*
X149067143Y-69416673D01*
X149067143Y-69416673D02*
X149067143Y-69511911D01*
X149067143Y-69511911D02*
X149090952Y-69559530D01*
X149090952Y-69559530D02*
X149114762Y-69583340D01*
X149114762Y-69583340D02*
X149162381Y-69607149D01*
X149162381Y-69607149D02*
X149257619Y-69607149D01*
X149257619Y-69607149D02*
X149305238Y-69583340D01*
X149305238Y-69583340D02*
X149329047Y-69559530D01*
X149329047Y-69559530D02*
X149352857Y-69511911D01*
X149352857Y-69511911D02*
X149352857Y-69416673D01*
X149352857Y-69416673D02*
X149329047Y-69369054D01*
X149329047Y-69369054D02*
X149305238Y-69345244D01*
X149305238Y-69345244D02*
X149257619Y-69321435D01*
D12*
X142391667Y-69377664D02*
X142353571Y-69415760D01*
X142353571Y-69415760D02*
X142239286Y-69453855D01*
X142239286Y-69453855D02*
X142163095Y-69453855D01*
X142163095Y-69453855D02*
X142048809Y-69415760D01*
X142048809Y-69415760D02*
X141972619Y-69339569D01*
X141972619Y-69339569D02*
X141934524Y-69263379D01*
X141934524Y-69263379D02*
X141896428Y-69110998D01*
X141896428Y-69110998D02*
X141896428Y-68996712D01*
X141896428Y-68996712D02*
X141934524Y-68844331D01*
X141934524Y-68844331D02*
X141972619Y-68768140D01*
X141972619Y-68768140D02*
X142048809Y-68691950D01*
X142048809Y-68691950D02*
X142163095Y-68653855D01*
X142163095Y-68653855D02*
X142239286Y-68653855D01*
X142239286Y-68653855D02*
X142353571Y-68691950D01*
X142353571Y-68691950D02*
X142391667Y-68730045D01*
X142848809Y-68996712D02*
X142772619Y-68958617D01*
X142772619Y-68958617D02*
X142734524Y-68920521D01*
X142734524Y-68920521D02*
X142696428Y-68844331D01*
X142696428Y-68844331D02*
X142696428Y-68806236D01*
X142696428Y-68806236D02*
X142734524Y-68730045D01*
X142734524Y-68730045D02*
X142772619Y-68691950D01*
X142772619Y-68691950D02*
X142848809Y-68653855D01*
X142848809Y-68653855D02*
X143001190Y-68653855D01*
X143001190Y-68653855D02*
X143077381Y-68691950D01*
X143077381Y-68691950D02*
X143115476Y-68730045D01*
X143115476Y-68730045D02*
X143153571Y-68806236D01*
X143153571Y-68806236D02*
X143153571Y-68844331D01*
X143153571Y-68844331D02*
X143115476Y-68920521D01*
X143115476Y-68920521D02*
X143077381Y-68958617D01*
X143077381Y-68958617D02*
X143001190Y-68996712D01*
X143001190Y-68996712D02*
X142848809Y-68996712D01*
X142848809Y-68996712D02*
X142772619Y-69034807D01*
X142772619Y-69034807D02*
X142734524Y-69072902D01*
X142734524Y-69072902D02*
X142696428Y-69149093D01*
X142696428Y-69149093D02*
X142696428Y-69301474D01*
X142696428Y-69301474D02*
X142734524Y-69377664D01*
X142734524Y-69377664D02*
X142772619Y-69415760D01*
X142772619Y-69415760D02*
X142848809Y-69453855D01*
X142848809Y-69453855D02*
X143001190Y-69453855D01*
X143001190Y-69453855D02*
X143077381Y-69415760D01*
X143077381Y-69415760D02*
X143115476Y-69377664D01*
X143115476Y-69377664D02*
X143153571Y-69301474D01*
X143153571Y-69301474D02*
X143153571Y-69149093D01*
X143153571Y-69149093D02*
X143115476Y-69072902D01*
X143115476Y-69072902D02*
X143077381Y-69034807D01*
X143077381Y-69034807D02*
X143001190Y-68996712D01*
D15*
X151450952Y-94032345D02*
X151450952Y-93532345D01*
X151450952Y-93532345D02*
X151570000Y-93532345D01*
X151570000Y-93532345D02*
X151641428Y-93556155D01*
X151641428Y-93556155D02*
X151689047Y-93603774D01*
X151689047Y-93603774D02*
X151712857Y-93651393D01*
X151712857Y-93651393D02*
X151736666Y-93746631D01*
X151736666Y-93746631D02*
X151736666Y-93818059D01*
X151736666Y-93818059D02*
X151712857Y-93913297D01*
X151712857Y-93913297D02*
X151689047Y-93960916D01*
X151689047Y-93960916D02*
X151641428Y-94008536D01*
X151641428Y-94008536D02*
X151570000Y-94032345D01*
X151570000Y-94032345D02*
X151450952Y-94032345D01*
X152165238Y-93532345D02*
X152070000Y-93532345D01*
X152070000Y-93532345D02*
X152022381Y-93556155D01*
X152022381Y-93556155D02*
X151998571Y-93579964D01*
X151998571Y-93579964D02*
X151950952Y-93651393D01*
X151950952Y-93651393D02*
X151927143Y-93746631D01*
X151927143Y-93746631D02*
X151927143Y-93937107D01*
X151927143Y-93937107D02*
X151950952Y-93984726D01*
X151950952Y-93984726D02*
X151974762Y-94008536D01*
X151974762Y-94008536D02*
X152022381Y-94032345D01*
X152022381Y-94032345D02*
X152117619Y-94032345D01*
X152117619Y-94032345D02*
X152165238Y-94008536D01*
X152165238Y-94008536D02*
X152189047Y-93984726D01*
X152189047Y-93984726D02*
X152212857Y-93937107D01*
X152212857Y-93937107D02*
X152212857Y-93818059D01*
X152212857Y-93818059D02*
X152189047Y-93770440D01*
X152189047Y-93770440D02*
X152165238Y-93746631D01*
X152165238Y-93746631D02*
X152117619Y-93722821D01*
X152117619Y-93722821D02*
X152022381Y-93722821D01*
X152022381Y-93722821D02*
X151974762Y-93746631D01*
X151974762Y-93746631D02*
X151950952Y-93770440D01*
X151950952Y-93770440D02*
X151927143Y-93818059D01*
D11*
X104872149Y-101691428D02*
X104634054Y-101858094D01*
X104872149Y-101977142D02*
X104372149Y-101977142D01*
X104372149Y-101977142D02*
X104372149Y-101786666D01*
X104372149Y-101786666D02*
X104395959Y-101739047D01*
X104395959Y-101739047D02*
X104419768Y-101715237D01*
X104419768Y-101715237D02*
X104467387Y-101691428D01*
X104467387Y-101691428D02*
X104538816Y-101691428D01*
X104538816Y-101691428D02*
X104586435Y-101715237D01*
X104586435Y-101715237D02*
X104610244Y-101739047D01*
X104610244Y-101739047D02*
X104634054Y-101786666D01*
X104634054Y-101786666D02*
X104634054Y-101977142D01*
X104872149Y-101215237D02*
X104872149Y-101500951D01*
X104872149Y-101358094D02*
X104372149Y-101358094D01*
X104372149Y-101358094D02*
X104443578Y-101405713D01*
X104443578Y-101405713D02*
X104491197Y-101453332D01*
X104491197Y-101453332D02*
X104515006Y-101500951D01*
X104372149Y-101048571D02*
X104372149Y-100739047D01*
X104372149Y-100739047D02*
X104562625Y-100905714D01*
X104562625Y-100905714D02*
X104562625Y-100834285D01*
X104562625Y-100834285D02*
X104586435Y-100786666D01*
X104586435Y-100786666D02*
X104610244Y-100762857D01*
X104610244Y-100762857D02*
X104657863Y-100739047D01*
X104657863Y-100739047D02*
X104776911Y-100739047D01*
X104776911Y-100739047D02*
X104824530Y-100762857D01*
X104824530Y-100762857D02*
X104848340Y-100786666D01*
X104848340Y-100786666D02*
X104872149Y-100834285D01*
X104872149Y-100834285D02*
X104872149Y-100977142D01*
X104872149Y-100977142D02*
X104848340Y-101024761D01*
X104848340Y-101024761D02*
X104824530Y-101048571D01*
D14*
X127665238Y-64951927D02*
X127665238Y-65275737D01*
X127665238Y-65275737D02*
X127684285Y-65313832D01*
X127684285Y-65313832D02*
X127703333Y-65332880D01*
X127703333Y-65332880D02*
X127741428Y-65351927D01*
X127741428Y-65351927D02*
X127817619Y-65351927D01*
X127817619Y-65351927D02*
X127855714Y-65332880D01*
X127855714Y-65332880D02*
X127874761Y-65313832D01*
X127874761Y-65313832D02*
X127893809Y-65275737D01*
X127893809Y-65275737D02*
X127893809Y-64951927D01*
X128103333Y-65351927D02*
X128179524Y-65351927D01*
X128179524Y-65351927D02*
X128217619Y-65332880D01*
X128217619Y-65332880D02*
X128236667Y-65313832D01*
X128236667Y-65313832D02*
X128274762Y-65256689D01*
X128274762Y-65256689D02*
X128293809Y-65180499D01*
X128293809Y-65180499D02*
X128293809Y-65028118D01*
X128293809Y-65028118D02*
X128274762Y-64990022D01*
X128274762Y-64990022D02*
X128255714Y-64970975D01*
X128255714Y-64970975D02*
X128217619Y-64951927D01*
X128217619Y-64951927D02*
X128141428Y-64951927D01*
X128141428Y-64951927D02*
X128103333Y-64970975D01*
X128103333Y-64970975D02*
X128084286Y-64990022D01*
X128084286Y-64990022D02*
X128065238Y-65028118D01*
X128065238Y-65028118D02*
X128065238Y-65123356D01*
X128065238Y-65123356D02*
X128084286Y-65161451D01*
X128084286Y-65161451D02*
X128103333Y-65180499D01*
X128103333Y-65180499D02*
X128141428Y-65199546D01*
X128141428Y-65199546D02*
X128217619Y-65199546D01*
X128217619Y-65199546D02*
X128255714Y-65180499D01*
X128255714Y-65180499D02*
X128274762Y-65161451D01*
X128274762Y-65161451D02*
X128293809Y-65123356D01*
D11*
X123296666Y-113117149D02*
X123130000Y-112879054D01*
X123010952Y-113117149D02*
X123010952Y-112617149D01*
X123010952Y-112617149D02*
X123201428Y-112617149D01*
X123201428Y-112617149D02*
X123249047Y-112640959D01*
X123249047Y-112640959D02*
X123272857Y-112664768D01*
X123272857Y-112664768D02*
X123296666Y-112712387D01*
X123296666Y-112712387D02*
X123296666Y-112783816D01*
X123296666Y-112783816D02*
X123272857Y-112831435D01*
X123272857Y-112831435D02*
X123249047Y-112855244D01*
X123249047Y-112855244D02*
X123201428Y-112879054D01*
X123201428Y-112879054D02*
X123010952Y-112879054D01*
X123463333Y-112617149D02*
X123772857Y-112617149D01*
X123772857Y-112617149D02*
X123606190Y-112807625D01*
X123606190Y-112807625D02*
X123677619Y-112807625D01*
X123677619Y-112807625D02*
X123725238Y-112831435D01*
X123725238Y-112831435D02*
X123749047Y-112855244D01*
X123749047Y-112855244D02*
X123772857Y-112902863D01*
X123772857Y-112902863D02*
X123772857Y-113021911D01*
X123772857Y-113021911D02*
X123749047Y-113069530D01*
X123749047Y-113069530D02*
X123725238Y-113093340D01*
X123725238Y-113093340D02*
X123677619Y-113117149D01*
X123677619Y-113117149D02*
X123534762Y-113117149D01*
X123534762Y-113117149D02*
X123487143Y-113093340D01*
X123487143Y-113093340D02*
X123463333Y-113069530D01*
X125390952Y-75018149D02*
X125390952Y-74518149D01*
X125390952Y-74518149D02*
X125510000Y-74518149D01*
X125510000Y-74518149D02*
X125581428Y-74541959D01*
X125581428Y-74541959D02*
X125629047Y-74589578D01*
X125629047Y-74589578D02*
X125652857Y-74637197D01*
X125652857Y-74637197D02*
X125676666Y-74732435D01*
X125676666Y-74732435D02*
X125676666Y-74803863D01*
X125676666Y-74803863D02*
X125652857Y-74899101D01*
X125652857Y-74899101D02*
X125629047Y-74946720D01*
X125629047Y-74946720D02*
X125581428Y-74994340D01*
X125581428Y-74994340D02*
X125510000Y-75018149D01*
X125510000Y-75018149D02*
X125390952Y-75018149D01*
X125867143Y-74565768D02*
X125890952Y-74541959D01*
X125890952Y-74541959D02*
X125938571Y-74518149D01*
X125938571Y-74518149D02*
X126057619Y-74518149D01*
X126057619Y-74518149D02*
X126105238Y-74541959D01*
X126105238Y-74541959D02*
X126129047Y-74565768D01*
X126129047Y-74565768D02*
X126152857Y-74613387D01*
X126152857Y-74613387D02*
X126152857Y-74661006D01*
X126152857Y-74661006D02*
X126129047Y-74732435D01*
X126129047Y-74732435D02*
X125843333Y-75018149D01*
X125843333Y-75018149D02*
X126152857Y-75018149D01*
X149948571Y-104502149D02*
X149781905Y-104264054D01*
X149662857Y-104502149D02*
X149662857Y-104002149D01*
X149662857Y-104002149D02*
X149853333Y-104002149D01*
X149853333Y-104002149D02*
X149900952Y-104025959D01*
X149900952Y-104025959D02*
X149924762Y-104049768D01*
X149924762Y-104049768D02*
X149948571Y-104097387D01*
X149948571Y-104097387D02*
X149948571Y-104168816D01*
X149948571Y-104168816D02*
X149924762Y-104216435D01*
X149924762Y-104216435D02*
X149900952Y-104240244D01*
X149900952Y-104240244D02*
X149853333Y-104264054D01*
X149853333Y-104264054D02*
X149662857Y-104264054D01*
X150115238Y-104002149D02*
X150424762Y-104002149D01*
X150424762Y-104002149D02*
X150258095Y-104192625D01*
X150258095Y-104192625D02*
X150329524Y-104192625D01*
X150329524Y-104192625D02*
X150377143Y-104216435D01*
X150377143Y-104216435D02*
X150400952Y-104240244D01*
X150400952Y-104240244D02*
X150424762Y-104287863D01*
X150424762Y-104287863D02*
X150424762Y-104406911D01*
X150424762Y-104406911D02*
X150400952Y-104454530D01*
X150400952Y-104454530D02*
X150377143Y-104478340D01*
X150377143Y-104478340D02*
X150329524Y-104502149D01*
X150329524Y-104502149D02*
X150186667Y-104502149D01*
X150186667Y-104502149D02*
X150139048Y-104478340D01*
X150139048Y-104478340D02*
X150115238Y-104454530D01*
X150591428Y-104002149D02*
X150900952Y-104002149D01*
X150900952Y-104002149D02*
X150734285Y-104192625D01*
X150734285Y-104192625D02*
X150805714Y-104192625D01*
X150805714Y-104192625D02*
X150853333Y-104216435D01*
X150853333Y-104216435D02*
X150877142Y-104240244D01*
X150877142Y-104240244D02*
X150900952Y-104287863D01*
X150900952Y-104287863D02*
X150900952Y-104406911D01*
X150900952Y-104406911D02*
X150877142Y-104454530D01*
X150877142Y-104454530D02*
X150853333Y-104478340D01*
X150853333Y-104478340D02*
X150805714Y-104502149D01*
X150805714Y-104502149D02*
X150662857Y-104502149D01*
X150662857Y-104502149D02*
X150615238Y-104478340D01*
X150615238Y-104478340D02*
X150591428Y-104454530D01*
D12*
X112257664Y-93843332D02*
X112295760Y-93881428D01*
X112295760Y-93881428D02*
X112333855Y-93995713D01*
X112333855Y-93995713D02*
X112333855Y-94071904D01*
X112333855Y-94071904D02*
X112295760Y-94186190D01*
X112295760Y-94186190D02*
X112219569Y-94262380D01*
X112219569Y-94262380D02*
X112143379Y-94300475D01*
X112143379Y-94300475D02*
X111990998Y-94338571D01*
X111990998Y-94338571D02*
X111876712Y-94338571D01*
X111876712Y-94338571D02*
X111724331Y-94300475D01*
X111724331Y-94300475D02*
X111648140Y-94262380D01*
X111648140Y-94262380D02*
X111571950Y-94186190D01*
X111571950Y-94186190D02*
X111533855Y-94071904D01*
X111533855Y-94071904D02*
X111533855Y-93995713D01*
X111533855Y-93995713D02*
X111571950Y-93881428D01*
X111571950Y-93881428D02*
X111610045Y-93843332D01*
X111610045Y-93538571D02*
X111571950Y-93500475D01*
X111571950Y-93500475D02*
X111533855Y-93424285D01*
X111533855Y-93424285D02*
X111533855Y-93233809D01*
X111533855Y-93233809D02*
X111571950Y-93157618D01*
X111571950Y-93157618D02*
X111610045Y-93119523D01*
X111610045Y-93119523D02*
X111686236Y-93081428D01*
X111686236Y-93081428D02*
X111762426Y-93081428D01*
X111762426Y-93081428D02*
X111876712Y-93119523D01*
X111876712Y-93119523D02*
X112333855Y-93576666D01*
X112333855Y-93576666D02*
X112333855Y-93081428D01*
D11*
X149948571Y-110317149D02*
X149781905Y-110079054D01*
X149662857Y-110317149D02*
X149662857Y-109817149D01*
X149662857Y-109817149D02*
X149853333Y-109817149D01*
X149853333Y-109817149D02*
X149900952Y-109840959D01*
X149900952Y-109840959D02*
X149924762Y-109864768D01*
X149924762Y-109864768D02*
X149948571Y-109912387D01*
X149948571Y-109912387D02*
X149948571Y-109983816D01*
X149948571Y-109983816D02*
X149924762Y-110031435D01*
X149924762Y-110031435D02*
X149900952Y-110055244D01*
X149900952Y-110055244D02*
X149853333Y-110079054D01*
X149853333Y-110079054D02*
X149662857Y-110079054D01*
X150424762Y-110317149D02*
X150139048Y-110317149D01*
X150281905Y-110317149D02*
X150281905Y-109817149D01*
X150281905Y-109817149D02*
X150234286Y-109888578D01*
X150234286Y-109888578D02*
X150186667Y-109936197D01*
X150186667Y-109936197D02*
X150139048Y-109960006D01*
X150734285Y-109817149D02*
X150781904Y-109817149D01*
X150781904Y-109817149D02*
X150829523Y-109840959D01*
X150829523Y-109840959D02*
X150853333Y-109864768D01*
X150853333Y-109864768D02*
X150877142Y-109912387D01*
X150877142Y-109912387D02*
X150900952Y-110007625D01*
X150900952Y-110007625D02*
X150900952Y-110126673D01*
X150900952Y-110126673D02*
X150877142Y-110221911D01*
X150877142Y-110221911D02*
X150853333Y-110269530D01*
X150853333Y-110269530D02*
X150829523Y-110293340D01*
X150829523Y-110293340D02*
X150781904Y-110317149D01*
X150781904Y-110317149D02*
X150734285Y-110317149D01*
X150734285Y-110317149D02*
X150686666Y-110293340D01*
X150686666Y-110293340D02*
X150662857Y-110269530D01*
X150662857Y-110269530D02*
X150639047Y-110221911D01*
X150639047Y-110221911D02*
X150615238Y-110126673D01*
X150615238Y-110126673D02*
X150615238Y-110007625D01*
X150615238Y-110007625D02*
X150639047Y-109912387D01*
X150639047Y-109912387D02*
X150662857Y-109864768D01*
X150662857Y-109864768D02*
X150686666Y-109840959D01*
X150686666Y-109840959D02*
X150734285Y-109817149D01*
D10*
X120284323Y-86775914D02*
X120253847Y-86760676D01*
X120253847Y-86760676D02*
X120223371Y-86730200D01*
X120223371Y-86730200D02*
X120177657Y-86684485D01*
X120177657Y-86684485D02*
X120147180Y-86669247D01*
X120147180Y-86669247D02*
X120116704Y-86669247D01*
X120131942Y-86745438D02*
X120101466Y-86730200D01*
X120101466Y-86730200D02*
X120070990Y-86699723D01*
X120070990Y-86699723D02*
X120055752Y-86638771D01*
X120055752Y-86638771D02*
X120055752Y-86532104D01*
X120055752Y-86532104D02*
X120070990Y-86471152D01*
X120070990Y-86471152D02*
X120101466Y-86440676D01*
X120101466Y-86440676D02*
X120131942Y-86425438D01*
X120131942Y-86425438D02*
X120192895Y-86425438D01*
X120192895Y-86425438D02*
X120223371Y-86440676D01*
X120223371Y-86440676D02*
X120253847Y-86471152D01*
X120253847Y-86471152D02*
X120269085Y-86532104D01*
X120269085Y-86532104D02*
X120269085Y-86638771D01*
X120269085Y-86638771D02*
X120253847Y-86699723D01*
X120253847Y-86699723D02*
X120223371Y-86730200D01*
X120223371Y-86730200D02*
X120192895Y-86745438D01*
X120192895Y-86745438D02*
X120131942Y-86745438D01*
X120375752Y-86425438D02*
X120589085Y-86425438D01*
X120589085Y-86425438D02*
X120451942Y-86745438D01*
D11*
X123038571Y-118977149D02*
X122871905Y-118739054D01*
X122752857Y-118977149D02*
X122752857Y-118477149D01*
X122752857Y-118477149D02*
X122943333Y-118477149D01*
X122943333Y-118477149D02*
X122990952Y-118500959D01*
X122990952Y-118500959D02*
X123014762Y-118524768D01*
X123014762Y-118524768D02*
X123038571Y-118572387D01*
X123038571Y-118572387D02*
X123038571Y-118643816D01*
X123038571Y-118643816D02*
X123014762Y-118691435D01*
X123014762Y-118691435D02*
X122990952Y-118715244D01*
X122990952Y-118715244D02*
X122943333Y-118739054D01*
X122943333Y-118739054D02*
X122752857Y-118739054D01*
X123229048Y-118524768D02*
X123252857Y-118500959D01*
X123252857Y-118500959D02*
X123300476Y-118477149D01*
X123300476Y-118477149D02*
X123419524Y-118477149D01*
X123419524Y-118477149D02*
X123467143Y-118500959D01*
X123467143Y-118500959D02*
X123490952Y-118524768D01*
X123490952Y-118524768D02*
X123514762Y-118572387D01*
X123514762Y-118572387D02*
X123514762Y-118620006D01*
X123514762Y-118620006D02*
X123490952Y-118691435D01*
X123490952Y-118691435D02*
X123205238Y-118977149D01*
X123205238Y-118977149D02*
X123514762Y-118977149D01*
X123824285Y-118477149D02*
X123871904Y-118477149D01*
X123871904Y-118477149D02*
X123919523Y-118500959D01*
X123919523Y-118500959D02*
X123943333Y-118524768D01*
X123943333Y-118524768D02*
X123967142Y-118572387D01*
X123967142Y-118572387D02*
X123990952Y-118667625D01*
X123990952Y-118667625D02*
X123990952Y-118786673D01*
X123990952Y-118786673D02*
X123967142Y-118881911D01*
X123967142Y-118881911D02*
X123943333Y-118929530D01*
X123943333Y-118929530D02*
X123919523Y-118953340D01*
X123919523Y-118953340D02*
X123871904Y-118977149D01*
X123871904Y-118977149D02*
X123824285Y-118977149D01*
X123824285Y-118977149D02*
X123776666Y-118953340D01*
X123776666Y-118953340D02*
X123752857Y-118929530D01*
X123752857Y-118929530D02*
X123729047Y-118881911D01*
X123729047Y-118881911D02*
X123705238Y-118786673D01*
X123705238Y-118786673D02*
X123705238Y-118667625D01*
X123705238Y-118667625D02*
X123729047Y-118572387D01*
X123729047Y-118572387D02*
X123752857Y-118524768D01*
X123752857Y-118524768D02*
X123776666Y-118500959D01*
X123776666Y-118500959D02*
X123824285Y-118477149D01*
X148838571Y-77507149D02*
X148671905Y-77269054D01*
X148552857Y-77507149D02*
X148552857Y-77007149D01*
X148552857Y-77007149D02*
X148743333Y-77007149D01*
X148743333Y-77007149D02*
X148790952Y-77030959D01*
X148790952Y-77030959D02*
X148814762Y-77054768D01*
X148814762Y-77054768D02*
X148838571Y-77102387D01*
X148838571Y-77102387D02*
X148838571Y-77173816D01*
X148838571Y-77173816D02*
X148814762Y-77221435D01*
X148814762Y-77221435D02*
X148790952Y-77245244D01*
X148790952Y-77245244D02*
X148743333Y-77269054D01*
X148743333Y-77269054D02*
X148552857Y-77269054D01*
X149029048Y-77054768D02*
X149052857Y-77030959D01*
X149052857Y-77030959D02*
X149100476Y-77007149D01*
X149100476Y-77007149D02*
X149219524Y-77007149D01*
X149219524Y-77007149D02*
X149267143Y-77030959D01*
X149267143Y-77030959D02*
X149290952Y-77054768D01*
X149290952Y-77054768D02*
X149314762Y-77102387D01*
X149314762Y-77102387D02*
X149314762Y-77150006D01*
X149314762Y-77150006D02*
X149290952Y-77221435D01*
X149290952Y-77221435D02*
X149005238Y-77507149D01*
X149005238Y-77507149D02*
X149314762Y-77507149D01*
X149481428Y-77007149D02*
X149790952Y-77007149D01*
X149790952Y-77007149D02*
X149624285Y-77197625D01*
X149624285Y-77197625D02*
X149695714Y-77197625D01*
X149695714Y-77197625D02*
X149743333Y-77221435D01*
X149743333Y-77221435D02*
X149767142Y-77245244D01*
X149767142Y-77245244D02*
X149790952Y-77292863D01*
X149790952Y-77292863D02*
X149790952Y-77411911D01*
X149790952Y-77411911D02*
X149767142Y-77459530D01*
X149767142Y-77459530D02*
X149743333Y-77483340D01*
X149743333Y-77483340D02*
X149695714Y-77507149D01*
X149695714Y-77507149D02*
X149552857Y-77507149D01*
X149552857Y-77507149D02*
X149505238Y-77483340D01*
X149505238Y-77483340D02*
X149481428Y-77459530D01*
X129884531Y-88169901D02*
X130095841Y-87716747D01*
X130095841Y-87716747D02*
X130203734Y-87767059D01*
X130203734Y-87767059D02*
X130258408Y-87818824D01*
X130258408Y-87818824D02*
X130281441Y-87882106D01*
X130281441Y-87882106D02*
X130282895Y-87935326D01*
X130282895Y-87935326D02*
X130264225Y-88031704D01*
X130264225Y-88031704D02*
X130234038Y-88096440D01*
X130234038Y-88096440D02*
X130172209Y-88172693D01*
X130172209Y-88172693D02*
X130130506Y-88205788D01*
X130130506Y-88205788D02*
X130067224Y-88228821D01*
X130067224Y-88228821D02*
X129992425Y-88220212D01*
X129992425Y-88220212D02*
X129884531Y-88169901D01*
X130505837Y-87907931D02*
X130786361Y-88038742D01*
X130786361Y-88038742D02*
X130554811Y-88140935D01*
X130554811Y-88140935D02*
X130619547Y-88171122D01*
X130619547Y-88171122D02*
X130652642Y-88212826D01*
X130652642Y-88212826D02*
X130664159Y-88244467D01*
X130664159Y-88244467D02*
X130665613Y-88297687D01*
X130665613Y-88297687D02*
X130615301Y-88405581D01*
X130615301Y-88405581D02*
X130573598Y-88438676D01*
X130573598Y-88438676D02*
X130541956Y-88450192D01*
X130541956Y-88450192D02*
X130488737Y-88451646D01*
X130488737Y-88451646D02*
X130359264Y-88391272D01*
X130359264Y-88391272D02*
X130326169Y-88349569D01*
X130326169Y-88349569D02*
X130314653Y-88317928D01*
X137005666Y-75018149D02*
X136839000Y-74780054D01*
X136719952Y-75018149D02*
X136719952Y-74518149D01*
X136719952Y-74518149D02*
X136910428Y-74518149D01*
X136910428Y-74518149D02*
X136958047Y-74541959D01*
X136958047Y-74541959D02*
X136981857Y-74565768D01*
X136981857Y-74565768D02*
X137005666Y-74613387D01*
X137005666Y-74613387D02*
X137005666Y-74684816D01*
X137005666Y-74684816D02*
X136981857Y-74732435D01*
X136981857Y-74732435D02*
X136958047Y-74756244D01*
X136958047Y-74756244D02*
X136910428Y-74780054D01*
X136910428Y-74780054D02*
X136719952Y-74780054D01*
X137481857Y-75018149D02*
X137196143Y-75018149D01*
X137339000Y-75018149D02*
X137339000Y-74518149D01*
X137339000Y-74518149D02*
X137291381Y-74589578D01*
X137291381Y-74589578D02*
X137243762Y-74637197D01*
X137243762Y-74637197D02*
X137196143Y-74661006D01*
D10*
X139294523Y-102585914D02*
X139264047Y-102570676D01*
X139264047Y-102570676D02*
X139233571Y-102540200D01*
X139233571Y-102540200D02*
X139187857Y-102494485D01*
X139187857Y-102494485D02*
X139157380Y-102479247D01*
X139157380Y-102479247D02*
X139126904Y-102479247D01*
X139142142Y-102555438D02*
X139111666Y-102540200D01*
X139111666Y-102540200D02*
X139081190Y-102509723D01*
X139081190Y-102509723D02*
X139065952Y-102448771D01*
X139065952Y-102448771D02*
X139065952Y-102342104D01*
X139065952Y-102342104D02*
X139081190Y-102281152D01*
X139081190Y-102281152D02*
X139111666Y-102250676D01*
X139111666Y-102250676D02*
X139142142Y-102235438D01*
X139142142Y-102235438D02*
X139203095Y-102235438D01*
X139203095Y-102235438D02*
X139233571Y-102250676D01*
X139233571Y-102250676D02*
X139264047Y-102281152D01*
X139264047Y-102281152D02*
X139279285Y-102342104D01*
X139279285Y-102342104D02*
X139279285Y-102448771D01*
X139279285Y-102448771D02*
X139264047Y-102509723D01*
X139264047Y-102509723D02*
X139233571Y-102540200D01*
X139233571Y-102540200D02*
X139203095Y-102555438D01*
X139203095Y-102555438D02*
X139142142Y-102555438D01*
X139401190Y-102265914D02*
X139416428Y-102250676D01*
X139416428Y-102250676D02*
X139446904Y-102235438D01*
X139446904Y-102235438D02*
X139523095Y-102235438D01*
X139523095Y-102235438D02*
X139553571Y-102250676D01*
X139553571Y-102250676D02*
X139568809Y-102265914D01*
X139568809Y-102265914D02*
X139584047Y-102296390D01*
X139584047Y-102296390D02*
X139584047Y-102326866D01*
X139584047Y-102326866D02*
X139568809Y-102372580D01*
X139568809Y-102372580D02*
X139385952Y-102555438D01*
X139385952Y-102555438D02*
X139584047Y-102555438D01*
X146789523Y-86775914D02*
X146759047Y-86760676D01*
X146759047Y-86760676D02*
X146728571Y-86730200D01*
X146728571Y-86730200D02*
X146682857Y-86684485D01*
X146682857Y-86684485D02*
X146652380Y-86669247D01*
X146652380Y-86669247D02*
X146621904Y-86669247D01*
X146637142Y-86745438D02*
X146606666Y-86730200D01*
X146606666Y-86730200D02*
X146576190Y-86699723D01*
X146576190Y-86699723D02*
X146560952Y-86638771D01*
X146560952Y-86638771D02*
X146560952Y-86532104D01*
X146560952Y-86532104D02*
X146576190Y-86471152D01*
X146576190Y-86471152D02*
X146606666Y-86440676D01*
X146606666Y-86440676D02*
X146637142Y-86425438D01*
X146637142Y-86425438D02*
X146698095Y-86425438D01*
X146698095Y-86425438D02*
X146728571Y-86440676D01*
X146728571Y-86440676D02*
X146759047Y-86471152D01*
X146759047Y-86471152D02*
X146774285Y-86532104D01*
X146774285Y-86532104D02*
X146774285Y-86638771D01*
X146774285Y-86638771D02*
X146759047Y-86699723D01*
X146759047Y-86699723D02*
X146728571Y-86730200D01*
X146728571Y-86730200D02*
X146698095Y-86745438D01*
X146698095Y-86745438D02*
X146637142Y-86745438D01*
X146957142Y-86562580D02*
X146926666Y-86547342D01*
X146926666Y-86547342D02*
X146911428Y-86532104D01*
X146911428Y-86532104D02*
X146896190Y-86501628D01*
X146896190Y-86501628D02*
X146896190Y-86486390D01*
X146896190Y-86486390D02*
X146911428Y-86455914D01*
X146911428Y-86455914D02*
X146926666Y-86440676D01*
X146926666Y-86440676D02*
X146957142Y-86425438D01*
X146957142Y-86425438D02*
X147018095Y-86425438D01*
X147018095Y-86425438D02*
X147048571Y-86440676D01*
X147048571Y-86440676D02*
X147063809Y-86455914D01*
X147063809Y-86455914D02*
X147079047Y-86486390D01*
X147079047Y-86486390D02*
X147079047Y-86501628D01*
X147079047Y-86501628D02*
X147063809Y-86532104D01*
X147063809Y-86532104D02*
X147048571Y-86547342D01*
X147048571Y-86547342D02*
X147018095Y-86562580D01*
X147018095Y-86562580D02*
X146957142Y-86562580D01*
X146957142Y-86562580D02*
X146926666Y-86577819D01*
X146926666Y-86577819D02*
X146911428Y-86593057D01*
X146911428Y-86593057D02*
X146896190Y-86623533D01*
X146896190Y-86623533D02*
X146896190Y-86684485D01*
X146896190Y-86684485D02*
X146911428Y-86714961D01*
X146911428Y-86714961D02*
X146926666Y-86730200D01*
X146926666Y-86730200D02*
X146957142Y-86745438D01*
X146957142Y-86745438D02*
X147018095Y-86745438D01*
X147018095Y-86745438D02*
X147048571Y-86730200D01*
X147048571Y-86730200D02*
X147063809Y-86714961D01*
X147063809Y-86714961D02*
X147079047Y-86684485D01*
X147079047Y-86684485D02*
X147079047Y-86623533D01*
X147079047Y-86623533D02*
X147063809Y-86593057D01*
X147063809Y-86593057D02*
X147048571Y-86577819D01*
X147048571Y-86577819D02*
X147018095Y-86562580D01*
D12*
X100897664Y-93363332D02*
X100935760Y-93401428D01*
X100935760Y-93401428D02*
X100973855Y-93515713D01*
X100973855Y-93515713D02*
X100973855Y-93591904D01*
X100973855Y-93591904D02*
X100935760Y-93706190D01*
X100935760Y-93706190D02*
X100859569Y-93782380D01*
X100859569Y-93782380D02*
X100783379Y-93820475D01*
X100783379Y-93820475D02*
X100630998Y-93858571D01*
X100630998Y-93858571D02*
X100516712Y-93858571D01*
X100516712Y-93858571D02*
X100364331Y-93820475D01*
X100364331Y-93820475D02*
X100288140Y-93782380D01*
X100288140Y-93782380D02*
X100211950Y-93706190D01*
X100211950Y-93706190D02*
X100173855Y-93591904D01*
X100173855Y-93591904D02*
X100173855Y-93515713D01*
X100173855Y-93515713D02*
X100211950Y-93401428D01*
X100211950Y-93401428D02*
X100250045Y-93363332D01*
X100973855Y-92601428D02*
X100973855Y-93058571D01*
X100973855Y-92829999D02*
X100173855Y-92829999D01*
X100173855Y-92829999D02*
X100288140Y-92906190D01*
X100288140Y-92906190D02*
X100364331Y-92982380D01*
X100364331Y-92982380D02*
X100402426Y-93058571D01*
D14*
X127665238Y-68786927D02*
X127665238Y-69110737D01*
X127665238Y-69110737D02*
X127684285Y-69148832D01*
X127684285Y-69148832D02*
X127703333Y-69167880D01*
X127703333Y-69167880D02*
X127741428Y-69186927D01*
X127741428Y-69186927D02*
X127817619Y-69186927D01*
X127817619Y-69186927D02*
X127855714Y-69167880D01*
X127855714Y-69167880D02*
X127874761Y-69148832D01*
X127874761Y-69148832D02*
X127893809Y-69110737D01*
X127893809Y-69110737D02*
X127893809Y-68786927D01*
X128141428Y-68958356D02*
X128103333Y-68939308D01*
X128103333Y-68939308D02*
X128084286Y-68920260D01*
X128084286Y-68920260D02*
X128065238Y-68882165D01*
X128065238Y-68882165D02*
X128065238Y-68863118D01*
X128065238Y-68863118D02*
X128084286Y-68825022D01*
X128084286Y-68825022D02*
X128103333Y-68805975D01*
X128103333Y-68805975D02*
X128141428Y-68786927D01*
X128141428Y-68786927D02*
X128217619Y-68786927D01*
X128217619Y-68786927D02*
X128255714Y-68805975D01*
X128255714Y-68805975D02*
X128274762Y-68825022D01*
X128274762Y-68825022D02*
X128293809Y-68863118D01*
X128293809Y-68863118D02*
X128293809Y-68882165D01*
X128293809Y-68882165D02*
X128274762Y-68920260D01*
X128274762Y-68920260D02*
X128255714Y-68939308D01*
X128255714Y-68939308D02*
X128217619Y-68958356D01*
X128217619Y-68958356D02*
X128141428Y-68958356D01*
X128141428Y-68958356D02*
X128103333Y-68977403D01*
X128103333Y-68977403D02*
X128084286Y-68996451D01*
X128084286Y-68996451D02*
X128065238Y-69034546D01*
X128065238Y-69034546D02*
X128065238Y-69110737D01*
X128065238Y-69110737D02*
X128084286Y-69148832D01*
X128084286Y-69148832D02*
X128103333Y-69167880D01*
X128103333Y-69167880D02*
X128141428Y-69186927D01*
X128141428Y-69186927D02*
X128217619Y-69186927D01*
X128217619Y-69186927D02*
X128255714Y-69167880D01*
X128255714Y-69167880D02*
X128274762Y-69148832D01*
X128274762Y-69148832D02*
X128293809Y-69110737D01*
X128293809Y-69110737D02*
X128293809Y-69034546D01*
X128293809Y-69034546D02*
X128274762Y-68996451D01*
X128274762Y-68996451D02*
X128255714Y-68977403D01*
X128255714Y-68977403D02*
X128217619Y-68958356D01*
D12*
X112257664Y-89203332D02*
X112295760Y-89241428D01*
X112295760Y-89241428D02*
X112333855Y-89355713D01*
X112333855Y-89355713D02*
X112333855Y-89431904D01*
X112333855Y-89431904D02*
X112295760Y-89546190D01*
X112295760Y-89546190D02*
X112219569Y-89622380D01*
X112219569Y-89622380D02*
X112143379Y-89660475D01*
X112143379Y-89660475D02*
X111990998Y-89698571D01*
X111990998Y-89698571D02*
X111876712Y-89698571D01*
X111876712Y-89698571D02*
X111724331Y-89660475D01*
X111724331Y-89660475D02*
X111648140Y-89622380D01*
X111648140Y-89622380D02*
X111571950Y-89546190D01*
X111571950Y-89546190D02*
X111533855Y-89431904D01*
X111533855Y-89431904D02*
X111533855Y-89355713D01*
X111533855Y-89355713D02*
X111571950Y-89241428D01*
X111571950Y-89241428D02*
X111610045Y-89203332D01*
X111533855Y-88936666D02*
X111533855Y-88441428D01*
X111533855Y-88441428D02*
X111838617Y-88708094D01*
X111838617Y-88708094D02*
X111838617Y-88593809D01*
X111838617Y-88593809D02*
X111876712Y-88517618D01*
X111876712Y-88517618D02*
X111914807Y-88479523D01*
X111914807Y-88479523D02*
X111990998Y-88441428D01*
X111990998Y-88441428D02*
X112181474Y-88441428D01*
X112181474Y-88441428D02*
X112257664Y-88479523D01*
X112257664Y-88479523D02*
X112295760Y-88517618D01*
X112295760Y-88517618D02*
X112333855Y-88593809D01*
X112333855Y-88593809D02*
X112333855Y-88822380D01*
X112333855Y-88822380D02*
X112295760Y-88898571D01*
X112295760Y-88898571D02*
X112257664Y-88936666D01*
D11*
X123043571Y-115077149D02*
X122876905Y-114839054D01*
X122757857Y-115077149D02*
X122757857Y-114577149D01*
X122757857Y-114577149D02*
X122948333Y-114577149D01*
X122948333Y-114577149D02*
X122995952Y-114600959D01*
X122995952Y-114600959D02*
X123019762Y-114624768D01*
X123019762Y-114624768D02*
X123043571Y-114672387D01*
X123043571Y-114672387D02*
X123043571Y-114743816D01*
X123043571Y-114743816D02*
X123019762Y-114791435D01*
X123019762Y-114791435D02*
X122995952Y-114815244D01*
X122995952Y-114815244D02*
X122948333Y-114839054D01*
X122948333Y-114839054D02*
X122757857Y-114839054D01*
X123234048Y-114624768D02*
X123257857Y-114600959D01*
X123257857Y-114600959D02*
X123305476Y-114577149D01*
X123305476Y-114577149D02*
X123424524Y-114577149D01*
X123424524Y-114577149D02*
X123472143Y-114600959D01*
X123472143Y-114600959D02*
X123495952Y-114624768D01*
X123495952Y-114624768D02*
X123519762Y-114672387D01*
X123519762Y-114672387D02*
X123519762Y-114720006D01*
X123519762Y-114720006D02*
X123495952Y-114791435D01*
X123495952Y-114791435D02*
X123210238Y-115077149D01*
X123210238Y-115077149D02*
X123519762Y-115077149D01*
X123995952Y-115077149D02*
X123710238Y-115077149D01*
X123853095Y-115077149D02*
X123853095Y-114577149D01*
X123853095Y-114577149D02*
X123805476Y-114648578D01*
X123805476Y-114648578D02*
X123757857Y-114696197D01*
X123757857Y-114696197D02*
X123710238Y-114720006D01*
D10*
X127163261Y-102542174D02*
X127132785Y-102526936D01*
X127132785Y-102526936D02*
X127102309Y-102496460D01*
X127102309Y-102496460D02*
X127056595Y-102450745D01*
X127056595Y-102450745D02*
X127026118Y-102435507D01*
X127026118Y-102435507D02*
X126995642Y-102435507D01*
X127010880Y-102511698D02*
X126980404Y-102496460D01*
X126980404Y-102496460D02*
X126949928Y-102465983D01*
X126949928Y-102465983D02*
X126934690Y-102405031D01*
X126934690Y-102405031D02*
X126934690Y-102298364D01*
X126934690Y-102298364D02*
X126949928Y-102237412D01*
X126949928Y-102237412D02*
X126980404Y-102206936D01*
X126980404Y-102206936D02*
X127010880Y-102191698D01*
X127010880Y-102191698D02*
X127071833Y-102191698D01*
X127071833Y-102191698D02*
X127102309Y-102206936D01*
X127102309Y-102206936D02*
X127132785Y-102237412D01*
X127132785Y-102237412D02*
X127148023Y-102298364D01*
X127148023Y-102298364D02*
X127148023Y-102405031D01*
X127148023Y-102405031D02*
X127132785Y-102465983D01*
X127132785Y-102465983D02*
X127102309Y-102496460D01*
X127102309Y-102496460D02*
X127071833Y-102511698D01*
X127071833Y-102511698D02*
X127010880Y-102511698D01*
X127452785Y-102511698D02*
X127269928Y-102511698D01*
X127361356Y-102511698D02*
X127361356Y-102191698D01*
X127361356Y-102191698D02*
X127330880Y-102237412D01*
X127330880Y-102237412D02*
X127300404Y-102267888D01*
X127300404Y-102267888D02*
X127269928Y-102283126D01*
D11*
X107904649Y-89721428D02*
X107666554Y-89888094D01*
X107904649Y-90007142D02*
X107404649Y-90007142D01*
X107404649Y-90007142D02*
X107404649Y-89816666D01*
X107404649Y-89816666D02*
X107428459Y-89769047D01*
X107428459Y-89769047D02*
X107452268Y-89745237D01*
X107452268Y-89745237D02*
X107499887Y-89721428D01*
X107499887Y-89721428D02*
X107571316Y-89721428D01*
X107571316Y-89721428D02*
X107618935Y-89745237D01*
X107618935Y-89745237D02*
X107642744Y-89769047D01*
X107642744Y-89769047D02*
X107666554Y-89816666D01*
X107666554Y-89816666D02*
X107666554Y-90007142D01*
X107904649Y-89245237D02*
X107904649Y-89530951D01*
X107904649Y-89388094D02*
X107404649Y-89388094D01*
X107404649Y-89388094D02*
X107476078Y-89435713D01*
X107476078Y-89435713D02*
X107523697Y-89483332D01*
X107523697Y-89483332D02*
X107547506Y-89530951D01*
X107618935Y-88959523D02*
X107595125Y-89007142D01*
X107595125Y-89007142D02*
X107571316Y-89030952D01*
X107571316Y-89030952D02*
X107523697Y-89054761D01*
X107523697Y-89054761D02*
X107499887Y-89054761D01*
X107499887Y-89054761D02*
X107452268Y-89030952D01*
X107452268Y-89030952D02*
X107428459Y-89007142D01*
X107428459Y-89007142D02*
X107404649Y-88959523D01*
X107404649Y-88959523D02*
X107404649Y-88864285D01*
X107404649Y-88864285D02*
X107428459Y-88816666D01*
X107428459Y-88816666D02*
X107452268Y-88792857D01*
X107452268Y-88792857D02*
X107499887Y-88769047D01*
X107499887Y-88769047D02*
X107523697Y-88769047D01*
X107523697Y-88769047D02*
X107571316Y-88792857D01*
X107571316Y-88792857D02*
X107595125Y-88816666D01*
X107595125Y-88816666D02*
X107618935Y-88864285D01*
X107618935Y-88864285D02*
X107618935Y-88959523D01*
X107618935Y-88959523D02*
X107642744Y-89007142D01*
X107642744Y-89007142D02*
X107666554Y-89030952D01*
X107666554Y-89030952D02*
X107714173Y-89054761D01*
X107714173Y-89054761D02*
X107809411Y-89054761D01*
X107809411Y-89054761D02*
X107857030Y-89030952D01*
X107857030Y-89030952D02*
X107880840Y-89007142D01*
X107880840Y-89007142D02*
X107904649Y-88959523D01*
X107904649Y-88959523D02*
X107904649Y-88864285D01*
X107904649Y-88864285D02*
X107880840Y-88816666D01*
X107880840Y-88816666D02*
X107857030Y-88792857D01*
X107857030Y-88792857D02*
X107809411Y-88769047D01*
X107809411Y-88769047D02*
X107714173Y-88769047D01*
X107714173Y-88769047D02*
X107666554Y-88792857D01*
X107666554Y-88792857D02*
X107642744Y-88816666D01*
X107642744Y-88816666D02*
X107618935Y-88864285D01*
X121468571Y-76640483D02*
X121301905Y-76402388D01*
X121182857Y-76640483D02*
X121182857Y-76140483D01*
X121182857Y-76140483D02*
X121373333Y-76140483D01*
X121373333Y-76140483D02*
X121420952Y-76164293D01*
X121420952Y-76164293D02*
X121444762Y-76188102D01*
X121444762Y-76188102D02*
X121468571Y-76235721D01*
X121468571Y-76235721D02*
X121468571Y-76307150D01*
X121468571Y-76307150D02*
X121444762Y-76354769D01*
X121444762Y-76354769D02*
X121420952Y-76378578D01*
X121420952Y-76378578D02*
X121373333Y-76402388D01*
X121373333Y-76402388D02*
X121182857Y-76402388D01*
X121635238Y-76140483D02*
X121944762Y-76140483D01*
X121944762Y-76140483D02*
X121778095Y-76330959D01*
X121778095Y-76330959D02*
X121849524Y-76330959D01*
X121849524Y-76330959D02*
X121897143Y-76354769D01*
X121897143Y-76354769D02*
X121920952Y-76378578D01*
X121920952Y-76378578D02*
X121944762Y-76426197D01*
X121944762Y-76426197D02*
X121944762Y-76545245D01*
X121944762Y-76545245D02*
X121920952Y-76592864D01*
X121920952Y-76592864D02*
X121897143Y-76616674D01*
X121897143Y-76616674D02*
X121849524Y-76640483D01*
X121849524Y-76640483D02*
X121706667Y-76640483D01*
X121706667Y-76640483D02*
X121659048Y-76616674D01*
X121659048Y-76616674D02*
X121635238Y-76592864D01*
X122254285Y-76140483D02*
X122301904Y-76140483D01*
X122301904Y-76140483D02*
X122349523Y-76164293D01*
X122349523Y-76164293D02*
X122373333Y-76188102D01*
X122373333Y-76188102D02*
X122397142Y-76235721D01*
X122397142Y-76235721D02*
X122420952Y-76330959D01*
X122420952Y-76330959D02*
X122420952Y-76450007D01*
X122420952Y-76450007D02*
X122397142Y-76545245D01*
X122397142Y-76545245D02*
X122373333Y-76592864D01*
X122373333Y-76592864D02*
X122349523Y-76616674D01*
X122349523Y-76616674D02*
X122301904Y-76640483D01*
X122301904Y-76640483D02*
X122254285Y-76640483D01*
X122254285Y-76640483D02*
X122206666Y-76616674D01*
X122206666Y-76616674D02*
X122182857Y-76592864D01*
X122182857Y-76592864D02*
X122159047Y-76545245D01*
X122159047Y-76545245D02*
X122135238Y-76450007D01*
X122135238Y-76450007D02*
X122135238Y-76330959D01*
X122135238Y-76330959D02*
X122159047Y-76235721D01*
X122159047Y-76235721D02*
X122182857Y-76188102D01*
X122182857Y-76188102D02*
X122206666Y-76164293D01*
X122206666Y-76164293D02*
X122254285Y-76140483D01*
D16*
X89502143Y-105344047D02*
X89206905Y-105550713D01*
X89502143Y-105698332D02*
X88882143Y-105698332D01*
X88882143Y-105698332D02*
X88882143Y-105462142D01*
X88882143Y-105462142D02*
X88911667Y-105403094D01*
X88911667Y-105403094D02*
X88941191Y-105373571D01*
X88941191Y-105373571D02*
X89000239Y-105344047D01*
X89000239Y-105344047D02*
X89088810Y-105344047D01*
X89088810Y-105344047D02*
X89147858Y-105373571D01*
X89147858Y-105373571D02*
X89177381Y-105403094D01*
X89177381Y-105403094D02*
X89206905Y-105462142D01*
X89206905Y-105462142D02*
X89206905Y-105698332D01*
X88882143Y-105166904D02*
X89502143Y-104960237D01*
X89502143Y-104960237D02*
X88882143Y-104753571D01*
X89502143Y-104222142D02*
X89502143Y-104576427D01*
X89502143Y-104399284D02*
X88882143Y-104399284D01*
X88882143Y-104399284D02*
X88970715Y-104458332D01*
X88970715Y-104458332D02*
X89029762Y-104517380D01*
X89029762Y-104517380D02*
X89059286Y-104576427D01*
D11*
X112277149Y-98221428D02*
X112039054Y-98388094D01*
X112277149Y-98507142D02*
X111777149Y-98507142D01*
X111777149Y-98507142D02*
X111777149Y-98316666D01*
X111777149Y-98316666D02*
X111800959Y-98269047D01*
X111800959Y-98269047D02*
X111824768Y-98245237D01*
X111824768Y-98245237D02*
X111872387Y-98221428D01*
X111872387Y-98221428D02*
X111943816Y-98221428D01*
X111943816Y-98221428D02*
X111991435Y-98245237D01*
X111991435Y-98245237D02*
X112015244Y-98269047D01*
X112015244Y-98269047D02*
X112039054Y-98316666D01*
X112039054Y-98316666D02*
X112039054Y-98507142D01*
X112277149Y-97745237D02*
X112277149Y-98030951D01*
X112277149Y-97888094D02*
X111777149Y-97888094D01*
X111777149Y-97888094D02*
X111848578Y-97935713D01*
X111848578Y-97935713D02*
X111896197Y-97983332D01*
X111896197Y-97983332D02*
X111920006Y-98030951D01*
X111943816Y-97316666D02*
X112277149Y-97316666D01*
X111753340Y-97435714D02*
X112110482Y-97554761D01*
X112110482Y-97554761D02*
X112110482Y-97245238D01*
X107802149Y-101661428D02*
X107564054Y-101828094D01*
X107802149Y-101947142D02*
X107302149Y-101947142D01*
X107302149Y-101947142D02*
X107302149Y-101756666D01*
X107302149Y-101756666D02*
X107325959Y-101709047D01*
X107325959Y-101709047D02*
X107349768Y-101685237D01*
X107349768Y-101685237D02*
X107397387Y-101661428D01*
X107397387Y-101661428D02*
X107468816Y-101661428D01*
X107468816Y-101661428D02*
X107516435Y-101685237D01*
X107516435Y-101685237D02*
X107540244Y-101709047D01*
X107540244Y-101709047D02*
X107564054Y-101756666D01*
X107564054Y-101756666D02*
X107564054Y-101947142D01*
X107802149Y-101185237D02*
X107802149Y-101470951D01*
X107802149Y-101328094D02*
X107302149Y-101328094D01*
X107302149Y-101328094D02*
X107373578Y-101375713D01*
X107373578Y-101375713D02*
X107421197Y-101423332D01*
X107421197Y-101423332D02*
X107445006Y-101470951D01*
X107302149Y-100732857D02*
X107302149Y-100970952D01*
X107302149Y-100970952D02*
X107540244Y-100994761D01*
X107540244Y-100994761D02*
X107516435Y-100970952D01*
X107516435Y-100970952D02*
X107492625Y-100923333D01*
X107492625Y-100923333D02*
X107492625Y-100804285D01*
X107492625Y-100804285D02*
X107516435Y-100756666D01*
X107516435Y-100756666D02*
X107540244Y-100732857D01*
X107540244Y-100732857D02*
X107587863Y-100709047D01*
X107587863Y-100709047D02*
X107706911Y-100709047D01*
X107706911Y-100709047D02*
X107754530Y-100732857D01*
X107754530Y-100732857D02*
X107778340Y-100756666D01*
X107778340Y-100756666D02*
X107802149Y-100804285D01*
X107802149Y-100804285D02*
X107802149Y-100923333D01*
X107802149Y-100923333D02*
X107778340Y-100970952D01*
X107778340Y-100970952D02*
X107754530Y-100994761D01*
X150048571Y-101360720D02*
X149881905Y-101122625D01*
X149762857Y-101360720D02*
X149762857Y-100860720D01*
X149762857Y-100860720D02*
X149953333Y-100860720D01*
X149953333Y-100860720D02*
X150000952Y-100884530D01*
X150000952Y-100884530D02*
X150024762Y-100908339D01*
X150024762Y-100908339D02*
X150048571Y-100955958D01*
X150048571Y-100955958D02*
X150048571Y-101027387D01*
X150048571Y-101027387D02*
X150024762Y-101075006D01*
X150024762Y-101075006D02*
X150000952Y-101098815D01*
X150000952Y-101098815D02*
X149953333Y-101122625D01*
X149953333Y-101122625D02*
X149762857Y-101122625D01*
X150239048Y-100908339D02*
X150262857Y-100884530D01*
X150262857Y-100884530D02*
X150310476Y-100860720D01*
X150310476Y-100860720D02*
X150429524Y-100860720D01*
X150429524Y-100860720D02*
X150477143Y-100884530D01*
X150477143Y-100884530D02*
X150500952Y-100908339D01*
X150500952Y-100908339D02*
X150524762Y-100955958D01*
X150524762Y-100955958D02*
X150524762Y-101003577D01*
X150524762Y-101003577D02*
X150500952Y-101075006D01*
X150500952Y-101075006D02*
X150215238Y-101360720D01*
X150215238Y-101360720D02*
X150524762Y-101360720D01*
X150977142Y-100860720D02*
X150739047Y-100860720D01*
X150739047Y-100860720D02*
X150715238Y-101098815D01*
X150715238Y-101098815D02*
X150739047Y-101075006D01*
X150739047Y-101075006D02*
X150786666Y-101051196D01*
X150786666Y-101051196D02*
X150905714Y-101051196D01*
X150905714Y-101051196D02*
X150953333Y-101075006D01*
X150953333Y-101075006D02*
X150977142Y-101098815D01*
X150977142Y-101098815D02*
X151000952Y-101146434D01*
X151000952Y-101146434D02*
X151000952Y-101265482D01*
X151000952Y-101265482D02*
X150977142Y-101313101D01*
X150977142Y-101313101D02*
X150953333Y-101336911D01*
X150953333Y-101336911D02*
X150905714Y-101360720D01*
X150905714Y-101360720D02*
X150786666Y-101360720D01*
X150786666Y-101360720D02*
X150739047Y-101336911D01*
X150739047Y-101336911D02*
X150715238Y-101313101D01*
D13*
X153081905Y-59314819D02*
X153081905Y-58314819D01*
X153081905Y-58314819D02*
X153320000Y-58314819D01*
X153320000Y-58314819D02*
X153462857Y-58362438D01*
X153462857Y-58362438D02*
X153558095Y-58457676D01*
X153558095Y-58457676D02*
X153605714Y-58552914D01*
X153605714Y-58552914D02*
X153653333Y-58743390D01*
X153653333Y-58743390D02*
X153653333Y-58886247D01*
X153653333Y-58886247D02*
X153605714Y-59076723D01*
X153605714Y-59076723D02*
X153558095Y-59171961D01*
X153558095Y-59171961D02*
X153462857Y-59267200D01*
X153462857Y-59267200D02*
X153320000Y-59314819D01*
X153320000Y-59314819D02*
X153081905Y-59314819D01*
X154558095Y-58314819D02*
X154081905Y-58314819D01*
X154081905Y-58314819D02*
X154034286Y-58791009D01*
X154034286Y-58791009D02*
X154081905Y-58743390D01*
X154081905Y-58743390D02*
X154177143Y-58695771D01*
X154177143Y-58695771D02*
X154415238Y-58695771D01*
X154415238Y-58695771D02*
X154510476Y-58743390D01*
X154510476Y-58743390D02*
X154558095Y-58791009D01*
X154558095Y-58791009D02*
X154605714Y-58886247D01*
X154605714Y-58886247D02*
X154605714Y-59124342D01*
X154605714Y-59124342D02*
X154558095Y-59219580D01*
X154558095Y-59219580D02*
X154510476Y-59267200D01*
X154510476Y-59267200D02*
X154415238Y-59314819D01*
X154415238Y-59314819D02*
X154177143Y-59314819D01*
X154177143Y-59314819D02*
X154081905Y-59267200D01*
X154081905Y-59267200D02*
X154034286Y-59219580D01*
D14*
X131969762Y-68776927D02*
X131969762Y-69100737D01*
X131969762Y-69100737D02*
X131988809Y-69138832D01*
X131988809Y-69138832D02*
X132007857Y-69157880D01*
X132007857Y-69157880D02*
X132045952Y-69176927D01*
X132045952Y-69176927D02*
X132122143Y-69176927D01*
X132122143Y-69176927D02*
X132160238Y-69157880D01*
X132160238Y-69157880D02*
X132179285Y-69138832D01*
X132179285Y-69138832D02*
X132198333Y-69100737D01*
X132198333Y-69100737D02*
X132198333Y-68776927D01*
X132598333Y-69176927D02*
X132369762Y-69176927D01*
X132484048Y-69176927D02*
X132484048Y-68776927D01*
X132484048Y-68776927D02*
X132445952Y-68834070D01*
X132445952Y-68834070D02*
X132407857Y-68872165D01*
X132407857Y-68872165D02*
X132369762Y-68891213D01*
X132845952Y-68776927D02*
X132884047Y-68776927D01*
X132884047Y-68776927D02*
X132922143Y-68795975D01*
X132922143Y-68795975D02*
X132941190Y-68815022D01*
X132941190Y-68815022D02*
X132960238Y-68853118D01*
X132960238Y-68853118D02*
X132979285Y-68929308D01*
X132979285Y-68929308D02*
X132979285Y-69024546D01*
X132979285Y-69024546D02*
X132960238Y-69100737D01*
X132960238Y-69100737D02*
X132941190Y-69138832D01*
X132941190Y-69138832D02*
X132922143Y-69157880D01*
X132922143Y-69157880D02*
X132884047Y-69176927D01*
X132884047Y-69176927D02*
X132845952Y-69176927D01*
X132845952Y-69176927D02*
X132807857Y-69157880D01*
X132807857Y-69157880D02*
X132788809Y-69138832D01*
X132788809Y-69138832D02*
X132769762Y-69100737D01*
X132769762Y-69100737D02*
X132750714Y-69024546D01*
X132750714Y-69024546D02*
X132750714Y-68929308D01*
X132750714Y-68929308D02*
X132769762Y-68853118D01*
X132769762Y-68853118D02*
X132788809Y-68815022D01*
X132788809Y-68815022D02*
X132807857Y-68795975D01*
X132807857Y-68795975D02*
X132845952Y-68776927D01*
D11*
X148047149Y-83121428D02*
X147809054Y-83288094D01*
X148047149Y-83407142D02*
X147547149Y-83407142D01*
X147547149Y-83407142D02*
X147547149Y-83216666D01*
X147547149Y-83216666D02*
X147570959Y-83169047D01*
X147570959Y-83169047D02*
X147594768Y-83145237D01*
X147594768Y-83145237D02*
X147642387Y-83121428D01*
X147642387Y-83121428D02*
X147713816Y-83121428D01*
X147713816Y-83121428D02*
X147761435Y-83145237D01*
X147761435Y-83145237D02*
X147785244Y-83169047D01*
X147785244Y-83169047D02*
X147809054Y-83216666D01*
X147809054Y-83216666D02*
X147809054Y-83407142D01*
X147594768Y-82930951D02*
X147570959Y-82907142D01*
X147570959Y-82907142D02*
X147547149Y-82859523D01*
X147547149Y-82859523D02*
X147547149Y-82740475D01*
X147547149Y-82740475D02*
X147570959Y-82692856D01*
X147570959Y-82692856D02*
X147594768Y-82669047D01*
X147594768Y-82669047D02*
X147642387Y-82645237D01*
X147642387Y-82645237D02*
X147690006Y-82645237D01*
X147690006Y-82645237D02*
X147761435Y-82669047D01*
X147761435Y-82669047D02*
X148047149Y-82954761D01*
X148047149Y-82954761D02*
X148047149Y-82645237D01*
X147761435Y-82359523D02*
X147737625Y-82407142D01*
X147737625Y-82407142D02*
X147713816Y-82430952D01*
X147713816Y-82430952D02*
X147666197Y-82454761D01*
X147666197Y-82454761D02*
X147642387Y-82454761D01*
X147642387Y-82454761D02*
X147594768Y-82430952D01*
X147594768Y-82430952D02*
X147570959Y-82407142D01*
X147570959Y-82407142D02*
X147547149Y-82359523D01*
X147547149Y-82359523D02*
X147547149Y-82264285D01*
X147547149Y-82264285D02*
X147570959Y-82216666D01*
X147570959Y-82216666D02*
X147594768Y-82192857D01*
X147594768Y-82192857D02*
X147642387Y-82169047D01*
X147642387Y-82169047D02*
X147666197Y-82169047D01*
X147666197Y-82169047D02*
X147713816Y-82192857D01*
X147713816Y-82192857D02*
X147737625Y-82216666D01*
X147737625Y-82216666D02*
X147761435Y-82264285D01*
X147761435Y-82264285D02*
X147761435Y-82359523D01*
X147761435Y-82359523D02*
X147785244Y-82407142D01*
X147785244Y-82407142D02*
X147809054Y-82430952D01*
X147809054Y-82430952D02*
X147856673Y-82454761D01*
X147856673Y-82454761D02*
X147951911Y-82454761D01*
X147951911Y-82454761D02*
X147999530Y-82430952D01*
X147999530Y-82430952D02*
X148023340Y-82407142D01*
X148023340Y-82407142D02*
X148047149Y-82359523D01*
X148047149Y-82359523D02*
X148047149Y-82264285D01*
X148047149Y-82264285D02*
X148023340Y-82216666D01*
X148023340Y-82216666D02*
X147999530Y-82192857D01*
X147999530Y-82192857D02*
X147951911Y-82169047D01*
X147951911Y-82169047D02*
X147856673Y-82169047D01*
X147856673Y-82169047D02*
X147809054Y-82192857D01*
X147809054Y-82192857D02*
X147785244Y-82216666D01*
X147785244Y-82216666D02*
X147761435Y-82264285D01*
D13*
X125313095Y-55679819D02*
X125884523Y-55679819D01*
X125598809Y-56679819D02*
X125598809Y-55679819D01*
X126217857Y-56679819D02*
X126217857Y-55679819D01*
X126217857Y-55679819D02*
X126598809Y-55679819D01*
X126598809Y-55679819D02*
X126694047Y-55727438D01*
X126694047Y-55727438D02*
X126741666Y-55775057D01*
X126741666Y-55775057D02*
X126789285Y-55870295D01*
X126789285Y-55870295D02*
X126789285Y-56013152D01*
X126789285Y-56013152D02*
X126741666Y-56108390D01*
X126741666Y-56108390D02*
X126694047Y-56156009D01*
X126694047Y-56156009D02*
X126598809Y-56203628D01*
X126598809Y-56203628D02*
X126217857Y-56203628D01*
X127741666Y-56679819D02*
X127170238Y-56679819D01*
X127455952Y-56679819D02*
X127455952Y-55679819D01*
X127455952Y-55679819D02*
X127360714Y-55822676D01*
X127360714Y-55822676D02*
X127265476Y-55917914D01*
X127265476Y-55917914D02*
X127170238Y-55965533D01*
D11*
X148838571Y-75527149D02*
X148671905Y-75289054D01*
X148552857Y-75527149D02*
X148552857Y-75027149D01*
X148552857Y-75027149D02*
X148743333Y-75027149D01*
X148743333Y-75027149D02*
X148790952Y-75050959D01*
X148790952Y-75050959D02*
X148814762Y-75074768D01*
X148814762Y-75074768D02*
X148838571Y-75122387D01*
X148838571Y-75122387D02*
X148838571Y-75193816D01*
X148838571Y-75193816D02*
X148814762Y-75241435D01*
X148814762Y-75241435D02*
X148790952Y-75265244D01*
X148790952Y-75265244D02*
X148743333Y-75289054D01*
X148743333Y-75289054D02*
X148552857Y-75289054D01*
X149029048Y-75074768D02*
X149052857Y-75050959D01*
X149052857Y-75050959D02*
X149100476Y-75027149D01*
X149100476Y-75027149D02*
X149219524Y-75027149D01*
X149219524Y-75027149D02*
X149267143Y-75050959D01*
X149267143Y-75050959D02*
X149290952Y-75074768D01*
X149290952Y-75074768D02*
X149314762Y-75122387D01*
X149314762Y-75122387D02*
X149314762Y-75170006D01*
X149314762Y-75170006D02*
X149290952Y-75241435D01*
X149290952Y-75241435D02*
X149005238Y-75527149D01*
X149005238Y-75527149D02*
X149314762Y-75527149D01*
X149505238Y-75074768D02*
X149529047Y-75050959D01*
X149529047Y-75050959D02*
X149576666Y-75027149D01*
X149576666Y-75027149D02*
X149695714Y-75027149D01*
X149695714Y-75027149D02*
X149743333Y-75050959D01*
X149743333Y-75050959D02*
X149767142Y-75074768D01*
X149767142Y-75074768D02*
X149790952Y-75122387D01*
X149790952Y-75122387D02*
X149790952Y-75170006D01*
X149790952Y-75170006D02*
X149767142Y-75241435D01*
X149767142Y-75241435D02*
X149481428Y-75527149D01*
X149481428Y-75527149D02*
X149790952Y-75527149D01*
X100857149Y-97781428D02*
X100619054Y-97948094D01*
X100857149Y-98067142D02*
X100357149Y-98067142D01*
X100357149Y-98067142D02*
X100357149Y-97876666D01*
X100357149Y-97876666D02*
X100380959Y-97829047D01*
X100380959Y-97829047D02*
X100404768Y-97805237D01*
X100404768Y-97805237D02*
X100452387Y-97781428D01*
X100452387Y-97781428D02*
X100523816Y-97781428D01*
X100523816Y-97781428D02*
X100571435Y-97805237D01*
X100571435Y-97805237D02*
X100595244Y-97829047D01*
X100595244Y-97829047D02*
X100619054Y-97876666D01*
X100619054Y-97876666D02*
X100619054Y-98067142D01*
X100857149Y-97305237D02*
X100857149Y-97590951D01*
X100857149Y-97448094D02*
X100357149Y-97448094D01*
X100357149Y-97448094D02*
X100428578Y-97495713D01*
X100428578Y-97495713D02*
X100476197Y-97543332D01*
X100476197Y-97543332D02*
X100500006Y-97590951D01*
X100857149Y-96829047D02*
X100857149Y-97114761D01*
X100857149Y-96971904D02*
X100357149Y-96971904D01*
X100357149Y-96971904D02*
X100428578Y-97019523D01*
X100428578Y-97019523D02*
X100476197Y-97067142D01*
X100476197Y-97067142D02*
X100500006Y-97114761D01*
D14*
X110769762Y-84281927D02*
X110769762Y-84605737D01*
X110769762Y-84605737D02*
X110788809Y-84643832D01*
X110788809Y-84643832D02*
X110807857Y-84662880D01*
X110807857Y-84662880D02*
X110845952Y-84681927D01*
X110845952Y-84681927D02*
X110922143Y-84681927D01*
X110922143Y-84681927D02*
X110960238Y-84662880D01*
X110960238Y-84662880D02*
X110979285Y-84643832D01*
X110979285Y-84643832D02*
X110998333Y-84605737D01*
X110998333Y-84605737D02*
X110998333Y-84281927D01*
X111398333Y-84681927D02*
X111169762Y-84681927D01*
X111284048Y-84681927D02*
X111284048Y-84281927D01*
X111284048Y-84281927D02*
X111245952Y-84339070D01*
X111245952Y-84339070D02*
X111207857Y-84377165D01*
X111207857Y-84377165D02*
X111169762Y-84396213D01*
X111779285Y-84681927D02*
X111550714Y-84681927D01*
X111665000Y-84681927D02*
X111665000Y-84281927D01*
X111665000Y-84281927D02*
X111626904Y-84339070D01*
X111626904Y-84339070D02*
X111588809Y-84377165D01*
X111588809Y-84377165D02*
X111550714Y-84396213D01*
D11*
X136101527Y-88511833D02*
X135890217Y-88058679D01*
X135890217Y-88058679D02*
X135998111Y-88008367D01*
X135998111Y-88008367D02*
X136072910Y-87999759D01*
X136072910Y-87999759D02*
X136136192Y-88022792D01*
X136136192Y-88022792D02*
X136177895Y-88055887D01*
X136177895Y-88055887D02*
X136239724Y-88132140D01*
X136239724Y-88132140D02*
X136269911Y-88196876D01*
X136269911Y-88196876D02*
X136288581Y-88293254D01*
X136288581Y-88293254D02*
X136287127Y-88346473D01*
X136287127Y-88346473D02*
X136264094Y-88409756D01*
X136264094Y-88409756D02*
X136209420Y-88461521D01*
X136209420Y-88461521D02*
X136101527Y-88511833D01*
X136608016Y-87907860D02*
X136748889Y-88209963D01*
X136419624Y-87785542D02*
X136462665Y-88159535D01*
X136462665Y-88159535D02*
X136743189Y-88028725D01*
X151586666Y-92004292D02*
X151420000Y-91766197D01*
X151300952Y-92004292D02*
X151300952Y-91504292D01*
X151300952Y-91504292D02*
X151491428Y-91504292D01*
X151491428Y-91504292D02*
X151539047Y-91528102D01*
X151539047Y-91528102D02*
X151562857Y-91551911D01*
X151562857Y-91551911D02*
X151586666Y-91599530D01*
X151586666Y-91599530D02*
X151586666Y-91670959D01*
X151586666Y-91670959D02*
X151562857Y-91718578D01*
X151562857Y-91718578D02*
X151539047Y-91742387D01*
X151539047Y-91742387D02*
X151491428Y-91766197D01*
X151491428Y-91766197D02*
X151300952Y-91766197D01*
X152015238Y-91504292D02*
X151920000Y-91504292D01*
X151920000Y-91504292D02*
X151872381Y-91528102D01*
X151872381Y-91528102D02*
X151848571Y-91551911D01*
X151848571Y-91551911D02*
X151800952Y-91623340D01*
X151800952Y-91623340D02*
X151777143Y-91718578D01*
X151777143Y-91718578D02*
X151777143Y-91909054D01*
X151777143Y-91909054D02*
X151800952Y-91956673D01*
X151800952Y-91956673D02*
X151824762Y-91980483D01*
X151824762Y-91980483D02*
X151872381Y-92004292D01*
X151872381Y-92004292D02*
X151967619Y-92004292D01*
X151967619Y-92004292D02*
X152015238Y-91980483D01*
X152015238Y-91980483D02*
X152039047Y-91956673D01*
X152039047Y-91956673D02*
X152062857Y-91909054D01*
X152062857Y-91909054D02*
X152062857Y-91790006D01*
X152062857Y-91790006D02*
X152039047Y-91742387D01*
X152039047Y-91742387D02*
X152015238Y-91718578D01*
X152015238Y-91718578D02*
X151967619Y-91694768D01*
X151967619Y-91694768D02*
X151872381Y-91694768D01*
X151872381Y-91694768D02*
X151824762Y-91718578D01*
X151824762Y-91718578D02*
X151800952Y-91742387D01*
X151800952Y-91742387D02*
X151777143Y-91790006D01*
X121468571Y-74727150D02*
X121301905Y-74489055D01*
X121182857Y-74727150D02*
X121182857Y-74227150D01*
X121182857Y-74227150D02*
X121373333Y-74227150D01*
X121373333Y-74227150D02*
X121420952Y-74250960D01*
X121420952Y-74250960D02*
X121444762Y-74274769D01*
X121444762Y-74274769D02*
X121468571Y-74322388D01*
X121468571Y-74322388D02*
X121468571Y-74393817D01*
X121468571Y-74393817D02*
X121444762Y-74441436D01*
X121444762Y-74441436D02*
X121420952Y-74465245D01*
X121420952Y-74465245D02*
X121373333Y-74489055D01*
X121373333Y-74489055D02*
X121182857Y-74489055D01*
X121659048Y-74274769D02*
X121682857Y-74250960D01*
X121682857Y-74250960D02*
X121730476Y-74227150D01*
X121730476Y-74227150D02*
X121849524Y-74227150D01*
X121849524Y-74227150D02*
X121897143Y-74250960D01*
X121897143Y-74250960D02*
X121920952Y-74274769D01*
X121920952Y-74274769D02*
X121944762Y-74322388D01*
X121944762Y-74322388D02*
X121944762Y-74370007D01*
X121944762Y-74370007D02*
X121920952Y-74441436D01*
X121920952Y-74441436D02*
X121635238Y-74727150D01*
X121635238Y-74727150D02*
X121944762Y-74727150D01*
X122182857Y-74727150D02*
X122278095Y-74727150D01*
X122278095Y-74727150D02*
X122325714Y-74703341D01*
X122325714Y-74703341D02*
X122349523Y-74679531D01*
X122349523Y-74679531D02*
X122397142Y-74608102D01*
X122397142Y-74608102D02*
X122420952Y-74512864D01*
X122420952Y-74512864D02*
X122420952Y-74322388D01*
X122420952Y-74322388D02*
X122397142Y-74274769D01*
X122397142Y-74274769D02*
X122373333Y-74250960D01*
X122373333Y-74250960D02*
X122325714Y-74227150D01*
X122325714Y-74227150D02*
X122230476Y-74227150D01*
X122230476Y-74227150D02*
X122182857Y-74250960D01*
X122182857Y-74250960D02*
X122159047Y-74274769D01*
X122159047Y-74274769D02*
X122135238Y-74322388D01*
X122135238Y-74322388D02*
X122135238Y-74441436D01*
X122135238Y-74441436D02*
X122159047Y-74489055D01*
X122159047Y-74489055D02*
X122182857Y-74512864D01*
X122182857Y-74512864D02*
X122230476Y-74536674D01*
X122230476Y-74536674D02*
X122325714Y-74536674D01*
X122325714Y-74536674D02*
X122373333Y-74512864D01*
X122373333Y-74512864D02*
X122397142Y-74489055D01*
X122397142Y-74489055D02*
X122420952Y-74441436D01*
X119594549Y-83221428D02*
X119356454Y-83388094D01*
X119594549Y-83507142D02*
X119094549Y-83507142D01*
X119094549Y-83507142D02*
X119094549Y-83316666D01*
X119094549Y-83316666D02*
X119118359Y-83269047D01*
X119118359Y-83269047D02*
X119142168Y-83245237D01*
X119142168Y-83245237D02*
X119189787Y-83221428D01*
X119189787Y-83221428D02*
X119261216Y-83221428D01*
X119261216Y-83221428D02*
X119308835Y-83245237D01*
X119308835Y-83245237D02*
X119332644Y-83269047D01*
X119332644Y-83269047D02*
X119356454Y-83316666D01*
X119356454Y-83316666D02*
X119356454Y-83507142D01*
X119142168Y-83030951D02*
X119118359Y-83007142D01*
X119118359Y-83007142D02*
X119094549Y-82959523D01*
X119094549Y-82959523D02*
X119094549Y-82840475D01*
X119094549Y-82840475D02*
X119118359Y-82792856D01*
X119118359Y-82792856D02*
X119142168Y-82769047D01*
X119142168Y-82769047D02*
X119189787Y-82745237D01*
X119189787Y-82745237D02*
X119237406Y-82745237D01*
X119237406Y-82745237D02*
X119308835Y-82769047D01*
X119308835Y-82769047D02*
X119594549Y-83054761D01*
X119594549Y-83054761D02*
X119594549Y-82745237D01*
X119094549Y-82316666D02*
X119094549Y-82411904D01*
X119094549Y-82411904D02*
X119118359Y-82459523D01*
X119118359Y-82459523D02*
X119142168Y-82483333D01*
X119142168Y-82483333D02*
X119213597Y-82530952D01*
X119213597Y-82530952D02*
X119308835Y-82554761D01*
X119308835Y-82554761D02*
X119499311Y-82554761D01*
X119499311Y-82554761D02*
X119546930Y-82530952D01*
X119546930Y-82530952D02*
X119570740Y-82507142D01*
X119570740Y-82507142D02*
X119594549Y-82459523D01*
X119594549Y-82459523D02*
X119594549Y-82364285D01*
X119594549Y-82364285D02*
X119570740Y-82316666D01*
X119570740Y-82316666D02*
X119546930Y-82292857D01*
X119546930Y-82292857D02*
X119499311Y-82269047D01*
X119499311Y-82269047D02*
X119380263Y-82269047D01*
X119380263Y-82269047D02*
X119332644Y-82292857D01*
X119332644Y-82292857D02*
X119308835Y-82316666D01*
X119308835Y-82316666D02*
X119285025Y-82364285D01*
X119285025Y-82364285D02*
X119285025Y-82459523D01*
X119285025Y-82459523D02*
X119308835Y-82507142D01*
X119308835Y-82507142D02*
X119332644Y-82530952D01*
X119332644Y-82530952D02*
X119380263Y-82554761D01*
X138822149Y-79403333D02*
X138584054Y-79569999D01*
X138822149Y-79689047D02*
X138322149Y-79689047D01*
X138322149Y-79689047D02*
X138322149Y-79498571D01*
X138322149Y-79498571D02*
X138345959Y-79450952D01*
X138345959Y-79450952D02*
X138369768Y-79427142D01*
X138369768Y-79427142D02*
X138417387Y-79403333D01*
X138417387Y-79403333D02*
X138488816Y-79403333D01*
X138488816Y-79403333D02*
X138536435Y-79427142D01*
X138536435Y-79427142D02*
X138560244Y-79450952D01*
X138560244Y-79450952D02*
X138584054Y-79498571D01*
X138584054Y-79498571D02*
X138584054Y-79689047D01*
X138822149Y-79165237D02*
X138822149Y-79069999D01*
X138822149Y-79069999D02*
X138798340Y-79022380D01*
X138798340Y-79022380D02*
X138774530Y-78998571D01*
X138774530Y-78998571D02*
X138703101Y-78950952D01*
X138703101Y-78950952D02*
X138607863Y-78927142D01*
X138607863Y-78927142D02*
X138417387Y-78927142D01*
X138417387Y-78927142D02*
X138369768Y-78950952D01*
X138369768Y-78950952D02*
X138345959Y-78974761D01*
X138345959Y-78974761D02*
X138322149Y-79022380D01*
X138322149Y-79022380D02*
X138322149Y-79117618D01*
X138322149Y-79117618D02*
X138345959Y-79165237D01*
X138345959Y-79165237D02*
X138369768Y-79189047D01*
X138369768Y-79189047D02*
X138417387Y-79212856D01*
X138417387Y-79212856D02*
X138536435Y-79212856D01*
X138536435Y-79212856D02*
X138584054Y-79189047D01*
X138584054Y-79189047D02*
X138607863Y-79165237D01*
X138607863Y-79165237D02*
X138631673Y-79117618D01*
X138631673Y-79117618D02*
X138631673Y-79022380D01*
X138631673Y-79022380D02*
X138607863Y-78974761D01*
X138607863Y-78974761D02*
X138584054Y-78950952D01*
X138584054Y-78950952D02*
X138536435Y-78927142D01*
X149948571Y-106402149D02*
X149781905Y-106164054D01*
X149662857Y-106402149D02*
X149662857Y-105902149D01*
X149662857Y-105902149D02*
X149853333Y-105902149D01*
X149853333Y-105902149D02*
X149900952Y-105925959D01*
X149900952Y-105925959D02*
X149924762Y-105949768D01*
X149924762Y-105949768D02*
X149948571Y-105997387D01*
X149948571Y-105997387D02*
X149948571Y-106068816D01*
X149948571Y-106068816D02*
X149924762Y-106116435D01*
X149924762Y-106116435D02*
X149900952Y-106140244D01*
X149900952Y-106140244D02*
X149853333Y-106164054D01*
X149853333Y-106164054D02*
X149662857Y-106164054D01*
X150115238Y-105902149D02*
X150424762Y-105902149D01*
X150424762Y-105902149D02*
X150258095Y-106092625D01*
X150258095Y-106092625D02*
X150329524Y-106092625D01*
X150329524Y-106092625D02*
X150377143Y-106116435D01*
X150377143Y-106116435D02*
X150400952Y-106140244D01*
X150400952Y-106140244D02*
X150424762Y-106187863D01*
X150424762Y-106187863D02*
X150424762Y-106306911D01*
X150424762Y-106306911D02*
X150400952Y-106354530D01*
X150400952Y-106354530D02*
X150377143Y-106378340D01*
X150377143Y-106378340D02*
X150329524Y-106402149D01*
X150329524Y-106402149D02*
X150186667Y-106402149D01*
X150186667Y-106402149D02*
X150139048Y-106378340D01*
X150139048Y-106378340D02*
X150115238Y-106354530D01*
X150615238Y-105949768D02*
X150639047Y-105925959D01*
X150639047Y-105925959D02*
X150686666Y-105902149D01*
X150686666Y-105902149D02*
X150805714Y-105902149D01*
X150805714Y-105902149D02*
X150853333Y-105925959D01*
X150853333Y-105925959D02*
X150877142Y-105949768D01*
X150877142Y-105949768D02*
X150900952Y-105997387D01*
X150900952Y-105997387D02*
X150900952Y-106045006D01*
X150900952Y-106045006D02*
X150877142Y-106116435D01*
X150877142Y-106116435D02*
X150591428Y-106402149D01*
X150591428Y-106402149D02*
X150900952Y-106402149D01*
D17*
%TO.C,Q6*%
X147790000Y-71690000D02*
X150365000Y-71690000D01*
X147790000Y-72990000D02*
X147790000Y-71690000D01*
X150365000Y-71690000D02*
X150690000Y-72015000D01*
X150690000Y-72015000D02*
X150690000Y-72990000D01*
X150690000Y-72990000D02*
X147790000Y-72990000D01*
%TO.C,R34*%
X149270000Y-107500000D02*
X151270000Y-107500000D01*
X149270000Y-108750000D02*
X149270000Y-107500000D01*
X151270000Y-107500000D02*
X151270000Y-108750000D01*
X151270000Y-108750000D02*
X149270000Y-108750000D01*
%TO.C,C4*%
X146170000Y-58655000D02*
X149370000Y-58655000D01*
X146170000Y-61155000D02*
X146170000Y-58655000D01*
X149370000Y-58655000D02*
X149370000Y-61155000D01*
X149370000Y-61155000D02*
X146170000Y-61155000D01*
%TO.C,R5*%
X123380000Y-116165000D02*
X125380000Y-116165000D01*
X123380000Y-117415000D02*
X123380000Y-116165000D01*
X125380000Y-116165000D02*
X125380000Y-117415000D01*
X125380000Y-117415000D02*
X123380000Y-117415000D01*
%TO.C,R4*%
X150570000Y-95556429D02*
X152570000Y-95556429D01*
X150570000Y-96806429D02*
X150570000Y-95556429D01*
X152570000Y-95556429D02*
X152570000Y-96806429D01*
X152570000Y-96806429D02*
X150570000Y-96806429D01*
%TO.C,R2*%
X128325000Y-74166000D02*
X130325000Y-74166000D01*
X128325000Y-75416000D02*
X128325000Y-74166000D01*
X130325000Y-74166000D02*
X130325000Y-75416000D01*
X130325000Y-75416000D02*
X128325000Y-75416000D01*
%TO.C,J4*%
X130595000Y-104725000D02*
X135040000Y-104725000D01*
X130595000Y-107265000D02*
X130595000Y-104725000D01*
X135040000Y-104725000D02*
X135675000Y-105360000D01*
X135675000Y-105360000D02*
X135675000Y-107265000D01*
X135675000Y-107265000D02*
X130595000Y-107265000D01*
%TO.C,R31*%
X120740000Y-68088334D02*
X122740000Y-68088334D01*
X120740000Y-69338334D02*
X120740000Y-68088334D01*
X122740000Y-68088334D02*
X122740000Y-69338334D01*
X122740000Y-69338334D02*
X120740000Y-69338334D01*
%TO.C,R24*%
X149370000Y-98560714D02*
X151370000Y-98560714D01*
X149370000Y-99810714D02*
X149370000Y-98560714D01*
X151370000Y-98560714D02*
X151370000Y-99810714D01*
X151370000Y-99810714D02*
X149370000Y-99810714D01*
%TO.C,R27*%
X145195000Y-81800000D02*
X146445000Y-81800000D01*
X145195000Y-83800000D02*
X145195000Y-81800000D01*
X146445000Y-81800000D02*
X146445000Y-83800000D01*
X146445000Y-83800000D02*
X145195000Y-83800000D01*
%TO.C,R12*%
X102040000Y-100360000D02*
X103290000Y-100360000D01*
X102040000Y-102360000D02*
X102040000Y-100360000D01*
X103290000Y-100360000D02*
X103290000Y-102360000D01*
X103290000Y-102360000D02*
X102040000Y-102360000D01*
D12*
%TO.C,TP6*%
X129607593Y-58425000D02*
X129607593Y-59025000D01*
X129607593Y-59025000D02*
X132207593Y-59025000D01*
X132207593Y-58425000D02*
X129607593Y-58425000D01*
X132207593Y-59025000D02*
X132207593Y-58425000D01*
X132407593Y-58725000D02*
G75*
G02*
X129407593Y-58725000I-1500000J0D01*
G01*
X129407593Y-58725000D02*
G75*
G02*
X132407593Y-58725000I1500000J0D01*
G01*
D17*
%TO.C,J2*%
X139125000Y-114155000D02*
X139125000Y-119905000D01*
X139125000Y-119905000D02*
X156525000Y-119905000D01*
X154075000Y-118905000D02*
X153450000Y-119905000D01*
X154700000Y-119905000D02*
X154075000Y-118905000D01*
X156525000Y-114155000D02*
X139125000Y-114155000D01*
X156525000Y-119905000D02*
X156525000Y-114155000D01*
%TO.C,J1*%
X156220000Y-62800000D02*
X165220000Y-62800000D01*
X156220000Y-112800000D02*
X156220000Y-62800000D01*
X158703000Y-64027000D02*
X161493000Y-66817000D01*
X158703000Y-69027000D02*
X161493000Y-71817000D01*
X158703000Y-74027000D02*
X161493000Y-76817000D01*
X158703000Y-79027000D02*
X161493000Y-81817000D01*
X158703000Y-84027000D02*
X161493000Y-86817000D01*
X158703000Y-89027000D02*
X161493000Y-91817000D01*
X158703000Y-94027000D02*
X161493000Y-96817000D01*
X158703000Y-99027000D02*
X161493000Y-101817000D01*
X158703000Y-104027000D02*
X161493000Y-106817000D01*
X158703000Y-109027000D02*
X161493000Y-111817000D01*
X158947000Y-63783000D02*
X161737000Y-66573000D01*
X158947000Y-68783000D02*
X161737000Y-71573000D01*
X158947000Y-73783000D02*
X161737000Y-76573000D01*
X158947000Y-78783000D02*
X161737000Y-81573000D01*
X158947000Y-83783000D02*
X161737000Y-86573000D01*
X158947000Y-88783000D02*
X161737000Y-91573000D01*
X158947000Y-93783000D02*
X161737000Y-96573000D01*
X158947000Y-98783000D02*
X161737000Y-101573000D01*
X158947000Y-103783000D02*
X161737000Y-106573000D01*
X158947000Y-108783000D02*
X161737000Y-111573000D01*
X163720000Y-112800000D02*
X163720000Y-62800000D01*
X164820000Y-112800000D02*
X156220000Y-112800000D01*
X164820000Y-112800000D02*
X164820000Y-62800000D01*
X165220000Y-62800000D02*
X165220000Y-112400000D01*
X165220000Y-112400000D02*
X164820000Y-112800000D01*
X162220000Y-65300000D02*
G75*
G02*
X158220000Y-65300000I-2000000J0D01*
G01*
X158220000Y-65300000D02*
G75*
G02*
X162220000Y-65300000I2000000J0D01*
G01*
X162220000Y-70300000D02*
G75*
G02*
X158220000Y-70300000I-2000000J0D01*
G01*
X158220000Y-70300000D02*
G75*
G02*
X162220000Y-70300000I2000000J0D01*
G01*
X162220000Y-75300000D02*
G75*
G02*
X158220000Y-75300000I-2000000J0D01*
G01*
X158220000Y-75300000D02*
G75*
G02*
X162220000Y-75300000I2000000J0D01*
G01*
X162220000Y-80300000D02*
G75*
G02*
X158220000Y-80300000I-2000000J0D01*
G01*
X158220000Y-80300000D02*
G75*
G02*
X162220000Y-80300000I2000000J0D01*
G01*
X162220000Y-85300000D02*
G75*
G02*
X158220000Y-85300000I-2000000J0D01*
G01*
X158220000Y-85300000D02*
G75*
G02*
X162220000Y-85300000I2000000J0D01*
G01*
X162220000Y-90300000D02*
G75*
G02*
X158220000Y-90300000I-2000000J0D01*
G01*
X158220000Y-90300000D02*
G75*
G02*
X162220000Y-90300000I2000000J0D01*
G01*
X162220000Y-95300000D02*
G75*
G02*
X158220000Y-95300000I-2000000J0D01*
G01*
X158220000Y-95300000D02*
G75*
G02*
X162220000Y-95300000I2000000J0D01*
G01*
X162220000Y-100300000D02*
G75*
G02*
X158220000Y-100300000I-2000000J0D01*
G01*
X158220000Y-100300000D02*
G75*
G02*
X162220000Y-100300000I2000000J0D01*
G01*
X162220000Y-105300000D02*
G75*
G02*
X158220000Y-105300000I-2000000J0D01*
G01*
X158220000Y-105300000D02*
G75*
G02*
X162220000Y-105300000I2000000J0D01*
G01*
X162220000Y-110300000D02*
G75*
G02*
X158220000Y-110300000I-2000000J0D01*
G01*
X158220000Y-110300000D02*
G75*
G02*
X162220000Y-110300000I2000000J0D01*
G01*
%TO.C,C5*%
X132325000Y-108200000D02*
X133925000Y-108200000D01*
X132325000Y-109000000D02*
X132325000Y-108200000D01*
X133925000Y-108200000D02*
X133925000Y-109000000D01*
X133925000Y-109000000D02*
X132325000Y-109000000D01*
%TO.C,C12*%
X135810000Y-67850000D02*
X139010000Y-67850000D01*
X135810000Y-70350000D02*
X135810000Y-67850000D01*
X139010000Y-67850000D02*
X139010000Y-70350000D01*
X139010000Y-70350000D02*
X135810000Y-70350000D01*
%TO.C,Q3*%
X123860000Y-78505000D02*
X126435000Y-78505000D01*
X123860000Y-79805000D02*
X123860000Y-78505000D01*
X126435000Y-78505000D02*
X126760000Y-78830000D01*
X126760000Y-78830000D02*
X126760000Y-79805000D01*
X126760000Y-79805000D02*
X123860000Y-79805000D01*
%TO.C,U7*%
X135405000Y-63325000D02*
X139905000Y-63325000D01*
X135405000Y-64825000D02*
X135405000Y-63325000D01*
X136405000Y-65825000D02*
X135405000Y-64825000D01*
X139905000Y-63325000D02*
X139905000Y-65825000D01*
X139905000Y-65825000D02*
X136405000Y-65825000D01*
%TO.C,Q5*%
X120290000Y-70956667D02*
X122865000Y-70956667D01*
X120290000Y-72256667D02*
X120290000Y-70956667D01*
X122865000Y-70956667D02*
X123190000Y-71281667D01*
X123190000Y-71281667D02*
X123190000Y-72256667D01*
X123190000Y-72256667D02*
X120290000Y-72256667D01*
%TO.C,D7*%
X151020000Y-89125000D02*
X152820000Y-89125000D01*
X151020000Y-90525000D02*
X151020000Y-89125000D01*
X151620000Y-89475000D02*
X151620000Y-90175000D01*
X151620000Y-89825000D02*
X151420000Y-89825000D01*
X151620000Y-89825000D02*
X152120000Y-89475000D01*
X152120000Y-89475000D02*
X152120000Y-90175000D01*
X152120000Y-89825000D02*
X152370000Y-89825000D01*
X152120000Y-90175000D02*
X151620000Y-89825000D01*
X152820000Y-89125000D02*
X152820000Y-90525000D01*
X152820000Y-90525000D02*
X151020000Y-90525000D01*
%TO.C,D1*%
X139678000Y-74191000D02*
X139678000Y-75391000D01*
X139678000Y-75391000D02*
X141378000Y-75391000D01*
X141378000Y-75391000D02*
X141678000Y-75091000D01*
X141678000Y-74191000D02*
X139678000Y-74191000D01*
X141678000Y-75091000D02*
X141678000Y-74191000D01*
%TO.C,J3*%
X127925000Y-109900000D02*
X137925000Y-109900000D01*
X127925000Y-112800000D02*
X137925000Y-112800000D01*
X127925000Y-117700000D02*
X137925000Y-117700000D01*
X127925000Y-119200000D02*
X127925000Y-109900000D01*
X127925000Y-119200000D02*
X137925000Y-119200000D01*
X128425000Y-119700000D02*
X127925000Y-119200000D01*
X131380000Y-113962000D02*
X129287000Y-116055000D01*
X131563000Y-114145000D02*
X129470000Y-116238000D01*
X136380000Y-113962000D02*
X134287000Y-116055000D01*
X136563000Y-114145000D02*
X134470000Y-116238000D01*
X137925000Y-109900000D02*
X137925000Y-119700000D01*
X137925000Y-119700000D02*
X128425000Y-119700000D01*
X131925000Y-115100000D02*
G75*
G02*
X128925000Y-115100000I-1500000J0D01*
G01*
X128925000Y-115100000D02*
G75*
G02*
X131925000Y-115100000I1500000J0D01*
G01*
X136925000Y-115100000D02*
G75*
G02*
X133925000Y-115100000I-1500000J0D01*
G01*
X133925000Y-115100000D02*
G75*
G02*
X136925000Y-115100000I1500000J0D01*
G01*
%TO.C,R16*%
X108930000Y-100330000D02*
X110180000Y-100330000D01*
X108930000Y-102330000D02*
X108930000Y-100330000D01*
X110180000Y-100330000D02*
X110180000Y-102330000D01*
X110180000Y-102330000D02*
X108930000Y-102330000D01*
%TO.C,R17*%
X109045000Y-88410000D02*
X110295000Y-88410000D01*
X109045000Y-90410000D02*
X109045000Y-88410000D01*
X110295000Y-88410000D02*
X110295000Y-90410000D01*
X110295000Y-90410000D02*
X109045000Y-90410000D01*
%TO.C,R19*%
X105060000Y-88400000D02*
X106310000Y-88400000D01*
X105060000Y-90400000D02*
X105060000Y-88400000D01*
X106310000Y-88400000D02*
X106310000Y-90400000D01*
X106310000Y-90400000D02*
X105060000Y-90400000D01*
%TO.C,U6*%
X140505000Y-63325000D02*
X145005000Y-63325000D01*
X140505000Y-64825000D02*
X140505000Y-63325000D01*
X141505000Y-65825000D02*
X140505000Y-64825000D01*
X145005000Y-63325000D02*
X145005000Y-65825000D01*
X145005000Y-65825000D02*
X141505000Y-65825000D01*
%TO.C,R7*%
X127370000Y-78220000D02*
X128620000Y-78220000D01*
X127370000Y-80220000D02*
X127370000Y-78220000D01*
X128620000Y-78220000D02*
X128620000Y-80220000D01*
X128620000Y-80220000D02*
X127370000Y-80220000D01*
%TO.C,JP1*%
X85280000Y-66850000D02*
X85915000Y-66215000D01*
X85280000Y-73835000D02*
X85280000Y-66850000D01*
X85915000Y-66215000D02*
X87820000Y-66215000D01*
X87820000Y-66215000D02*
X87820000Y-73835000D01*
X87820000Y-73835000D02*
X85280000Y-73835000D01*
%TO.C,R35*%
X120742400Y-81897500D02*
X121992400Y-81897500D01*
X120742400Y-83897500D02*
X120742400Y-81897500D01*
X121992400Y-81897500D02*
X121992400Y-83897500D01*
X121992400Y-83897500D02*
X120742400Y-83897500D01*
%TO.C,R8*%
X147960000Y-68755000D02*
X149960000Y-68755000D01*
X147960000Y-70005000D02*
X147960000Y-68755000D01*
X149960000Y-68755000D02*
X149960000Y-70005000D01*
X149960000Y-70005000D02*
X147960000Y-70005000D01*
%TO.C,C8*%
X140925000Y-67840000D02*
X144125000Y-67840000D01*
X140925000Y-70340000D02*
X140925000Y-67840000D01*
X144125000Y-67840000D02*
X144125000Y-70340000D01*
X144125000Y-70340000D02*
X140925000Y-70340000D01*
%TO.C,D6*%
X150920000Y-93529286D02*
X152720000Y-93529286D01*
X150920000Y-94929286D02*
X150920000Y-93529286D01*
X151520000Y-93879286D02*
X151520000Y-94579286D01*
X151520000Y-94229286D02*
X151320000Y-94229286D01*
X151520000Y-94229286D02*
X152020000Y-93879286D01*
X152020000Y-93879286D02*
X152020000Y-94579286D01*
X152020000Y-94229286D02*
X152270000Y-94229286D01*
X152020000Y-94579286D02*
X151520000Y-94229286D01*
X152720000Y-93529286D02*
X152720000Y-94929286D01*
X152720000Y-94929286D02*
X150920000Y-94929286D01*
%TO.C,Q4*%
X139905000Y-78745000D02*
X142480000Y-78745000D01*
X139905000Y-80045000D02*
X139905000Y-78745000D01*
X142480000Y-78745000D02*
X142805000Y-79070000D01*
X142805000Y-79070000D02*
X142805000Y-80045000D01*
X142805000Y-80045000D02*
X139905000Y-80045000D01*
%TO.C,R13*%
X104020000Y-100370000D02*
X105270000Y-100370000D01*
X104020000Y-102370000D02*
X104020000Y-100370000D01*
X105270000Y-100370000D02*
X105270000Y-102370000D01*
X105270000Y-102370000D02*
X104020000Y-102370000D01*
%TO.C,U9*%
X127170000Y-63720000D02*
X128770000Y-63720000D01*
X127170000Y-66620000D02*
X127170000Y-63720000D01*
X128370000Y-66620000D02*
X127170000Y-66620000D01*
X128770000Y-63720000D02*
X128770000Y-66220000D01*
X128770000Y-66220000D02*
X128370000Y-66620000D01*
%TO.C,R3*%
X123380000Y-112265000D02*
X125380000Y-112265000D01*
X123380000Y-113515000D02*
X123380000Y-112265000D01*
X125380000Y-112265000D02*
X125380000Y-113515000D01*
X125380000Y-113515000D02*
X123380000Y-113515000D01*
%TO.C,D2*%
X124760000Y-74491000D02*
X124760000Y-75391000D01*
X124760000Y-75391000D02*
X126760000Y-75391000D01*
X125060000Y-74191000D02*
X124760000Y-74491000D01*
X126760000Y-74191000D02*
X125060000Y-74191000D01*
X126760000Y-75391000D02*
X126760000Y-74191000D01*
%TO.C,R33*%
X149270000Y-103650000D02*
X151270000Y-103650000D01*
X149270000Y-104900000D02*
X149270000Y-103650000D01*
X151270000Y-103650000D02*
X151270000Y-104900000D01*
X151270000Y-104900000D02*
X149270000Y-104900000D01*
%TO.C,C2*%
X111170000Y-92110000D02*
X112770000Y-92110000D01*
X111170000Y-95310000D02*
X111170000Y-92110000D01*
X112770000Y-92110000D02*
X112770000Y-95310000D01*
X112770000Y-95310000D02*
X111170000Y-95310000D01*
%TO.C,R10*%
X149270000Y-109465000D02*
X151270000Y-109465000D01*
X149270000Y-110715000D02*
X149270000Y-109465000D01*
X151270000Y-109465000D02*
X151270000Y-110715000D01*
X151270000Y-110715000D02*
X149270000Y-110715000D01*
%TO.C,Q7*%
X119664800Y-85475000D02*
X119989800Y-85150000D01*
X119664800Y-88050000D02*
X119664800Y-85475000D01*
X119989800Y-85150000D02*
X120964800Y-85150000D01*
X120964800Y-85150000D02*
X120964800Y-88050000D01*
X120964800Y-88050000D02*
X119664800Y-88050000D01*
%TO.C,R20*%
X123360000Y-118125000D02*
X125360000Y-118125000D01*
X123360000Y-119375000D02*
X123360000Y-118125000D01*
X125360000Y-118125000D02*
X125360000Y-119375000D01*
X125360000Y-119375000D02*
X123360000Y-119375000D01*
%TO.C,R23*%
X148160000Y-76655000D02*
X150160000Y-76655000D01*
X148160000Y-77905000D02*
X148160000Y-76655000D01*
X150160000Y-76655000D02*
X150160000Y-77905000D01*
X150160000Y-77905000D02*
X148160000Y-77905000D01*
%TO.C,D3*%
X129155121Y-88241166D02*
X130695844Y-88959616D01*
X129662263Y-87153597D02*
X129155121Y-88241166D01*
X130695844Y-88959616D02*
X131094521Y-88814510D01*
X131094521Y-88814510D02*
X131474879Y-87998834D01*
X131474879Y-87998834D02*
X129662263Y-87153597D01*
%TO.C,R1*%
X136089000Y-74166000D02*
X138089000Y-74166000D01*
X136089000Y-75416000D02*
X136089000Y-74166000D01*
X138089000Y-74166000D02*
X138089000Y-75416000D01*
X138089000Y-75416000D02*
X136089000Y-75416000D01*
%TO.C,Q2*%
X138675000Y-100960000D02*
X139975000Y-100960000D01*
X138675000Y-103860000D02*
X138675000Y-100960000D01*
X139650000Y-103860000D02*
X138675000Y-103860000D01*
X139975000Y-100960000D02*
X139975000Y-103535000D01*
X139975000Y-103535000D02*
X139650000Y-103860000D01*
%TO.C,Q8*%
X146170000Y-85475000D02*
X146495000Y-85150000D01*
X146170000Y-88050000D02*
X146170000Y-85475000D01*
X146495000Y-85150000D02*
X147470000Y-85150000D01*
X147470000Y-85150000D02*
X147470000Y-88050000D01*
X147470000Y-88050000D02*
X146170000Y-88050000D01*
%TO.C,C1*%
X99810000Y-91630000D02*
X101410000Y-91630000D01*
X99810000Y-94830000D02*
X99810000Y-91630000D01*
X101410000Y-91630000D02*
X101410000Y-94830000D01*
X101410000Y-94830000D02*
X99810000Y-94830000D01*
%TO.C,U8*%
X127170000Y-67555000D02*
X128770000Y-67555000D01*
X127170000Y-70455000D02*
X127170000Y-67555000D01*
X128370000Y-70455000D02*
X127170000Y-70455000D01*
X128770000Y-67555000D02*
X128770000Y-70055000D01*
X128770000Y-70055000D02*
X128370000Y-70455000D01*
%TO.C,C3*%
X111170000Y-87470000D02*
X112770000Y-87470000D01*
X111170000Y-90670000D02*
X111170000Y-87470000D01*
X112770000Y-87470000D02*
X112770000Y-90670000D01*
X112770000Y-90670000D02*
X111170000Y-90670000D01*
%TO.C,R21*%
X123365000Y-114225000D02*
X125365000Y-114225000D01*
X123365000Y-115475000D02*
X123365000Y-114225000D01*
X125365000Y-114225000D02*
X125365000Y-115475000D01*
X125365000Y-115475000D02*
X123365000Y-115475000D01*
%TO.C,Q1*%
X126543738Y-101241260D02*
X126868738Y-100916260D01*
X126543738Y-103816260D02*
X126543738Y-101241260D01*
X126868738Y-100916260D02*
X127843738Y-100916260D01*
X127843738Y-100916260D02*
X127843738Y-103816260D01*
X127843738Y-103816260D02*
X126543738Y-103816260D01*
%TO.C,R18*%
X107052500Y-88400000D02*
X108302500Y-88400000D01*
X107052500Y-90400000D02*
X107052500Y-88400000D01*
X108302500Y-88400000D02*
X108302500Y-90400000D01*
X108302500Y-90400000D02*
X107052500Y-90400000D01*
%TO.C,R30*%
X120790000Y-75788334D02*
X122790000Y-75788334D01*
X120790000Y-77038334D02*
X120790000Y-75788334D01*
X122790000Y-75788334D02*
X122790000Y-77038334D01*
X122790000Y-77038334D02*
X120790000Y-77038334D01*
%TO.C,RV1*%
X88156000Y-105733000D02*
X86762000Y-104339000D01*
X88278000Y-105611000D02*
X86884000Y-104217000D01*
X89770000Y-102725000D02*
X85270000Y-102725000D01*
X85270000Y-107225000D01*
X89770000Y-107225000D01*
X89770000Y-102725000D01*
X88520000Y-104975000D02*
G75*
G02*
X86520000Y-104975000I-1000000J0D01*
G01*
X86520000Y-104975000D02*
G75*
G02*
X88520000Y-104975000I1000000J0D01*
G01*
%TO.C,R14*%
X111425000Y-96900000D02*
X112675000Y-96900000D01*
X111425000Y-98900000D02*
X111425000Y-96900000D01*
X112675000Y-96900000D02*
X112675000Y-98900000D01*
X112675000Y-98900000D02*
X111425000Y-98900000D01*
%TO.C,R15*%
X106950000Y-100340000D02*
X108200000Y-100340000D01*
X106950000Y-102340000D02*
X106950000Y-100340000D01*
X108200000Y-100340000D02*
X108200000Y-102340000D01*
X108200000Y-102340000D02*
X106950000Y-102340000D01*
%TO.C,R25*%
X149370000Y-100508571D02*
X151370000Y-100508571D01*
X149370000Y-101758571D02*
X149370000Y-100508571D01*
X151370000Y-100508571D02*
X151370000Y-101758571D01*
X151370000Y-101758571D02*
X149370000Y-101758571D01*
%TO.C,D5*%
X151520000Y-61460000D02*
X151520000Y-58460000D01*
X153170560Y-59160920D02*
X153170560Y-60761120D01*
X153170560Y-59961020D02*
X152268860Y-59961020D01*
X153170560Y-59961020D02*
X154321180Y-59160920D01*
X153170560Y-59961020D02*
X154321180Y-60710320D01*
X154321180Y-59961020D02*
X155319400Y-59961020D01*
X154321180Y-60710320D02*
X154321180Y-59160920D01*
X156120000Y-58460000D02*
X151520000Y-58460000D01*
X156120000Y-58460000D02*
X156120000Y-61460000D01*
X156120000Y-61460000D02*
X151520000Y-61460000D01*
%TO.C,U10*%
X131665000Y-67545000D02*
X133265000Y-67545000D01*
X131665000Y-70445000D02*
X131665000Y-67545000D01*
X132865000Y-70445000D02*
X131665000Y-70445000D01*
X133265000Y-67545000D02*
X133265000Y-70045000D01*
X133265000Y-70045000D02*
X132865000Y-70445000D01*
%TO.C,R28*%
X147195000Y-81800000D02*
X148445000Y-81800000D01*
X147195000Y-83800000D02*
X147195000Y-81800000D01*
X148445000Y-81800000D02*
X148445000Y-83800000D01*
X148445000Y-83800000D02*
X147195000Y-83800000D01*
%TO.C,R22*%
X148160000Y-74675000D02*
X150160000Y-74675000D01*
X148160000Y-75925000D02*
X148160000Y-74675000D01*
X150160000Y-74675000D02*
X150160000Y-75925000D01*
X150160000Y-75925000D02*
X148160000Y-75925000D01*
%TO.C,R11*%
X100005000Y-96460000D02*
X101255000Y-96460000D01*
X100005000Y-98460000D02*
X100005000Y-96460000D01*
X101255000Y-96460000D02*
X101255000Y-98460000D01*
X101255000Y-98460000D02*
X100005000Y-98460000D01*
%TO.C,U11*%
X110465000Y-83450000D02*
X110865000Y-83050000D01*
X110465000Y-85950000D02*
X110465000Y-83450000D01*
X110865000Y-83050000D02*
X112065000Y-83050000D01*
X112065000Y-83050000D02*
X112065000Y-85950000D01*
X112065000Y-85950000D02*
X110465000Y-85950000D01*
%TO.C,D4*%
X135306906Y-88300726D02*
X135687263Y-89116403D01*
X135452014Y-87902049D02*
X135306906Y-88300726D01*
X135687263Y-89116403D02*
X137499879Y-88271166D01*
X136992737Y-87183597D02*
X135452014Y-87902049D01*
X137499879Y-88271166D02*
X136992737Y-87183597D01*
%TO.C,R6*%
X150670000Y-91152143D02*
X152670000Y-91152143D01*
X150670000Y-92402143D02*
X150670000Y-91152143D01*
X152670000Y-91152143D02*
X152670000Y-92402143D01*
X152670000Y-92402143D02*
X150670000Y-92402143D01*
%TO.C,R29*%
X120790000Y-73875001D02*
X122790000Y-73875001D01*
X120790000Y-75125001D02*
X120790000Y-73875001D01*
X122790000Y-73875001D02*
X122790000Y-75125001D01*
X122790000Y-75125001D02*
X120790000Y-75125001D01*
%TO.C,R26*%
X118742400Y-81900000D02*
X119992400Y-81900000D01*
X118742400Y-83900000D02*
X118742400Y-81900000D01*
X119992400Y-81900000D02*
X119992400Y-83900000D01*
X119992400Y-83900000D02*
X118742400Y-83900000D01*
%TO.C,R9*%
X137970000Y-78320000D02*
X139220000Y-78320000D01*
X137970000Y-80320000D02*
X137970000Y-78320000D01*
X139220000Y-78320000D02*
X139220000Y-80320000D01*
X139220000Y-80320000D02*
X137970000Y-80320000D01*
%TO.C,R32*%
X149270000Y-105550000D02*
X151270000Y-105550000D01*
X149270000Y-106800000D02*
X149270000Y-105550000D01*
X151270000Y-105550000D02*
X151270000Y-106800000D01*
X151270000Y-106800000D02*
X149270000Y-106800000D01*
%TD*%
M02*
